<?xml version="1.0" encoding="UTF-8" standalone="no"?>
<!DOCTYPE svg PUBLIC "-//W3C//DTD SVG 1.1//EN" "http://www.w3.org/Graphics/SVG/1.1/DTD/svg11.dtd">
<svg width="100%" height="100%" viewBox="0 0 777 755" version="1.1" xmlns="http://www.w3.org/2000/svg" xmlns:xlink="http://www.w3.org/1999/xlink" xml:space="preserve" xmlns:serif="http://www.serif.com/" style="fill-rule:evenodd;clip-rule:evenodd;stroke-linecap:round;stroke-linejoin:round;stroke-miterlimit:1.5;">
    <g transform="matrix(1,0,0,1,-1520.91,-683.431)">
        <g>
            <path d="M2265.8,801.328C2318.23,891.126 2283.22,1009.8 2239.97,965.941C2239.97,965.941 2218.34,1018.21 2194.91,921.484C2171.48,824.759 2153.46,810.34 2101.79,758.673C2050.12,707.007 2083.77,690.786 2109,715.418C2109,715.418 2157.06,615.088 2265.8,801.328Z" style="fill:rgb(77,126,80);stroke:black;stroke-width:10px;"/>
            <path d="M2255.26,786.797L2225.24,810.913L2262.64,805.007L2255.26,786.797Z"/>
        </g>
        <path d="M1693.07,956.896C1693.07,956.896 1723.35,859.431 1757.95,863.756C1792.55,868.082 1789.67,935.549 1786.31,971.265C1782.94,1006.98 1693.07,956.896 1693.07,956.896Z" style="fill:rgb(219,188,153);stroke:black;stroke-width:10px;"/>
        <path d="M1625.6,1359.4C1693.71,1419.22 1867.43,1465.47 1956.61,1405.4C2045.79,1345.32 2068.89,1273.04 2074.7,1232.67C2080.52,1192.31 2074.7,1162.27 2074.7,1162.27C2074.7,1162.27 2139.66,1143.5 2152.8,1029.91C2165.94,916.327 2073.95,854.372 2028.89,844.985C2028.89,844.985 2030.2,815.171 1993.2,804.117C1993.2,804.117 2000.89,807.482 1996.56,822.381C1996.56,822.381 1968.68,798.965 1950.9,810.913C1950.9,810.913 1971.57,826.226 1974.45,839.202C1974.45,839.202 1902.46,813.632 1860.76,854.485C1819.06,895.337 1810.91,940.996 1810.91,940.996C1810.91,940.996 1753.22,949.648 1776.29,1021.26L1661.42,1043.37C1661.42,1043.37 1598.46,1077.49 1563.85,1159.2C1529.25,1240.9 1539.44,1283.72 1625.6,1359.4Z" style="fill:rgb(219,188,153);"/>
        <path d="M1590.95,1111.67C1590.95,1111.67 1590.95,1198.79 1655.84,1246.85C1720.72,1294.91 1801.93,1323.75 1849.04,1316.54C1896.14,1309.33 1978.45,1262.47 2012.09,1221.62C2045.74,1180.76 2045.14,1147.65 2047.54,1119.75C2047.54,1119.75 2080.58,1102.07 2088.99,1051C2097.4,999.929 2075.78,948.863 2040.93,935.646C2006.09,922.429 1946.01,942.855 1938.8,1014.35L1882.93,980.042C1882.93,980.042 1909.01,978.902 1920,941.653C1930.99,904.405 1898.07,862.952 1860.76,891.188C1823.45,919.425 1833.83,938.65 1810.91,944.657C1788.01,950.665 1768.78,954.27 1771.18,993.921C1773.59,1033.57 1775.99,1020.96 1775.99,1020.96L1658.84,1041.98C1658.84,1041.98 1609.58,1077.43 1590.95,1111.67Z" style="fill:white;"/>
        <path d="M1791.63,1030.16C1791.63,1030.16 1777.37,1029.61 1773.02,1009.17" style="fill:none;stroke:black;stroke-width:10px;"/>
        <path d="M1625.6,1359.4C1696.75,1415.58 1867.43,1465.47 1956.61,1405.4C2045.79,1345.32 2068.89,1273.04 2074.7,1232.67C2080.52,1192.31 2074.7,1162.27 2074.7,1162.27C2074.7,1162.27 2139.66,1143.5 2152.8,1029.91C2165.94,916.327 2073.95,854.372 2028.89,844.985C2028.89,844.985 2030.2,815.171 1993.2,804.117C1993.2,804.117 2000.89,807.482 1996.56,822.381C1996.56,822.381 1968.68,798.965 1950.9,810.913C1950.9,810.913 1971.57,826.226 1974.45,839.202C1974.45,839.202 1902.46,813.632 1860.76,854.485C1819.06,895.337 1810.91,940.996 1810.91,940.996C1810.91,940.996 1753.22,949.648 1776.29,1021.26L1661.42,1043.37C1661.42,1043.37 1598.46,1077.49 1563.85,1159.2C1529.25,1240.9 1548.33,1298.38 1625.6,1359.4Z" style="fill:none;stroke:black;stroke-width:10px;"/>
        <g transform="matrix(1,0,0,1,282.365,153.949)">
            <path d="M1572.88,1203.11C1545.49,1221.74 1527.82,1209.12 1528.57,1182.09C1529.32,1155.05 1539.45,1114.73 1550.35,1097.23C1558.7,1083.81 1576.63,1081.45 1596.91,1091.97C1617.19,1102.48 1632.96,1112.25 1626.95,1136.28C1620.94,1160.31 1591.65,1190.35 1572.88,1203.11Z" style="fill:rgb(255,193,0);stroke:black;stroke-width:10px;"/>
        </g>
        <g transform="matrix(1,0,0,1,-2.64338,1.11145)">
            <path d="M1572.88,1203.11C1545.49,1221.74 1527.82,1209.12 1528.57,1182.09C1529.32,1155.05 1539.45,1114.73 1550.35,1097.23C1558.7,1083.81 1576.63,1081.45 1596.91,1091.97C1617.19,1102.48 1632.96,1112.25 1626.95,1136.28C1620.94,1160.31 1591.65,1190.35 1572.88,1203.11Z" style="fill:rgb(255,193,0);stroke:black;stroke-width:10px;"/>
        </g>
        <g>
            <path d="M1630.18,1003.45C1630.18,1003.45 1622.87,1042.49 1618.26,1045.01C1618.26,1045.01 1706.69,1075.92 1777.44,1020C1765.34,993.711 1768.89,969.157 1785.13,946.013L1693.62,934.478C1693.62,934.478 1675.93,988.692 1673.63,1015.61C1673.63,1015.61 1652.86,1019.36 1630.18,1003.45Z" style="fill:rgb(186,80,46);"/>
            <path d="M1625.57,1027.91C1625.57,1027.91 1697.47,1055.66 1778.98,1008.91L1777.06,1022.53C1777.06,1022.53 1721.5,1072.49 1618.26,1045.01L1625.57,1027.91Z" style="fill:white;"/>
            <path d="M1630.18,1003.45C1630.18,1003.45 1622.87,1042.49 1618.26,1045.01C1618.26,1045.01 1706.69,1075.92 1777.44,1020C1766.65,1000.78 1767.57,976.786 1785.13,946.013L1693.62,934.478C1693.62,934.478 1675.93,988.692 1673.63,1015.61C1673.63,1015.61 1652.86,1019.36 1630.18,1003.45Z" style="fill:none;stroke:black;stroke-width:10px;"/>
        </g>
        <path d="M1849.04,1148.13C1885.82,1164.05 1932.85,1163.2 1949.15,1140.75C1965.45,1118.3 1944.84,1120.28 1915.31,1119.75C1885.78,1119.22 1833.8,1097.69 1823.34,1074.62C1812.88,1051.55 1783.97,1036.17 1786.74,1076.46C1789.51,1116.76 1831.98,1140.75 1849.04,1148.13Z" style="fill:rgb(223,247,255);"/>
        <g>
            <path d="M1870.39,997.213C1859.66,989.38 1878.08,971.608 1907.3,975.798C1936.52,979.988 1947.9,1024.28 1928.22,1019.67C1908.53,1015.05 1889.77,1011.36 1870.39,997.213Z" style="fill:rgb(255,193,0);stroke:black;stroke-width:10px;"/>
            <g>
                <path d="M1879,1003.67C1879,1003.67 1871.32,1039.97 1891,1047.04C1910.68,1054.12 1930.68,1034.18 1933.76,1020C1933.76,1020 1887.92,1001.21 1879,1003.67Z"/>
                <path d="M1880.39,1021.28C1880.39,1021.28 1887.82,1018.76 1893.99,1021.53C1900.17,1024.3 1899.16,1029.21 1901.3,1030.22C1903.44,1031.23 1909.62,1022.41 1916.67,1025.44C1923.73,1028.46 1927.76,1037.66 1914.15,1044.33C1900.55,1051.01 1882.4,1052.78 1880.39,1021.28Z" style="fill:rgb(255,116,142);"/>
                <path d="M1879,1003.67C1879,1003.67 1871.32,1039.97 1891,1047.04C1910.68,1054.12 1930.68,1034.18 1933.76,1020C1933.76,1020 1887.92,1001.21 1879,1003.67Z" style="fill:none;stroke:black;stroke-width:10px;"/>
            </g>
            <g transform="matrix(0.951707,0.307009,-0.307009,0.951707,413.812,-564.933)">
                <ellipse cx="1994.9" cy="1065.5" rx="29.798" ry="14.5" style="fill:rgb(223,106,106);"/>
            </g>
            <g transform="matrix(0.951707,0.307009,-0.307009,0.951707,257.61,-634.142)">
                <ellipse cx="1994.9" cy="1065.5" rx="29.798" ry="14.5" style="fill:rgb(223,106,106);"/>
            </g>
            <path d="M1852.82,942.608C1866.98,943.458 1882.42,957.57 1882.11,965.759C1881.79,973.949 1876.12,972.059 1867.78,966.232C1859.43,960.404 1850.45,953.947 1842.58,960.719C1834.7,967.492 1826.04,960.877 1832.03,952.215C1838.01,943.553 1844.94,942.136 1852.82,942.608Z"/>
            <path d="M2000.57,994.986C2013.23,998.519 2025.58,1014.67 2025.38,1027.86C2025.18,1041.05 2020.26,1034.75 2010.22,1022.74C2000.18,1010.74 1983.64,1004.52 1975.57,1010.88C1967.5,1017.23 1957.46,1010.54 1967.7,1001.88C1977.93,993.214 1992.11,992.623 2000.57,994.986Z"/>
        </g>
        <g>
            <path d="M2149.37,1106.04C2149.37,1106.04 2182.28,1055.29 2205.04,1068.51C2227.8,1081.74 2228.42,1124.92 2174.28,1185.09L2149.37,1106.04Z" style="fill:rgb(219,188,153);stroke:black;stroke-width:10px;"/>
            <path d="M2154.07,1083.23C2154.07,1083.23 2192.11,1135.83 2189.65,1197.65C2189.65,1197.65 2131.82,1251.79 2076.46,1269.02C2076.46,1269.02 2064.15,1304.7 2086.3,1349.3C2086.3,1349.3 2042.93,1373.29 2003.25,1337.61C1963.57,1301.93 1968.8,1265.02 1992.48,1225.34C2016.17,1185.66 2048.47,1137.37 2063.85,1131.21L2154.07,1083.23Z" style="fill:rgb(186,80,46);"/>
            <path d="M2072.77,1129.98C2072.77,1129.98 2005.71,1216.73 2003.87,1265.02C2002.02,1313.31 2027.86,1333.92 2077.69,1326.85L2087.22,1348.99C2087.22,1348.99 2042.01,1370.52 2002.94,1339.46C1963.88,1308.39 1974.03,1267.17 1990.02,1230.26C2006.02,1193.35 2040.16,1142.29 2072.77,1129.98Z" style="fill:white;"/>
            <path d="M2154.07,1083.23C2154.07,1083.23 2192.11,1135.83 2189.65,1197.65C2189.65,1197.65 2131.82,1251.79 2076.46,1269.02C2076.46,1269.02 2064.15,1304.7 2086.3,1349.3C2086.3,1349.3 2042.93,1373.29 2003.25,1337.61C1963.57,1301.93 1968.8,1265.02 1992.48,1225.34C2016.17,1185.66 2048.47,1137.37 2063.85,1131.21L2154.07,1083.23Z" style="fill:none;stroke:black;stroke-width:10px;"/>
            <path d="M2046.83,1276.24C2046.83,1276.24 2076.26,1269.7 2081.91,1267.19" style="fill:none;stroke:black;stroke-width:10px;"/>
        </g>
    </g>
</svg>
