<?xml version="1.0" encoding="UTF-8" standalone="no"?>
<!DOCTYPE svg PUBLIC "-//W3C//DTD SVG 1.1//EN" "http://www.w3.org/Graphics/SVG/1.1/DTD/svg11.dtd">
<svg width="100%" height="100%" viewBox="0 0 834 1088" version="1.1" xmlns="http://www.w3.org/2000/svg" xmlns:xlink="http://www.w3.org/1999/xlink" xml:space="preserve" xmlns:serif="http://www.serif.com/" style="fill-rule:evenodd;clip-rule:evenodd;stroke-linecap:round;stroke-linejoin:round;stroke-miterlimit:1.5;">
    <g id="FrenchieMama" transform="matrix(-1,0,0,1,3139.77,-1662.52)">
        <g>
            <g id="Feet---Left" serif:id="Feet - Left" transform="matrix(-1.14724,1.10791,0.528216,0.546971,4295.43,-23.5699)">
                <ellipse cx="1737.46" cy="1434.15" rx="47" ry="59.608" style="fill:rgb(255,117,71);"/>
            </g>
            <g transform="matrix(-1,0,0,1,4757.65,1177.8)">
                <path d="M1678.78,1446.58C1678.78,1446.58 1636.2,1438.97 1635.53,1478.34C1635.07,1505.7 1661.13,1535.18 1666.19,1539.31C1672.35,1544.32 1678.44,1541.21 1663.88,1520.31C1641.97,1488.85 1643.6,1472.15 1652.83,1464.01C1666.93,1451.58 1670.7,1448.08 1678.78,1446.58Z" style="fill:rgb(243,180,87);"/>
            </g>
            <g id="Feet---Left1" serif:id="Feet - Left" transform="matrix(-1.14724,1.10791,0.528216,0.546971,4295.43,-23.5699)">
                <ellipse cx="1737.46" cy="1434.15" rx="47" ry="59.608" style="fill:none;stroke:black;stroke-width:4px;"/>
            </g>
        </g>
        <g transform="matrix(0.99733,-0.0730236,0.0730236,0.99733,-133.947,176.272)">
            <g id="Flipper---Left" serif:id="Flipper - Left" transform="matrix(-0.680205,0.823006,0.823006,0.680205,3200.18,-20.2897)">
                <g id="Flipper---Colour" serif:id="Flipper - Colour" transform="matrix(-0.0019325,0.999998,0.999998,0.0019325,1030.81,-643.464)">
                    <path d="M1641.28,984.352C1620,990.199 1587.92,1027.73 1568.46,1053.83C1552.03,1075.87 1543.1,1095.79 1532.69,1120.21C1527.02,1133.5 1535.97,1143.23 1546.48,1150.93C1557.07,1158.7 1578.02,1173.45 1593.77,1162.56C1617.78,1145.97 1635.86,1127.38 1651.19,1110.45C1687.13,1070.77 1700.92,1025.32 1700.92,1025.32" style="fill:rgb(24,27,43);"/>
                </g>
                <g transform="matrix(0.122032,-0.778451,0.778451,0.122032,939.024,2362.8)">
                    <path d="M1920,1077.36C1920,1077.36 1969.31,1088.96 2031.21,1156.63C2093.12,1224.3 2085.23,1221.52 2086.58,1228.23C2087.92,1234.95 2086,1251.87 2081,1254.94C2081,1254.94 2073.9,1227.8 2034.86,1183.43C2015.87,1161.85 1985.46,1123.18 1958.55,1107.8C1931.63,1092.42 1914.52,1084.98 1920,1077.36Z" style="fill:white;fill-opacity:0.3;"/>
                </g>
                <g id="Flipper---Frame" serif:id="Flipper - Frame" transform="matrix(-0.0019325,0.999998,0.999998,0.0019325,1030.81,-643.464)">
                    <path d="M1641.28,984.352C1618.9,991.619 1589.26,1025.93 1568.46,1053.83C1552.22,1075.61 1542.16,1093.18 1531.74,1117.43C1525.39,1132.21 1536.34,1143.42 1547.19,1150.95C1574.26,1169.74 1582.74,1169.84 1596.67,1161.05C1612.38,1151.14 1631.16,1133.08 1658.06,1101.12C1685.81,1068.15 1699.8,1031.88 1699.8,1031.88" style="fill:none;stroke:black;stroke-width:4.68px;"/>
                </g>
            </g>
            <g transform="matrix(0.99733,0.0730236,-0.0730236,0.99733,709.397,503.42)">
                <path d="M2026.84,1662.72C2026.84,1662.72 1940.01,1672.86 1901.24,1706.18C1901.24,1706.18 1909.57,1794.19 1925.91,1798.09C1942.25,1801.99 1978.14,1792.79 1978.14,1792.79C1978.14,1792.79 2072.98,1673.4 2026.84,1662.72Z" style="fill:rgb(125,126,126);"/>
                <path d="M1901.24,1719.64C1901.24,1719.64 1993.51,1679.26 2037.09,1671C2039.73,1670.5 2030.59,1666.35 2032.93,1666.13C2032.93,1666.13 2026.2,1656.2 1974.29,1670.94C1922.38,1685.68 1901.24,1707.79 1901.24,1707.79L1901.24,1719.64Z" style="fill:white;fill-opacity:0.2;"/>
                <path d="M2026.84,1662.72C2026.84,1662.72 1940.01,1672.86 1901.24,1706.18C1901.24,1706.18 1909.57,1794.19 1925.91,1798.09C1942.25,1801.99 1978.14,1792.79 1978.14,1792.79C1978.14,1792.79 2072.98,1673.4 2026.84,1662.72Z" style="fill:none;stroke:black;stroke-width:5px;"/>
            </g>
            <g transform="matrix(1.06358,-0.397875,0.397875,1.06358,1802.97,2097.34)">
                <g transform="matrix(-0.996258,0.0864331,0.0864331,0.996258,706.692,-32.9663)">
                    <path d="M250.551,474.986C250.551,474.986 235.698,363.851 161.236,313.883C161.236,313.883 177.604,356.484 180.473,373.009C184.6,396.783 210.822,424.89 217.589,432.477C224.356,440.064 248.857,465.614 250.551,474.986Z" style="fill:rgb(183,180,74);stroke:black;stroke-width:2.64px;"/>
                    <path d="M176.923,338.378C176.923,338.378 225.625,415.277 239.723,452.766" style="fill:none;stroke:rgb(161,162,44);stroke-width:2.64px;"/>
                </g>
                <g transform="matrix(0.991501,0.130096,-0.130096,0.991501,304.043,-59.2959)">
                    <path d="M266,486.018C266,486.018 274.618,456.284 288.716,438.34C302.814,420.397 305.121,390.663 301.276,378.616C301.276,378.616 295.124,396.559 285.384,406.812C275.643,417.065 260.714,437.571 266,486.018" style="fill:rgb(115,116,64);stroke:black;stroke-width:2.64px;"/>
                    <path d="M297.175,400.404C297.175,400.404 289.474,419.5 283.917,426.293C274.427,437.892 270.773,460.385 270.773,460.385" style="fill:none;stroke:rgb(97,96,67);stroke-width:2.64px;"/>
                </g>
                <g transform="matrix(-0.991501,0.130096,0.130096,0.991501,707.51,-99.8715)">
                    <path d="M266,486.018C266,486.018 274.618,456.284 288.716,438.34C302.814,420.397 305.121,390.663 301.276,378.616C301.276,378.616 295.124,396.559 285.384,406.812C275.643,417.065 260.714,437.571 266,486.018" style="fill:rgb(115,116,64);stroke:black;stroke-width:2.64px;"/>
                    <path d="M297.175,400.404C297.175,400.404 289.474,419.5 283.917,426.293C274.427,437.892 270.773,460.385 270.773,460.385" style="fill:none;stroke:rgb(97,96,67);stroke-width:2.64px;"/>
                </g>
                <g transform="matrix(0.976904,0.21368,-0.21368,0.976904,355.089,-28.8205)">
                    <path d="M250.551,474.986C250.551,474.986 235.698,363.851 161.236,313.883C161.236,313.883 177.604,356.484 180.473,373.009C184.6,396.783 210.822,424.89 217.589,432.477C224.356,440.064 248.857,465.614 250.551,474.986Z" style="fill:rgb(131,122,57);stroke:black;stroke-width:2.64px;"/>
                    <path d="M176.923,338.378C176.923,338.378 225.625,415.277 239.723,452.766" style="fill:none;stroke:rgb(185,182,67);stroke-width:2.64px;"/>
                </g>
                <g transform="matrix(-0.968348,0.249603,0.249603,0.968348,708.681,45.6153)">
                    <path d="M302.964,50.991C302.964,50.991 282.379,145.555 270.788,246.538C265.141,295.745 319.858,378.395 346.843,419.033" style="fill:none;stroke:black;stroke-width:13.21px;"/>
                    <path d="M302.964,50.991C302.964,50.991 282.379,145.555 270.788,246.538C265.141,295.745 319.858,378.395 346.843,419.033" style="fill:none;stroke:rgb(182,181,73);stroke-width:8.81px;"/>
                    <g transform="matrix(1,0,0,1,3.27305,0)">
                        <path d="M268.422,147.314C268.422,147.314 268.829,129.76 275.555,130.012C282.281,130.264 284.213,142.611 284.213,142.611C284.213,142.611 290.613,130.012 296.064,132.615C301.516,135.219 297.064,147.314 297.064,147.314C297.064,147.314 304.456,138.411 308.403,141.351C312.351,144.291 304.956,161.358 296.064,169.069C289.396,174.851 281.189,178.308 276.318,177.972C271.446,177.636 261.331,171.616 256.327,162.433C251.621,153.799 245.996,134.799 254.143,131.607C262.29,128.416 268.422,147.314 268.422,147.314Z" style="fill:rgb(178,137,208);stroke:black;stroke-width:2.64px;"/>
                        <g transform="matrix(0.76191,0.651304,-0.717373,0.899029,101.067,-72.2994)">
                            <path d="M295.462,42.708L296.564,51.842" style="fill:none;stroke:rgb(115,83,159);stroke-width:2.41px;"/>
                        </g>
                        <g transform="matrix(0.94535,0.333191,-0.345442,1.09706,20.7429,9.11753)">
                            <path d="M295.462,42.708L296.564,51.842" style="fill:none;stroke:rgb(115,83,159);stroke-width:2.41px;"/>
                        </g>
                        <g transform="matrix(0.991557,0.173987,-0.12986,1.38096,-12.4761,41.6139)">
                            <path d="M295.462,42.708L296.564,51.842" style="fill:none;stroke:rgb(115,83,159);stroke-width:2.1px;"/>
                        </g>
                        <g transform="matrix(0.945087,-0.335608,0.440916,1.09788,-35.8706,208.387)">
                            <path d="M295.462,42.708L296.564,51.842" style="fill:none;stroke:rgb(115,83,159);stroke-width:2.36px;"/>
                        </g>
                    </g>
                    <g transform="matrix(0.993558,0.113324,-0.113324,0.993558,19.7291,-32.5302)">
                        <path d="M280.451,87.614C280.451,87.614 280.451,70.186 288.535,70.816C296.62,71.446 295.983,84.99 295.462,89.294C295.462,89.294 305.229,74.28 311.004,79.32C316.779,84.36 309.639,102.313 303.339,109.873C297.04,117.432 291.79,122.157 285.491,121.842C279.191,121.527 269.713,113.548 266,102.103C263.564,94.594 262.077,72.705 269.007,71.76C275.936,70.816 280.451,87.614 280.451,87.614Z" style="fill:rgb(178,137,208);stroke:black;stroke-width:2.64px;"/>
                        <g transform="matrix(0.858298,0.517714,-0.560432,1.00439,68.4916,-95.3173)">
                            <path d="M295.462,42.708L296.564,51.842" style="fill:none;stroke:rgb(115,83,159);stroke-width:2.41px;"/>
                        </g>
                        <g transform="matrix(0.991294,0.148456,-0.131803,1.14259,-0.529922,4.53013)">
                            <path d="M295.462,42.708L296.564,51.842" style="fill:none;stroke:rgb(115,83,159);stroke-width:2.41px;"/>
                        </g>
                        <g transform="matrix(0.986132,-0.179573,0.244184,1.12394,-26.2378,103.648)">
                            <path d="M295.462,42.708L296.564,51.842" style="fill:none;stroke:rgb(115,83,159);stroke-width:2.41px;"/>
                        </g>
                    </g>
                    <g transform="matrix(0.992116,0.125326,-0.125326,0.992116,12.0921,-44.0129)">
                        <path d="M301.446,44.44C301.446,44.44 311.841,30.896 317.353,35.148C322.865,39.4 315.148,53.732 309.951,58.614C304.754,63.496 300.816,64.126 298.297,63.496C295.777,62.866 289.162,56.252 287.902,49.795C286.642,43.338 284.91,29.636 291.052,28.849C297.194,28.061 301.131,38.455 301.446,44.44Z" style="fill:rgb(178,137,208);stroke:black;stroke-width:2.64px;"/>
                        <path d="M295.462,42.708L296.564,51.842" style="fill:none;stroke:rgb(115,83,159);stroke-width:2.64px;"/>
                        <g transform="matrix(0.811115,0.584886,-0.584886,0.811115,94.314,-161.065)">
                            <path d="M295.462,42.708L296.564,51.842" style="fill:none;stroke:rgb(115,83,159);stroke-width:2.64px;"/>
                        </g>
                    </g>
                </g>
                <g transform="matrix(-0.998715,0.0506691,0.0506691,0.998715,765.37,88.7021)">
                    <path d="M302.964,50.991C302.964,50.991 261.933,168.223 271.948,306.368C273.698,330.504 303.841,410.678 313.344,440.989" style="fill:none;stroke:black;stroke-width:13.21px;"/>
                    <path d="M302.964,50.991C302.964,50.991 261.933,168.223 271.948,306.368C273.698,330.504 303.841,410.678 313.344,440.989" style="fill:none;stroke:rgb(128,126,50);stroke-width:8.81px;"/>
                    <g>
                        <path d="M268.422,147.314C268.422,147.314 268.829,129.76 275.555,130.012C282.281,130.264 284.213,142.611 284.213,142.611C284.213,142.611 290.613,130.012 296.064,132.615C301.516,135.219 297.064,147.314 297.064,147.314C297.064,147.314 304.456,138.411 308.403,141.351C312.351,144.291 304.956,161.358 296.064,169.069C289.396,174.851 281.189,178.308 276.318,177.972C271.446,177.636 261.331,171.616 256.327,162.433C251.621,153.799 245.996,134.799 254.143,131.607C262.29,128.416 268.422,147.314 268.422,147.314Z" style="fill:rgb(115,83,159);stroke:black;stroke-width:2.64px;"/>
                        <g transform="matrix(0.76191,0.651304,-0.717373,0.899029,101.067,-72.2994)">
                            <path d="M295.462,42.708L296.564,51.842" style="fill:none;stroke:rgb(178,137,208);stroke-width:2.41px;"/>
                        </g>
                        <g transform="matrix(0.94535,0.333191,-0.345442,1.09706,20.7429,9.11753)">
                            <path d="M295.462,42.708L296.564,51.842" style="fill:none;stroke:rgb(178,137,208);stroke-width:2.41px;"/>
                        </g>
                        <g transform="matrix(0.991557,0.173987,-0.12986,1.38096,-12.4761,41.6139)">
                            <path d="M295.462,42.708L296.564,51.842" style="fill:none;stroke:rgb(178,137,208);stroke-width:2.1px;"/>
                        </g>
                        <g transform="matrix(0.945087,-0.335608,0.440916,1.09788,-35.8706,208.387)">
                            <path d="M295.462,42.708L296.564,51.842" style="fill:none;stroke:rgb(178,137,208);stroke-width:2.36px;"/>
                        </g>
                    </g>
                    <g transform="matrix(0.993558,0.113324,-0.113324,0.993558,17.2683,-32.7352)">
                        <path d="M280.451,87.614C280.451,87.614 280.451,70.186 288.535,70.816C296.62,71.446 295.983,84.99 295.462,89.294C295.462,89.294 305.229,74.28 311.004,79.32C316.779,84.36 309.639,102.313 303.339,109.873C297.04,117.432 291.79,122.157 285.491,121.842C279.191,121.527 269.713,113.548 266,102.103C263.564,94.594 262.077,72.705 269.007,71.76C275.936,70.816 280.451,87.614 280.451,87.614Z" style="fill:rgb(115,83,159);stroke:black;stroke-width:2.64px;"/>
                        <g transform="matrix(0.858298,0.517714,-0.560432,1.00439,68.4916,-95.3173)">
                            <path d="M295.462,42.708L296.564,51.842" style="fill:none;stroke:rgb(178,137,208);stroke-width:2.41px;"/>
                        </g>
                        <g transform="matrix(0.991294,0.148456,-0.131803,1.14259,-0.529922,4.53013)">
                            <path d="M295.462,42.708L296.564,51.842" style="fill:none;stroke:rgb(178,137,208);stroke-width:2.41px;"/>
                        </g>
                        <g transform="matrix(0.986132,-0.179573,0.244184,1.12394,-26.2378,103.648)">
                            <path d="M295.462,42.708L296.564,51.842" style="fill:none;stroke:rgb(178,137,208);stroke-width:2.41px;"/>
                        </g>
                    </g>
                    <g transform="matrix(0.993558,0.113324,-0.113324,0.993558,-2.90423,84.1836)">
                        <path d="M280.451,87.614C280.451,87.614 280.451,70.186 288.535,70.816C296.62,71.446 295.983,84.99 295.462,89.294C295.462,89.294 305.229,74.28 311.004,79.32C316.779,84.36 309.639,102.313 303.339,109.873C297.04,117.432 291.79,122.157 285.491,121.842C279.191,121.527 269.713,113.548 266,102.103C263.564,94.594 262.077,72.705 269.007,71.76C275.936,70.816 280.451,87.614 280.451,87.614Z" style="fill:rgb(115,83,159);stroke:black;stroke-width:2.64px;"/>
                        <g transform="matrix(0.858298,0.517714,-0.560432,1.00439,68.4916,-95.3173)">
                            <path d="M295.462,42.708L296.564,51.842" style="fill:none;stroke:rgb(178,137,208);stroke-width:2.41px;"/>
                        </g>
                        <g transform="matrix(0.991294,0.148456,-0.131803,1.14259,-0.529922,4.53013)">
                            <path d="M295.462,42.708L296.564,51.842" style="fill:none;stroke:rgb(178,137,208);stroke-width:2.41px;"/>
                        </g>
                        <g transform="matrix(0.986132,-0.179573,0.244184,1.12394,-26.2378,103.648)">
                            <path d="M295.462,42.708L296.564,51.842" style="fill:none;stroke:rgb(178,137,208);stroke-width:2.41px;"/>
                        </g>
                    </g>
                    <g transform="matrix(0.992116,0.125326,-0.125326,0.992116,12.0921,-44.0129)">
                        <path d="M301.446,44.44C301.446,44.44 311.841,30.896 317.353,35.148C322.865,39.4 315.148,53.732 309.951,58.614C304.754,63.496 300.816,64.126 298.297,63.496C295.777,62.866 289.162,56.252 287.902,49.795C286.642,43.338 284.91,29.636 291.052,28.849C297.194,28.061 301.131,38.455 301.446,44.44Z" style="fill:rgb(115,83,159);stroke:black;stroke-width:2.64px;"/>
                        <path d="M295.462,42.708L296.564,51.842" style="fill:none;stroke:rgb(178,137,208);stroke-width:2.64px;"/>
                        <g transform="matrix(0.811115,0.584886,-0.584886,0.811115,94.314,-161.065)">
                            <path d="M295.462,42.708L296.564,51.842" style="fill:none;stroke:rgb(178,137,208);stroke-width:2.64px;"/>
                        </g>
                    </g>
                </g>
                <g transform="matrix(1,0,0,1,247.367,94.1211)">
                    <path d="M302.964,50.991C302.964,50.991 272.29,191.899 264.747,313.386C263.099,339.918 243.235,407.733 227.406,450.88" style="fill:none;stroke:black;stroke-width:13.21px;"/>
                    <path d="M302.964,50.991C302.964,50.991 272.29,191.899 264.747,313.386C263.099,339.918 243.235,407.733 227.406,450.88" style="fill:none;stroke:rgb(182,181,73);stroke-width:8.81px;"/>
                    <g transform="matrix(1,0,0,1,3.27305,0)">
                        <path d="M268.422,147.314C268.422,147.314 268.829,129.76 275.555,130.012C282.281,130.264 284.213,142.611 284.213,142.611C284.213,142.611 290.613,130.012 296.064,132.615C301.516,135.219 297.064,147.314 297.064,147.314C297.064,147.314 304.456,138.411 308.403,141.351C312.351,144.291 304.956,161.358 296.064,169.069C289.396,174.851 281.189,178.308 276.318,177.972C271.446,177.636 261.331,171.616 256.327,162.433C251.621,153.799 245.996,134.799 254.143,131.607C262.29,128.416 268.422,147.314 268.422,147.314Z" style="fill:rgb(178,137,208);stroke:black;stroke-width:2.64px;"/>
                        <g transform="matrix(0.76191,0.651304,-0.717373,0.899029,101.067,-72.2994)">
                            <path d="M295.462,42.708L296.564,51.842" style="fill:none;stroke:rgb(115,83,159);stroke-width:2.41px;"/>
                        </g>
                        <g transform="matrix(0.94535,0.333191,-0.345442,1.09706,20.7429,9.11753)">
                            <path d="M295.462,42.708L296.564,51.842" style="fill:none;stroke:rgb(115,83,159);stroke-width:2.41px;"/>
                        </g>
                        <g transform="matrix(0.991557,0.173987,-0.12986,1.38096,-12.4761,41.6139)">
                            <path d="M295.462,42.708L296.564,51.842" style="fill:none;stroke:rgb(115,83,159);stroke-width:2.1px;"/>
                        </g>
                        <g transform="matrix(0.945087,-0.335608,0.440916,1.09788,-35.8706,208.387)">
                            <path d="M295.462,42.708L296.564,51.842" style="fill:none;stroke:rgb(115,83,159);stroke-width:2.36px;"/>
                        </g>
                    </g>
                    <g transform="matrix(0.993558,0.113324,-0.113324,0.993558,19.7291,-32.5302)">
                        <path d="M280.451,87.614C280.451,87.614 280.451,70.186 288.535,70.816C296.62,71.446 295.983,84.99 295.462,89.294C295.462,89.294 305.229,74.28 311.004,79.32C316.779,84.36 309.639,102.313 303.339,109.873C297.04,117.432 291.79,122.157 285.491,121.842C279.191,121.527 269.713,113.548 266,102.103C263.564,94.594 262.077,72.705 269.007,71.76C275.936,70.816 280.451,87.614 280.451,87.614Z" style="fill:rgb(178,137,208);stroke:black;stroke-width:2.64px;"/>
                        <g transform="matrix(0.858298,0.517714,-0.560432,1.00439,68.4916,-95.3173)">
                            <path d="M295.462,42.708L296.564,51.842" style="fill:none;stroke:rgb(115,83,159);stroke-width:2.41px;"/>
                        </g>
                        <g transform="matrix(0.991294,0.148456,-0.131803,1.14259,-0.529922,4.53013)">
                            <path d="M295.462,42.708L296.564,51.842" style="fill:none;stroke:rgb(115,83,159);stroke-width:2.41px;"/>
                        </g>
                        <g transform="matrix(0.986132,-0.179573,0.244184,1.12394,-26.2378,103.648)">
                            <path d="M295.462,42.708L296.564,51.842" style="fill:none;stroke:rgb(115,83,159);stroke-width:2.41px;"/>
                        </g>
                    </g>
                    <g transform="matrix(0.992116,0.125326,-0.125326,0.992116,12.0921,-44.0129)">
                        <path d="M301.446,44.44C301.446,44.44 311.841,30.896 317.353,35.148C322.865,39.4 315.148,53.732 309.951,58.614C304.754,63.496 300.816,64.126 298.297,63.496C295.777,62.866 289.162,56.252 287.902,49.795C286.642,43.338 284.91,29.636 291.052,28.849C297.194,28.061 301.131,38.455 301.446,44.44Z" style="fill:rgb(178,137,208);stroke:black;stroke-width:2.64px;"/>
                        <path d="M295.462,42.708L296.564,51.842" style="fill:none;stroke:rgb(115,83,159);stroke-width:2.64px;"/>
                        <g transform="matrix(0.811115,0.584886,-0.584886,0.811115,94.314,-161.065)">
                            <path d="M295.462,42.708L296.564,51.842" style="fill:none;stroke:rgb(115,83,159);stroke-width:2.64px;"/>
                        </g>
                    </g>
                </g>
                <g transform="matrix(0.986431,-0.164177,0.164177,0.986431,182.525,161.662)">
                    <path d="M316.361,-17.012C316.361,-17.012 278.519,203.294 259.608,335.134C254.92,367.816 239.425,391.676 216.711,420.623" style="fill:none;stroke:black;stroke-width:13.21px;"/>
                    <path d="M316.361,-17.012C316.361,-17.012 278.519,203.294 259.608,335.134C254.92,367.816 239.425,391.676 216.711,420.623" style="fill:none;stroke:rgb(100,98,76);stroke-width:8.81px;"/>
                    <g transform="matrix(1,0,0,1,3.27305,0)">
                        <path d="M268.422,147.314C268.422,147.314 268.829,129.76 275.555,130.012C282.281,130.264 284.213,142.611 284.213,142.611C284.213,142.611 290.613,130.012 296.064,132.615C301.516,135.219 297.064,147.314 297.064,147.314C297.064,147.314 304.456,138.411 308.403,141.351C312.351,144.291 304.956,161.358 296.064,169.069C289.396,174.851 281.189,178.308 276.318,177.972C271.446,177.636 261.331,171.616 256.327,162.433C251.621,153.799 245.996,134.799 254.143,131.607C262.29,128.416 268.422,147.314 268.422,147.314Z" style="fill:rgb(196,119,210);stroke:black;stroke-width:2.64px;"/>
                        <g transform="matrix(0.76191,0.651304,-0.717373,0.899029,101.067,-72.2994)">
                            <path d="M295.462,42.708L296.564,51.842" style="fill:none;stroke:rgb(144,89,162);stroke-width:2.41px;"/>
                        </g>
                        <g transform="matrix(0.94535,0.333191,-0.345442,1.09706,20.7429,9.11753)">
                            <path d="M295.462,42.708L296.564,51.842" style="fill:none;stroke:rgb(144,89,162);stroke-width:2.41px;"/>
                        </g>
                        <g transform="matrix(0.991557,0.173987,-0.12986,1.38096,-12.4761,41.6139)">
                            <path d="M295.462,42.708L296.564,51.842" style="fill:none;stroke:rgb(144,89,162);stroke-width:2.1px;"/>
                        </g>
                        <g transform="matrix(0.945087,-0.335608,0.440916,1.09788,-35.8706,208.387)">
                            <path d="M295.462,42.708L296.564,51.842" style="fill:none;stroke:rgb(144,89,162);stroke-width:2.36px;"/>
                        </g>
                    </g>
                    <g transform="matrix(0.993558,0.113324,-0.113324,0.993558,19.7291,-32.5302)">
                        <path d="M280.451,87.614C280.451,87.614 280.451,70.186 288.535,70.816C296.62,71.446 295.983,84.99 295.462,89.294C295.462,89.294 305.229,74.28 311.004,79.32C316.779,84.36 309.639,102.313 303.339,109.873C297.04,117.432 291.79,122.157 285.491,121.842C279.191,121.527 269.713,113.548 266,102.103C263.564,94.594 262.077,72.705 269.007,71.76C275.936,70.816 280.451,87.614 280.451,87.614Z" style="fill:rgb(196,119,210);stroke:black;stroke-width:2.64px;"/>
                        <g transform="matrix(0.858298,0.517714,-0.560432,1.00439,68.4916,-95.3173)">
                            <path d="M295.462,42.708L296.564,51.842" style="fill:none;stroke:rgb(144,89,162);stroke-width:2.41px;"/>
                        </g>
                        <g transform="matrix(0.991294,0.148456,-0.131803,1.14259,-0.529922,4.53013)">
                            <path d="M295.462,42.708L296.564,51.842" style="fill:none;stroke:rgb(144,89,162);stroke-width:2.41px;"/>
                        </g>
                        <g transform="matrix(0.986132,-0.179573,0.244184,1.12394,-26.2378,103.648)">
                            <path d="M295.462,42.708L296.564,51.842" style="fill:none;stroke:rgb(144,89,162);stroke-width:2.41px;"/>
                        </g>
                    </g>
                    <g transform="matrix(0.992116,0.125326,-0.125326,0.992116,12.0921,-44.0129)">
                        <path d="M301.446,44.44C301.446,44.44 311.841,30.896 317.353,35.148C322.865,39.4 315.148,53.732 309.951,58.614C304.754,63.496 300.816,64.126 298.297,63.496C295.777,62.866 289.162,56.252 287.902,49.795C286.642,43.338 284.91,29.636 291.052,28.849C297.194,28.061 301.131,38.455 301.446,44.44Z" style="fill:rgb(196,119,210);stroke:black;stroke-width:2.64px;"/>
                        <path d="M295.462,42.708L296.564,51.842" style="fill:none;stroke:rgb(144,89,162);stroke-width:2.64px;"/>
                        <g transform="matrix(0.811115,0.584886,-0.584886,0.811115,94.314,-161.065)">
                            <path d="M295.462,42.708L296.564,51.842" style="fill:none;stroke:rgb(144,89,162);stroke-width:2.64px;"/>
                        </g>
                    </g>
                    <g transform="matrix(0.986431,0.164177,-0.164177,0.986431,-171.811,-165.596)">
                        <g transform="matrix(0.771232,0,0,0.771232,113.667,27.1761)">
                            <ellipse cx="508.327" cy="68.372" rx="12.488" ry="23.326" style="fill:rgb(196,119,210);stroke:black;stroke-width:3.43px;"/>
                        </g>
                        <g transform="matrix(0.994334,0.106297,-0.106297,0.994334,216.392,1.34526)">
                            <path d="M295.462,42.708L296.564,51.842" style="fill:none;stroke:rgb(144,89,162);stroke-width:2.64px;"/>
                        </g>
                    </g>
                </g>
                <g transform="matrix(0.952247,0.305329,-0.305329,0.952247,345.745,34.4618)">
                    <path d="M302.964,50.991C302.964,50.991 237.659,279.11 273.679,446.521" style="fill:none;stroke:black;stroke-width:13.21px;"/>
                    <path d="M302.964,50.991C302.964,50.991 237.659,279.11 273.679,446.521" style="fill:none;stroke:rgb(128,126,50);stroke-width:8.81px;"/>
                    <g>
                        <path d="M268.422,147.314C268.422,147.314 268.829,129.76 275.555,130.012C282.281,130.264 284.213,142.611 284.213,142.611C284.213,142.611 290.613,130.012 296.064,132.615C301.516,135.219 297.064,147.314 297.064,147.314C297.064,147.314 304.456,138.411 308.403,141.351C312.351,144.291 304.956,161.358 296.064,169.069C289.396,174.851 281.189,178.308 276.318,177.972C271.446,177.636 261.331,171.616 256.327,162.433C251.621,153.799 245.996,134.799 254.143,131.607C262.29,128.416 268.422,147.314 268.422,147.314Z" style="fill:rgb(115,83,159);stroke:black;stroke-width:2.64px;"/>
                        <g transform="matrix(0.76191,0.651304,-0.717373,0.899029,101.067,-72.2994)">
                            <path d="M295.462,42.708L296.564,51.842" style="fill:none;stroke:rgb(178,137,208);stroke-width:2.41px;"/>
                        </g>
                        <g transform="matrix(0.94535,0.333191,-0.345442,1.09706,20.7429,9.11753)">
                            <path d="M295.462,42.708L296.564,51.842" style="fill:none;stroke:rgb(178,137,208);stroke-width:2.41px;"/>
                        </g>
                        <g transform="matrix(0.991557,0.173987,-0.12986,1.38096,-12.4761,41.6139)">
                            <path d="M295.462,42.708L296.564,51.842" style="fill:none;stroke:rgb(178,137,208);stroke-width:2.1px;"/>
                        </g>
                        <g transform="matrix(0.945087,-0.335608,0.440916,1.09788,-35.8706,208.387)">
                            <path d="M295.462,42.708L296.564,51.842" style="fill:none;stroke:rgb(178,137,208);stroke-width:2.36px;"/>
                        </g>
                    </g>
                    <g transform="matrix(0.993558,0.113324,-0.113324,0.993558,17.2683,-32.7352)">
                        <path d="M280.451,87.614C280.451,87.614 280.451,70.186 288.535,70.816C296.62,71.446 295.983,84.99 295.462,89.294C295.462,89.294 305.229,74.28 311.004,79.32C316.779,84.36 309.639,102.313 303.339,109.873C297.04,117.432 291.79,122.157 285.491,121.842C279.191,121.527 269.713,113.548 266,102.103C263.564,94.594 262.077,72.705 269.007,71.76C275.936,70.816 280.451,87.614 280.451,87.614Z" style="fill:rgb(115,83,159);stroke:black;stroke-width:2.64px;"/>
                        <g transform="matrix(0.858298,0.517714,-0.560432,1.00439,68.4916,-95.3173)">
                            <path d="M295.462,42.708L296.564,51.842" style="fill:none;stroke:rgb(178,137,208);stroke-width:2.41px;"/>
                        </g>
                        <g transform="matrix(0.991294,0.148456,-0.131803,1.14259,-0.529922,4.53013)">
                            <path d="M295.462,42.708L296.564,51.842" style="fill:none;stroke:rgb(178,137,208);stroke-width:2.41px;"/>
                        </g>
                        <g transform="matrix(0.986132,-0.179573,0.244184,1.12394,-26.2378,103.648)">
                            <path d="M295.462,42.708L296.564,51.842" style="fill:none;stroke:rgb(178,137,208);stroke-width:2.41px;"/>
                        </g>
                    </g>
                    <g transform="matrix(0.993558,0.113324,-0.113324,0.993558,-2.90423,84.1836)">
                        <path d="M280.451,87.614C280.451,87.614 280.451,70.186 288.535,70.816C296.62,71.446 295.983,84.99 295.462,89.294C295.462,89.294 305.229,74.28 311.004,79.32C316.779,84.36 309.639,102.313 303.339,109.873C297.04,117.432 291.79,122.157 285.491,121.842C279.191,121.527 269.713,113.548 266,102.103C263.564,94.594 262.077,72.705 269.007,71.76C275.936,70.816 280.451,87.614 280.451,87.614Z" style="fill:rgb(115,83,159);stroke:black;stroke-width:2.64px;"/>
                        <g transform="matrix(0.858298,0.517714,-0.560432,1.00439,68.4916,-95.3173)">
                            <path d="M295.462,42.708L296.564,51.842" style="fill:none;stroke:rgb(178,137,208);stroke-width:2.41px;"/>
                        </g>
                        <g transform="matrix(0.991294,0.148456,-0.131803,1.14259,-0.529922,4.53013)">
                            <path d="M295.462,42.708L296.564,51.842" style="fill:none;stroke:rgb(178,137,208);stroke-width:2.41px;"/>
                        </g>
                        <g transform="matrix(0.986132,-0.179573,0.244184,1.12394,-26.2378,103.648)">
                            <path d="M295.462,42.708L296.564,51.842" style="fill:none;stroke:rgb(178,137,208);stroke-width:2.41px;"/>
                        </g>
                    </g>
                    <g transform="matrix(0.992116,0.125326,-0.125326,0.992116,12.0921,-44.0129)">
                        <path d="M301.446,44.44C301.446,44.44 311.841,30.896 317.353,35.148C322.865,39.4 315.148,53.732 309.951,58.614C304.754,63.496 300.816,64.126 298.297,63.496C295.777,62.866 289.162,56.252 287.902,49.795C286.642,43.338 284.91,29.636 291.052,28.849C297.194,28.061 301.131,38.455 301.446,44.44Z" style="fill:rgb(115,83,159);stroke:black;stroke-width:2.64px;"/>
                        <path d="M295.462,42.708L296.564,51.842" style="fill:none;stroke:rgb(178,137,208);stroke-width:2.64px;"/>
                        <g transform="matrix(0.811115,0.584886,-0.584886,0.811115,94.314,-161.065)">
                            <path d="M295.462,42.708L296.564,51.842" style="fill:none;stroke:rgb(178,137,208);stroke-width:2.64px;"/>
                        </g>
                    </g>
                </g>
            </g>
            <g id="Flipper---Right---Grip" serif:id="Flipper - Right - Grip" transform="matrix(-0.483195,-0.497564,0.497564,-0.483195,3053.77,3906.63)">
                <g transform="matrix(2.16898,2.54331,-2.54331,2.16898,670.179,-3603.62)">
                    <path d="M1301.51,555.846C1301.81,556.904 1303.94,559.683 1306.27,560.471C1310.49,561.904 1314.84,562.725 1321.21,562.072C1332.76,560.889 1338.39,550.66 1339.84,547.76C1341.05,545.348 1338.97,542.152 1338.97,542.152C1338.97,542.152 1334.91,533.885 1321.59,536.283C1306.88,538.931 1298.73,546.128 1301.51,555.846Z" style="fill:rgb(24,27,43);"/>
                </g>
                <g transform="matrix(0.437031,1.46532,-1.46532,0.437031,2629.48,-2106.46)">
                    <path d="M1805.42,856.768C1805.42,856.768 1842.33,832.298 1855.4,851.669C1855.4,851.669 1858.39,861.591 1857.29,865.528C1857.29,865.528 1846.83,844.452 1805.42,856.768Z" style="fill:white;fill-opacity:0.4;"/>
                </g>
                <g transform="matrix(2.16898,2.54331,-2.54331,2.16898,670.179,-3603.62)">
                    <path d="M1301.46,555.4C1301.73,556.467 1303.78,560.295 1306.55,560.919C1309.66,561.622 1314.84,562.725 1321.21,562.072C1332.76,560.889 1338.39,550.66 1339.84,547.76C1341.05,545.348 1338.97,542.152 1338.97,542.152C1338.97,542.152 1334.91,533.885 1321.59,536.283C1306.88,538.931 1298.77,544.697 1301.46,555.4Z" style="fill:none;stroke:black;stroke-width:2.16px;"/>
                </g>
            </g>
        </g>
        <g id="Body" transform="matrix(-1.96572,-0.334427,-0.334427,1.96572,4936.6,1557.3)">
            <path id="Body---Frame" serif:id="Body - Frame" d="M873.314,505.162C873.314,505.162 849.417,455.666 862.522,406.613C874.784,360.716 931.603,312.748 1031.57,333.778C1111.43,350.577 1121.85,406.83 1118.93,438.2C1117.37,454.912 1109.98,460.872 1108.63,473.012C1107.39,484.107 1120.52,495.361 1107.71,523.005C1096.3,547.63 1074.83,553.457 1074.83,553.457C1106.01,616.912 1103.38,674.909 1056.49,721.684C1025.04,753.071 960.273,749.888 927.109,742.491C820.497,718.712 805.124,687.204 813.802,619.115C823.665,541.734 873.314,505.162 873.314,505.162Z" style="fill:rgb(24,27,43);"/>
            <g transform="matrix(0.894404,0.447259,-0.447259,0.894404,351.879,-394.444)">
                <path d="M949.111,400.77C957.175,405.352 976.601,404.433 981.532,388.558C984.532,378.897 993.289,371.425 1005.49,368.413C1020.35,364.746 1039.64,367.157 1053.82,390.948C1068,414.739 1061.28,428.333 1064.4,436.503C1067.53,444.674 1083.42,454.406 1086.06,478.368C1088.82,503.469 1070.9,525.324 1070.9,525.324C1144.73,574.879 1147.9,652.56 1122.94,697.386C1118.1,706.09 1089.41,749.187 988.375,766.999C965.75,765.444 914.01,710.6 933.162,658.148C942.757,631.871 925.687,584.855 911.195,559.666C901.267,542.411 877.866,538.581 859.817,495.222C847.082,464.632 845.304,422.277 887.956,401.797C913.836,389.37 939.145,395.107 949.111,400.77Z" style="fill:rgb(255,253,246);"/>
            </g>
            <g id="Chin-Shadow" serif:id="Chin Shadow" transform="matrix(0.776694,0.220413,-0.269339,0.949101,384.222,-183.945)">
                <path d="M945.115,534.81C944.261,534.662 943.697,533.275 945.442,532.847C952.61,531.085 978.262,525.328 1004.08,523.06C1023.78,521.33 1044.95,523.173 1050.26,522.994C1050.93,522.971 1051.17,523.646 1050.69,524.032C1047.26,526.764 1031.57,537.718 998.444,540.858C979.288,542.674 964.841,538.245 945.115,534.81Z" style="fill-opacity:0.1;"/>
            </g>
            <path id="Body---Frame1" serif:id="Body - Frame" d="M873.314,505.162C873.314,505.162 849.417,455.666 862.522,406.613C874.784,360.716 931.603,312.748 1031.57,333.778C1111.43,350.577 1121.85,406.83 1118.93,438.2C1117.37,454.912 1109.98,460.872 1108.63,473.012C1107.39,484.107 1120.52,495.361 1107.71,523.005C1096.3,547.63 1074.83,553.457 1074.83,553.457C1106.01,616.912 1103.38,674.909 1056.49,721.684C1025.04,753.071 960.273,749.888 927.109,742.491C820.497,718.712 805.124,687.204 813.802,619.115C823.665,541.734 873.314,505.162 873.314,505.162Z" style="fill:none;stroke:black;stroke-width:2.51px;"/>
        </g>
        <g transform="matrix(1,0,0,1,610.318,626.545)">
            <path d="M1989.68,1625.26C1989.68,1625.26 2039.93,1644.83 2164.59,1634.82C2289.25,1624.81 2401.42,1617.12 2466.5,1592.09C2465.22,1613.02 2455.71,1624.21 2447.71,1631.65C2447.71,1631.65 2555.05,1752.16 2519.88,1930.2C2516.96,1945 2356.6,1977.86 2179.81,1973.94C2003.02,1970.03 1974.57,1947.54 1974.57,1947.54C1974.57,1947.54 1931.15,1866.17 1967.76,1761.4C1999.41,1670.83 2010.21,1663.08 2010.21,1663.08C1997.83,1654.55 1992.77,1638.52 1989.68,1625.26Z" style="fill:rgb(125,126,126);"/>
            <path d="M1989.68,1625.26C1989.68,1625.26 2039.93,1644.83 2164.59,1634.82C2289.25,1624.81 2401.42,1617.12 2466.5,1592.09C2465.22,1613.02 2455.71,1624.21 2447.71,1631.65C2447.71,1631.65 2555.05,1752.16 2519.88,1930.2C2516.96,1945 2356.6,1977.86 2179.81,1973.94C2003.02,1970.03 1974.57,1947.54 1974.57,1947.54C1974.57,1947.54 1931.15,1866.17 1967.76,1761.4C1999.41,1670.83 2010.21,1663.08 2010.21,1663.08C1997.83,1654.55 1992.77,1638.52 1989.68,1625.26Z" style="fill:none;stroke:black;stroke-width:5px;"/>
            <path d="M2009.56,1661.08C2009.56,1661.08 2060.65,1681.01 2196.89,1666.49C2333.14,1651.97 2413.7,1642.59 2448.09,1631.17" style="fill:none;stroke:black;stroke-width:5px;"/>
            <path d="M2029.73,1634C2029.73,1634 2030.96,1646.81 2033.21,1651.48" style="fill:none;stroke:black;stroke-width:5px;"/>
            <path d="M2097.39,1671.79C2097.39,1671.79 2094.11,1661.69 2092.88,1654.72" style="fill:none;stroke:black;stroke-width:5px;"/>
            <path d="M2187.21,1634L2190.49,1651.48" style="fill:none;stroke:black;stroke-width:5px;"/>
            <path d="M2274.18,1657.6L2270.08,1639.14" style="fill:none;stroke:black;stroke-width:5px;"/>
            <path d="M2365.01,1616.38C2365.01,1616.38 2368.09,1627.3 2367.88,1631.17" style="fill:none;stroke:black;stroke-width:5px;"/>
            <path d="M2438.56,1634C2438.56,1634 2442.25,1624.54 2443.28,1616.38" style="fill:none;stroke:black;stroke-width:5px;"/>
            <path d="M1964.68,1919.8C1964.68,1919.8 2073.79,1943.43 2196.89,1943.43C2322.34,1943.43 2430.2,1930.62 2522.95,1903.38" style="fill:none;stroke:black;stroke-width:5px;"/>
            <path d="M1990.01,1952C1990.01,1952 1985.02,1939.01 1984.76,1934.68" style="fill:none;stroke:black;stroke-width:5px;"/>
            <path d="M2083.03,1937.71C2083.03,1937.71 2082.39,1949.89 2084.63,1957.26" style="fill:none;stroke:black;stroke-width:5px;"/>
            <path d="M2218.24,1974.26L2217.92,1957.26" style="fill:none;stroke:black;stroke-width:5px;"/>
            <path d="M2326.51,1937.71C2326.51,1937.71 2328.3,1954.47 2327.79,1957.26" style="fill:none;stroke:black;stroke-width:5px;"/>
            <path d="M2431.55,1955.68C2431.55,1955.68 2433.03,1947.97 2431.39,1937.71" style="fill:none;stroke:black;stroke-width:5px;"/>
            <path d="M2505.11,1908.89C2505.11,1908.89 2505.28,1919.06 2503.8,1926.61" style="fill:none;stroke:black;stroke-width:5px;"/>
        </g>
        <g id="Beak" transform="matrix(0.939773,0.0561472,-0.0561472,0.939773,1048.81,1197.31)">
            <g transform="matrix(0.787958,-3.11257e-19,-3.7684e-19,0.580887,62.9536,363.902)">
                <path d="M2184.78,918.924C2184.78,918.924 2204.12,995.173 2246.66,995.173C2289.2,995.173 2303.91,921.113 2303.91,921.113L2184.78,918.924Z" style="fill-opacity:0.15;"/>
            </g>
            <g transform="matrix(1,9.25635e-20,0,0.686741,5.68434e-14,274.983)">
                <path d="M1784.46,906.063C1784.46,906.063 1794.45,873.178 1834.15,877.826C1865.27,881.469 1876.93,894.706 1877.53,905.52C1878.13,916.334 1847.87,958.427 1828.82,958.427C1809.77,958.427 1785.67,919.881 1784.46,906.063Z" style="fill:rgb(255,119,44);"/>
            </g>
            <path d="M1784.46,897.693C1784.46,897.693 1788.41,896.806 1793.33,893.853C1798.25,890.9 1807.38,886.429 1826.06,886.933C1844.75,887.437 1870.05,896.74 1873.7,900.016C1877.35,903.292 1876.05,897.043 1878.34,897.21C1878.34,897.21 1876.87,879.442 1833.81,877.81C1791.29,876.198 1784.46,897.693 1784.46,897.693Z" style="fill:rgb(245,164,91);"/>
            <g transform="matrix(1,-1.0842e-19,-1.75886e-19,0.692597,5.68075e-14,269.842)">
                <path d="M1784.46,906.063C1784.46,906.063 1786.25,878.348 1826.07,877.747C1865.9,877.146 1876.92,895.835 1877.52,906.649C1878.12,917.463 1848.71,957.747 1829.65,957.747C1810.61,957.747 1785.67,919.881 1784.46,906.063Z" style="fill:none;stroke:black;stroke-width:3.7px;"/>
            </g>
            <g transform="matrix(-1.24987,-0.00118038,0.000420759,-0.445528,4119.04,1309.59)">
                <path d="M1808.16,915.261C1808.4,915.815 1808.09,917.256 1808.33,917.81C1808.34,917.824 1813.8,916.302 1820.81,915.414C1828.3,914.463 1831.36,914.716 1839.02,913.919C1852.05,912.565 1858.06,914.913 1859.7,915.553C1860.62,915.911 1861.29,916.27 1861.42,916.344C1861.49,916.382 1861.57,916.529 1861.63,916.466C1861.95,916.179 1861.9,915.906 1862.21,915.618C1862.07,915.102 1862,914.446 1861.86,913.93C1861.7,913.381 1847.55,899.004 1830.91,903.042C1825.9,904.257 1820.62,907.108 1819.74,907.588C1813.72,910.839 1808.3,915.154 1808.16,915.261Z"/>
            </g>
        </g>
        <g id="Cross-Eyed---Big" serif:id="Cross Eyed - Big" transform="matrix(-1.91477,-0.031045,-0.031045,1.91477,3449.52,582.127)">
            <g transform="matrix(1,0,0,1,-1.56837,-0.0254287)">
                <g transform="matrix(-0.891285,0,0,1.01365,652.696,-15.628)">
                    <path d="M286.906,794.046C286.906,794.046 290.598,805.957 286.49,812.391C284.553,815.425 280.131,815.109 267.801,813.861C261.032,813.176 257.195,813.042 255.305,808.423C253.415,803.803 261.75,790.808 269.668,784.932C276.363,779.963 284.388,784.463 286.906,794.046Z"/>
                </g>
                <g transform="matrix(-0.845482,0.0671868,0.0529101,0.665823,595.359,257.73)">
                    <ellipse cx="272.579" cy="789.661" rx="6.352" ry="8.557" style="fill:white;"/>
                </g>
            </g>
            <g transform="matrix(1,0,0,1,7.05765,0.114429)">
                <g transform="matrix(1.01051,0.0463865,-0.0350403,1.14853,58.8666,-134.653)">
                    <path d="M286.641,794.509C286.641,794.509 290.598,805.957 286.49,812.391C284.553,815.425 280.131,815.109 267.801,813.861C261.032,813.176 255.719,813.063 253.829,808.444C251.939,803.824 261.485,791.272 269.402,785.396C276.097,780.427 284.122,784.926 286.641,794.509Z"/>
                </g>
                <g transform="matrix(0.956261,0.120129,-0.0830044,0.751664,118.307,178.918)">
                    <ellipse cx="272.579" cy="789.661" rx="6.352" ry="8.557" style="fill:white;"/>
                </g>
            </g>
        </g>
        <g id="Feet---Right" serif:id="Feet - Right" transform="matrix(-2.5453,1.59035,1.04578,1.67374,4926.9,-141.955)">
            <g transform="matrix(0.699123,0.376258,-0.139597,0.926215,487.891,-480.164)">
                <ellipse cx="1076.46" cy="712.798" rx="23.262" ry="43.833" style="fill:rgb(254,120,62);"/>
            </g>
            <g transform="matrix(0.470746,0,0,1,692.483,-164.096)">
                <path d="M916.939,742.376C916.939,742.376 915.266,746.707 920.483,750.841C925.7,754.975 928.357,757.829 935.051,748.872C941.744,739.915 954.238,723.038 969.136,724.317C976.601,724.958 989.23,732.135 989.623,742.765C989.623,742.765 987.942,719.367 974.254,713.874C962.348,709.097 950.424,708.585 941.953,711.414C924.959,717.088 916.939,742.376 916.939,742.376Z" style="fill:rgb(243,180,87);"/>
            </g>
            <g transform="matrix(1.03699,-0.596675,0.123073,0.965219,-111.293,711.369)">
                <path d="M1128.71,549.258C1128.71,549.258 1133.62,539.669 1143.58,539.347C1150.48,539.124 1155.49,555.061 1155.72,556.163C1155.72,556.163 1153.3,534.001 1142.27,533.796C1136.38,533.687 1133.67,537.371 1128.71,549.258Z" style="fill:rgb(255,237,206);"/>
            </g>
            <g transform="matrix(0.699123,0.376258,-0.139597,0.926215,487.891,-480.164)">
                <ellipse cx="1076.46" cy="712.798" rx="23.262" ry="43.833" style="fill:none;stroke:black;stroke-width:2.3px;"/>
            </g>
        </g>
        <g transform="matrix(0.774495,-0.720361,0.720361,0.774495,2375.76,2427.26)">
            <path d="M302.964,50.991C302.964,50.991 272.29,191.899 264.747,313.386" style="fill:none;stroke:black;stroke-width:14.18px;"/>
            <path d="M302.964,50.991C302.964,50.991 272.29,191.899 264.747,313.386" style="fill:none;stroke:rgb(182,181,73);stroke-width:9.45px;"/>
            <g transform="matrix(1,0,0,1,3.27305,0)">
                <path d="M268.422,147.314C268.422,147.314 268.829,129.76 275.555,130.012C282.281,130.264 284.213,142.611 284.213,142.611C284.213,142.611 290.613,130.012 296.064,132.615C301.516,135.219 297.064,147.314 297.064,147.314C297.064,147.314 304.456,138.411 308.403,141.351C312.351,144.291 304.956,161.358 296.064,169.069C289.396,174.851 281.189,178.308 276.318,177.972C271.446,177.636 261.331,171.616 256.327,162.433C251.621,153.799 245.996,134.799 254.143,131.607C262.29,128.416 268.422,147.314 268.422,147.314Z" style="fill:rgb(178,137,208);stroke:black;stroke-width:2.84px;"/>
                <g transform="matrix(0.76191,0.651304,-0.717373,0.899029,101.067,-72.2994)">
                    <path d="M295.462,42.708L296.564,51.842" style="fill:none;stroke:rgb(115,83,159);stroke-width:2.59px;"/>
                </g>
                <g transform="matrix(0.94535,0.333191,-0.345442,1.09706,20.7429,9.11753)">
                    <path d="M295.462,42.708L296.564,51.842" style="fill:none;stroke:rgb(115,83,159);stroke-width:2.59px;"/>
                </g>
                <g transform="matrix(0.991557,0.173987,-0.12986,1.38096,-12.4761,41.6139)">
                    <path d="M295.462,42.708L296.564,51.842" style="fill:none;stroke:rgb(115,83,159);stroke-width:2.26px;"/>
                </g>
                <g transform="matrix(0.945087,-0.335608,0.440916,1.09788,-35.8706,208.387)">
                    <path d="M295.462,42.708L296.564,51.842" style="fill:none;stroke:rgb(115,83,159);stroke-width:2.54px;"/>
                </g>
            </g>
            <g transform="matrix(0.993558,0.113324,-0.113324,0.993558,19.7291,-32.5302)">
                <path d="M280.451,87.614C280.451,87.614 280.451,70.186 288.535,70.816C296.62,71.446 295.983,84.99 295.462,89.294C295.462,89.294 305.229,74.28 311.004,79.32C316.779,84.36 309.639,102.313 303.339,109.873C297.04,117.432 291.79,122.157 285.491,121.842C279.191,121.527 269.713,113.548 266,102.103C263.564,94.594 262.077,72.705 269.007,71.76C275.936,70.816 280.451,87.614 280.451,87.614Z" style="fill:rgb(178,137,208);stroke:black;stroke-width:2.84px;"/>
                <g transform="matrix(0.858298,0.517714,-0.560432,1.00439,68.4916,-95.3173)">
                    <path d="M295.462,42.708L296.564,51.842" style="fill:none;stroke:rgb(115,83,159);stroke-width:2.59px;"/>
                </g>
                <g transform="matrix(0.991294,0.148456,-0.131803,1.14259,-0.529922,4.53013)">
                    <path d="M295.462,42.708L296.564,51.842" style="fill:none;stroke:rgb(115,83,159);stroke-width:2.59px;"/>
                </g>
                <g transform="matrix(0.986132,-0.179573,0.244184,1.12394,-26.2378,103.648)">
                    <path d="M295.462,42.708L296.564,51.842" style="fill:none;stroke:rgb(115,83,159);stroke-width:2.59px;"/>
                </g>
            </g>
            <g transform="matrix(0.992116,0.125326,-0.125326,0.992116,12.0921,-44.0129)">
                <path d="M301.446,44.44C301.446,44.44 311.841,30.896 317.353,35.148C322.865,39.4 315.148,53.732 309.951,58.614C304.754,63.496 300.816,64.126 298.297,63.496C295.777,62.866 289.162,56.252 287.902,49.795C286.642,43.338 284.91,29.636 291.052,28.849C297.194,28.061 301.131,38.455 301.446,44.44Z" style="fill:rgb(178,137,208);stroke:black;stroke-width:2.84px;"/>
                <path d="M295.462,42.708L296.564,51.842" style="fill:none;stroke:rgb(115,83,159);stroke-width:2.84px;"/>
                <g transform="matrix(0.811115,0.584886,-0.584886,0.811115,94.314,-161.065)">
                    <path d="M295.462,42.708L296.564,51.842" style="fill:none;stroke:rgb(115,83,159);stroke-width:2.84px;"/>
                </g>
            </g>
        </g>
        <g id="Flipper---Right" serif:id="Flipper - Right" transform="matrix(-0.939994,1.00053,1.00053,0.939994,3899.53,-634.607)">
            <g transform="matrix(-0.556961,0.592829,0.592829,0.556961,2358.45,-1364.51)">
                <path d="M2148.55,1766.44C2148.55,1766.44 2162.13,1785.37 2172.62,1789.21C2172.62,1789.21 2173.08,1796.59 2197.2,1804.22C2201.31,1805.52 2209.34,1820.78 2216.37,1828.04C2218.62,1830.37 2223.29,1833.81 2226.99,1834.06C2229.48,1834.23 2234.78,1832.58 2235.14,1824.99C2235.38,1819.92 2223.6,1809.79 2225.36,1809.84C2254.43,1810.67 2316.54,1808.92 2351.4,1795.77C2407.79,1774.49 2410.36,1766.03 2410.36,1766.03L2148.55,1766.44Z" style="fill-opacity:0.3;"/>
            </g>
            <g id="Flipper---Colour1" serif:id="Flipper - Colour" transform="matrix(-0.0019325,0.999998,0.999998,0.0019325,1030.81,-643.464)">
                <path d="M1613.58,1006.13C1596.54,1021.78 1578.8,1039.96 1568.46,1053.83C1537.67,1095.13 1499.37,1159.72 1521.9,1176.24C1544.43,1192.76 1599.3,1153.03 1627.84,1120.74C1656.37,1088.45 1690.19,1036.47 1690.19,1036.47" style="fill:rgb(24,27,43);"/>
            </g>
            <g transform="matrix(-0.634267,-0.302575,-0.302575,0.634267,3647.44,-61.7343)">
                <path d="M1263.46,2111.6C1263.46,2111.6 1276.15,2089.47 1288.39,2091.8C1300.64,2094.12 1323.48,2102.64 1339.61,2133.85C1339.61,2133.85 1313.93,2110.4 1298.55,2105.32C1283.17,2100.25 1268.98,2108.61 1263.46,2111.6Z" style="fill:white;fill-opacity:0.3;"/>
            </g>
            <g id="Flipper---Frame1" serif:id="Flipper - Frame" transform="matrix(-0.0019325,0.999998,0.999998,0.0019325,1030.81,-643.464)">
                <path d="M1612.81,1005.93C1596.5,1021.19 1579.4,1039.16 1568.46,1053.83C1537.67,1095.13 1499.37,1159.72 1521.9,1176.24C1544.43,1192.76 1601.2,1150.85 1629.74,1118.56C1658.27,1086.26 1689.33,1035.44 1689.33,1035.44" style="fill:none;stroke:black;stroke-width:3.64px;"/>
            </g>
            <g transform="matrix(0.34152,0.614175,-0.614175,0.34152,3049.37,-623.974)">
                <path d="M1397.01,2383.14C1397.01,2383.14 1418.36,2280.48 1365.6,2169.27C1365.6,2169.27 1357.29,2132.57 1337.93,2121.75C1337.93,2121.75 1277.87,2125.98 1251.1,2143.07C1251.1,2143.07 1245.98,2164.14 1249.96,2181.8C1249.96,2181.8 1228.1,2269.75 1272.32,2379.9C1280.57,2400.45 1387.9,2422.54 1397.01,2383.14Z" style="fill:rgb(125,126,126);"/>
                <path d="M1364.96,2169.16C1364.96,2169.16 1327.33,2153.07 1249.86,2181.78" style="fill:none;stroke:black;stroke-width:5.18px;"/>
                <g>
                    <path d="M1262.16,2139.04C1262.16,2139.04 1260.22,2154.96 1260.69,2163.34" style="fill:none;stroke:black;stroke-width:3.11px;"/>
                    <path d="M1285.4,2170.14C1285.4,2170.14 1282.62,2155.88 1283.09,2151.67" style="fill:none;stroke:black;stroke-width:3.11px;"/>
                    <path d="M1305.95,2127.16C1305.95,2127.16 1308.48,2136.49 1309.2,2142.09" style="fill:none;stroke:black;stroke-width:3.11px;"/>
                    <path d="M1336.75,2161.85C1336.75,2161.85 1335.58,2150.26 1334.18,2145.83" style="fill:none;stroke:black;stroke-width:3.11px;"/>
                    <path d="M1332.78,2123.2C1332.78,2123.2 1340.95,2135.09 1343.05,2143.73" style="fill:none;stroke:black;stroke-width:3.11px;"/>
                </g>
                <g transform="matrix(-0.814927,0.579564,0.579564,0.814927,1108.93,-360.64)">
                    <path d="M1337.92,2123.2C1337.92,2123.2 1348.82,2120.98 1357.92,2154.81C1357.92,2154.81 1427.95,2224.93 1430.98,2264.13C1432.81,2260.77 1367.68,2166.6 1343.37,2158.06C1343.37,2158.06 1339.86,2130.24 1325.39,2123.2C1325.39,2123.2 1332.33,2122.3 1337.92,2123.2Z" style="fill:white;fill-opacity:0.3;"/>
                </g>
                <path d="M1396.51,2383.3C1396.51,2383.3 1417.34,2288.71 1365.6,2169.27C1365.6,2169.27 1356.45,2132.57 1337.09,2121.75C1337.09,2121.75 1277.87,2125.98 1251.1,2143.07C1251.1,2143.07 1245.98,2164.14 1249.96,2181.8C1249.96,2181.8 1226.6,2266.27 1272.14,2381.22" style="fill:none;stroke:black;stroke-width:5.18px;"/>
            </g>
        </g>
        <g id="Bear---Panda-Bear" serif:id="Bear - Panda Bear" transform="matrix(-0.668091,0.0194098,0.0194098,0.668091,3974.48,1037.2)">
            <g transform="matrix(-1.49487,-0.0622802,-0.0622802,1.49487,6120.31,-1405.34)">
                <path d="M3029.58,2362.51C3029.58,2362.51 3036.58,2445.34 3050.19,2462.44C3063.8,2479.55 3079.35,2488.5 3080.52,2466.33C3081.69,2444.17 3080.13,2430.17 3073.91,2413.45C3067.69,2396.73 3029.58,2362.51 3029.58,2362.51Z" style="fill-opacity:0.3;"/>
            </g>
            <g transform="matrix(1.49461,-0.0684097,0.0684097,1.49461,-1339.67,-534.18)">
                <path d="M1884.61,1466.57C1884.61,1466.57 1830.68,1528.76 1821.5,1555.44C1811.91,1583.32 1795.14,1649.78 1798.02,1673.81L1774.16,1633.33L1825.89,1468.67L1884.61,1466.57Z" style="fill-opacity:0.25;"/>
            </g>
            <path id="Frame" d="M2106.82,1525.08C2106.82,1525.08 2128.52,1414.01 1936.74,1408.34C1744.96,1402.66 1448.21,1546.09 1457.77,1732.26C1463.57,1844.97 1461.87,1902.17 1434.31,1992.63C1414.71,2056.97 1398.05,2083.6 1378.29,2078.8C1344.46,2070.57 1389.48,1965.71 1391.5,1939.31C1399.45,1835.02 1401,1791.54 1339.45,1618.87C1304.86,1521.81 1300.02,1281.13 1452.2,1071.07C1452.2,1071.07 1402.63,1030.3 1421.24,959.03C1439.85,887.765 1529.27,887.765 1560.59,905.922C1591.91,924.078 1603.71,965.385 1603.71,965.385C1603.71,965.385 1740.86,905.922 1869.32,956.307C1869.32,956.307 1904.73,898.659 1967.82,893.666C2030.91,888.673 2051.34,939.512 2055.88,962.661C2060.42,985.811 2059.97,1023.03 2022.29,1072.06C2022.29,1072.06 2074.77,1152.36 2073,1230.38C2071.22,1308.4 2112.87,1378.36 2120.01,1404.8C2131.58,1447.71 2123.9,1474.23 2106.82,1525.08Z" style="fill:rgb(243,228,203);"/>
            <g id="Ear---Right" serif:id="Ear - Right">
                <path d="M2022.29,1072.06L1869.32,956.307C1869.32,956.307 1904.73,898.659 1967.82,893.666C2030.91,888.673 2051.34,939.512 2055.88,962.661C2060.42,985.811 2059.97,1023.03 2022.29,1072.06Z" style="fill:rgb(28,50,97);"/>
                <path d="M2021.39,1073.25C1870.82,959.223 1870.03,960.038 1868.08,957.144C1867.39,956.123 1868.35,955.03 1868.71,954.481C1883.28,932.555 1922.18,891.017 1977.81,891.838C2032.68,892.648 2054.1,938.155 2058.32,968.136C2064.51,1012.19 2041.06,1049.95 2023.48,1072.96C2022.98,1073.62 2022.13,1073.6 2021.85,1073.49C2021.69,1073.42 2021.55,1073.31 2021.39,1073.25ZM2021.99,1069.97C2033.57,1054.59 2066.05,1010.02 2053.53,958.985C2047.21,933.205 2024.99,889.46 1965.76,895.352C1905.29,901.367 1871.12,956.271 1870.69,956.941L1869.6,956.255L2021.99,1069.97Z"/>
            </g>
            <g transform="matrix(1.49554,-0.0434494,0.0434494,1.49554,-1165.16,244.305)">
                <path d="M2035.78,511.451C2035.78,511.451 2055.68,492.93 2086.17,495.072C2116.66,497.214 2141.24,520.686 2139.84,559.705C2139.84,559.705 2128.14,521.195 2099.27,510.154C2067.07,497.842 2035.78,511.451 2035.78,511.451" style="fill:white;fill-opacity:0.2;"/>
            </g>
            <path id="Ear---Left" serif:id="Ear - Left" d="M1603.71,965.385C1606.99,995.833 1588.88,1057.62 1550.85,1080.73C1513.34,1092.67 1478.04,1088.93 1467.48,1087.69C1467.48,1087.69 1403.13,1036.12 1421.24,959.03C1438.08,887.327 1529.27,887.765 1560.59,905.922C1591.91,924.078 1603.71,965.385 1603.71,965.385Z" style="fill:rgb(28,50,97);"/>
            <g transform="matrix(1.49554,-0.0434494,0.0434494,1.49554,-1165.16,244.305)">
                <path d="M1723.21,507.831C1723.21,507.831 1749.04,477.435 1789.19,488.932C1812.98,495.741 1823.84,496.491 1835.97,533.974C1835.97,533.974 1808.88,502.319 1783.68,498.696C1758.48,495.074 1732.03,504.523 1723.21,507.831Z" style="fill:white;fill-opacity:0.3;"/>
            </g>
            <g transform="matrix(2.08152,2.18905,-2.18905,2.08152,982.289,-1501.63)">
                <path d="M749.219,452.579C749.731,449.84 752.241,437.577 738.659,420.486C735.613,416.654 732.928,414.127 732.647,413.864C732.629,413.846 732.594,413.837 732.591,413.812C732.553,413.498 732.603,413.497 732.565,413.182C732.774,413.21 732.988,413.13 733.196,413.157C733.22,413.16 742.139,421.464 746.931,433.027C751.097,443.077 749.764,450.006 749.219,452.579Z"/>
            </g>
            <g transform="matrix(2.08152,2.18905,-2.18905,2.08152,982.289,-1501.63)">
                <path d="M782.036,439.117C784.666,422.746 791.141,414.017 805.906,414.017C820.671,414.017 831.573,421.402 822.727,449.452C818.262,463.61 822.873,462.361 819.932,474.256C817.788,482.93 794.642,488.932 784.497,469.384C778.7,458.212 780.107,451.13 782.036,439.117Z" style="fill:rgb(28,50,97);"/>
            </g>
            <g transform="matrix(-2.5208,1.33832,1.41648,2.66801,3419.47,-1048.43)">
                <path d="M785.327,445.823C786.285,429.29 792.026,409.259 805.906,414.017C827.6,421.453 828.123,424.201 809.449,444.591C803.317,451.288 799.375,460.469 799.862,466.559C800.219,471.023 805.65,480.301 805.65,480.301C805.358,481.596 801.724,481.99 799.474,478.974C797.637,476.51 796.852,470.61 795.417,464.658C792.491,452.527 785.019,451.149 785.327,445.823Z" style="fill:rgb(28,50,97);"/>
            </g>
            <g transform="matrix(2.08152,2.18905,-2.18905,2.08152,977.803,-1493.19)">
                <path d="M980.068,415.655C980.068,415.655 975.586,399.843 952.916,401.919C921.313,404.811 899.225,437.536 883.076,458.425C866.928,479.314 854.743,515.461 861.393,548.258C861.393,548.258 862.367,487.972 913.177,433.327C923.192,422.556 938.616,410.254 952.971,407.947C967.325,405.64 971.421,409.45 980.068,415.655Z" style="fill-opacity:0.3;"/>
            </g>
            <g transform="matrix(0.709415,-0.491164,0.579533,0.824861,-184.988,1039.36)">
                <ellipse cx="1701.03" cy="1169.74" rx="28.725" ry="28.015"/>
                <path d="M1701.04,1140.24C1701.08,1140.24 1714.61,1139.52 1724.37,1150.77C1738.04,1166.54 1731.12,1190.7 1711.21,1197.54C1690.76,1204.57 1669.26,1189.06 1670.63,1167.87C1671.22,1158.9 1675.96,1150.98 1683.02,1145.95C1691.29,1140.07 1699.66,1140.26 1701.04,1140.24ZM1701.02,1143.19L1701.02,1143.2C1698.45,1143.25 1691.42,1143.39 1684.2,1149C1670.75,1159.44 1670.17,1180.65 1685.51,1191.42C1697.56,1199.9 1715.85,1197.31 1724.4,1183.01C1731.84,1170.57 1727.72,1152.99 1712.64,1145.79C1706.95,1143.07 1701.41,1143.2 1701.02,1143.19Z"/>
            </g>
            <g transform="matrix(0.594882,-0.199794,0.279997,0.815049,660.838,563.655)">
                <ellipse cx="1701.03" cy="1169.74" rx="28.725" ry="28.015"/>
                <path d="M1701.05,1139.98C1702.89,1140.02 1715.39,1139.79 1724.99,1150.73C1738.59,1166.22 1732.05,1190.98 1711.21,1197.86C1689.54,1205.02 1667.3,1187.99 1670.16,1166.02C1671.11,1158.76 1674.8,1152.31 1680.16,1147.66C1689.39,1139.67 1699.93,1140 1701.05,1139.98ZM1701.02,1143.44L1701.02,1143.46C1683.66,1143.78 1673.81,1158.32 1674.75,1171.44C1676.19,1191.68 1699,1202.98 1716.02,1191.33C1731.25,1180.89 1731.51,1157.4 1714.41,1147.13C1708,1143.28 1701.52,1143.46 1701.02,1143.44Z"/>
            </g>
            <g transform="matrix(1,0,0,1,44.9996,17.4267)">
                <path d="M1913.18,1289.66C1913.18,1289.66 1915.82,1350.75 1910.55,1367.09C1905.28,1383.43 1894.16,1389.49 1871.28,1390.94" style="fill:none;stroke:black;stroke-width:7.48px;"/>
            </g>
            <g transform="matrix(1,0,0,1,44.9996,17.4267)">
                <path d="M1857.65,1195.82C1857.65,1195.82 1815.43,1193.84 1835.86,1230.16C1856.29,1266.47 1897.59,1297.34 1910.76,1305.51C1910.76,1305.51 1944.7,1297.8 1981.47,1229.7C1992.01,1210.18 1955.24,1200.74 1955.24,1200.74C1955.24,1200.74 1907.12,1191.44 1857.65,1195.82Z" style="fill:rgb(28,50,97);stroke:black;stroke-width:7.48px;"/>
            </g>
            <g transform="matrix(0.995204,-0.0978247,0.0978247,0.995204,-91.7328,206.796)">
                <path d="M2042.68,1311.53C2042.36,1311.13 2042.56,1311.07 2042.64,1309.24C2043.68,1286.91 2040.27,1270.27 2033.91,1256.75C2031.55,1251.74 2026.05,1237.35 2008.13,1223.73C1989.73,1209.74 1969.04,1203.47 1938.68,1197.89C1862.22,1183.85 1804.66,1197 1787.28,1201.03C1784.53,1201.66 1768.47,1205.48 1754.37,1210.03C1754.27,1210.06 1722.54,1219.45 1695.47,1235.77C1689.78,1239.2 1689.92,1239.42 1689.4,1239.67C1689.16,1239.79 1689.1,1239.57 1689.2,1239.42C1689.25,1239.35 1694.66,1234.67 1702.85,1229.2C1741.91,1203.12 1780.84,1194.87 1784.34,1194.05C1858.5,1176.79 1927.66,1192.65 1945.95,1196.89C1964.21,1201.13 1995.27,1209.15 2016.55,1226.17C2029.56,1236.58 2035.52,1246.89 2038.62,1253.52C2039.34,1255.08 2041.91,1261.49 2043.35,1269.34C2045.76,1282.55 2045.3,1296.25 2042.91,1311.05C2042.9,1311.16 2042.91,1311.28 2042.86,1311.38C2042.83,1311.45 2042.73,1311.59 2042.68,1311.53Z"/>
            </g>
            <g transform="matrix(2.08152,2.18905,-2.18905,2.08152,977.803,-1493.19)">
                <path d="M709.064,447.176C709.064,447.176 709.05,445.982 713.101,438.764C717.153,431.545 727.352,433.679 731.781,434.335C731.781,434.335 722.576,425.325 713.101,428.95C706.617,431.43 703.611,434.335 703.611,434.335C703.611,434.335 702.534,442.044 709.064,447.176Z" style="fill-opacity:0.5;"/>
            </g>
            <g id="Ear---Left1" serif:id="Ear - Left" transform="matrix(1,0,0,1,-8.62392,16.6098)">
                <g transform="matrix(1,0,0,1,9.38323,-21.9043)">
                    <path d="M1478.25,1047.99C1478.09,1047.9 1477.88,1047.86 1477.77,1047.72C1477.74,1047.68 1476.34,1043.94 1475.74,1042.16C1471.46,1029.56 1468.63,1016.43 1468.86,1002.75C1469.22,981.912 1479.87,964.551 1489.74,956.774C1490.15,956.448 1490.6,956.131 1490.6,956.131C1491.15,956.048 1491.3,956.208 1491.11,956.721C1490.99,957.019 1489.43,958.143 1485.93,964.573C1480.02,975.416 1477.17,989.92 1475.85,1005.15C1473.94,1027.01 1478.56,1047.38 1478.52,1047.5C1478.46,1047.68 1478.41,1048.07 1478.25,1047.99Z"/>
                </g>
                <g transform="matrix(1,0,0,1,9.38323,-21.9043)">
                    <path d="M1546.7,1043.15C1546.68,1042.88 1546.45,1042.66 1546.43,1042.39C1546.34,1041.38 1551.82,1009.24 1540.33,987.325C1537.56,982.04 1527.3,962.252 1490.72,958.975C1490.61,958.965 1480.09,957.724 1466.09,959.126C1465.63,959.171 1462.86,959.449 1460.41,959.851C1460.18,959.889 1459.95,959.999 1459.72,959.967C1459.54,959.942 1459.43,959.715 1459.25,959.69C1459.38,959.561 1459.4,959.344 1459.53,959.216C1459.56,959.19 1466.2,957.019 1474.11,955.676C1516.02,948.56 1547.47,964.225 1550.87,1005.11C1552.21,1021.25 1548.3,1037.93 1547.31,1042.17C1547.28,1042.29 1547.29,1042.43 1547.23,1042.53C1547.01,1042.88 1546.92,1042.8 1546.7,1043.15Z"/>
                </g>
            </g>
            <g transform="matrix(2.08152,2.18905,-2.18905,2.08152,977.803,-1493.19)">
                <path d="M819.969,323.026C819.969,323.026 827.692,320.405 833.572,324.722C833.572,324.722 826.818,316.86 824.198,315.584C821.577,314.307 820.167,314.295 820.167,314.295L819.969,323.026Z" style="fill-opacity:0.3;"/>
            </g>
            <g id="Ear---Right1" serif:id="Ear - Right" transform="matrix(1,0,0,1,15.5609,16.6098)">
                <g transform="matrix(1,0,0,1,-19.6959,-17.0419)">
                    <path d="M1960.68,1043.14C1960.54,1043.02 1960.34,1042.94 1960.27,1042.77C1960.15,1042.52 1959.77,1038.68 1959.73,1038.32C1957.62,1016.82 1962.76,994.933 1974.9,978.481C1989.67,958.476 2010.47,949.948 2010.59,949.948C2011.16,949.952 2011.31,950.182 2010.95,950.635C2010.89,950.7 2008.17,952.366 2002.31,957.628C1986.5,971.794 1974.88,990.997 1970.01,1001.92C1967.23,1008.15 1961.51,1021.67 1961.05,1041.98C1961.04,1042.64 1961.07,1042.64 1961.04,1042.72C1960.98,1042.9 1960.81,1043.26 1960.68,1043.14Z"/>
                </g>
                <g transform="matrix(1,0,0,1,-19.6959,-17.0419)">
                    <path d="M2000.28,956.198C2000.48,956.203 2000.68,956.133 2000.88,956.138C2001.19,956.145 2009.02,961.214 2011.38,978.309C2011.6,979.893 2013.09,987.653 2008.92,1005.37C2007.78,1010.22 2005.43,1018.18 2005.34,1018.26C2005.2,1018.39 2005.07,1018.61 2004.89,1018.58C2004.71,1018.55 2004.6,1018.31 2004.57,1018.13C2004.55,1017.99 2004.84,1011.98 2004.82,1005.33C2004.82,1003.58 2004.9,998.119 2004.41,986.325C2004.1,979.045 2005.1,962.944 2000.54,956.941C2000.49,956.871 2000.39,956.824 2000.37,956.74C2000.32,956.564 2000.33,956.374 2000.28,956.198Z"/>
                </g>
            </g>
            <g transform="matrix(1,0,0,1,3,-68.7691)">
                <path d="M1768.77,1005.17C1768.77,1005.17 1964.21,1009.23 2040.53,1180.08" style="fill:rgb(243,228,203);"/>
            </g>
            <g transform="matrix(1.49554,-0.0434494,0.0434494,1.49554,-1165.16,244.305)">
                <path d="M1871.07,527.302C1871.07,527.302 1941.05,500.832 2029.1,542.358C2117.15,583.883 2137.54,669.102 2137.54,669.102C2137.54,669.102 2145.22,717.688 2144.45,734.606C2144.45,734.606 2091.85,595.908 2024.24,563.337C1946.82,526.041 1881.07,527.243 1871.07,527.302Z" style="fill:white;fill-opacity:0.3;"/>
            </g>
            <g transform="matrix(1.49554,-0.0434494,0.0434494,1.49554,-1165.16,244.305)">
                <path d="M1639.26,938.399C1639.26,938.399 1677.18,1016.84 1695.95,1035.6C1714.71,1054.36 1725.17,1077.43 1723.63,1099.58C1722.09,1121.73 1721.17,1148.8 1716.86,1166.33C1712.56,1183.86 1675.64,1213.39 1678.72,1145.41C1681.8,1077.43 1662.42,1009.76 1653.19,987.922C1643.96,966.082 1639.26,938.399 1639.26,938.399Z" style="fill-opacity:0.1;"/>
            </g>
            <path id="Frame1" serif:id="Frame" d="M2103.14,1524.4C2106.34,1503.98 2105.12,1417.03 1936.63,1412.08C1746.72,1406.5 1452.28,1548.44 1461.51,1732.08C1467.02,1841.6 1466.84,1902.86 1435.13,2002.57C1416.75,2060.4 1400.1,2087 1378.23,2082.61C1358.18,2078.59 1361.37,2049.78 1363.79,2034.76C1369.39,1999.97 1386.58,1954.47 1387.77,1939.02C1395.74,1835.6 1396.91,1791.96 1337.36,1624.14C1335.32,1618.39 1314.91,1567.59 1315.51,1474.37C1315.95,1405.29 1328.03,1323.35 1359.65,1238.09C1390.24,1155.59 1428.85,1097.96 1447.25,1071.61C1431.68,1056.69 1402.28,1016.62 1417.62,958.082C1437.09,883.748 1530.2,883.276 1563.24,903.14C1589.28,918.798 1601.83,948.625 1606,960.414C1619.02,955.277 1668.52,937.184 1731.28,933.121C1800.45,928.643 1846.65,943.742 1867.87,951.744C1884.34,927.762 1923.4,888.791 1977.85,889.594C2033.61,890.417 2056.12,936.341 2060.54,967.823C2067.18,1015.08 2040.17,1054.28 2026.83,1072.25C2034.84,1085.16 2077.99,1157.93 2076.76,1229.53C2076.35,1252.92 2078.23,1287.18 2099.27,1342.65C2110.13,1371.28 2120.18,1390.8 2123.89,1404.85C2135.2,1447.63 2127.58,1474.87 2111.16,1523.9C2111.08,1524.14 2110.27,1526.56 2110.12,1526.84C2108.58,1529.71 2104.27,1529.34 2103.26,1526.25C2102.97,1525.36 2103.12,1525.34 2103.14,1524.4ZM2110.33,1502.37C2121.8,1466.09 2126.12,1441.73 2116.39,1405.78C2109.15,1378.99 2067.64,1310 2069.26,1230.31C2069.44,1221.46 2071.05,1174.33 2035.46,1103.26C2026.67,1085.72 2019.51,1074.65 2019.29,1074.31C2019.18,1074.14 2018.51,1073.08 2018.55,1071.91C2018.62,1070.31 2020.06,1068.81 2020.19,1068.65C2034.65,1049.61 2063.06,1007.26 2051.36,959.519C2044.75,932.599 2021.99,890.857 1963.87,897.816C1956.87,898.655 1920.48,902.657 1885.46,941.592C1876.7,951.335 1872.51,958.355 1872.1,958.806C1870.44,960.652 1868.28,959.902 1867.96,959.791C1862.34,957.844 1830.25,943.895 1779.2,940.535C1695.02,934.995 1622.22,961.858 1606.7,968.192C1605.63,968.626 1603.94,969.633 1602.11,968.766C1600.34,967.925 1600.05,966.132 1599.72,965.139C1594.88,950.35 1583.74,927.861 1566.26,914.276C1562.05,911.002 1552.53,903.463 1530.17,900.54C1495.09,895.955 1438.68,905.651 1424.65,960.787C1410.21,1017.49 1440.37,1053.55 1449.77,1063.54C1453.88,1067.92 1455.11,1068.25 1455.68,1069.7C1456.4,1071.53 1455.41,1073 1455.25,1073.23C1449.91,1081.19 1415.47,1127.64 1384.18,1197.76C1306.5,1371.81 1314.98,1538.8 1342.98,1617.62C1387.96,1744.27 1400.56,1802.57 1399.04,1873.64C1398.76,1886.94 1398.01,1903.55 1395.23,1939.61C1393.48,1962.22 1361.07,2041.58 1371.52,2067.94C1372.65,2070.8 1375.14,2075.51 1382.66,2075.6C1396.88,2075.77 1413.12,2053.15 1434.42,1979.09C1458.97,1893.72 1459.26,1836.35 1454.04,1732.44C1444.51,1542.87 1744.29,1398.46 1937.98,1404.63C2075.21,1409.01 2105.14,1467.38 2110.33,1502.37Z"/>
            <g transform="matrix(1,0,0,1,3,-68.7691)">
                <path d="M1768.77,1005.17C1768.77,1005.17 1964.21,1009.23 2040.53,1180.08" style="fill:none;stroke:black;stroke-width:7.48px;"/>
            </g>
        </g>
    </g>
</svg>
