<?xml version="1.0" encoding="UTF-8" standalone="no"?>
<!DOCTYPE svg PUBLIC "-//W3C//DTD SVG 1.1//EN" "http://www.w3.org/Graphics/SVG/1.1/DTD/svg11.dtd">
<svg width="100%" height="100%" viewBox="0 0 1080 1080" version="1.1" xmlns="http://www.w3.org/2000/svg" xmlns:xlink="http://www.w3.org/1999/xlink" xml:space="preserve" xmlns:serif="http://www.serif.com/" style="fill-rule:evenodd;clip-rule:evenodd;stroke-linecap:round;stroke-linejoin:round;stroke-miterlimit:1.5;">
    <g transform="matrix(1,0,0,1,100.576,6.13286)">
        <g>
            <path d="M821.079,541.252C779.99,480.554 570.398,465.766 565.082,472.806C545.328,498.969 565.282,686.971 594.294,701.473C686.807,747.714 774.929,742.36 792.548,716.035C801.299,702.96 851.571,586.296 821.079,541.252Z" style="fill:rgb(255,109,49);stroke:black;stroke-width:6.4px;"/>
            <path d="M758.186,720.434C757.709,719.744 721.237,664.528 741.233,583.407C751.88,540.215 818.8,498.786 831.596,566.134C846.037,642.149 812.174,700.863 797.397,724.252C789.225,737.185 767.245,733.549 758.186,720.434Z" style="fill:rgb(255,201,145);stroke:black;stroke-width:6.4px;"/>
            <g transform="matrix(1,0,0,1,-100.576,-6.13286)">
                <path d="M893.877,552.549C890.597,561.155 916.918,576.031 918.615,613.182C919.975,642.944 911.746,674.301 910.379,677.955C928.022,650.273 930.402,611.621 926.566,583.46C922.17,551.184 897.998,541.739 893.877,552.549Z" style="fill:white;fill-opacity:0.89;"/>
            </g>
        </g>
        <g>
            <path d="M247.513,832.517C216.456,777.977 187.908,711.387 170.929,652.713C151.873,586.862 150.108,543.114 151.972,512.169C160.12,376.829 423.002,359.523 423.002,359.523C426.334,356.695 462.236,356.903 458.747,356.33C286.854,328.102 95.915,420.276 69.524,487.645C50.356,536.573 43.992,620.087 165.566,820.141C178.059,840.698 218.231,844.945 247.513,832.517Z" style="fill:rgb(255,110,49);stroke:black;stroke-width:6.4px;"/>
            <g>
                <path d="M222.691,954.894C222.904,962.887 221.081,1001.51 237.569,1007.72C248.255,1011.74 263.149,1006.26 286.483,988.306C265.863,976.718 233.53,958.507 222.691,954.894Z" style="fill:rgb(110,46,0);"/>
                <path d="M219.9,954.963C219.974,954.65 219.967,954.322 220.042,954.01C220.192,953.385 221.407,951.603 223.574,952.245C226.953,953.246 234.674,956.936 235.619,957.388C250.099,964.31 270.158,975.344 284.172,983.063C284.533,983.261 288.326,985.35 288.649,985.61C290.078,986.756 290.658,989.334 288.591,991.053C286.999,992.377 282.698,995.492 282.178,995.868C270.034,1004.66 250.472,1017.16 235.639,1010.62C218.043,1002.86 219.932,966.508 219.899,954.969C219.899,954.967 219.899,954.965 219.899,954.963L219.9,954.963ZM225.549,959.041C225.706,969.762 226.328,991.393 233.995,1000.93C235.225,1002.46 237.731,1005.2 243.662,1005.47C247.197,1005.62 252.696,1004.95 261.556,1000.43C268.805,996.737 275.829,991.87 280.174,988.698C274.402,985.39 253.426,973.365 239.785,966.129C232.6,962.318 228.223,960.222 225.549,959.041Z"/>
                <path d="M238.864,1005.5C237.116,1004.61 246.389,994.846 254.226,991.798C261.641,988.915 270.08,989.378 280.19,990.419C268.37,998.121 256.65,1007.53 238.864,1005.5Z" style="fill:white;fill-opacity:0.67;"/>
            </g>
            <g transform="matrix(0.856777,-0.515687,0.515687,0.856777,-297.088,310.29)">
                <g transform="matrix(1.0456,0.134926,-0.127981,0.991777,115.776,-26.0542)">
                    <path d="M222.691,954.894C222.904,962.887 220.054,1002.79 236.542,1009C247.228,1013.02 263.149,1006.26 286.483,988.306C265.863,976.718 233.53,958.507 222.691,954.894Z" style="fill:rgb(110,46,0);"/>
                    <path d="M220.071,954.825C220.112,954.558 220.116,954.284 220.175,954.02C220.314,953.397 221.447,951.627 223.489,952.232C226.908,953.243 237.743,958.01 259.176,969.485C271.203,975.924 286.96,984.643 288.026,985.255C289.94,986.354 290.549,989.326 288.416,991.105C286.924,992.348 282.507,995.565 281.987,995.944C269.923,1004.73 248.964,1018.51 234.501,1011.81C216.926,1003.65 220.105,965.19 220.043,954.973C220.043,954.97 220.043,954.967 220.043,954.964C220.042,954.902 220.048,954.857 220.071,954.825ZM225.358,958.932C225.351,969.824 225.365,991.419 232.446,1001.54C234.163,1003.99 237.271,1007.28 244.972,1006.54C250.341,1006.03 256.287,1003.55 261.727,1000.63C269.021,996.713 275.914,991.902 280.275,988.706C274.089,985.161 252.658,972.878 238.897,965.622C232.048,962.01 227.886,960.037 225.358,958.932Z"/>
                </g>
                <g transform="matrix(0.974773,0.223197,-0.223197,0.974773,225.5,-29.3304)">
                    <path d="M238.864,1005.5C237.116,1004.61 246.175,992.93 254.012,989.882C261.426,986.999 266.929,989.825 277.04,990.866C268.581,997.208 256.65,1007.53 238.864,1005.5Z" style="fill:white;fill-opacity:0.67;"/>
                </g>
            </g>
            <g transform="matrix(0.856777,-0.515687,0.515687,0.856777,32.118,227.062)">
                <g transform="matrix(1.0456,0.134926,-0.127981,0.991777,115.776,-26.0542)">
                    <path d="M217.095,954.319C217.309,962.312 225.302,1005 244.777,1012.99C255.35,1017.33 276.931,996.516 287.02,973.911C266.399,962.323 227.934,957.932 217.095,954.319Z" style="fill:rgb(110,46,0);"/>
                    <path d="M214.447,954.398C214.517,954.086 214.51,953.758 214.579,953.445C214.741,952.721 215.831,951.323 217.447,951.551C218.481,951.697 218.391,952.157 230.213,954.413C246.115,957.449 271.905,961.869 288.041,970.591C288.082,970.613 289.781,971.293 290.195,973.105C290.515,974.501 289.852,975.667 289.478,976.483C278.879,999.582 256.556,1021.62 243.595,1016.21C229.905,1010.48 222.163,990.604 218.22,975.7C216.49,969.161 214.649,960.141 214.447,954.398ZM220.186,958.098C222.29,972.373 230.802,1003.55 245.959,1009.78C250.694,1011.72 261.551,1005.19 272.298,991.611C277.565,984.955 280.907,978.898 282.636,975.444C274.015,971.122 262.454,967.202 238.009,962.002C228.704,960.023 224.109,959.118 220.186,958.098Z"/>
                </g>
                <g transform="matrix(0.992054,-0.125814,0.125814,0.992054,-116.947,42.0377)">
                    <path d="M238.864,1005.5C237.116,1004.61 248.266,991.611 254.003,988.844C258.859,986.501 267.616,984.166 277.065,985.722C268.606,992.063 255.898,1005.71 238.864,1005.5Z" style="fill:white;fill-opacity:0.67;"/>
                </g>
            </g>
            <path d="M406.888,890.532C326.91,880.179 195.13,749.361 167.512,643.056C146.912,563.762 140.061,489.429 180.045,447.73C280.893,342.556 517.197,342.499 568.29,374.642C662.446,433.876 646.366,708.855 651.677,710.357C663.022,713.566 793.735,711.008 818.793,743.573C828.853,756.646 846.679,771.746 709.04,834.36C617.263,876.11 486.033,900.778 406.888,890.532Z" style="fill:rgb(255,201,145);stroke:black;stroke-width:6.4px;"/>
            <path d="M379.995,879.055C373.93,931.306 385.184,1012.29 407.089,1015.36C594.825,1041.66 782.062,926.363 801.731,906.745C830.787,877.764 825.047,791.964 824.599,765.978C591.157,921.296 410.472,886.675 379.995,879.055Z" style="fill:rgb(255,149,91);stroke:black;stroke-width:6.4px;"/>
            <path d="M179.883,845.868C179.318,912.346 205.789,949.915 225.958,961.426C265.107,983.768 349.279,1009 413.344,1016.46C365.714,992.165 384.098,886.018 385.685,880.252C379.119,879.166 185.071,846.491 179.883,845.868Z" style="fill:rgb(255,109,49);stroke:black;stroke-width:6.4px;"/>
            <g transform="matrix(1,0,0,1,-100.576,-6.13286)">
                <path d="M916.348,794.061C916.268,794.706 924.808,857.968 901.12,896.923C889.251,916.442 844.76,936.619 841.062,923.893C838.249,914.214 858.277,907.829 881.729,889.597C900.007,875.388 908.556,835.807 916.348,794.061Z" style="fill:white;fill-opacity:0.81;"/>
            </g>
        </g>
        <g>
            <g transform="matrix(1,0,0,1,-100.576,-6.13286)">
                <path d="M275.669,408.58C265.004,482.013 233.792,563.496 272.236,656.765C275.853,665.539 420.528,660.992 418.268,656.473C485.679,734.255 461.874,806.595 480.094,859.434C488.93,885.058 609.736,872.661 641.969,872.353C679.284,871.996 784.533,834.562 829.068,792.626C863.554,760.153 866.056,737.674 858.153,724.607C853.333,716.64 820,680.662 810.796,634.642C809.348,627.403 820.765,580.01 847.519,562.587C871.827,546.756 898.614,542.631 903.022,521.534C905.687,508.778 860.424,519.11 783.686,473.067C774.007,467.26 644.523,419.02 632.359,414.488C526.916,375.206 373.506,383.33 307.526,395.355C287.587,398.988 276,406.305 275.669,408.58Z" style="fill-opacity:0.53;"/>
            </g>
            <path d="M609.636,436.156C655.911,428.692 677.055,450.97 704.968,464.388C735.032,478.839 806.131,490.398 799.979,507.878C790.209,535.643 709.453,550.283 661.054,546.169C644.548,535.996 611.493,438.013 609.636,436.156Z" style="fill:rgb(24,27,44);"/>
            <path d="M605.877,438.498C605.779,438.367 605.685,438.233 605.602,438.092C605.479,437.883 605.114,436.807 605.169,435.89C605.186,435.597 605.288,433.883 606.868,432.639C607.066,432.484 607.269,432.325 607.499,432.224C607.958,432.022 608.464,431.939 608.923,431.738L608.797,430.955C628.222,428.143 647.024,428.85 669.566,439.702C685.479,447.363 697.525,456.864 713.483,463.38C739.463,473.987 783.046,483.09 798.14,495.081C807.276,502.339 804.196,508.973 802.443,512.319C788.522,538.907 719.469,551.865 673.475,551C666.823,550.875 660.734,550.434 660.036,550.261C659.502,550.128 656.485,549.162 651.421,542.049C634.358,518.083 609.865,447.279 605.85,438.512C605.859,438.507 605.868,438.502 605.877,438.498ZM616.297,440.505C616.449,440.904 616.61,441.327 616.78,441.776C623.192,458.713 649.185,530.963 662.579,542.063C711.577,545.756 780.681,531.73 794.535,509.842C794.744,509.512 796.402,506.81 796.302,505.591C796.236,504.786 795.414,501.84 786.31,497.256C765.398,486.727 724.24,478.615 701.721,467.688C683.034,458.622 667.428,446.045 645.58,441.5C633.844,439.058 623.426,439.636 616.297,440.505ZM606.398,439.201L606.378,439.22L606.472,439.32C606.448,439.28 606.423,439.24 606.398,439.201Z"/>
            <path d="M275.554,486.281C277.086,483.514 198.05,447.49 199.957,336.294C201.392,252.673 297.468,178.906 353.511,164.437C448.375,139.945 531.83,178.227 554.511,208.484C581.868,244.979 592.742,296.797 589.671,315.208C649.951,385.743 617.069,425.708 614.188,437.655C704.312,511.605 726.829,597.628 711.393,674.835C697.646,743.592 654.627,790.064 594.559,814.508C402.409,892.701 281.746,797.002 249.227,707.887C215.198,614.633 275.226,486.609 275.554,486.281Z" style="fill:rgb(24,27,44);stroke:black;stroke-width:6.4px;"/>
            <path d="M587.409,315.159C589.067,266.099 565.651,204.303 506.747,216.311C482.009,221.355 472.798,246.249 449.029,254.352C433.904,259.508 394.034,243.031 365.865,248.153C248.862,269.426 263.044,352.267 280.512,400.311C297.292,446.466 369.377,476.279 349.938,536.861C322.001,623.93 331.469,705.494 362.518,752.209C397.778,805.257 470.208,833.988 563.386,815.437C647.041,798.782 699.979,738.532 707.11,683.848C716.964,608.275 711.343,529.783 610.572,442.813C602.191,435.579 653.137,390.501 587.409,315.159Z" style="fill:rgb(255,253,244);"/>
            <g transform="matrix(1.09502,-0.300081,0.300081,1.09502,-276.657,82.0655)">
                <g transform="matrix(1.21308,-0.200852,0.165935,1.00219,-249.47,104.035)">
                    <path d="M530.573,708.516C552.347,708.516 570.025,738.751 570.025,775.992C570.025,813.234 552.347,843.469 530.573,843.469C508.799,843.469 487.092,814.877 487.071,775.027C487.051,737.706 508.799,708.516 530.573,708.516Z" style="fill:rgb(255,178,50);"/>
                    <path d="M530.573,707.004C532.256,706.998 546.515,706.068 559.039,725.584C574.016,748.924 576.995,787.842 565.071,816.895C554.964,841.523 536.007,853.829 516.3,843.422C499.372,834.484 485.234,810.156 484.671,777.903C483.991,738.885 506.191,708.286 528.718,707.177C530.048,707.112 530.047,707.124 530.573,707.116L530.573,707.004ZM530.573,709.916C530.396,709.907 517.384,709.127 504.83,725.194C502.674,727.953 488.473,746.003 489.529,777.271C490.995,820.666 518.44,847.694 539.828,837.742C541.383,837.019 552.055,832.508 560.137,813.85C571.256,788.186 569.996,751.686 556.515,728.719C545.536,710.014 532.722,710.129 530.573,710.022L530.573,709.916Z"/>
                </g>
                <g transform="matrix(1.18572,-0.125397,0.124352,1.17584,-203.031,-68.1572)">
                    <path d="M541.802,721.165C550.333,720.815 569.975,747.214 569.4,777.177C568.86,805.351 551.603,828.018 538.55,827.409C521.754,826.627 504.546,803.858 503.741,776.199C502.857,745.825 521.229,722.009 541.802,721.165Z" style="fill:rgb(242,127,0);"/>
                </g>
                <g transform="matrix(0.852346,-0.221894,0.221894,0.852346,-198.466,260.196)">
                    <path d="M677.166,799.748C679.064,800.932 682.52,821.008 664.772,831.947C658.416,835.865 639.463,838.594 637.505,831.056C635.838,824.639 645.596,828.876 657.585,821.487C674.398,811.125 669.539,794.987 677.166,799.748Z" style="fill:white;fill-opacity:0.68;"/>
                </g>
            </g>
            <g transform="matrix(1.04828,0.395458,-0.395458,1.04828,449.551,-318.662)">
                <g transform="matrix(1.22392,-0.117922,0.0974219,1.01115,-194.597,58.0968)">
                    <path d="M530.573,708.516C552.34,709.183 570.025,738.751 570.025,775.992C570.025,813.234 552.325,842.271 530.573,843.469C507.661,844.731 486.297,813.904 488.081,775.084C489.599,742.039 510.479,707.9 530.573,708.516Z" style="fill:rgb(255,178,50);"/>
                    <path d="M530.602,707.128C533.639,707.212 546.927,707.425 558.921,725.941C575.074,750.877 577.343,794.919 561.278,823.891C552.426,839.854 538.716,849.174 524.014,846.385C511.678,844.045 497.713,832.234 490.209,809.549C487.574,801.583 483.756,785.11 486.961,765.34C491.707,736.056 510.174,708.127 528.87,707.29C530.01,707.239 530.008,707.259 530.599,707.265L530.602,707.128ZM530.547,709.767C530.287,709.757 519.005,708.477 506.563,725.881C498.512,737.142 490.152,756.566 490.2,778.73C490.281,816.629 512.585,844.345 534.112,839.625C555.661,834.9 570.662,801.504 567.375,764.798C564.634,734.178 549.401,711.363 531.277,709.953C531.033,709.934 530.788,709.917 530.544,709.898L530.549,709.767C530.548,709.767 530.548,709.767 530.547,709.767Z"/>
                </g>
                <g transform="matrix(1.19161,0.0415634,-0.041217,1.18168,-72.8867,-157.841)">
                    <path d="M544.627,725.188C556.56,725.608 571.438,753.446 571.643,776.887C571.89,805.065 559,828.403 542.186,828.403C525.372,828.403 509.096,805.545 509.096,777.366C509.096,749.186 527.823,724.597 544.627,725.188Z" style="fill:rgb(242,127,0);"/>
                </g>
                <g transform="matrix(0.669465,-0.590294,0.590294,0.669465,-430.383,768.358)">
                    <path d="M838.068,743.819C840.917,746.378 833.058,756.938 815.168,770.568C803.011,779.832 782.636,789.318 780.931,778.579C779.465,769.342 793.828,769.426 809.991,761.668C825.743,754.108 831.937,738.311 838.068,743.819Z" style="fill:white;fill-opacity:0.62;"/>
                </g>
                <g transform="matrix(0.747198,-0.261397,0.300574,0.859187,-277.859,372.448)">
                    <path d="M776.944,662.34C773.889,658.607 780.708,651.455 795.575,647.221C803.175,645.057 820.108,644.92 819.422,650.802C818.902,655.258 809.42,653.417 798.142,656.589C791.385,658.489 780.4,666.562 776.944,662.34Z" style="fill:white;fill-opacity:0.66;"/>
                </g>
            </g>
            <g transform="matrix(0.622871,-0.0987318,0.0995565,0.628074,10.1718,43.2392)">
                <g transform="matrix(1.56612,0.24619,-0.248247,1.55315,-5.19626,-69.661)">
                    <path d="M621.226,384.935C612.004,412.941 515.348,449.274 433.486,456.022C413.767,457.648 363.89,442.602 335.558,444.07C303.055,445.754 271.091,448.168 229.355,436.615C229.512,442.553 233.163,461.115 244.305,474.118C252.286,483.432 262.071,487.748 295.2,492.165C311.492,494.338 497.664,527.871 614.423,436.132C651.964,406.635 621.226,377.846 621.226,384.935Z" style="fill-opacity:0.24;"/>
                </g>
                <g transform="matrix(1.56612,0.24619,-0.248247,1.55315,-161.188,-103.947)">
                    <path d="M524.663,572.605C524.894,593.776 526.103,620.558 534.797,665.708C541.323,699.6 552.792,733.034 560.528,764.942C565.035,783.534 554.854,801.832 548.434,803.663C537.446,806.796 512.575,794.509 510.525,793.63C509.491,793.188 465.823,579.201 477.596,571.353C479.587,570.025 521.385,571.512 524.663,572.605Z" style="fill-opacity:0.51;"/>
                </g>
                <path d="M244.938,684.591C244.383,692.283 253.867,698.758 259.054,701.172C277.445,709.733 402.847,757.739 507.47,768.79C589.571,777.463 710.812,763.621 796.844,747.755C874.179,733.493 875.323,691.442 877.487,694.367C892.119,714.139 873.498,741.788 882.278,759.348C891.061,776.914 896.107,808.12 891.685,828.133C878.201,889.16 762.97,912.021 622.736,920.894C505.649,928.302 261.498,906.184 210.036,851.798C198.206,839.296 230.731,799.526 231.359,774.786C231.845,755.621 226.765,716.089 229.4,701.133C232.142,685.565 244.968,684.186 244.938,684.591Z" style="fill:rgb(31,170,226);"/>
                <path d="M247.865,684.799C247.861,685.443 247.492,688.582 252.171,693.005C256.539,697.134 261.255,699.025 268.087,701.808C299.395,714.56 425.263,760.586 525.566,766.878C626.867,773.232 762.066,750.65 797.912,743.691C864.338,730.795 870.969,697.211 873.377,692.809C875.21,689.455 878.968,689.766 880.637,692.017C896.424,713.311 878.079,741.443 885.779,757.42C885.791,757.443 893.221,771.08 896.245,794.668C900.057,824.409 893.058,838.169 890.655,842.908C863.439,896.557 753.173,916.675 622.984,924.767C507.361,931.953 262.488,910.059 208.445,854.554C204.535,850.538 201.964,844.912 207.87,829.297C214.308,812.276 228.058,789.98 228.495,774.714C229.085,754.118 223.39,712.732 227.385,698.03C231.206,683.966 243.443,681.276 245.786,682.124C246.775,682.482 247.454,683.423 247.53,684.39C247.54,684.518 247.448,684.677 247.531,684.776C247.568,684.819 247.635,684.804 247.702,684.788C247.77,684.772 247.837,684.756 247.873,684.8L247.865,684.799ZM243.522,684.491L242.003,684.383C241.981,684.902 241.886,686.089 242.227,687.737C238.561,689.097 233.526,692.809 232.008,701.585C229.272,717.41 235.758,764.574 233.917,778.731C230.971,801.382 207.436,833.8 210.824,847.036C211.233,848.634 211.857,849.538 215.342,852.69C265.577,898.127 462.735,920.414 588.273,918.34C591.517,918.286 613.767,918.266 661.108,914.091C769.659,904.517 875.931,883.109 887.828,826.837C891.582,809.082 887.839,779.846 878.687,761.093C873.437,750.336 876.629,738.079 878.451,724.977C879.885,714.66 879.587,708.169 877.62,702.864C871.624,715.582 854.518,741.036 797.545,751.483C784.312,753.909 615.89,785.241 500.912,771.462C393.184,758.552 266.634,708.744 256.074,702.987C255.321,702.577 249.364,699.426 245.449,694.372C243.458,691.8 242.592,689.504 242.227,687.737C243.155,687.392 243.996,687.198 244.67,687.111C244.736,685.297 244.71,685.296 244.741,685.141C244.779,684.953 244.876,684.781 244.913,684.593L242.964,684.829L243.522,684.491Z"/>
                <path d="M542.101,769.943C445.705,761.074 423.136,700.869 355.69,725.484C321.524,737.953 301.41,803.688 291.442,852.389C280.862,904.082 275.423,1067.12 275.767,1081.06C276.324,1103.59 277.715,1209.76 296.366,1241.83C302.037,1251.59 316.52,1272.45 327.689,1270.53C344.73,1267.59 349.613,1240.94 358.751,1239.48C369.698,1237.72 389.217,1261.61 404.804,1260.62C422.497,1259.5 433.298,1236.27 445.586,1233.27C456.319,1230.65 475.922,1258.52 489.851,1256.65C502.71,1254.93 511.503,1232.76 511.685,1224.98C512.35,1196.59 494.238,1126.53 489.769,1080C485.798,1038.64 486.972,985.246 492.049,929.395C501,830.91 513.915,772.63 542.101,769.943Z" style="fill:rgb(31,170,226);"/>
                <path d="M542.362,767.151L542.389,766.867C542.726,766.99 543.091,767.025 543.428,767.148C544.894,767.684 546.08,770.347 544.315,772.116C542.816,773.619 541.234,772.453 536.506,774.646C512.642,785.719 502.365,854.303 495.816,927.416C485.807,1039.15 494.942,1091.49 496.68,1102.7C503.648,1147.64 516.505,1201.16 515.9,1225.09C515.642,1235.28 503.586,1265.48 484.006,1260.38C470.879,1256.97 455.489,1238.58 447.62,1237.44C443.371,1236.82 434.666,1246.49 429.674,1251.34C420.325,1260.44 409.838,1268.07 396.29,1263.73C382.474,1259.31 366.88,1243.51 359.764,1243.77C356.309,1243.9 350.882,1257.22 343.701,1265.49C342.844,1266.48 336.917,1273.68 328.046,1274.92C325.457,1275.28 314.703,1276.83 297.583,1251.94C292.022,1243.86 286.624,1235.59 281.582,1209.94C272.991,1166.23 271.983,1101.8 271.546,1081.15C271.277,1068.45 276.663,904.638 288.002,850.497C304.729,770.634 327.339,744.543 331.946,739.141C343.573,725.507 353.351,722.41 361.691,719.995C424.833,701.719 449.317,757.011 539.046,766.8L540.806,766.986C540.924,766.972 541.173,766.943 541.803,766.868L541.825,767.094L542.362,767.151ZM529.881,771.353C504.984,767.889 483.541,761.136 455.818,747.573C420.467,730.277 397.027,713.874 356.862,728.632C327.246,739.514 306.721,795.701 295.122,853.128C284.827,904.101 279.643,1066.25 279.989,1080.97C280.506,1102.99 282.276,1208.81 300.185,1239.66C306.994,1251.38 319.787,1267.6 327.228,1266.14C340.867,1263.45 345.349,1240.22 355.756,1235.81C368.711,1230.33 387.672,1254.42 402.368,1256.2C414.183,1257.62 425.11,1242.69 433.956,1235.14C443.164,1227.28 448.647,1227.92 454.395,1230.77C466.023,1236.53 481.164,1254.61 490.252,1252.26C499.275,1249.92 507.367,1232.12 507.484,1224.26C507.913,1195.2 489.671,1125.74 485.5,1076.42C484.773,1067.82 478.929,1006.68 492.147,893.986C500.002,827.014 510.786,784.742 529.881,771.353Z"/>
                <g>
                    <path d="M325.402,763.113C326.212,763.144 326.977,762.613 327.787,762.644C328.206,762.66 344.475,773.966 371.518,783.548C382.243,787.348 430.181,803.755 492.996,798.198C506.772,796.979 513.787,795.551 513.913,795.639C514.539,796.073 515.656,796.198 515.788,796.944C516.078,798.584 515.518,798.585 513.876,798.928C497.312,802.386 446.576,812.794 391.485,796.996C379.949,793.688 354.255,785.449 326.821,766.149C325.943,765.531 325.917,765.564 325.878,765.481C325.358,764.369 325.921,764.224 325.402,763.113Z" style="fill:rgb(14,101,162);"/>
                    <path d="M299.652,896.065C299.67,896.037 299.688,896.007 299.707,895.977C309.092,899.158 309.553,897.658 330.083,904.807C341.537,908.795 350.443,912.34 371.392,916.314C408.724,923.395 445.102,924.423 469.318,925.305C469.49,925.311 469.697,925.22 469.832,925.324C470.798,926.07 470.589,926.286 471.552,927.03C470.784,927.287 470.599,928.477 469.831,928.735C469.511,928.842 456.084,929.17 454.888,929.199C417.555,930.11 386.692,929.135 351.82,918.693C335.979,913.949 325.473,907.301 304.779,901.282C304.169,901.104 298.579,899.268 297.733,898.519C296.781,897.678 297.165,895.903 298.633,895.699C299.266,895.611 299.474,895.778 299.652,896.065Z" style="fill:rgb(14,101,162);"/>
                    <path d="M276.448,1036.9L276.66,1036.55C284.465,1038.78 336.259,1046.81 399.163,1051.33C420.668,1052.87 458.634,1055.19 484.046,1049.12C484.283,1049.07 484.528,1048.87 484.758,1048.95C485.911,1049.36 485.725,1049.72 486.878,1050.13C486.381,1050.76 486.184,1051.6 485.686,1052.23C485.58,1052.37 481.583,1053.42 481.223,1053.51C445.572,1062.85 390.098,1058.1 385.527,1057.75C344.88,1054.6 290.509,1044.05 276.753,1039.99C275.121,1039.51 274.751,1039.22 274.451,1038.79C274.42,1038.75 274.361,1038.7 274.374,1038.65C274.652,1037.55 274.757,1037.58 275.036,1036.48L276.448,1036.9ZM277.055,1037.08L277.229,1037.13L277.151,1037.02L277.055,1037.08Z" style="fill:rgb(14,101,162);"/>
                    <path d="M485.451,1081.7C484.976,1081.05 484.206,1080.65 483.731,1080C483.672,1079.92 483.734,1079.91 483.636,1077.4C482.047,1036.84 480.001,973.291 486.151,911.433C490.596,866.72 502.533,780.783 535.232,769.485C536.72,768.971 537.137,768.87 537.661,770.343C538.341,772.252 537.313,772.056 535.454,772.898C501.176,788.415 494.911,901.933 491.195,965.757C488.538,1011.4 487.62,1057.45 487.461,1065.42C487.255,1075.77 487.188,1079.97 487.17,1080C486.748,1080.68 485.873,1081.02 485.451,1081.7Z" style="fill:rgb(14,101,162);"/>
                    <path d="M625.94,922.742C623.732,922.786 623.628,922.74 622.033,921.225C619.928,919.225 620.56,918.856 620.231,915.981C617.722,894.059 615.18,866.245 614.824,852.043C613.947,817.028 615.292,787.561 614.746,775.816C614.58,772.249 615.539,772.439 618.615,770.59C618.627,770.583 622.046,771.416 622.068,771.432C623.864,772.739 623.665,772.974 624.06,775.145C625.886,785.188 632.085,838.217 632.302,863.455C632.43,878.409 632.44,884.659 631.698,907.863C631.465,915.121 631.265,915.269 631.313,917.168C631.37,919.417 630.017,920.819 629.783,921.06C629.551,921.301 628.202,922.697 625.94,922.742Z" style="fill:rgb(14,101,162);"/>
                    <path d="M742.396,764.192L751.836,759.758C752.973,762.275 754.919,768.223 760.684,794.755C763.78,809.004 767.303,828.597 768.263,835.578C769.011,841.019 770.485,850.623 772.228,873.387C772.349,874.972 773.154,886.778 773.118,893.937C773.104,896.88 773.018,896.874 773.08,898.386C773.153,900.149 772.108,901.264 771.928,901.456C771.91,901.476 768.932,902.826 768.919,902.821C767.896,902.443 766.654,902.414 765.854,901.677C764.362,900.302 764.533,900.119 764.449,898.098C764.402,896.968 761.958,882.08 756.75,857.322C754.304,845.692 752.342,834.418 751.995,832.42C747.64,807.39 743.229,776.241 740.445,765.009L742.396,764.192Z" style="fill:rgb(14,101,162);"/>
                    <path d="M860.159,869.827C857.478,869.788 857.348,869.73 855.473,867.83C853.05,865.374 853.824,864.952 853.451,861.537C851.719,845.713 845.307,819.942 841.674,796.611C836.241,761.723 835.19,751.985 833.319,742.47C832.269,737.131 833.885,737.269 838.202,733.919C838.213,733.911 843.519,734.561 843.542,734.574C846.316,736.129 846.13,736.459 847.098,739.468C849.809,747.892 860.506,786.923 863.82,813.065C863.919,813.848 866.842,835.184 867.126,854.335C867.206,859.689 866.92,861.299 866.911,863.256C866.897,865.992 865.19,867.648 864.897,867.932C864.605,868.216 862.904,869.866 860.159,869.827Z" style="fill:rgb(14,101,162);"/>
                    <path d="M874.302,718.159C864.551,730.917 841.56,748.993 787.268,757.624C619.289,784.33 539.286,775.898 533.231,772.639C533.13,772.585 532.501,772.247 532.208,771.638C532.168,771.555 532.073,771.462 532.112,771.378C532.643,770.252 532.815,770.35 533.348,769.219L533.962,770.818C534.521,770.308 534.465,770.269 534.86,769.629C543.229,772.566 616.764,778.218 766.225,754.133C788.305,750.574 815.142,746.734 839.248,735.163C845.076,732.366 864.574,722.678 872.081,706.77C873.899,702.916 873.449,701.396 874.97,700.135C876.76,698.651 879.846,698.667 881.28,701.566C881.522,702.055 882.485,706.024 882.59,711.897C882.864,727.181 877.306,745.029 879.589,751.21C889.359,777.664 914.641,832.405 867.234,866.997C826.95,896.392 661.322,935.982 497.52,918.863L495.575,918.658C493.896,918.481 494.659,917.555 493.587,916.264C494.898,915.195 494.325,914.125 496.018,914.281C651.585,928.615 799.688,893.333 850.326,867.622C856.822,864.323 867.986,858.257 876.682,846.136C898.115,816.265 879.787,776.2 871.75,753.978C868.79,745.792 873.253,732.007 874.302,718.159Z" style="fill:rgb(14,101,162);"/>
                    <path d="M489.425,1246.76C493.319,1243.73 504.579,1228.78 502.756,1215.36C492.279,1138.22 485.181,1111.68 483.57,1080.82C483.499,1079.45 483.443,1079.44 483.496,1079.33C484.132,1078.06 484.726,1078.51 485.361,1077.24C485.879,1078.01 486.948,1078.31 487.466,1079.09C487.69,1079.42 487.517,1087.76 491.98,1112.85C495.432,1132.26 502.161,1164.38 510.192,1214.3C513.07,1232.18 498.228,1252.09 492.799,1254.58C492.309,1254.81 487.549,1256.66 480.498,1253.4C468.336,1247.77 456.606,1230.1 447.952,1231.95C427.442,1236.35 417.107,1266.19 397.346,1258.26C386.711,1253.99 370.138,1238.22 361.946,1237.33C361.568,1237.29 360.554,1237.17 357.489,1238.95C343.892,1246.82 339.731,1269.86 326.25,1269.49C325.119,1269.46 322.274,1269.48 316.047,1264.98C283.753,1241.65 278.438,1160.76 276.981,1117.71C276.797,1112.27 275.929,1092.22 277.503,1022.21C279.344,940.331 283.529,882.45 299.389,823.433C305.675,800.043 321.774,734.618 363.998,723.391C406.518,712.086 439.109,738.77 475.074,753.218C497.202,762.107 521.938,768.273 533.266,767.847C535.802,767.751 535.701,768.397 536.828,770.655C536.835,770.667 536.092,772.86 536.075,772.88C535.141,773.941 535.023,773.865 533.608,773.948C533.332,773.964 523.892,775.008 500.532,768.998C472.998,761.914 455.076,752.745 445.817,748.386C419.445,735.969 394.174,724.197 365.771,732.848C329.82,743.798 315.684,806.652 310.361,827.85C292.582,898.661 292.159,970.967 290.937,1065.05C290.309,1113.4 290.172,1234.79 325.864,1256.37C326.072,1256.5 326.121,1256.53 326.564,1256.77C330.015,1254.1 336.076,1241.77 344.55,1233.92C344.728,1233.76 353.622,1225.17 362.352,1225.71C375.66,1226.55 393.347,1245.76 402.61,1248.68C410.448,1251.14 422.169,1231.49 439.242,1224.55C447.753,1221.1 452.222,1222.32 455.187,1223.41C463.054,1226.3 470.056,1234.25 476.494,1239.93C482.509,1245.24 485.979,1247.01 489.425,1246.76Z" style="fill:rgb(14,101,162);"/>
                    <path d="M284.478,884.225C285.073,884.349 285.676,884.44 286.262,884.599C286.528,884.67 287.405,887.904 283.635,887.428C275.298,886.377 213.654,865.281 208.218,848.161C203.65,833.772 226.921,809.213 231.987,783.192C236.151,761.799 229.745,726.215 230.518,705.599C230.978,693.325 241.241,686.263 243.984,686.022C246.495,685.801 247.863,688.065 247.577,689.705C247.112,692.372 245.995,698.654 270.973,707.921C292.166,715.785 321.346,722.052 341.615,730.502C342.755,730.977 342.028,731.466 342.511,732.596C341.763,732.746 341.151,733.331 340.402,733.481C340.074,733.547 336.263,731.303 314.523,725.557C282.073,716.981 247.14,709.889 241.732,695.139C239.003,698.117 237.374,702.023 237.353,705.794C237.209,731.632 245.117,765.368 237.911,790.037C230.735,814.605 209.481,838.658 214.515,847.549C222.522,861.689 276.18,882.851 284.467,884.055C284.472,884.116 284.475,884.172 284.478,884.225Z" style="fill:rgb(14,101,162);"/>
                    <path d="M265.342,704.875C265.531,705.755 266.072,706.534 266.26,707.414C266.267,707.446 263.176,716.161 259.385,742.823C258.721,747.491 256.926,760.111 252.608,801.372C248.068,844.748 246.778,871.271 246.726,871.334C246.248,871.925 245.545,872.31 245.067,872.901C244.775,872.2 243.779,871.953 243.487,871.253C243.473,871.217 243.089,842.654 244.431,816.688C245.204,801.731 246.565,778.14 252.513,746.973C257.789,719.326 262.831,706.37 262.994,706.256C263.738,705.736 264.599,705.396 265.342,704.875Z" style="fill:rgb(14,101,162);"/>
                    <g transform="matrix(1.19349,0,0,1.1836,-132.798,132.522)">
                        <path d="M535.47,910.302C534.918,910.669 534.579,911.302 534.028,911.669C534.014,911.678 510.222,916.191 486.68,918.642C460.691,921.348 439.183,922.069 411.134,919.288C403.95,918.576 386.723,916.423 370.83,912.114C361.351,909.544 355.925,907.28 354.601,906.739C353.313,906.212 353.604,905.872 353.554,904.48C353.554,904.468 354.463,903.48 354.483,903.471C355.423,903.041 355.461,903.433 360.448,904.819C392.175,913.638 439.557,912.939 457.633,912.825C474.379,912.719 499.008,912.298 532.86,909.437C533.701,909.366 533.697,909.357 533.718,909.364C534.669,909.679 534.518,909.987 535.47,910.302Z" style="fill:rgb(14,101,162);"/>
                    </g>
                    <path d="M263.8,703.46C264.031,704.314 264.717,705.003 264.948,705.858C264.982,705.985 259.004,722.178 254.739,755.382C246.695,817.991 248.408,874.352 248.38,874.423C248.119,875.09 248.084,875.9 247.59,876.422C247.572,876.442 245.627,877.317 245.614,877.312C244.947,877.06 244.137,877.03 243.617,876.546C242.51,875.515 242.737,875.347 242.666,873.841C238.995,796.651 247.803,755.204 249.464,746.772C254.564,720.881 260.623,706.699 261.09,705.414C261.352,704.691 261.297,704.661 261.378,704.602C262.471,703.815 262.703,704.251 263.8,703.46Z"/>
                    <path d="M517.92,794.554C517.314,795.222 517.042,796.144 516.436,796.811C516.316,796.944 510.995,798.07 510.519,798.17C498.893,800.629 457.37,808.123 402.872,795.34C395.629,793.641 354.929,784.146 323.516,762.393C323.373,762.294 322.555,761.728 322.321,760.58C322.316,760.553 322.717,758.483 322.728,758.475C323.319,758.084 323.812,757.451 324.508,757.312C325.927,757.027 325.941,757.256 327.17,758.018C365.97,782.088 428.637,793.561 466.165,795.476C475.434,795.949 494.807,796.65 515.646,793.087C517.084,792.841 516.7,793.767 517.92,794.554Z"/>
                    <path d="M494.44,924.821C493.624,925.286 493.36,926.43 492.544,926.894C492.538,926.898 485.988,927.442 480.383,927.766C418.716,931.336 374.802,923.806 335.923,911.865C311.556,904.381 291.788,895.12 288.073,893.38C287.979,893.336 286.901,892.831 286.897,892.826C286.406,892.304 285.684,891.921 285.428,891.253C285.418,891.228 285.481,889.104 285.491,889.094C286.02,888.591 286.401,887.851 287.087,887.593C288.488,887.065 288.53,887.396 289.916,887.975C319.19,900.195 358.263,912.09 415.062,918.947C458.584,924.201 492.227,922.816 492.366,922.94C493.06,923.564 493.746,924.198 494.44,924.821Z"/>
                    <g transform="matrix(1.19349,0,0,1.1836,-132.798,132.522)">
                        <path d="M532.885,911.302C532.504,911.682 532.423,912.3 532.042,912.679C532.022,912.7 511.566,918.912 479.488,922.539C455.924,925.204 433.012,925.927 405.545,922.483C372.641,918.357 353.147,909.043 348.909,907.018C348.854,906.993 348.234,906.696 348.23,906.692C347.924,906.366 347.477,906.128 347.315,905.712C347.307,905.69 347.338,904.367 347.346,904.358C347.672,904.042 347.906,903.581 348.329,903.417C349.25,903.061 349.271,903.311 350.186,903.674C384.114,917.111 430.079,916.898 459.054,916.534C473.601,916.352 499.351,915.263 520.854,912.195C529.107,911.017 531.445,910.442 531.509,910.462C532.02,910.628 532.374,911.137 532.885,911.302Z"/>
                    </g>
                    <path d="M487.591,1052.27C487.17,1052.76 487.029,1053.44 486.608,1053.93C486.47,1054.09 481.368,1055.4 480.91,1055.52C458.613,1061.26 416.601,1066.07 366.629,1061.1C330.831,1057.54 298.487,1050.43 276.52,1042.26C275.448,1041.86 275.41,1041.82 274.909,1040.8C274.897,1040.77 274.767,1038.67 274.776,1038.66C275.251,1038.13 275.57,1037.4 276.209,1037.09C277.529,1036.46 277.6,1036.69 278.998,1037.13C326.924,1052.3 406.541,1055.31 425.093,1055.62C465.946,1056.3 483.658,1051.66 485.919,1051.3C486.24,1051.24 486.565,1051.22 486.886,1051.17L487.591,1052.27Z"/>
                    <path d="M622.543,765.831C623.798,765.793 623.859,765.817 624.775,766.671C625.963,767.778 625.697,767.964 625.776,769.584C626.286,780.007 629.64,821.265 630.764,850.788C632.146,887.098 631.894,921.561 631.846,921.712C631.63,922.395 631.533,923.186 631.032,923.702C631.013,923.721 629.057,924.572 629.044,924.567C628.44,924.306 627.711,924.227 627.236,923.773C627.106,923.649 626.214,922.796 626.166,921.803C623.692,871.179 620.822,848.661 619.696,784.068C619.486,772.043 619.622,772.044 619.525,769.017C619.519,768.828 619.484,767.742 620.372,766.805C621.23,765.9 621.289,765.87 622.543,765.831Z"/>
                    <path d="M750.238,753.617C751.459,753.336 751.524,753.352 752.587,754.012C753.984,754.879 753.769,755.111 754.143,756.701C755.403,762.057 758.34,774.592 763.793,803.822C770.517,839.867 774.998,880.925 775.592,903.32C775.623,904.457 775.62,904.511 774.852,905.355C774.834,905.375 772.901,906.29 772.887,906.285C772.199,906.048 771.368,906.046 770.827,905.563C770.296,905.087 770.149,904.305 769.919,903.633C769.69,902.96 769.92,897.734 765.35,867.958C761.405,842.25 761.071,842.306 756.258,810.668C753.922,795.317 748.843,761.557 747.899,757.313C747.63,756.102 747.642,756.039 748.304,754.99C748.967,753.939 749.018,753.899 750.238,753.617Z"/>
                    <path d="M840.635,730.907C841.484,730.95 842.105,729.813 842.954,729.855C843.763,729.896 844.537,730.482 845.019,731.128C845.184,731.349 847.466,740.005 847.67,740.779C858.49,781.825 861.532,807.024 863.728,829.91C865.617,849.608 866.42,867.589 866.405,867.611C865.985,868.243 865.696,869.286 864.935,869.353C864.175,869.42 863.613,868.518 863.179,867.895C863.175,867.89 862.499,862.607 861.329,854.707C856.122,819.551 854.649,814.251 850.079,783.418C844.896,748.447 842.126,734.368 841.743,732.3C841.718,732.168 841.754,732.009 841.67,731.904C841.218,731.335 841.084,731.471 840.635,730.907Z"/>
                </g>
            </g>
            <g>
                <path d="M602.198,319.638C606.163,337.429 593.892,366.151 568.375,374.976C528.733,388.685 506.673,351.482 504.189,349.927C493.842,343.449 464.569,354.381 456.686,358.323C453.223,360.054 443.463,410.977 391.103,419.853C352.682,426.367 328.205,411.209 316.697,401.098C312.661,397.553 221.666,415.46 218.199,417.773C214.818,412.846 211.43,402.847 212.21,402.618C224.699,398.945 443.291,339.37 489.705,333.8C494.776,333.192 599.963,320.383 602.198,319.638Z" style="fill-opacity:0.38;"/>
                <path d="M313.781,347.582C311.726,352.056 236.591,379.491 201.923,387.355C201.267,398.493 208.008,410.505 208.077,410.481C270.034,388.922 313.652,387.372 323.127,387.946C316.599,368.953 312.539,361.347 313.781,347.582Z" style="fill:white;"/>
                <path d="M316.239,349.431C315.505,361.387 319.13,368.605 325.197,386.242C325.252,386.402 325.864,387.67 325.509,388.738C324.927,390.485 323.228,390.456 322.984,390.452C322.976,390.452 318.475,390.106 308.815,390.749C298.733,391.42 261.739,394.476 210.289,412.196C208.894,412.676 208.909,412.72 208.455,412.794C206.871,413.053 206.089,411.739 205.976,411.548C204.521,409.104 199.118,397.932 199.559,387.788C199.561,387.733 199.424,386.139 200.703,385.358C201.644,384.783 206.287,384.388 226.413,378.209C263.131,366.936 305.955,350.137 311.348,345.799C311.48,345.925 311.588,346.031 311.682,346.121C311.751,346.01 311.821,345.899 311.903,345.797C312.53,345.018 314.476,344.488 315.702,345.843C316.526,346.753 316.376,347.876 316.291,348.735L316.553,348.855C316.455,349.03 316.376,349.215 316.239,349.431ZM311.462,346.455L311.039,346.249L311.01,346.308L311.427,346.5C311.439,346.485 311.451,346.47 311.462,346.455ZM310.986,353.019C307.895,354.572 302.956,356.74 294.972,359.858C277.411,366.717 234.564,381.895 204.221,389.22C204.241,391.022 204.469,394.157 205.684,398.468C206.823,402.515 208.275,405.749 209.193,407.598C210.668,407.078 215.449,405.51 215.937,405.35C266.672,388.722 303.85,385.401 319.56,385.371C314.118,370.056 311.107,362.952 310.986,353.019Z"/>
                <path d="M500.46,318.775C503.635,313.86 507.813,285.12 535.42,279.578C573.263,271.982 597.046,286.435 603.095,311.779C607.698,331.06 595.804,360.761 563.876,369.734C530.195,379.2 514.605,351.318 507.15,345.261C497.483,337.408 464.614,341.879 459.01,355.447C449.164,379.286 434.196,399.426 404.732,408.876C380.797,416.552 326.81,413.382 314.758,376.249C306.961,352.228 308.962,326.876 347.984,310.844C425.679,278.923 447.542,320.511 457.654,326.982C459.943,328.446 469.677,326.659 479.437,324.973C488.936,323.333 498.471,321.856 500.46,318.775Z" style="fill:white;"/>
                <path d="M498.131,317.271C498.081,317.239 498.275,317.275 499.154,314.942C502.708,305.508 509.279,282.196 534.906,277.029C564.192,271.125 591.011,277.857 602.163,301.804C605.704,309.406 606.179,315.767 606.273,317.025C607.887,338.609 592.821,365.026 562.442,372.381C527.581,380.822 511.73,350.58 505.03,346.352C495.028,340.041 465.892,344.704 461.033,356.131C455.288,369.641 444.719,392.69 417.866,405.898C408.17,410.667 400.605,412.238 399.041,412.563C372.19,418.139 324.263,412.51 312.674,376.928C305.363,354.479 304.883,326.128 347.133,308.771C366.604,300.772 392.841,293.01 417.085,298.483C441.815,304.067 452.572,320.619 458.875,325C461.337,325.699 468.052,324.61 483.459,321.899C485.974,321.457 496.913,319.644 498.482,317.497C498.423,317.46 498.365,317.422 498.307,317.384C498.249,317.346 498.19,317.308 498.131,317.271ZM502.439,320.053C500.213,323.188 495.524,324.583 483.387,326.672C466.462,329.586 459.36,330.93 456.253,328.845C446.273,322.149 427.649,287.34 364.239,307.311C359.763,308.72 349.541,312.214 341.697,316.154C312.319,330.911 309.258,352.2 316.842,375.57C328.374,411.109 380.835,414.472 404.751,406.62C435.083,396.662 448.472,375.189 457.045,354.625C463.195,339.874 495.954,335.382 507.324,342.769C512.348,346.033 518.46,356.524 529.893,363.557C541.736,370.843 554.42,371.138 568.16,366.015C594.449,356.213 605.44,329.891 600.589,311.482C593.905,286.123 569.637,275.234 535.935,282.128C510.176,287.397 506.381,314.15 503.019,319.898C502.944,320.026 502.864,320.151 502.789,320.279L502.439,320.053Z"/>
                <g transform="matrix(1.21824,-0.30779,0.32619,1.29107,-203.054,4.44353)">
                    <path d="M392.35,334.726C418.804,334.454 435.935,347.86 435.935,364.038C435.935,380.215 422.925,394.271 393.389,394.224C369.333,394.185 347.852,379.981 348.032,363.804C348.228,346.139 366.223,334.994 392.35,334.726Z"/>
                </g>
                <g transform="matrix(1.1456,-0.283876,0.283121,1.14256,-177.073,104.321)">
                    <path d="M551.307,301.015C567.466,301.015 586.773,309.059 586.731,329.689C586.7,344.848 569.546,357.695 554.724,357.875C537.771,358.08 521.512,346.12 520.55,329.292C519.581,312.333 535.148,301.015 551.307,301.015Z"/>
                </g>
            </g>
            <g transform="matrix(1.12262,-0.0738416,0.0738416,1.12262,-224.806,-61.1716)">
                <g transform="matrix(0.766204,-0.124125,0.124125,0.766204,179.938,159.689)">
                    <path d="M452.821,417.993C451.923,432.124 465.574,459.257 482.885,460.571C498.55,461.76 519.237,432.666 523.873,415.443C506.068,416.497 459.821,412.978 452.821,417.993Z" style="fill-opacity:0.18;"/>
                </g>
                <path d="M578.991,422.681C578.42,415.691 595.832,404.526 605.214,403.486C614.997,402.401 631.58,408.035 632.794,414.026C633.556,417.788 624.518,440.761 613.667,442.541C598.943,444.956 579.563,429.672 578.991,422.681Z" style="fill:rgb(255,120,61);"/>
                <path d="M577.756,421.919L577.806,421.933C577.942,420.196 579.197,415.661 588.566,409.459C592.54,406.829 599.914,402.903 605.844,402.525C616.694,401.833 633.916,408.117 633.559,414.845C633.275,420.211 624.62,441.643 613.616,443.359C613.423,443.389 604.458,445.445 591.472,437.577C587.697,435.289 584.379,432.605 581.983,430.026C578.388,426.158 577.901,423.76 577.798,422.553C577.801,422.606 577.804,422.646 577.804,422.672L577.791,422.467C577.786,422.389 577.781,422.315 577.777,422.243C577.77,422.125 577.764,422.018 577.756,421.919ZM580.149,422.59C580.247,423.346 580.596,425.818 585.286,430.327C592.536,437.297 604.491,443.299 613.653,441.734C623.968,439.973 632.976,417.376 632.038,414.001C630.453,408.302 612.657,402.464 603.332,404.747C596.48,406.424 588.46,411.463 584.279,415.563C580.196,419.565 580.132,421.686 580.173,422.597L580.149,422.59Z"/>
                <g transform="matrix(0.999315,0.0370145,-0.0370145,0.999315,16.1398,-22.2236)">
                    <path d="M587.786,422.531C588.816,427.117 606.023,438.158 614.379,435.323C622.413,432.596 628.17,415.271 627.761,414.616C626.442,412.502 617.673,411.026 608.378,412.692C596.207,414.875 587.305,420.387 587.786,422.531Z" style="fill:rgb(157,0,6);"/>
                    <path d="M587.185,422.671L587.17,422.67C587.099,422.085 586.9,420.435 592.388,417.482C599.514,413.649 611.979,410.293 622.39,412.061C626.553,412.768 628.153,414.01 628.126,414.779C628.069,416.389 622.252,434.22 613.442,436.006C604.646,437.79 588.668,427.595 587.26,422.938C587.233,422.85 587.212,422.76 587.185,422.671ZM588.451,422.657L588.4,422.445C588.405,422.515 588.426,422.569 588.451,422.657ZM588.4,422.432C589.835,427.153 606.228,437.417 614.058,434.988C621.615,432.643 627.231,417.031 627.434,414.751C625.669,412.637 617.272,411.572 608.886,413.049C598.322,414.91 589.509,419.664 588.428,422.211C588.405,422.311 588.397,422.377 588.4,422.432Z"/>
                </g>
                <g transform="matrix(1,0,0,1,0.66997,-0.359287)">
                    <path d="M621.78,426.925C622.125,426.023 617.188,422.708 608.266,422.531C597.739,422.323 591.359,426.032 591.461,426.238C591.825,426.964 603.062,436.604 612.161,435.402C615.206,434.999 620.237,430.953 621.78,426.925Z" style="fill:rgb(250,0,9);"/>
                </g>
            </g>
        </g>
        <g>
            <path d="M588.534,287.075C576.881,294.322 560.091,304.904 511.62,316.55C420.872,338.353 217.801,307.531 205.057,306.781C217.435,291.547 215.456,282.636 234.475,288.976C251.019,294.49 315.928,278.137 482.205,278.137C490.215,278.137 489.79,277.174 579.566,254.771C583.002,273.575 586.467,283.976 588.534,287.075Z" style="fill-opacity:0.68;"/>
            <path d="M217.816,289.393C192.694,318.1 202.453,384.105 200.624,384.78C183.022,391.276 134.043,382.192 109.304,355.393C95.139,340.048 81.183,317.523 101.091,291.533C124.401,261.103 222.504,268.387 222.561,266.578C225.851,161.621 220.909,102.005 226.247,88.141C233.436,69.469 289.493,33.549 322.907,35.99C333.224,36.744 344.408,49.05 355.806,61.22C365.186,41.998 362.816,34.076 370.497,25.943C375.851,20.273 440.173,30.126 454.195,38.898C463.412,44.665 480.527,84.407 500.556,124.664C520.24,164.228 542.608,196.323 543.272,196.151C565.596,190.368 649.697,158.279 675.152,179.628C687.601,190.07 685.246,204.255 675.399,218.895C654.944,249.305 593.149,280.917 491.255,298.583C412.245,312.282 294.435,293.394 217.816,289.393Z" style="fill:rgb(169,123,80);"/>
            <path d="M218.536,290.019L219.633,290.977C213.636,298.092 202.555,314.444 202.854,360.191C202.95,374.965 204.056,383.346 203.268,385.534C202.716,387.065 201.492,387.346 200.605,387.635C181.631,393.829 132.463,384.921 106.793,357.028C94.649,343.832 76.503,318.991 98.371,289.954C107.071,278.403 129.659,264.607 201.068,263.644C210.448,263.518 215.903,263.594 219.248,263.508C220.787,204.365 220.188,179.989 219.992,135.142C219.85,102.529 220.499,91.469 223.534,85.199C233.481,64.651 289.19,29.769 323.187,32.265C334.104,33.066 344.859,44.117 354.721,54.595C359.924,42.485 359.824,37.078 363.116,30.161C364.643,26.953 367.296,23.46 369.02,22.4C370.042,21.771 373.787,19.023 397.668,21.731C419.525,24.209 449.933,30.521 457.517,36.837C467.884,45.471 484.538,84.662 504.093,124.053C520.521,157.145 538.946,185.22 544.404,192.53C551.092,190.587 551.716,190.388 560.616,187.645C596.975,176.438 655.439,159.304 676.922,177.521C691.853,190.182 686.814,207.102 677.046,221.087C654.858,252.854 590.605,283.643 491.559,300.342C412.813,313.618 295.763,294.673 221.403,290.189C220.448,290.132 219.492,290.076 218.536,290.019ZM217.38,289.009C217.594,288.854 217.581,288.801 217.846,288.813C291.713,292.166 411.621,310.899 490.951,296.825C586.702,279.838 653.077,249.16 674.108,216.117C686.745,196.262 679.149,186.477 673.253,181.629C653.109,165.064 590.18,184.942 562.486,193.653C556.893,195.412 548.928,197.952 544.628,199.102C543.994,199.272 542.267,199.979 540.486,197.916C536.725,193.561 515.722,162.628 497.476,126.197C479.258,89.823 461.664,49.875 452.956,42.493C447.984,38.278 421.289,31.847 396.836,29.098C383.775,27.63 375.616,27.739 373.015,28.703C367.198,35.193 368.279,41.069 362.436,55.533C361.802,57.102 360.796,59.486 359.391,62.398C359.372,62.436 358.738,64.204 356.953,64.779C355.85,65.135 354.244,64.99 353.076,63.775C345.55,55.947 332.416,40.435 322.627,39.715C291.54,37.428 238.527,70.882 230.042,88.585C224.515,100.116 229.408,159.161 226.042,264.229C226.014,265.108 226.001,265.987 225.957,266.864C225.926,267.477 225.479,269.667 222.645,270.111C215.883,271.172 140.002,266.604 110.446,287.074C106.997,289.463 104.044,292.126 100.389,297.999C89.683,315.204 92.642,333.15 111.752,353.69C134.589,378.234 179.447,387.834 198.18,382.73C198.207,375.287 195.805,348.294 200.686,323.137C205.013,300.835 212.891,291.453 216.002,287.806L217.38,289.009Z"/>
            <g transform="matrix(1,0,0,1,-100.576,-6.13286)">
                <path d="M316.292,295.144C306.391,293.74 271.043,291.44 269.383,294.416C257.312,316.073 262.293,365.223 275.54,389.304C276.955,391.876 294.388,391.296 300.214,390.425C299.865,381.925 294.346,324.22 316.292,295.144Z" style="fill-opacity:0.41;"/>
            </g>
            <path d="M513.743,155.232C507.875,151.8 339.191,173.834 226.117,215.849C224.496,243.098 223.464,267.46 224.252,267.516C226.249,267.659 377.396,261.975 458.001,243.427C504.05,232.83 568.03,225.395 543.185,200.081C533.731,190.449 514.891,156.38 513.743,155.232Z" style="fill:rgb(176,86,58);"/>
            <path d="M514.036,154.73C514.69,155.301 514.588,155.39 521.634,167.051C539.977,197.406 542.709,197.853 545.946,201.851C558.274,217.082 537.389,225.399 522.027,230.067C504.007,235.543 483.171,239.04 457.371,245.041C376.338,263.887 225.643,270.192 223.978,269.977C221.538,269.662 221.588,266.906 221.554,266.226C221.126,257.625 223.363,217.325 223.477,215.693C223.493,215.462 223.595,213.999 225.198,213.368C228.896,211.91 237.648,208.866 238.735,208.488C340.485,173.099 468.855,155.959 503.208,153.904C513.011,153.317 513.816,153.961 514.336,154.218C514.231,154.397 514.131,154.568 514.036,154.73ZM513.421,155.77C513.272,156.021 513.172,156.191 513.136,156.255C505.897,154.705 435.702,164.326 361.431,180.729C286.178,197.349 245.903,211.487 228.361,217.842L227.896,217.167C227.976,217.735 228.51,218.174 228.59,218.741C228.59,218.743 227.002,243.877 226.568,258.394C226.466,261.804 226.452,263.804 226.469,264.998C246.217,264.408 381.541,259.057 457.683,242.035C495.174,233.653 544.206,227.204 547.631,212.15C548.918,206.492 542.909,201.171 541.152,199.133C531.705,188.172 515.579,158.89 513.421,155.77ZM513.142,156.256C513.116,156.294 513.115,156.292 513.136,156.255C513.138,156.255 513.14,156.255 513.142,156.256ZM513.142,156.256C513.166,156.22 513.212,156.147 513.284,156.035L513.182,156.265C513.169,156.262 513.155,156.259 513.142,156.256Z"/>
            <path d="M203.753,268.294C203.732,267.441 203.752,267.401 204.34,266.784C204.711,266.395 205.292,266.263 205.811,266.125C205.816,266.123 217.758,265.892 245.811,264.491C307.711,261.401 335.882,258.473 343.689,257.661C381.552,253.725 438.313,246.899 499.723,233.123C517.592,229.114 538.542,223.694 545.24,216.364C550.361,210.76 544.805,203.03 535.927,190.724C532.335,185.745 529.303,181.528 525.834,176.018C525.287,175.149 525.491,174.281 525.526,174.132C525.53,174.116 526.64,172.576 526.649,172.575C527.272,172.474 527.905,172.135 528.519,172.279C529.779,172.576 529.7,172.781 530.38,173.885C542.621,193.753 557.28,207.144 549.654,217.976C542.483,228.163 514.947,234.143 487.89,239.724C453.944,246.727 407.738,255.02 339.022,262.097C302.025,265.907 229.533,269.772 205.924,270.362C205.794,270.366 205.049,270.384 204.41,269.775C203.793,269.187 203.773,269.147 203.753,268.294Z"/>
            <path d="M373.288,73.995C373.038,74.109 372.838,74.316 372.589,74.43C372.574,74.437 371.574,74.278 371.486,74.264C360.255,72.48 351.889,62.061 346.425,56.66C345.487,55.732 344.846,55.153 344.844,55.149C344.508,54.264 343.816,53.439 343.837,52.493C343.837,52.476 344.967,49.895 344.975,49.892C345.858,49.548 346.68,48.845 347.627,48.866C349.614,48.911 349.587,49.225 350.848,50.76C356.856,58.072 362.177,67.647 370.011,72.011C370.218,72.126 371.783,72.997 372.694,73.261C372.746,73.276 372.818,73.256 372.853,73.298C373.112,73.619 373.027,73.672 373.288,73.995Z"/>
            <path d="M461.101,302.175C461.14,302.857 461.128,302.888 460.672,303.4C460.387,303.72 459.931,303.858 459.515,303.965C459.204,304.045 450.986,304.41 450.244,304.443C369.297,308.04 282.218,296.034 224.125,290.635C191.67,287.618 176.631,287.631 166.532,288.09C165.758,288.125 165.715,287.453 165.709,287.365C165.686,287 166.122,286.732 166.434,286.542C166.557,286.467 171.181,286.228 171.594,286.207C214.33,283.995 281.576,293.624 346.359,298.432C377.007,300.706 418.79,302.863 459.311,300.58C459.993,300.541 460.026,300.548 460.535,301.002C461.047,301.458 461.062,301.489 461.101,302.175Z"/>
            <g transform="matrix(1,0,0,1,-100.576,-6.13286)">
                <path d="M742.837,188.582C759.786,190.276 761.173,202.082 761.013,209.275C760.8,218.877 751.568,230.187 750.394,231.488C762.995,225.254 777.322,212.743 776.1,199.819C774.64,184.38 743.74,188.13 742.837,188.582Z" style="fill:white;fill-opacity:0.63;"/>
            </g>
            <g transform="matrix(1,0,0,1,-100.576,-6.13286)">
                <path d="M518.864,49.155C530.643,47.846 547.069,50.991 552.495,56.119C560.623,63.799 567.085,79.395 571.673,96.542C563.035,80.883 554.183,67.001 549.251,62.642C541.826,56.076 530.119,51.813 518.864,49.155Z" style="fill:white;fill-opacity:0.61;"/>
            </g>
        </g>
        <g>
            <path d="M374.149,904.708C314.008,917.927 195.457,877.212 175.116,857.285C174.916,857.089 73.718,775.733 106.986,684.815C115.522,661.485 166.544,648.222 236.188,644.543C280.97,642.177 393.046,652.196 407.973,712.11C448.438,874.522 406.586,897.579 374.149,904.708Z" style="fill:rgb(255,109,49);stroke:black;stroke-width:6.4px;"/>
            <path d="M412.217,723.689C407.04,705.275 380.706,691.547 344.415,684.122C320.675,679.265 290.719,687.006 286.899,720.182C274.205,830.412 328.571,901.824 376.858,903.236C418.538,904.454 443.034,833.314 412.217,723.689Z" style="fill:rgb(255,201,145);stroke:black;stroke-width:6.4px;"/>
            <g transform="matrix(0.999976,0.00686792,-0.00686792,0.999976,-512.528,157.772)">
                <path d="M893.877,552.549C890.597,561.155 906.318,574.725 916.377,610.528C922.965,633.977 927.364,685.993 925.997,689.647C936.909,657.104 933.232,610.281 925.268,582.148C916.395,550.806 897.998,541.739 893.877,552.549Z" style="fill:white;fill-opacity:0.89;"/>
            </g>
        </g>
        <g transform="matrix(1,0,0,1,-100.576,-6.13286)">
            <path d="M277.25,652.037C258.097,660.033 244.248,717.65 285.001,730.989C310.361,739.291 341.954,737.682 378.383,742.581C416.301,747.68 452.337,753.821 459.952,741.8C466.377,731.658 284.602,648.968 277.25,652.037Z" style="fill-opacity:0.39;"/>
        </g>
        <path d="M209.245,506.377C183.482,527.878 172.222,564.245 168.571,588.944C157.591,663.213 214.501,714.324 268.589,717.964C329.698,722.076 348.165,748.382 363.905,727.381C370.821,718.153 376.426,678.233 311.716,641.256C268.78,616.721 287.244,546.385 269.004,516.838C256.718,496.937 228.094,490.644 209.245,506.377Z" style="fill:rgb(24,27,44);"/>
        <path d="M207.914,504.79L208.049,504.944C210.088,503.278 221.166,493.681 238.99,495.534C251.274,496.812 267.381,504.16 274.817,522.187C288.092,554.372 276.175,615.584 312.905,637.04C318.995,640.598 362.424,663.202 371.374,700.029C373.981,710.755 373.32,723.355 367.459,730.921C356.027,745.679 342.107,740.269 324.615,734.559C308.445,729.28 292.055,724.524 268.255,722.75C223.078,719.381 178.509,685.287 166.805,634.973C161.322,611.398 163.973,589.162 169.975,567.908C178.042,539.344 191.038,522.866 191.989,521.591C199.161,511.972 205.635,506.672 207.914,504.79ZM210.444,507.807L210.576,507.964C206.792,511.251 184.753,529.389 174.409,574.699C170.778,590.607 164.543,625.029 184.946,660.098C202.616,690.468 235.22,710.994 268.923,713.178C309.216,715.789 329.728,727.127 344.422,729.874C351.174,731.136 355.43,730.427 359.969,724.341C365.053,717.526 371.081,681.479 311.075,645.81C304.93,642.157 291.357,634.499 283.501,610.81C272.684,578.195 279.128,536.866 265.712,516.781C253.915,499.12 228.673,494.349 212.149,506.467C211.533,506.919 210.597,507.682 210.444,507.807Z"/>
        <g transform="matrix(0.827775,-0.56106,0.56106,0.827775,-419.943,362.823)">
            <path d="M452.283,695.325C459.524,717.186 440.102,734.536 434.374,728.023C427.628,720.352 450.257,718.618 452.283,695.325Z" style="fill:white;fill-opacity:0.74;"/>
        </g>
        <g transform="matrix(1.18879,0.139918,-0.139918,1.18879,34.6207,-164.887)">
            <path d="M261.46,624.185C259.477,621.675 257.237,611.115 260.634,609.18C262.578,608.073 269.31,612.388 271.341,616.225C270.93,618.977 265.024,625.076 261.46,624.185Z" style="fill:rgb(45,106,186);"/>
            <path d="M261.103,624.467L261.032,624.524C258.415,621.134 256.109,610.141 260.321,608.224C263.256,606.887 270.213,611.921 272.105,615.814C272.195,616 272.458,616.542 271.392,618.297C269.413,621.554 264.495,625.502 261.354,624.628C261.236,624.595 261.202,624.543 261.103,624.467ZM261.845,623.783C264.886,624.061 269.646,619.116 270.42,616.382C267.782,612.38 261.984,609.472 261.039,610.097C258.839,611.555 259.737,620.33 261.845,623.783Z"/>
            <g>
                <path d="M305.937,607.388C300.719,592.005 284.584,597.763 280.9,602.51C268.984,617.859 260.095,625.354 244.37,635.687C226.879,647.181 211.124,654.937 209.883,662.544C208.679,669.921 212.586,675.988 219.186,677.288C228.98,679.217 244.92,669.494 263.038,656.928C279.123,645.771 291.952,630.314 292.971,629.347C307.329,615.707 307.513,612.032 305.937,607.388Z" style="fill:rgb(214,152,103);"/>
                <path d="M306.456,607.209C306.455,607.21 306.455,607.211 306.455,607.212C306.539,607.806 308.072,610.512 306.304,614.495C303.595,620.594 294.745,628.337 292.876,630.431C286.169,637.945 276.605,648.49 262.662,658.198C241.822,672.708 226.907,681.066 217.232,677.768C210.844,675.591 207.73,669.1 208.931,662.283C210.659,652.482 234.048,642.848 255.12,627.161C266.462,618.717 273.242,611.052 280.331,602.062C282.549,599.248 288.404,596.406 294.09,596.761C303.395,597.34 306.008,605.791 306.496,607.194C306.498,607.194 306.499,607.194 306.497,607.195C306.483,607.2 306.469,607.205 306.456,607.209ZM305.419,607.566L305.377,607.58C305.088,606.785 302.235,596.938 291.477,598.165C286.776,598.701 282.867,601.166 281.549,602.855C269.288,618.572 261.445,626.122 236.843,641.606C222.85,650.413 211.734,656.789 210.826,662.865C209.677,670.553 214.406,677.518 223.83,676.451C229.724,675.783 239.342,672.384 262.941,655.989C278.743,645.012 291.502,629.827 292.509,628.871C296.897,624.707 302.562,619.206 304.915,614.73C306.711,611.315 305.935,609.168 305.419,607.566Z"/>
                <path d="M213.676,674.432C212.768,673.118 210.509,670.759 211.321,670.195C218.886,664.944 235.15,658.105 246.587,643.27C256.733,630.11 260.894,632.864 275.254,613.718C283.133,603.213 293.16,587.884 305.059,605.654C306.014,607.08 307.042,610.255 289.259,629.054C247.921,672.754 236.508,674.022 230.599,674.679C227.631,675.008 216.94,679.156 213.676,674.432Z" style="fill-opacity:0.49;"/>
            </g>
            <g>
                <path d="M243.977,711.817C243.661,712.211 233.086,714.442 224.516,712.765C217.636,711.419 209.546,709.24 205.919,700.329C202.761,692.569 204.108,687.022 208.002,681.161C217.84,666.353 229.696,667.457 244.611,651.262C254.457,640.571 251.609,640.25 263.469,631.791C269.509,627.483 277.084,606.654 291.606,604.691C302.403,603.231 313.993,607.909 318.778,621.378C321.06,627.801 319.844,645.852 300.977,670.784C292.066,682.559 248.107,709.752 243.977,711.817Z" style="fill:rgb(240,111,89);"/>
                <path d="M244.767,712.981C244.381,713.239 243.373,713.617 240.154,714.13C231.854,715.453 226.276,714.547 225.086,714.354C216.774,713.003 212.886,710.517 211.952,709.919C210.042,708.698 205.153,705.329 203.125,696.691C201.844,691.233 202.486,685.134 209.086,676.944C218.829,664.856 229.682,665.144 243.785,649.603C252.194,640.337 250.837,638.951 260.361,631.871C263.15,629.798 263.537,629.998 267.583,624.027C273.135,615.831 280.175,604.327 291.638,602.904C303.471,601.436 315.49,606.897 320.405,620.803C322.702,627.302 322.077,645.623 302.252,671.752C293.391,683.431 251.34,709.435 244.767,712.981ZM242.884,710.942C242.903,710.927 242.92,710.911 242.937,710.896L242.931,710.89L242.884,710.942ZM243.295,710.606C243.818,710.326 246.193,709.018 252.616,704.98C269.558,694.327 293.651,677.869 299.701,669.816C319.01,644.115 318.909,627.044 317.196,622.082C312.972,609.842 302.284,604.975 291.844,606.442C278.237,608.354 271.054,628.512 264.505,633.22C255.066,640.005 255.708,640.74 250.345,647.319C234.456,666.813 223.491,666.581 213.693,676.644C213.675,676.663 207.69,682.64 206.183,688.704C205.933,689.71 204.804,693.822 207.506,700.13C210.405,706.897 216.228,709.754 225.179,711.401C232.022,712.659 240.537,711.424 243.295,710.606Z"/>
                <path d="M205.898,694.533C206.09,695.446 204.681,680.157 227.954,667.534C239.004,661.54 247.864,652.238 251.072,646.515C245.801,653.053 240.006,657.892 227.531,665.102C216.586,671.428 203.185,681.675 205.898,694.533Z" style="fill:rgb(250,128,126);"/>
                <path d="M266.406,631.828C270.131,627.569 272.735,624.641 274.819,622.086C278.596,617.454 280.899,612.065 291.062,606.815C288.776,606.9 282.145,608.717 274.169,620.568C271.25,624.903 270.245,626.835 266.406,631.828Z" style="fill:rgb(250,128,126);"/>
                <path d="M251.862,663.975C250.185,665.127 243.653,667.971 239.946,669.337C235.189,671.09 230.619,673.77 228.905,676.437C227.513,678.603 227.5,682.058 224.712,685.536C221.594,689.426 215.654,690.132 216.039,694.043C216.921,703.014 233.821,694.934 235.471,688.364C238.437,676.553 247.962,674.116 255.849,669.909C257.767,668.887 276.236,651.704 278.814,649.227C285.626,642.682 292.7,643.812 292.671,637.429C292.653,633.594 288.185,632.323 288.522,629.437C288.822,626.877 291.601,626.162 295.618,626.134C304.83,626.07 312.78,621.388 310.813,617.168C307.721,610.532 298.048,615.752 291.154,618.05C282.334,620.989 277.288,621.678 277.783,626.936C278.189,631.247 281.322,631.442 282.295,634.777C283.193,637.857 281.26,639.497 277.793,641.704C266.547,648.861 266.654,653.805 251.862,663.975Z" style="fill:rgb(254,184,0);"/>
                <path d="M216.141,695.602C215.697,689.501 225.524,688.548 227.376,684.473C229.535,679.725 226.376,677.493 238.177,670.529C228.651,673.596 227.397,680.289 226.53,683.025C226.077,684.454 224.708,686.642 220.245,689.009C217.381,690.528 215.731,692.313 216.141,695.602Z" style="fill:white;fill-opacity:0.61;"/>
                <path d="M279.532,629.185C278.921,629.064 278.639,625.158 280.728,623.711C284.956,620.784 295.086,617.76 299.399,615.787C295.17,616.514 281.799,621.586 280.749,622.18C276.836,624.391 278.145,628.144 279.532,629.185Z" style="fill:white;fill-opacity:0.65;"/>
                <path d="M288.975,650.386C288.917,650.371 288.845,650.381 288.802,650.34C288.757,650.296 283.188,640.338 275.69,636.058C274.714,635.501 274.669,635.57 274.614,635.489C274.532,635.367 274.485,635.207 274.732,635.242C274.901,635.266 276.003,635.882 276.111,635.943C283.147,639.878 287.662,647.822 289.021,650.212C289.05,650.264 289.033,650.402 288.975,650.386Z"/>
            </g>
            <g>
                <path d="M260.195,678.417C253.885,672.719 248.713,665.782 245.067,658.283C244.458,657.03 247.162,649.401 253.417,644.924C254.273,644.312 254.839,639.077 263.898,636.023C264.463,635.832 268.703,637.037 278.148,647.936C285.757,656.716 287.011,659.174 286.908,659.421C286.432,660.571 282.018,667.452 270.909,673.624C266.289,676.19 261.793,678.271 260.195,678.417Z" style="fill:rgb(45,106,186);"/>
                <path d="M260.025,678.604L260.011,678.62C258.333,677.098 250.453,670.136 244.723,658.444C243.95,656.866 246.974,649.167 252.871,644.793C252.975,644.716 253.168,644.681 253.448,644.127C254.283,642.471 255.971,638.296 263.54,635.67C263.558,635.663 264.26,635 267.322,637.016C267.559,637.172 272.479,639.943 283.062,653.141C287.837,659.096 287.299,659.456 287.294,659.481C287.166,660.148 282.766,667.391 271.316,673.744C264.501,677.525 260.539,678.836 260.135,678.662C260.097,678.646 260.063,678.621 260.025,678.604ZM260.295,678.145C262.796,677.705 271.324,673.574 277.067,669.27C282.434,665.247 285.543,661.27 286.509,659.361C285.675,657.294 276.797,646.436 271.075,641.188C266.841,637.304 264.625,636.49 264.068,636.456C264.008,636.453 264.04,636.419 264.003,636.368L264.029,636.453C257.666,638.68 255.805,641.377 254.311,644.331C253.815,645.313 253.684,645.216 252.828,645.905C247.018,650.58 245.004,657.277 245.41,658.122C250.942,669.657 258.649,676.612 260.295,678.145Z"/>
                <path d="M246.574,653.665C245.997,656.197 249.002,660.645 254.401,657.991C256.387,657.014 258.651,655.658 262.954,651.845C263.049,651.761 264.652,653.951 264.625,653.97C261.886,655.943 257.281,660.868 258.43,667.663C259.093,671.581 264.183,676.689 264.99,676.385C275.466,672.437 285.659,662.757 286.634,659.18C286.875,658.298 276.408,644.962 269.075,639.191C264.981,635.97 264.185,636.186 263.935,636.267C255.537,638.968 254.141,644.804 253.706,645.094C248.68,648.443 246.587,653.61 246.574,653.665Z" style="fill:rgb(254,254,242);"/>
                <path d="M260.637,678.807C260.317,678.703 259.951,678.833 259.631,678.729C259.518,678.691 257.639,676.835 257.469,676.667C253.78,673.022 248.069,666.728 243.725,656.493C243.6,656.197 243.532,656.111 243.822,655.974C243.951,655.913 244.119,656.024 244.226,656.119C244.229,656.121 245.99,659.705 249.357,664.429C253.696,670.516 257.696,674.834 258.483,675.684C259.609,676.899 260.52,677.804 260.521,677.806C260.596,678.133 260.561,678.48 260.637,678.807Z"/>
                <path d="M287.095,659.855C286.81,659.753 286.496,659.753 286.212,659.651C286.168,659.636 282.907,654.245 275.821,646.349C270.717,640.661 267.475,638.255 266.663,637.653C263.784,635.515 262.709,635.646 262.332,635.692C262.031,635.728 261.983,635.486 261.977,635.453C261.859,634.861 263.192,635.078 263.3,635.096C266.624,635.637 274.842,642.003 281.422,650.468C284.67,654.647 286.476,657.639 287.204,658.822C287.234,658.871 287.303,658.912 287.297,658.97C287.249,659.423 287.143,659.399 287.095,659.855Z"/>
                <g transform="matrix(0.825506,-0.661854,0.557689,0.695584,-316.083,368.057)">
                    <ellipse cx="257.984" cy="646.218" rx="0.751" ry="2.24"/>
                </g>
                <g transform="matrix(0.779382,-0.731915,0.763717,0.813248,-423.493,324.84)">
                    <ellipse cx="257.984" cy="646.218" rx="0.751" ry="2.24"/>
                </g>
                <g transform="matrix(0.771649,-0.598219,0.655561,0.845616,-366.467,257.686)">
                    <path d="M263.927,648.19C265.23,648.136 267.254,650.288 267.133,652.453C267.014,654.585 265.753,656.772 264.363,656.685C263.429,656.627 262.023,654.46 261.976,652.423C261.931,650.451 262.773,648.238 263.927,648.19Z" style="fill:rgb(237,162,11);"/>
                    <path d="M263.921,648.063C265.566,648.104 267.513,650.349 267.327,652.668C267.106,655.417 265.088,658.038 263.388,656.377C263.07,656.067 261.629,654.404 261.802,651.855C261.875,650.791 262.19,649.731 262.623,649.03C263.197,648.098 263.773,648.091 263.921,648.063ZM263.934,648.311L263.934,648.318C262.539,648.408 261.103,652.618 263.3,655.608C264.08,656.669 264.613,656.613 265.223,656.194C266.063,655.616 267.662,652.967 266.536,650.562C266.463,650.405 266.038,649.498 265.172,648.829C264.486,648.3 264.014,648.32 263.934,648.311Z"/>
                </g>
                <g transform="matrix(0.437235,-0.338965,0.482581,0.622486,-165.204,334.555)">
                    <path d="M263.349,648.267C264.419,648.246 267.131,650.873 267.027,652.564C266.937,654.025 265.251,656.718 263.993,656.622C263.456,656.581 262.34,654.036 262.278,652.465C262.215,650.878 262.61,648.282 263.349,648.267Z" style="fill:rgb(249,87,95);"/>
                    <path d="M263.342,648.107C263.342,648.103 263.342,648.098 263.342,648.094C264.856,648.208 267.675,650.921 267.362,652.883C267.03,654.964 264.474,658.308 263.143,656.297C262.756,655.712 261.901,653.863 261.943,652.157C261.982,650.531 262.323,649.347 262.523,648.881C262.862,648.09 263.208,648.138 263.342,648.107ZM263.319,648.423C263.237,648.516 263.07,648.731 262.957,649.095C262.537,650.442 262.184,653.264 263.739,655.849C263.763,655.889 263.945,656.192 264.093,656.326C264.097,656.33 264.1,656.333 264.103,656.336C265.098,656.197 266.813,653.479 266.653,652.259C266.435,650.588 264.255,648.567 263.412,648.445C263.402,648.444 263.392,648.442 263.383,648.44C263.375,648.449 263.36,648.449 263.338,648.435C263.333,648.432 263.325,648.427 263.319,648.423ZM264.019,656.497C264.018,656.5 264.016,656.504 264.015,656.507C264.016,656.504 264.018,656.501 264.019,656.497Z"/>
                </g>
            </g>
            <g>
                <path d="M313.08,626.561C302.913,634.844 299.124,655.998 264.446,676.392C246.305,687.061 231.413,692.522 241.988,710.366C246.841,718.554 261.546,719.088 277.185,709.623C287.671,703.277 307.56,694.788 323.339,671.424C331.3,659.638 335.989,641.031 329.336,631.225C324.343,623.866 317.923,622.616 313.08,626.561Z" style="fill:rgb(214,152,103);"/>
                <path d="M312.707,626.108C312.709,626.109 312.71,626.109 312.711,626.108C312.953,625.966 318.452,620.757 325.695,626.147C326.879,627.028 329.875,629.71 331.58,633.609C335.914,643.519 332.436,660.108 323.988,672.667C308.492,695.705 289.357,704.196 277.637,711.216C261.512,720.874 245.975,720.156 240.686,711.144C228.616,690.576 248.477,684.782 266.978,673.467C278.522,666.407 286.347,659.296 292.089,652.799C302.551,640.96 305.857,631.744 312.694,626.092C312.698,626.097 312.703,626.103 312.707,626.108ZM313.451,627.013L313.465,627.03C306.169,633.298 302.692,644.782 289.285,658.605C275.221,673.106 260.522,679.684 251.11,685.673C240.533,692.404 236.439,698.11 243.291,709.588C247.338,716.368 260.339,717.82 276.363,708.253C287.608,701.54 306.721,693.361 322.32,670.736C330.012,659.58 335.11,641.149 328.555,631.512C327.603,630.113 323.478,624.129 317.462,625.128C316.381,625.307 315.509,625.726 315.349,625.803C314.381,626.268 313.91,626.653 313.451,627.013Z"/>
                <path d="M321.906,625.383C319.965,623.075 333.342,634.714 326.291,655.2C315.99,685.125 284.865,700.175 278.86,703.82C256.503,717.392 248.255,712.345 244.35,711.723C247.072,713.261 252.533,719.929 266.757,713.701C305.479,696.747 316.531,680.628 323.601,669.145C340.478,641.735 329.004,629.222 321.906,625.383Z" style="fill-opacity:0.47;"/>
                <g transform="matrix(0.56507,0.629389,-0.872216,0.783082,710.485,-40.8297)">
                    <ellipse cx="299.554" cy="661.464" rx="6.632" ry="10.019" style="fill:rgb(45,106,186);"/>
                    <path d="M299.554,651.082C299.696,651.083 302.719,650.824 305.129,654.519C309.47,661.175 306.652,672.544 299.434,672.429C292.546,672.319 289.67,661.839 293.544,655.064C296,650.769 299.375,651.042 299.554,651.034L299.554,651.082ZM299.554,651.807L299.554,651.85C299.549,651.85 297.594,651.731 295.895,654.159C292.268,659.339 294.327,668.739 298.579,670.348C302.555,671.853 306.722,663.991 304.665,657.044C304.497,656.478 303.921,654.661 302.614,653.3C301.178,651.804 299.801,651.823 299.554,651.807Z"/>
                </g>
                <path d="M293.456,669.659C293.309,671.602 295.298,674.395 293.721,678.965C290.526,688.218 298.721,683.027 299.489,682.478C304.551,678.859 307.927,675.351 309.65,669.293C311.683,662.141 310.022,657.125 309.825,657.111C301.213,656.472 293.657,667.019 293.456,669.659Z" style="fill:rgb(45,106,186);"/>
                <path d="M293.002,669.624C293.434,666.322 300.234,656.9 308.371,656.275C309.966,656.152 310.214,656.336 310.341,656.429C311.464,657.258 312.886,665.622 309.21,673.379C306.698,678.682 301.75,682.041 300.027,683.242C299.97,683.281 296.615,685.551 294.319,685.259C293.721,685.183 291.908,684.762 292.213,681.863C292.561,678.54 294.448,677.554 293.308,672.393C292.936,670.708 292.879,670.558 292.912,669.617L293.002,669.624ZM293.911,669.693C293.91,669.695 293.91,669.696 293.91,669.697L293.996,669.7C294.07,671.848 295.849,674.564 294.487,678.978C294.447,679.111 293.448,681.967 293.914,683.137C293.99,683.328 294.27,684.03 296.492,683.088C297.717,682.569 299.108,681.777 301.929,679.342C303.482,678.002 308.34,673.938 309.513,665.107C309.881,662.341 309.729,659.583 309.237,657.911C307.812,657.854 303.214,658.146 297.985,663.525C295.873,665.698 294.089,668.355 293.911,669.693Z"/>
            </g>
        </g>
    </g>
</svg>
