<?xml version="1.0" encoding="UTF-8" standalone="no"?>
<!DOCTYPE svg PUBLIC "-//W3C//DTD SVG 1.1//EN" "http://www.w3.org/Graphics/SVG/1.1/DTD/svg11.dtd">
<svg width="100%" height="100%" viewBox="0 0 363 565" version="1.1" xmlns="http://www.w3.org/2000/svg" xmlns:xlink="http://www.w3.org/1999/xlink" xml:space="preserve" xmlns:serif="http://www.serif.com/" style="fill-rule:evenodd;clip-rule:evenodd;stroke-linejoin:round;stroke-miterlimit:2;">
    <g id="Background" transform="matrix(1,0,0,1,-2,-2)">
        <path d="M186.63,10.849C200.351,6.512 215.21,10.609 217.598,11.268C221.481,13.349 221.995,12.716 223.682,15.379C227.693,21.708 229.742,18.38 246.478,22.57C273.386,29.308 298.384,36.039 325.261,61.777C327.991,65.429 328.055,65.339 328.285,65.658C335.772,76.157 335.606,76.26 339.685,88.427C343.521,99.868 347.552,123.79 348.025,140.53C348.046,143.175 348.066,145.82 348.087,148.465C348.042,151.155 347.997,153.844 347.952,156.534C347.783,161.588 347.837,161.513 347.095,166.483C346.898,167.16 346.806,167.865 346.609,168.543C345.409,172.668 341.186,171.993 343.531,181.49C346.003,206.669 338.469,234.569 334.24,243.374C325.007,262.597 323.525,261.821 322.995,263.594C322.995,263.594 324.388,265.065 324.509,265.193C325.528,265.253 326.546,265.313 327.565,265.374C328.157,265.84 331.725,268.65 329.66,274.562C327.759,280.006 330.415,280.923 327.2,285.286C325.101,288.134 327.815,288.091 340.21,306.684C342.934,310.469 342.923,310.44 343.152,310.771C343.767,311.66 343.574,311.707 344.211,312.627C351.337,325.678 351.519,325.56 352.067,326.73C353.368,329.341 353.315,329.316 353.438,329.533C355.37,332.96 367.989,355.338 356.703,378.598C349.081,394.308 343.864,393.277 346.42,402.524C348.597,410.402 346.41,410.674 348.252,418.568C350.03,426.188 348.596,446.346 342.101,462.403C341.167,466.167 340.894,465.958 339.261,469.358C334.875,476.505 335.082,476.541 330.384,483.43C326.345,489.148 326.599,489.351 316.808,498.805C315.455,500.111 303.961,511.21 298.565,513.624C285.565,519.441 301.904,519.051 306.239,522.837C331.309,544.732 290.101,554.459 285.49,555.12C282.514,555.98 282.565,555.899 279.465,556.341C275.046,557.433 270.369,557.152 266.485,557.259C258.138,557.247 246.41,558.252 229.596,551.277C217.836,546.399 220.774,540.876 215.499,541.037C206.183,541.321 206.313,541.895 205.511,541.908C172.476,542.438 172.532,541.26 163.485,540.929C157.736,540.719 160.177,545.514 148.589,551.663C136.368,558.147 118.198,558.173 115.5,558.176C100.285,558.198 100.464,556.561 95.454,555.988C83.707,554.644 68.594,544.392 67.973,538.425C66.242,521.783 75.834,520.654 82.257,518.066C85.73,516.666 81.749,516.493 78.758,514.168C76.135,512.128 70.899,508.35 70.21,507.852C67.694,506.036 67.107,506.807 51.699,491.332L49.808,489.272C47.914,486.674 47.849,486.804 45.973,484.192C38.472,473.747 39.126,473.357 37.723,471.319C33.981,463.88 34.151,463.895 33.763,463.293C29.842,452.371 29.503,452.587 26.66,441.443C23.171,427.765 23.879,427.701 23.888,413.502C23.906,384.183 36.935,348.736 39.733,342.607C42.829,334.575 46.295,327.066 46.91,325.735C47.832,323.714 53.304,311.727 60.683,301.631C64.664,295.715 65.165,295.105 65.601,294.573C66.331,293.559 69.982,289.965 68.538,286.481C67.259,283.394 67.134,283.514 65.942,280.415C65.906,279.784 65.87,279.154 65.834,278.523C66.9,275.81 66.428,275.507 68.698,273.737C72.879,270.476 69.816,269.678 66.65,265.375C64.65,263.378 63.085,260.67 61.996,259.22C54.833,247.913 50.686,234.6 49.986,232.352C45.717,219.432 47.942,216.48 44.477,217.405C37.11,219.37 37.11,219.042 29.478,219.307C28.152,219.151 26.825,218.994 25.499,218.837C25.923,218.738 26.076,218.097 26.5,217.999C27.479,217.771 28.511,217.955 29.516,217.902C30.574,217.847 37.335,217.493 42.571,215.667C48.259,213.683 40.402,200.952 45.609,173.527C45.622,172.83 45.888,172.154 45.902,171.458C46.01,165.857 25.103,181.064 22.486,183.484C11.237,193.88 -6.239,206.486 10.396,216.624C11.442,218.69 11.251,218.746 11.361,218.911C10.82,218.722 6.072,217.056 4.765,216.113C-6.77,207.782 9.356,190.352 19.64,182.666C26.33,176.506 39.552,169.272 41.382,168.271C44.07,166.8 43.254,160.925 42.243,154.582C42.135,151.871 42.027,149.159 41.919,146.447C41.883,137.891 41.08,108.107 44.37,96.459C44.986,94.277 50.682,74.109 53.808,69.731C67.741,50.215 72.147,39.161 118.537,26.733C125.797,24.365 145.203,21.175 147.54,20.791C150.404,20.203 153.956,19.284 164.533,18.621C175.935,16.869 177.662,19.901 180.692,14.703C181.329,14.096 181.276,13.326 186.63,10.849Z" style="fill:rgb(14,10,19);fill-opacity:1;"/>
        <path d="M322.399,413.762C322.572,418.596 331.393,433.233 322.171,462.396C321.672,463.973 315.702,478.495 306.19,486.04C303.249,488.373 296.154,499.827 270.667,511.858C214.008,538.605 163.801,528.189 155.415,526.863C146.709,525.487 147.04,524.59 138.547,522.305C121.152,517.627 117.474,514.64 114.702,513.15C100.554,504.615 88.181,499.135 75.191,477.681C69.428,468.164 62.365,445.049 69.778,428.602C71.287,425.254 71.38,425.403 72.492,421.988C103.891,429.849 117.426,422.335 120.359,422.914C122.787,423.394 133.586,450.444 134.789,454.434C142.643,480.494 146.005,487.908 175.539,493.268C218.716,501.104 246.112,479.874 247.5,479.104L248.5,478.853L249.5,477.918L249.354,476.223C261.055,471.036 262.634,469.474 266.866,429.522C267.669,421.944 267.843,422.054 268.142,414.408C299.248,424.057 314.371,412.702 322.399,413.762Z" style="fill:rgb(249,245,243);"/>
        <path d="M181.306,22.731C181.175,22.961 181.99,23.072 181.859,23.302C180.882,25.016 180.381,24.071 178.409,24.245C166.691,25.276 165.639,25.499 164.548,25.729C129.469,33.153 112.972,40.34 98.512,56.509C80.18,77.007 87.086,145.934 87.645,146.395C90.84,149.034 88.861,139.107 88.749,136.486C86.34,80.069 94.216,67.48 97.379,62.423C118.233,29.09 182.961,26.105 183.551,26.046C190.573,26.811 190.395,27.546 201.504,28.649C203.195,28.848 203.203,28.791 203.331,28.864C204.456,29.506 206.287,83.62 206.448,88.386C196.694,90.26 156.218,84.684 153.961,116.541C152.553,136.419 154.898,138.772 151.462,139.023C130.821,140.533 117.269,140.577 78.405,152.224C63.687,156.635 52.706,163.443 50.635,164.727C50.555,164.777 46.477,168.962 46.133,162.518C44.347,129.031 33.936,63.614 95.601,36.758C119.612,26.3 176.931,17.363 179.106,20.707C179.955,22.011 180.029,21.839 181.306,22.731Z" style="fill:rgb(15,107,196);"/>
        <path d="M265.559,321.602C265.522,322.038 265.052,321.651 265.016,322.082C265.002,322.249 265.07,322.227 265.741,324.042C266.557,326.216 266.534,326.21 266.622,326.39C267.228,327.627 267.269,326.078 268.5,325.482C270.008,325.523 271.021,325.035 270.502,326.501C268.902,331.016 270.092,331.342 267.864,335.569C267.503,337.017 268.042,336.979 267.749,338.486C267.693,338.775 265.419,341.267 265.206,341.5L264.5,341.976L263.5,341.933C263.358,341.91 262.844,339.484 260.931,341.5C260.87,341.564 260.438,342.019 260.474,342.5C260.503,342.889 261.051,343.111 261.08,343.5L262.512,344.533C261.581,345.004 260.651,345.476 259.72,345.947C258.833,343.857 257.29,343.356 259.362,338.451C259.531,338.052 260.584,335.56 257.439,333.388C257.415,333.371 255.249,333.944 256.271,335.494C257.569,337.464 256.752,337.613 256.6,338.519C256.226,340.74 256.912,347.066 256.905,347.906C248.423,356.499 250.433,368.225 253.56,374.469C253.46,374.801 251.376,375.818 255.814,386.376C256.988,389.169 257.873,390.161 262.451,394.554C264.051,396.298 264.098,396.224 266.436,396.505C265.719,411.983 262.41,450.214 260.137,453.25C259.571,454.005 252.774,459.309 248.67,460.934C231.464,467.752 209.503,467.79 207.506,467.87C203.547,467.923 169.182,468.38 158.58,460.446C151.258,455.248 152.739,446.631 146.719,411.461C145.452,404.059 144.665,401.981 147.426,399.373C152.847,394.975 162.277,388.776 167.538,371.51C170.729,361.034 165.075,353.991 164.122,352.805C156.252,343.002 138.719,341.05 138.597,341.023C138.451,340.516 138.305,340.008 138.159,339.5C137.852,337.621 138.018,337.633 137.975,337.476C139.835,337.867 142.645,341.384 142.839,335.533C143.049,329.192 141.991,327.147 141.655,326.5L141.674,325.012C179.116,331.042 183.271,332.01 220.523,328.836C230.159,328.015 229.921,326.235 239.537,326.686C238.777,327.69 238.824,327.601 238.777,327.69C238.604,328.011 238.854,328.03 238.666,328.38C240.604,329.351 240.565,329.353 242.768,329.604L242.883,328.587C242.683,328.011 242.482,327.435 242.282,326.859C243.082,326.716 242.65,326.118 243.5,325.966C244.105,325.857 243.869,326.547 244.517,326.459C244.93,326.402 245.099,325.785 245.505,325.692C246.483,325.469 247.513,325.641 248.512,325.547C252.777,325.146 252.599,324.561 265.559,321.602Z" style="fill:rgb(242,160,184);"/>
        <path d="M181.815,145.206C187.055,181.041 184.795,181.6 187.61,186.751C186.757,187.122 179.866,190.114 177.491,192.491C175.034,194.951 173.253,199.142 173.513,202.499C174.541,215.785 187.665,216.886 192.459,217.726C194.058,223.576 193.771,233.156 193.731,234.501C193.691,235.843 193.38,237.192 193.553,238.523C193.637,239.167 194.394,239.595 194.478,240.239C188.341,240.962 188.306,240.347 182.422,242.279C134.854,257.896 128.867,291.114 127.89,292.922C127.643,292.273 126.513,292.268 126.266,291.62C126.009,290.947 126.494,290.198 126.58,289.484C126.829,287.414 126.517,287.506 125.674,283.457C120.163,256.955 115.431,257.892 107.831,250.191C99.596,241.845 90.901,234.376 88.97,229.3C76.332,196.079 79.574,176.042 81.639,158.66C88.055,155.019 122.71,147.227 139.443,146.01C142.786,145.767 169.436,143.828 181.326,144.697C181.56,144.714 181.58,145.189 181.815,145.206Z" style="fill:rgb(252,245,242);"/>
        <path d="M225.387,22.421C226.982,23.054 226.809,23.351 228.49,23.653C228.813,23.71 228.787,23.713 232.506,24.474C233.852,24.712 235.197,24.95 236.543,25.188C252.186,26.957 282.138,37.063 298.183,48.962C314.139,60.793 338.435,70.825 338.558,156.495C338.566,161.426 343.008,160.54 342.184,162.5C341.994,162.951 341.514,163.239 341.324,163.691L339.921,163.064C331.956,157.481 327.282,157.025 310.306,150.973C299.94,147.907 299.999,147.88 289.417,145.897C274.045,142.884 271.3,143.819 271.269,141.55C271.202,136.641 273.235,124.358 267.509,124.19C264.29,124.095 253.949,124.705 253.804,122.436C252.951,109.081 252.307,98.355 228.54,91.374C224.258,90.117 211.075,89.071 208.54,88.434C208.578,83.663 208.731,64.347 205.644,28.857C207.368,28.617 207.355,28.602 207.506,28.598C220.442,28.308 220.383,27.548 221.504,27.606C226.858,29.015 248.643,30.714 274.644,44.22C309.088,62.111 312.8,80.95 314.442,131.501C314.422,146.793 314.001,146.961 314.539,147.458C317.491,150.191 316.89,137.974 316.6,125.498C315.844,109.049 314.469,87.724 308.237,72.606C298.17,48.182 261.018,33.846 239.45,28.74C225.002,25.32 224.801,27.019 223.646,26.475C223.293,26.308 223.47,25.598 223.117,25.432C225.301,22.527 225.296,22.528 225.387,22.421Z" style="fill:rgb(41,143,221);"/>
        <path d="M220.595,145.7C229.904,145.099 230.198,146.01 250.5,146.953C255.585,148.068 286.161,150.382 303.485,155.556C313.454,158.534 315.881,157.203 316.498,162.501C318.429,179.08 320.173,186.837 317.031,216.454C315.022,235.392 301.421,247.187 299.17,249.139C294.628,253.078 293.541,252.646 292.895,258.551C291.727,269.247 291.58,270.076 287.705,277.607C286.461,280.024 287.162,280.091 287.608,282.821C285.521,283.625 285.587,283.577 283.472,284.415C280.578,285.561 279.845,275.431 268.905,264.064C268.848,263.5 268.044,263.198 267.986,262.634C267.916,261.94 270.165,261.213 270.38,261.143C271.011,260.939 278.599,258.486 274.181,253.768C270.281,249.603 267.796,248.999 269.41,247.448C280.936,236.363 266.652,239.815 263.483,239.783C260.066,239.749 260.32,228.937 256.263,225.831C252.679,223.088 252.646,225.878 251.07,230.124C250.365,232.022 236.499,219.662 223.945,236.824C221.299,240.441 220.867,240.315 216.434,239.795C214.97,239.623 214.851,239.054 214.225,221.509C214.062,216.935 217.038,217.866 218.504,217.514C241.451,211.998 242.846,192.919 216.379,185.948L217.5,185.263C217.704,184.774 218.691,184.989 218.894,184.5C219.153,183.879 218.706,183.167 218.653,182.496C218.117,175.708 220.82,147.338 220.595,145.7Z" style="fill:rgb(252,248,244);"/>
        <path d="M307.335,300.404C308.302,298.528 306.971,296.811 312.557,295.749C321.059,294.133 322.501,288.057 325.189,290.815C327.035,292.709 355.049,329.211 357.629,350.484C360.324,372.708 346.055,413.936 296.617,401.084C274.912,395.441 245.625,373.287 256.733,352.652C268.865,339.793 280.331,346.623 303.317,337.041C306.023,335.913 305.904,335.805 308.586,334.699C309.671,334.251 309.626,334.439 310.772,333.966C314.394,333.269 314.465,333.535 324.542,329.551C325.777,328.912 326.773,329.898 326.566,328.575C326.144,325.875 324.977,327.332 322.5,328.499C313.757,332.158 313.237,331.332 313.184,330.57C313.094,329.287 313.582,328.848 312.505,328.701C312.124,328.649 310.492,329.931 310.331,330.058C306.112,332.692 306.236,332.818 301.564,334.657C301.526,334.596 299.692,333.167 298.93,330.406C297.314,324.556 297.812,324.447 295.173,318.917C295.87,318.556 309.487,313.235 308.048,302.5L308.5,301.638L307.335,300.404Z" style="fill:rgb(251,201,222);"/>
        <path d="M73.848,293.137C80.133,297.152 80.2,296.993 87.561,298.242C91.263,298.871 92.712,315.816 113.45,315.017C113.901,315.548 114.472,315.969 114.924,316.5C116.199,318.001 113.223,317.371 111.191,323.12L110.884,323.847C108.56,321.884 108.634,321.812 108.391,321.714C102.987,319.544 102.886,319.847 102.429,319.63C98.588,317.812 98.544,315.261 97.191,313.863C92.199,308.704 92.027,308.959 91.611,308.5C90.526,307.478 89.652,306.678 89.48,306.521L88.935,305.047C88.03,303.649 88.12,303.367 86.522,303.437C82.783,303.599 79.118,297.347 70.874,307.775C67.89,311.55 62.111,328.885 61.369,334.48C58.191,358.428 62.575,375.637 66.56,380.456C70.32,385.005 77.473,391.341 77.541,391.354C84.556,392.754 96.127,398.367 114.45,397.141C127.033,396.3 137.446,391.863 139.331,391.06C146.117,388.169 159.329,377.948 160.5,374.095C160.774,373.194 160.832,373.322 161.19,372.5C162.021,370.594 162.671,369.959 163.949,371.621C164.147,371.879 163.501,372.307 163.699,372.564C146.678,418.499 60.655,432.586 47.474,374.509C47.405,374.204 47.452,374.22 47.167,370.603C46.919,370.297 46.671,369.991 46.423,369.685C46.159,369.864 46.096,368.753 45.831,368.932C44.37,369.919 44.66,415.705 99.499,416.531C117.879,416.808 134.576,407.707 137.331,406.206C141.128,404.136 142.347,401.296 143.039,404.627C143.448,406.593 143.052,406.614 146.772,429.452C150.396,451.702 152.323,469.486 159.791,474.055C169.574,480.04 205.805,492.12 249.354,476.223L249.5,477.918L248.5,478.853L247.5,479.104C246.112,479.874 218.716,501.104 175.539,493.268C146.005,487.908 142.643,480.494 134.789,454.434C133.586,450.444 122.787,423.394 120.359,422.914C117.426,422.335 103.891,429.849 72.492,421.988C38.344,410.279 41.225,395.689 37.501,399.502C35.467,401.585 30.214,406.964 32.274,435.528C32.774,442.463 35.138,445.887 36.045,452.5C35.538,453.164 35.03,453.828 34.522,454.492C29.216,438.075 16.573,404.257 47.996,330.71C52.252,320.748 69.698,289.993 72.371,291.757C72.933,292.128 73.286,292.766 73.848,293.137Z" style="fill:rgb(217,160,190);"/>
        <path d="M88.935,305.047C89.117,305.538 89.298,306.029 89.48,306.521C89.652,306.678 90.526,307.478 91.611,308.5C92.027,308.959 92.199,308.704 97.191,313.863C98.544,315.261 98.588,317.812 102.429,319.63C102.886,319.847 102.987,319.544 108.391,321.714C108.634,321.812 108.56,321.884 110.884,323.847C108.22,330.552 108.941,331.147 106.36,332.794C102.143,330.545 86.021,317.746 85.428,322.543C85.278,323.759 87.142,321.818 98.532,330.472C98.092,330.683 97.96,331.318 97.521,331.529C96.04,332.241 92.238,327.817 89.827,331.147C95.025,332.879 94.901,333.128 100.35,333.75C128.043,342.753 128.339,341.249 144.404,344.89C147.85,345.671 157.453,348.798 162.309,355.628C166.308,361.253 164.005,371.24 163.699,372.564C163.501,372.307 164.147,371.879 163.949,371.621C162.671,369.959 162.021,370.594 161.19,372.5C160.832,373.322 160.774,373.194 160.5,374.095C159.329,377.948 146.117,388.169 139.331,391.06C137.446,391.863 127.033,396.3 114.45,397.141C96.127,398.367 84.556,392.754 77.541,391.354C77.473,391.341 70.32,385.005 66.56,380.456C62.575,375.637 58.191,358.428 61.369,334.48C62.111,328.885 67.89,311.55 70.874,307.775C79.118,297.347 82.783,303.599 86.522,303.437C88.12,303.367 88.03,303.649 88.935,305.047Z" style="fill:rgb(253,195,219);"/>
        <path d="M249.125,398.47C248.148,402.68 248.699,402.769 246.943,406.774C245.214,410.719 245.875,410.946 243.555,414.524C235.708,425.454 230.939,430.765 212.537,434.698C200.138,437.347 171.524,429.122 166.054,401.564C156.261,352.227 224.095,329.276 246.038,375.714C249.631,383.32 249.187,396.634 249.125,398.47Z" style="fill:rgb(40,24,32);"/>
        <path d="M216.379,185.948C242.846,192.919 241.451,211.998 218.504,217.514C217.038,217.866 214.062,216.935 214.225,221.509C214.851,239.054 214.97,239.623 216.434,239.795C220.867,240.315 221.299,240.441 223.945,236.824C236.499,219.662 250.365,232.022 251.07,230.124C252.646,225.878 252.679,223.088 256.263,225.831C260.32,228.937 260.066,239.749 263.483,239.783C266.652,239.815 280.936,236.363 269.41,247.448C267.796,248.999 270.281,249.603 274.181,253.768C278.599,258.486 271.011,260.939 270.38,261.143C270.165,261.213 267.916,261.94 267.986,262.634C268.044,263.198 268.848,263.5 268.905,264.064C267.465,264.418 267.446,264.346 266.444,265.443C265.954,266.684 265.403,268.184 265.315,268.423C261.841,274.614 259.157,274.652 257.756,275.752C256.942,276.39 258.226,276.017 269.23,281.696C271.652,283.137 271.622,283.146 271.84,283.254C275.242,284.938 276.745,293.032 276.618,294.587C263.67,307.74 189.976,312.929 156.484,307.576C131.983,303.66 131.87,300.752 131.788,298.653L132.608,298.91C133.229,299.139 133.85,299.367 134.47,299.596C145.509,303.414 153.838,307.809 199.502,307.323C223.147,307.072 252.733,303.489 270.291,296.061C274.589,294.243 272.931,292.916 271.472,288.505C268.896,280.715 251.977,276.746 248.821,278.899C246.463,280.507 252.471,282.449 249.34,284.157C246.341,285.793 247.375,280.277 243.379,278.851C228.929,273.696 226.897,278.023 226.341,275.582C226.196,274.948 226.179,274.289 226.031,273.656C225.815,272.737 224.878,268.752 217.494,265.514C212.951,263.521 199.203,272.045 197.141,263.479C197.168,262.15 197.195,260.822 197.221,259.494C196.993,257.82 196.764,256.146 196.535,254.472C196.672,253.901 196.808,253.33 196.944,252.759C197.018,250.195 197.055,250.289 196.945,247.652C196.991,245.033 197.208,245.083 196.476,242.526C196.401,241.778 196.326,241.03 196.251,240.283C196.705,238.679 197.331,236.467 196.847,219.453C196.764,216.549 195.363,217.849 192.459,217.726C187.665,216.886 174.541,215.785 173.513,202.499C173.253,199.142 175.034,194.951 177.491,192.491C179.866,190.114 186.757,187.122 187.61,186.751C198.104,184.135 202.804,183.239 216.379,185.948Z" style="fill:rgb(41,30,25);"/>
        <path d="M181.815,145.206C181.58,145.189 181.56,144.714 181.326,144.697C169.436,143.828 142.786,145.767 139.443,146.01C122.71,147.227 88.055,155.019 81.639,158.66C80.398,159.246 80.016,158.166 65.603,164.76C63.616,165.669 59.234,167.674 59.988,191.49C60.942,221.586 73.122,239.709 83.392,259.562C84.981,262.636 96.755,274.672 97.055,274.948C99.695,277.372 99.521,278.298 104.5,283.195L104.364,284.973C100.355,284.717 100.441,284.652 96.495,285.342C93.877,285.8 95.05,282.687 89.936,277.097C84.053,270.667 75.577,271.362 75.556,271.359C72.28,271.005 40.667,229.859 48.686,175.527C49.364,170.931 50.805,161.169 100.411,149.143C164.917,133.504 276.536,142.675 311.443,154.656C334.449,162.552 337.585,166.429 338.681,173.469C344.489,210.759 333.078,236.64 330.863,241.665C319.829,266.692 315.865,264.089 312.406,265.26C301.982,268.79 297.392,281.518 295.565,281.731C291.545,282.2 291.612,282.046 287.608,282.821C287.162,280.091 286.461,280.024 287.705,277.607C291.58,270.076 291.727,269.247 292.895,258.551C293.541,252.646 294.628,253.078 299.17,249.139C301.421,247.187 315.022,235.392 317.031,216.454C320.173,186.837 318.429,179.08 316.498,162.501C315.881,157.203 313.454,158.534 303.485,155.556C286.161,150.382 255.585,148.068 250.5,146.953C230.198,146.01 229.904,145.099 220.595,145.7C218.025,145.682 198.765,145.547 188.48,144.873C182.957,144.51 182.571,145.704 182.292,145.731C182.057,145.754 182.05,145.183 181.815,145.206Z" style="fill:rgb(238,177,205);"/>
        <path d="M337.4,401.278C341.292,399.593 343.312,401.323 344.82,420.468C349.126,475.136 304.011,532.281 201.527,538.823C161.929,541.351 103.932,530.312 74.088,507C49.037,487.433 42.427,473.77 34.522,454.492C35.03,453.828 35.538,453.164 36.045,452.5L36.987,453.5L37.308,454.5C41.153,463.21 40.879,463.475 56.728,481.317C69.35,495.526 99.703,510.298 105.302,513.822C110.114,516.85 114.115,513.624 114.702,513.15C117.474,514.64 121.152,517.627 138.547,522.305C147.04,524.59 146.709,525.487 155.415,526.863C163.801,528.189 214.008,538.605 270.667,511.858C296.154,499.827 303.249,488.373 306.19,486.04C315.702,478.495 321.672,463.973 322.171,462.396C331.393,433.233 322.572,418.596 322.399,413.762C337.293,408.503 340.376,404.486 339.961,403.5C339.758,403.021 338.965,402.979 338.763,402.5L337.4,401.278Z" style="fill:rgb(244,180,207);"/>
        <path d="M183.499,252.37C190.099,253.145 189.989,253.243 196.535,254.472C196.764,256.146 196.993,257.82 197.221,259.494C197.097,259.563 195.662,260.36 195.662,260.36C194.402,260.229 195.744,259.733 195.907,258.5C195.781,258.437 195.814,257.46 194.555,257.828C189.161,259.404 185.377,259.912 189.388,263.876C192.411,264.768 192.324,264.828 195.5,264.806C196.047,264.364 196.594,263.921 197.141,263.479C199.203,272.045 212.951,263.521 217.494,265.514C224.878,268.752 225.815,272.737 226.031,273.656C226.179,274.289 226.196,274.948 226.341,275.582C226.897,278.023 228.929,273.696 243.379,278.851C247.375,280.277 246.341,285.793 249.34,284.157C252.471,282.449 246.463,280.507 248.821,278.899C251.977,276.746 268.896,280.715 271.472,288.505C272.931,292.916 274.589,294.243 270.291,296.061C252.733,303.489 223.147,307.072 199.502,307.323C153.838,307.809 145.509,303.414 134.47,299.596C138.676,296.208 136.794,295.168 137.761,292.757C138.558,290.768 138.633,290.849 140.482,289.714C143.899,290.416 142.772,288.598 142.666,288.426C142.601,288.321 141.259,287.506 142.079,285.389C145.48,276.614 153.112,277.746 155.468,275.466C155.737,275.896 156.537,275.764 156.806,276.195C157.016,276.531 155.991,276.823 158.22,280.938C166.39,284.405 161.394,275.199 160.442,275.546C159.944,275.728 159.755,276.425 159.257,276.607C158.961,275.898 158.665,275.189 158.369,274.48C158.113,261.009 167.169,266.764 169.231,262.436C169.832,261.175 173.542,253.386 183.499,252.37Z" style="fill:rgb(246,234,226);"/>
        <path d="M81.639,158.66C79.574,176.042 76.332,196.079 88.97,229.3C90.901,234.376 99.596,241.845 107.831,250.191C115.431,257.892 120.163,256.955 125.674,283.457C126.517,287.506 126.829,287.414 126.58,289.484C126.494,290.198 126.009,290.947 126.266,291.62C126.513,292.268 127.643,292.273 127.89,292.922C123.249,296.117 122.584,297.734 121.713,297.118C117.304,293.999 120.114,289.669 104.364,284.973L104.5,283.195C99.521,278.298 99.695,277.372 97.055,274.948C96.755,274.672 84.981,262.636 83.392,259.562C73.122,239.709 60.942,221.586 59.988,191.49C59.234,167.674 63.616,165.669 65.603,164.76C80.016,158.166 80.398,159.246 81.639,158.66Z" style="fill:rgb(252,184,214);"/>
        <path d="M196.476,242.526C197.208,245.083 196.991,245.033 196.945,247.652C182.771,245.986 179.449,250.94 169.286,255.14C155.422,258.997 147.405,272.861 147.389,273.5C147.377,273.994 147.891,274.405 147.879,274.899C141.449,280.598 140.627,281.915 138.292,288.465C135.043,291.109 135.988,291.698 134.678,295.603C132.549,296.127 132.544,296.076 132.379,296.169C132.379,296.169 131.835,298.454 131.788,298.653C131.87,300.752 131.983,303.66 156.484,307.576C189.976,312.929 263.67,307.74 276.618,294.587C279.274,294.109 279.223,294.257 279.442,294.191C280.105,293.833 280.769,293.475 281.433,293.117C283.8,293.638 288.626,292.367 287.249,303.471C285.712,315.869 199.023,334.769 132.51,316.476C120.707,313.23 124.106,303.665 123.843,303.312C121.686,300.426 126.315,297.182 126.78,296.857C130.195,294.464 130.424,294.505 131.361,290.467C135.225,273.82 160.526,244.988 196.476,242.526Z" style="fill:rgb(235,228,225);"/>
        <path d="M72.492,421.988C71.38,425.403 71.287,425.254 69.778,428.602C62.365,445.049 69.428,468.164 75.191,477.681C88.181,499.135 100.554,504.615 114.702,513.15C114.115,513.624 110.114,516.85 105.302,513.822C99.703,510.298 69.35,495.526 56.728,481.317C40.879,463.475 41.153,463.21 37.308,454.5L36.987,453.5L36.045,452.5C35.138,445.887 32.774,442.463 32.274,435.528C30.214,406.964 35.467,401.585 37.501,399.502C41.225,395.689 38.344,410.279 72.492,421.988Z" style="fill:rgb(252,184,213);"/>
        <path d="M161.139,182.493C157.511,217.046 103.353,209.428 108.503,173.501C112.765,143.771 155.837,141.435 161.1,173.542C161.199,174.145 161.154,174.134 161.139,182.493Z" style="fill:rgb(8,11,21);"/>
        <path d="M292.903,182.499C291.172,219.731 245.706,210.08 243.135,186.556C242.048,176.613 240.558,161.8 260.538,154.62C265.562,152.814 292.054,151.991 292.903,182.499Z" style="fill:rgb(10,13,23);"/>
        <path d="M88.411,550.765C86.811,550.154 72.86,544.834 70.988,538.325C66.507,522.739 85.625,519.175 89.392,520.761C113.887,531.077 120.031,533.062 153.55,539.201C162.275,540.799 151.494,548.36 139.371,552.005C112.245,560.161 88.458,550.778 88.411,550.765Z" style="fill:rgb(235,169,49);"/>
        <path d="M235.37,102.138C226.809,115.752 230.836,117.515 227.942,121.5C227.649,121.903 227.124,122.097 226.832,122.5L226.496,123.549C204.226,122.658 203.219,121.887 176.562,122.925C176.23,121.174 173.282,105.634 170.501,101.498C170.456,101.432 168.747,101.171 170.49,100.626C190.701,94.316 217.982,97.573 220.527,98.352C225.054,99.738 230.655,99.827 235.37,102.138Z" style="fill:rgb(251,185,213);"/>
        <path d="M181.815,145.206C182.05,145.183 182.057,145.754 182.292,145.731C182.571,145.704 182.957,144.51 188.48,144.873C198.765,145.547 218.025,145.682 220.595,145.7C220.82,147.338 218.117,175.708 218.653,182.496C218.706,183.167 219.153,183.879 218.894,184.5C218.691,184.989 217.704,184.774 217.5,185.263L216.379,185.948C202.804,183.239 198.104,184.135 187.61,186.751C184.795,181.6 187.055,181.041 181.815,145.206Z" style="fill:rgb(252,185,212);"/>
        <path d="M45.609,173.527C40.402,200.952 48.259,213.683 42.571,215.667C37.335,217.493 30.574,217.847 29.516,217.902C28.511,217.955 27.479,217.771 26.5,217.999C26.076,218.097 25.923,218.738 25.499,218.837L19.498,218.825C19.073,218.695 18.905,218.095 18.48,217.966C18.462,217.96 11.011,216.792 10.396,216.624C-6.239,206.486 11.237,193.88 22.486,183.484C25.103,181.064 46.01,165.857 45.902,171.458C45.888,172.154 45.622,172.83 45.609,173.527Z" style="fill:rgb(186,19,82);"/>
        <path d="M189.5,125.488C189.93,125.886 190.07,126.536 190.5,126.934C191.19,127.573 216.229,127.672 218.476,127.691C219.487,127.85 220.498,128.01 221.509,128.169C232.533,128.787 232.437,128.924 243.5,129.334C245.162,129.315 246.824,129.295 248.486,129.275L249.496,129.252L253.474,129.127C255.136,129.152 256.797,129.178 258.459,129.203C262.41,129.572 262.969,131.385 265.7,128.5C266.362,128.108 267.024,127.716 267.685,127.324C268.197,128.438 270.731,142.596 265.509,142.307C256.431,141.805 229.771,137.79 169.503,138.26C160.438,138.331 156.61,140.438 156.431,134.497C156.413,133.884 156.209,127.106 157.646,126.923C165.082,125.978 186.95,125.539 189.5,125.488Z" style="fill:rgb(25,119,203);"/>
        <path d="M232.707,231.921C234.537,233.138 234.494,233.802 236.543,233.052C239.627,231.923 239.67,232.231 241.828,232.61L241.515,233.511C239.964,237.86 241.874,237.596 245.539,240.343C245.941,240.677 247.27,240.564 248.281,243.601C248.929,245.468 248.844,245.444 249.382,246.476C249.15,246.832 245.786,248.925 248.449,253.545C250.035,256.296 250.491,255.784 253.597,256.255C254.905,256.453 254.135,257.003 253.5,258.123C253.319,258.695 251.512,264.402 252.442,265.548C253.766,267.179 249.346,270.045 252.527,275.574C245.626,277.283 245.539,276.786 238.637,275.033C236.57,274.508 236.636,274.473 234.53,274.263C233.523,274.088 232.517,273.913 231.511,273.738C226.536,273.353 228.579,270.383 224.61,267.35C223.676,266.636 221.379,265.26 219.475,263.523C218.711,262.825 216.394,260.711 219.904,250.587C223.954,238.904 228.75,234.877 229.944,233.874C231.005,232.983 230.998,233.065 232.707,231.921Z" style="fill:rgb(216,45,72);"/>
        <path d="M214.317,190.084C220.541,191.886 220.755,191.329 226.119,194.942C234.659,200.692 227.425,208.97 227.565,209.484C227.715,210.031 228.519,210.232 228.669,210.779C227.717,211.37 221.23,215.397 215.497,215.544C213.329,215.6 214.252,204.78 202.595,206.934C198.916,207.614 197.184,211.184 196.925,211.718C196.603,212.959 197.962,216.012 191.56,215.069C173.718,212.442 173.956,200.441 179.175,194.231C179.239,194.228 179.343,195.627 184.453,193.304C186.498,192.375 186.051,191.377 186.319,191.213C186.466,191.123 186.348,192.262 188.473,191.337C191.653,189.953 210.058,188.299 214.317,190.084Z" style="fill:rgb(249,195,49);"/>
        <path d="M284.325,529.139L285.971,530.5C285.921,530.884 286.66,531.086 286.61,531.469C286.562,531.845 285.58,531.871 285.749,532.209C286.405,533.521 287.344,531.939 302.753,539.072C307.061,541.066 302.591,542.763 302.589,543.518C302.587,544.32 303.612,544.897 303.61,545.699C284.746,556.737 254.716,554.237 250.426,553.88C250.173,551.676 250.219,551.68 250.153,551.5C250.047,551.212 238.251,548.857 244.647,543.697C253.915,536.218 273.819,531.815 284.325,529.139Z" style="fill:rgb(250,194,63);"/>
        <path d="M240.625,465.966C259.404,460.791 257.62,457.137 259.243,456.783C260.154,456.584 259.107,462.392 258.531,464.51C254.542,479.165 195.783,488.89 163.312,472.914L164.007,471.5C163.866,471.23 164.488,470.921 164.347,470.651C164.213,470.393 163.729,470.667 163.488,470.504C163.488,470.504 162.23,467.826 162.12,467.593C162.227,467.431 161.778,466.241 163.487,465.516C163.557,465.486 163.66,465.443 164.424,465.659C190.864,473.131 220.908,470.704 240.625,465.966Z" style="fill:rgb(241,166,189);"/>
        <path d="M225.387,22.421C229.936,19.549 278.021,30.75 302.734,47.163C330.69,65.73 344.321,83.124 345.097,157.505C345.15,162.584 344.557,164.783 344.392,165.395C343.37,164.827 342.347,164.259 341.324,163.691C341.514,163.239 341.994,162.951 342.184,162.5C343.008,160.54 338.566,161.426 338.558,156.495C338.435,70.825 314.139,60.793 298.183,48.962C282.138,37.063 252.186,26.957 236.543,25.188C236.086,25.08 235.986,24.319 235.53,24.211C235.293,24.155 235.306,24.231 232.506,24.474C228.787,23.713 228.813,23.71 228.49,23.653C226.809,23.351 226.982,23.054 225.387,22.421Z" style="fill:rgb(175,228,245);"/>
        <path d="M337.4,401.278L338.763,402.5C338.965,402.979 339.758,403.021 339.961,403.5C340.376,404.486 337.293,408.503 322.399,413.762C314.371,412.702 299.248,424.057 268.142,414.408C269.937,393.493 269.796,392.1 271.432,392.731C276.659,394.749 300.419,415.65 337.4,401.278Z" style="fill:rgb(203,184,201);"/>
        <path d="M235.37,102.138C230.655,99.827 225.054,99.738 220.527,98.352C217.982,97.573 190.701,94.316 170.49,100.626C168.747,101.171 170.456,101.432 170.501,101.498C173.282,105.634 176.23,121.174 176.562,122.925C158.088,123.457 156.776,124.582 156.769,122.479C156.738,112.601 159.05,108.438 160.033,106.279C163.246,100.484 164.386,98.371 176.56,94.71C178.791,94.039 234.244,82.776 247.949,108.293L246.033,109.5C239.653,101.707 236.053,102.232 235.37,102.138Z" style="fill:rgb(230,193,213);"/>
        <path d="M212.504,382.542C215.961,383.035 215.65,383.677 218.523,385.628C219.234,385.572 219.946,385.515 220.657,385.459C221.823,389.459 222.374,390.618 221.41,396.54C227.333,402.263 222.408,403.505 222.301,406.469C222.221,408.718 222.905,415.449 215.63,413.901C214.012,413.557 198.479,419.136 196.812,406.468C196.116,401.171 195.378,400.875 198.429,396.486C196.126,389.848 198.911,388.99 197.214,387.738C195.906,386.774 195.822,386.883 195.783,386.462C195.764,386.254 195.907,386.32 197.499,384.499L198.474,384.431C201.764,386.983 202.125,385.541 202.452,385.57C205.287,385.886 205.268,385.924 205.514,385.911C209.502,385.7 208.538,383.155 212.504,382.542Z" style="fill:rgb(170,149,151);"/>
        <path d="M272.141,319.059C271.626,319.29 269.007,320.467 265.559,321.602C252.599,324.561 252.777,325.146 248.512,325.547C247.513,325.641 246.483,325.469 245.505,325.692C245.099,325.785 244.93,326.402 244.517,326.459C243.869,326.547 244.105,325.857 243.5,325.966C242.65,326.118 243.082,326.716 242.282,326.859C241.367,326.801 240.452,326.744 239.537,326.686C229.921,326.235 230.159,328.015 220.523,328.836C183.271,332.01 179.116,331.042 141.674,325.012L137.529,323.374C136.098,323.767 134.666,324.161 133.234,324.554C132.855,321.469 132.046,318.839 134.505,319.471C143.807,321.861 185.459,332.561 254.553,320.755C264.763,319.01 276.45,313.434 276.98,315.313C277.092,315.71 275.534,327.855 274.337,337.478C273.539,343.887 270.776,341.641 262.512,344.533L261.08,343.5C261.051,343.111 260.503,342.889 260.474,342.5C260.438,342.019 260.87,341.564 260.931,341.5C262.844,339.484 263.358,341.91 263.5,341.933L264.5,341.976L265.206,341.5C265.419,341.267 267.693,338.775 267.749,338.486C268.042,336.979 267.503,337.017 267.864,335.569C270.092,331.342 268.902,331.016 270.502,326.501C271.021,325.035 270.008,325.523 268.5,325.482C267.269,326.078 267.228,327.627 266.622,326.39C266.534,326.21 266.557,326.216 265.741,324.042C267.679,324.015 267.52,323.4 269.391,323.288C272.916,323.075 272.008,320.025 272.141,319.059Z" style="fill:rgb(248,221,225);"/>
        <path d="M298.451,522.688L297.899,523.5L297.5,524.649L296.5,524.703C293.934,525.808 285.305,528.799 284.325,529.139C273.819,531.815 253.915,536.218 244.647,543.697C238.251,548.857 250.047,551.212 250.153,551.5C250.219,551.68 250.173,551.676 250.426,553.88C247.31,553.177 234.809,551.746 224.695,545.205C222.04,543.489 220.014,540.76 222.381,540.199C255.092,532.45 255.394,533.437 286.579,520.733C288.93,519.776 294.223,521.466 298.451,522.688Z" style="fill:rgb(223,150,46);"/>
        <path d="M201.256,210.055C214.859,205.044 211.636,220.242 212.265,237.503C212.522,244.559 212.35,244.479 212.524,251.499C212.747,260.485 213.363,261.319 209.359,264.198C208.228,259.872 209.747,259.886 209.569,255.479C209.614,255.322 210.125,253.517 210.125,253.517C210.23,253.158 210.743,252.857 210.613,252.507C210.427,252.006 209.558,251.991 209.372,251.49C209.336,251.132 208.925,247.009 208.925,247.009C208.431,246.587 208.376,246.793 202.492,246.639C202.194,246.788 201.813,246.286 201.515,246.435C201.304,246.54 201.359,246.588 199.406,248.501C198.791,213.527 198.097,213.242 199.974,210.889C200.292,210.491 200.938,210.454 201.256,210.055Z" style="fill:rgb(250,224,118);"/>
        <path d="M151.192,161.72C162.733,183.454 128.155,189.344 130.609,166.513C131.447,158.72 141.212,150.32 151.192,161.72Z" style="fill:rgb(251,250,243);"/>
        <path d="M278.759,162.174C293.451,175.272 273.343,193.59 263.699,180.359C257.594,171.982 263.555,152.789 278.759,162.174Z" style="fill:rgb(252,251,245);"/>
        <path d="M291.578,310.956C291.188,312.685 289.323,314.114 291.642,315.283C294.022,316.483 294.274,316.345 295.173,318.917C297.812,324.447 297.314,324.556 298.93,330.406C299.692,333.167 301.526,334.596 301.564,334.657C292.747,338.423 277.424,342.472 277.298,339.537C277.291,339.394 278.758,320.992 279.846,319.782C280.414,319.151 281.197,320.049 287.873,312.828C288.335,312.329 288.386,312.432 291.578,310.956Z" style="fill:rgb(250,245,243);"/>
        <path d="M232.707,231.921C236.036,230.761 240.886,227.581 248.161,232.896C252.541,236.095 249.115,241.449 255.677,245.127C256.744,245.725 256.647,245.68 257.65,246.253C271.194,253.105 266.364,269.582 252.527,275.574C249.346,270.045 253.766,267.179 252.442,265.548C251.512,264.402 253.319,258.695 253.5,258.123C254.135,257.003 254.905,256.453 253.597,256.255C250.491,255.784 250.035,256.296 248.449,253.545C245.786,248.925 249.15,246.832 249.382,246.476C249.135,244.884 249.098,244.987 248.281,243.601C247.27,240.564 245.941,240.677 245.539,240.343C247.453,236.894 245.498,236.978 243.398,233.639C242.875,233.296 242.351,232.953 241.828,232.61C239.67,232.231 239.627,231.923 236.543,233.052C234.494,233.802 234.537,233.138 232.707,231.921Z" style="fill:rgb(245,129,143);"/>
        <path d="M181.306,22.731C181.676,22.979 182.366,22.488 183.551,26.046C182.961,26.105 118.233,29.09 97.379,62.423C94.216,67.48 86.34,80.069 88.749,136.486C88.861,139.107 90.84,149.034 87.645,146.395C87.086,145.934 80.18,77.007 98.512,56.509C112.972,40.34 129.469,33.153 164.548,25.729C165.639,25.499 166.691,25.276 178.409,24.245C180.381,24.071 180.882,25.016 181.859,23.302C181.99,23.072 181.175,22.961 181.306,22.731Z" style="fill:rgb(0,28,97);"/>
        <path d="M201.544,358.533C206.395,355.92 210.302,357.894 210.565,358.454C211.028,359.438 210.932,359.434 211.603,360.353C211.921,360.436 212.24,360.52 212.558,360.604C216.098,355.816 218.785,358.683 219.628,359.388L218.5,360.635C217.781,361.562 214.875,362.575 214.951,364.437C214.968,364.853 215.517,365.566 219.764,362.463C219.955,362.891 220.147,363.318 220.338,363.745C220.492,363.622 222.259,362.207 222.259,362.207C224.492,359.261 225.151,360.941 228.52,362.465C231.895,363.991 228.616,369.757 226.361,371.276C221.764,374.374 222.041,368.193 216.519,368.793C213.606,369.11 213.956,366.732 211.501,367.486C208.458,368.421 204.147,368.376 203.503,368.369C198.024,368.312 197.07,371.779 193.461,367.587C193.167,367.247 192.874,366.908 192.58,366.569L192.412,367.411C191.908,368.69 191.933,368.583 191.908,368.69C190.796,373.495 188.972,375.773 186.218,371.701C178.615,360.461 190.061,362.784 190.498,362.705C192.295,362.379 193.474,356.464 198.697,359.21C198.539,359.497 197.474,361.445 196.241,362.488C195.876,362.29 195.958,361.621 195.592,361.423C193.08,360.063 195.354,368.99 197.631,367.659C198.086,367.393 198.1,366.641 198.555,366.375C199.204,366.083 199.853,365.791 200.502,365.499C200.583,365.421 201.52,364.521 201.52,364.521C201.521,361.973 201.338,362.04 201.348,359.439C201.35,358.942 201.542,359.03 201.544,358.533Z" style="fill:rgb(221,102,168);"/>
        <path d="M235.37,102.138C236.053,102.232 239.653,101.707 246.033,109.5L247.949,108.293C251.029,115.437 251.879,123.435 248.529,123.748C246.38,123.949 228.258,123.585 226.496,123.549L226.832,122.5C227.124,122.097 227.649,121.903 227.942,121.5C230.836,117.515 226.809,115.752 235.37,102.138Z" style="fill:rgb(250,246,244);"/>
        <path d="M223.117,25.432C223.47,25.598 223.293,26.308 223.646,26.475C224.801,27.019 225.002,25.32 239.45,28.74C261.018,33.846 298.17,48.182 308.237,72.606C314.469,87.724 315.844,109.049 316.6,125.498C315.142,128.385 315.124,128.336 314.442,131.501C312.8,80.95 309.088,62.111 274.644,44.22C248.643,30.714 226.858,29.015 221.504,27.606C222.108,26.573 221.684,26.283 223.117,25.432Z" style="fill:rgb(2,29,76);"/>
        <path d="M128.473,306.943C131.375,308.239 141.808,312.895 167.508,314.308C253.072,319.012 280.472,299.266 282.421,298.262C291.768,293.443 281.183,304.565 259.424,310.156C208.285,323.295 129.325,315.169 126.99,308.128C126.943,307.984 127.096,308.044 128.473,306.943Z" style="fill:rgb(67,65,62);"/>
        <path d="M187.407,13.238L188.5,14.273C198.224,13.714 201.459,13.371 218.675,20.183C218.929,20.284 218.83,20.38 220.784,22.875C209.982,30.768 167.032,22.909 187.407,13.238Z" style="fill:rgb(242,61,72);"/>
        <path d="M138.486,201.767C137.693,201.712 130.064,201.178 128.857,199.339C127.694,197.568 128.739,197.445 131.165,191.384C134.618,182.758 137.293,185.795 146.519,186.319C152.443,186.656 160.574,198.669 138.486,201.767Z" style="fill:rgb(35,44,59);"/>
        <path d="M298.451,522.688C313.058,527.385 313.805,538.621 306.15,544.062C305.329,544.646 304.431,545.116 303.61,545.699C303.612,544.897 302.587,544.32 302.589,543.518C302.591,542.763 307.061,541.066 302.753,539.072C287.344,531.939 286.405,533.521 285.749,532.209C285.58,531.871 286.562,531.845 286.61,531.469C286.66,531.086 285.921,530.884 285.971,530.5L284.325,529.139C285.305,528.799 293.934,525.808 296.5,524.703L297.5,524.649L297.899,523.5L298.451,522.688Z" style="fill:rgb(251,227,149);"/>
        <path d="M281.374,192.612C281.206,194.988 281.633,194.949 281.26,197.239C278.647,200.506 279.545,201.42 277.489,202.479C267.912,207.412 259.668,202.259 258.369,201.447C266.28,196.334 264.324,189.803 270.47,188.394C276.714,186.964 276.877,188.056 281.374,192.612Z" style="fill:rgb(34,43,59);"/>
        <path d="M113.45,315.017C119.394,314.597 117.018,318.572 121.631,322.351C126.68,326.486 130.557,326.754 131.064,328.695C131.288,329.554 133.831,339.292 132.661,339.674C131.886,339.928 131.181,340.159 122.598,338.049C120.34,335.296 120.215,335.534 120.065,335.273C118.768,333.024 123.352,329.51 111.191,323.12C113.223,317.371 116.199,318.001 114.924,316.5C114.472,315.969 113.901,315.548 113.45,315.017Z" style="fill:rgb(198,196,206);"/>
        <path d="M202.492,246.639C208.376,246.793 208.431,246.587 208.925,247.009C208.925,247.009 209.336,251.132 209.372,251.49L209.569,255.479C209.747,259.886 208.228,259.872 209.359,264.198C208.594,264.363 199.799,266.251 199.727,262.454C199.706,261.338 199.522,251.631 199.406,248.501C201.359,246.588 201.304,246.54 201.515,246.435C201.813,246.286 202.194,246.788 202.492,246.639Z" style="fill:rgb(248,205,63);"/>
        <path d="M176.591,408.755L176.575,409.5L177.5,410.567C177.494,410.586 176.041,410.699 177.073,411.82C178.634,413.516 180.281,410.995 180.98,410.5L179.44,408.903C180.515,408.688 180.443,408.771 181.498,408.491C185.074,407.543 184.413,409.581 187.707,412.167C186.546,414.958 186.609,414.897 184.868,417.468C184.312,417.477 184.144,416.391 183.588,416.399C182.657,416.413 181.188,421.817 185.408,421.281C186.472,421.146 186.489,421.013 186.5,420.921C186.631,419.851 185.535,420.239 185.666,419.169C186.123,418.896 185.994,418.737 190.96,415.129C193.213,417.626 194.334,415.965 196.524,418.483C196.618,419.105 196.713,419.727 196.808,420.348C196.525,420.762 195.853,421.743 193.902,425.901C192.753,427.942 188.071,429.94 189.555,423.504C189.633,423.343 190.53,421.495 190.53,421.495C190.472,419.263 187.689,422.37 187.518,422.56C185.533,423.484 185.586,424.003 183.532,423.406C178.823,422.036 180.686,420.371 181.504,415.499C181.764,413.947 180.808,414.495 179.48,415.295C176.589,417.036 170.339,412.877 176.591,408.755Z" style="fill:rgb(102,156,189);"/>
        <path d="M175.417,282.196C164.003,283.677 164.152,270.022 172.459,269.896C175.692,269.846 183.202,271.435 183.362,271.613C184.556,272.941 183.129,275.417 182.965,275.702C179.627,281.496 178.758,280.647 175.417,282.196Z" style="fill:rgb(240,101,141);"/>
        <path d="M214.317,190.084C210.058,188.299 191.653,189.953 188.473,191.337C186.348,192.262 186.466,191.123 186.319,191.213C186.051,191.377 186.498,192.375 184.453,193.304C179.343,195.627 179.239,194.228 179.175,194.231C205.668,175.396 246.614,194.616 228.669,210.779C228.519,210.232 227.715,210.031 227.565,209.484C227.425,208.97 234.659,200.692 226.119,194.942C220.755,191.329 220.541,191.886 214.317,190.084Z" style="fill:rgb(251,234,165);"/>
        <path d="M61.568,87.509C62.583,88.968 62.529,88.884 63.312,90.435C56.727,125.642 65.172,163.021 60.222,155.757C58.813,153.689 56.264,109.862 61.568,87.509Z" style="fill:rgb(0,25,92);"/>
        <path d="M189.5,125.488C204.629,125.519 267.501,127.298 267.685,127.324C267.024,127.716 266.362,128.108 265.7,128.5C262.969,131.385 262.41,129.572 258.459,129.203C257.972,129.11 257.91,128.228 257.423,128.134C256.779,128.01 256.163,128.501 255.522,128.639C254.473,128.863 254.582,128.863 253.474,129.127C251.442,128.675 251.477,128.7 249.496,129.252L248.486,129.275C246.037,128.563 246.043,128.798 243.5,129.334C232.437,128.924 232.533,128.787 221.509,128.169C220.776,127.944 221.287,127.413 220.506,127.174C220.346,127.125 220.356,127.212 218.476,127.691C216.229,127.672 191.19,127.573 190.5,126.934C190.07,126.536 189.93,125.886 189.5,125.488Z" style="fill:rgb(117,188,230);"/>
        <path d="M196.945,247.652C197.055,250.289 197.018,250.195 196.944,252.759C186.689,250.274 186.71,249.972 185.509,250.298C185.286,250.358 185.362,250.449 183.499,252.37C173.542,253.386 169.832,261.175 169.231,262.436C167.169,266.764 158.113,261.009 158.369,274.48C157.783,274.373 157.197,274.265 156.611,274.158C156.418,273.176 155.18,266.876 161.666,262.711C163.385,261.607 165.26,261.886 165.575,261.934C165.753,261.96 166.508,262.831 167.764,259.687C169.069,257.507 169.288,257.607 169.286,255.14C179.449,250.94 182.771,245.986 196.945,247.652Z" style="fill:rgb(86,91,110);"/>
        <path d="M201.504,28.649C203.513,27.696 203.593,27.811 205.644,28.857C208.731,64.347 208.578,83.663 208.54,88.434C207.843,88.418 207.145,88.402 206.448,88.386C206.287,83.62 204.456,29.506 203.331,28.864C203.203,28.791 203.195,28.848 201.504,28.649Z" style="fill:rgb(1,32,95);"/>
        <path d="M266.444,265.443C268.267,266.72 268.199,266.726 269.616,268.399C281.163,282.033 279.695,288.561 279.272,290.439C278.578,293.526 279.349,293.46 279.442,294.191C279.223,294.257 279.274,294.109 276.618,294.587C276.745,293.032 275.242,284.938 271.84,283.254C271.622,283.146 271.652,283.137 269.23,281.696C269.976,280.845 272.313,280.899 269.687,276.408C267.417,272.527 266.87,272.825 266.413,269.5L265.315,268.423C265.403,268.184 265.954,266.684 266.444,265.443Z" style="fill:rgb(244,247,246);"/>
        <path d="M307.335,300.404L308.5,301.638L308.048,302.5C309.487,313.235 295.87,318.556 295.173,318.917C294.274,316.345 294.022,316.483 291.642,315.283C289.323,314.114 291.188,312.685 291.578,310.956C297.169,309.055 301.015,308.436 307.335,300.404Z" style="fill:rgb(238,156,192);"/>
        <path d="M290.584,303.532C291.007,302.349 291.988,299.606 303.563,294.689C306.211,293.564 308.562,301.022 293.508,307.52C287.146,310.266 287.561,310.821 282.197,315.18C280.001,316.965 279.084,314.838 280.554,313.574C284.458,310.217 287.192,311.062 290.584,303.532Z" style="fill:rgb(225,226,230);"/>
        <path d="M93.477,289.531C99.307,293.464 108.242,297.606 104.09,300.037C99.311,302.835 75.94,284.072 84.507,284.577C87.568,284.757 92.84,289.016 93.477,289.531Z" style="fill:rgb(239,236,237);"/>
        <path d="M299.273,281.574C300.208,279.921 307.568,266.911 317.507,266.373C320.247,266.225 319.963,270.208 318.4,271.39C307.35,279.735 302.041,281.767 300.47,282.368C300.071,282.103 299.672,281.839 299.273,281.574Z" style="fill:rgb(229,231,232);"/>
        <path d="M302.366,285.306C306.576,282.579 310.29,279.174 312.697,280.131C319.373,282.787 297.723,296.456 294.339,294.786C290.212,292.749 295.916,290.85 302.366,285.306Z" style="fill:rgb(238,238,240);"/>
        <path d="M235.417,299.144C227.39,299.904 225.31,292.595 229.572,290.679C234.756,288.35 234.923,289.29 240.496,288.657C242.23,288.461 242.233,291.086 241.237,293.404C239.03,298.541 237.988,298.094 235.417,299.144Z" style="fill:rgb(239,102,145);"/>
        <path d="M167.764,259.687C166.508,262.831 165.753,261.96 165.575,261.934C165.26,261.886 163.385,261.607 161.666,262.711C155.18,266.876 156.418,273.176 156.611,274.158L155.468,275.466C153.112,277.746 145.48,276.614 142.079,285.389C141.259,287.506 142.601,288.321 142.666,288.426C142.772,288.598 143.899,290.416 140.482,289.714C139.752,289.298 139.022,288.882 138.292,288.465C140.627,281.915 141.449,280.598 147.879,274.899C153.174,274.968 153.395,274.483 153.42,273.464C153.479,271.041 151.677,271.506 152.111,270.377C152.519,269.316 155.401,266.05 155.714,265.695C160.215,260.595 161.763,260.681 164.434,259.369C165.093,259.045 165.627,258.228 166.358,258.298C167.014,258.361 167.108,259.624 167.764,259.687Z" style="fill:rgb(96,100,119);"/>
        <path d="M119.982,301.645C116.312,301.284 117.074,299.704 104.422,292.67C104.222,292.559 90.326,286.223 102.513,287.232C107.365,287.633 118.671,291.782 120.08,301.449L119.982,301.645Z" style="fill:rgb(232,231,233);"/>
        <path d="M110.884,323.847L111.191,323.12C123.352,329.51 118.768,333.024 120.065,335.273C120.215,335.534 120.34,335.296 122.598,338.049C114.364,335.546 114.424,335.651 106.36,332.794C108.941,331.147 108.22,330.552 110.884,323.847Z" style="fill:rgb(249,245,244);"/>
        <path d="M116.173,311.484C115.99,311.699 116.464,312.127 115.421,312.366C102.192,315.391 85.826,295.661 94.454,299.662C98.757,301.658 98.733,301.583 103.335,302.831C106.209,303.611 104.561,305.548 107.201,306.977C111.624,309.373 111.75,308.952 116.173,311.484Z" style="fill:rgb(223,222,225);"/>
        <path d="M197.739,298.427C197.715,297.5 196.31,292.95 208.522,292.182C217.432,291.622 204.97,311.089 197.739,298.427Z" style="fill:rgb(235,106,144);"/>
        <path d="M323.662,285.62C315.355,295.659 303.257,294.933 310.185,290.109C315.987,286.068 314.548,284.358 320.736,280.955C321.039,280.789 329.559,274.246 325.62,282.568C325.238,283.377 325.228,283.285 323.662,285.62Z" style="fill:rgb(227,230,232);"/>
        <path d="M119.492,193.511C119.156,193.206 116.65,190.935 116.823,188.51C117.012,185.857 118.945,183.75 120.384,183.226C130.851,179.414 131.333,199.078 119.492,193.511Z" style="fill:rgb(250,249,245);"/>
        <path d="M81.936,47.773C75.644,55.88 68.454,63.656 63.312,90.435C62.529,88.884 62.583,88.968 61.568,87.509C65.72,67.666 70.141,60.406 73.665,54.62C74.335,53.65 76.784,50.473 78.637,48.597C80.98,46.225 81.758,47.757 81.936,47.773Z" style="fill:rgb(2,29,103);"/>
        <path d="M250.047,191.508C250.264,189.897 249.952,187.422 254.606,185.998C255.615,185.689 258.063,185.95 259.209,186.878C266.741,192.978 252.194,204.275 250.047,191.508Z" style="fill:rgb(250,249,246);"/>
        <path d="M226.44,415.248C227.081,413.916 227.229,414.07 227.714,412.598C229.019,408.644 234.983,408.968 237.098,412.822C241.52,420.879 233.659,419.417 230.807,421.545C230.483,421.162 230.158,420.779 229.833,420.396C227.719,418.989 227.834,418.929 226.5,416.691L226.44,415.248Z" style="fill:rgb(98,146,175);"/>
        <path d="M74.578,276.474C74.078,276.595 74.075,277.526 73.574,277.647C72.89,277.814 72.163,276.969 71.505,277.221C71.261,277.314 69.879,277.843 72.808,280.223C72.414,280.887 69.883,281.045 72.605,283.397C75.311,285.734 74.498,286.54 77.574,288.395C78.376,288.879 78.497,288.822 78.574,288.785C79.513,288.338 78.919,287.755 79.862,287.306C84.186,292.795 91.345,296.71 84.537,295.13C71.512,292.106 64.3,278.862 70.778,274.964C72.38,274 74.361,276.229 74.578,276.474Z" style="fill:rgb(167,175,184);"/>
        <path d="M210.558,12.191C210.304,12.407 209.822,11.836 209.568,12.052C206.416,14.735 211.253,14.485 211.5,14.472C214.204,15.923 218.908,16.057 221.803,21.712C221.463,22.1 221.124,22.487 220.784,22.875C218.83,20.38 218.929,20.284 218.675,20.183C201.459,13.371 198.224,13.714 188.5,14.273L187.407,13.238C197.501,10.469 203.522,11.411 210.558,12.191Z" style="fill:rgb(246,131,131);"/>
        <path d="M211.38,377.678C206.593,375.346 205.179,377.322 202.905,379.892C201.5,379.773 200.82,379.058 200.797,380.558C200.77,382.28 200.468,382.132 199.454,383.531C198.984,382.836 198.514,382.141 198.043,381.445C199.497,375.704 201.945,373.906 211.546,374.335C219.668,374.697 221.686,377.159 220.657,385.459C219.946,385.515 219.234,385.572 218.523,385.628C217.898,380.389 219.066,377.678 211.38,377.678Z" style="fill:rgb(86,105,136);"/>
        <path d="M212.842,388.499C212.839,388.766 212.941,396.542 216.085,389.282C219.858,384.481 218.062,395.682 216.418,396.083C214.454,396.564 211.407,388.789 207.916,392.706C206.675,394.097 206.447,393.723 205.049,395.008C202.635,397.225 201.907,395.743 201.38,392.511C200.504,387.139 202.914,387.036 203.974,388.432C204.181,388.704 203.674,389.182 203.881,389.454C204.101,393.351 206.759,389.839 206.906,389.646C209.141,387.952 210.35,386.665 212.842,388.499Z" style="fill:rgb(55,40,38);"/>
        <path d="M192.459,217.726C195.363,217.849 196.764,216.549 196.847,219.453C197.331,236.467 196.705,238.679 196.251,240.283C195.66,240.268 195.069,240.254 194.478,240.239C194.394,239.595 193.637,239.167 193.553,238.523C193.38,237.192 193.691,235.843 193.731,234.501C193.771,233.156 194.058,223.576 192.459,217.726Z" style="fill:rgb(179,181,192);"/>
        <path d="M265.315,268.423L266.413,269.5C266.87,272.825 267.417,272.527 269.687,276.408C272.313,280.899 269.976,280.845 269.23,281.696C258.226,276.017 256.942,276.39 257.756,275.752C259.157,274.652 261.841,274.614 265.315,268.423Z" style="fill:rgb(176,185,204);"/>
        <path d="M207.624,419.892L208.637,420.5C209.957,421.889 210.697,421.804 209.969,423.62C209.188,425.568 209.775,427.172 209.881,427.461C210.263,428.506 213.096,429.273 213.79,429.598C211.424,432.398 210.463,432.907 206.575,430.439C206.179,428.08 206.606,428.114 206.241,425.802C204.612,415.483 203.93,428.636 203.914,428.949C203.81,428.877 203.446,427.566 201.598,427.341C200.413,427.196 200.728,426.861 199.873,425.4C201.401,422.553 202.276,423.234 203.657,420.212C205.689,420.651 205.647,420.568 207.624,419.892Z" style="fill:rgb(98,149,186);"/>
        <path d="M137.529,323.374L141.674,325.012L141.655,326.5C141.991,327.147 143.049,329.192 142.839,335.533C142.645,341.384 139.835,337.867 137.975,337.476C136.094,325.324 135.713,325.273 136.253,324.363C136.528,323.9 137.255,323.837 137.529,323.374Z" style="fill:rgb(184,79,120);"/>
        <path d="M169.286,255.14C169.288,257.607 169.069,257.507 167.764,259.687C167.108,259.624 167.014,258.361 166.358,258.298C165.627,258.228 165.093,259.045 164.434,259.369C161.763,260.681 160.215,260.595 155.714,265.695C155.401,266.05 152.519,269.316 152.111,270.377C151.677,271.506 153.479,271.041 153.42,273.464C153.395,274.483 153.174,274.968 147.879,274.899C147.891,274.405 147.377,273.994 147.389,273.5C147.405,272.861 155.422,258.997 169.286,255.14Z" style="fill:rgb(119,129,158);"/>
        <path d="M323.415,268.467C327.499,262.728 329.919,270.688 326.164,274.146C324.664,275.528 313.797,284.096 315.557,276.512C316.323,273.211 320.055,276.09 323.415,268.467Z" style="fill:rgb(221,227,231);"/>
        <path d="M119.982,301.645L120.08,301.449C119.645,306.427 122.228,310.058 117.509,308.461C113.148,306.986 105.565,304.751 107.557,300.53C108.958,297.561 115.875,302.152 116.485,302.557C118.236,303.719 118.287,302.843 119.982,301.645Z" style="fill:rgb(219,222,227);"/>
        <path d="M194.185,276.22C200.207,272.893 207.665,278.279 198.356,284.289C193.689,287.302 184.424,281.17 192.436,278.357C196.231,285.455 199.995,279.615 199.607,278.014C199.568,277.85 199.482,277.495 197.518,277.718C194.582,278.051 195.073,276.888 194.185,276.22Z" style="fill:rgb(232,96,137);"/>
        <path d="M211.38,377.678C211.454,378.071 212.007,380.981 212.504,382.542C208.538,383.155 209.502,385.7 205.514,385.911C205.268,385.924 205.287,385.886 202.452,385.57C202.538,382.705 202.43,382.788 202.905,379.892C205.179,377.322 206.593,375.346 211.38,377.678Z" style="fill:rgb(37,23,31);"/>
        <path d="M281.811,290.47C282.16,289.472 283.908,284.473 293.492,284.283C303.899,284.077 291.71,289.473 291.551,289.596C288.088,292.265 285.819,291.096 281.811,290.47Z" style="fill:rgb(237,239,242);"/>
        <path d="M215.61,287.133C213.401,285.741 212.994,286.089 212.217,283.586C210.897,279.336 215.599,279.947 220.499,280.093C227.174,280.291 223.02,287.207 215.61,287.133Z" style="fill:rgb(234,100,139);"/>
        <path d="M91.367,285.363C87.666,282.918 87.766,282.894 83.654,281.201C79.507,279.494 79.364,279.542 77.062,275.673C74.258,270.958 91.544,276.062 91.367,285.363Z" style="fill:rgb(225,227,232);"/>
        <path d="M257.664,379.357C260.659,383.446 260.89,383.193 266.277,388.699C268.706,391.181 267.058,391.594 266.436,396.505C264.098,396.224 264.051,396.298 262.451,394.554C263.754,393.125 264.312,393.108 263.73,392.441C261.821,390.251 261.751,390.42 259.801,388.353C258.948,387.448 256.521,380.574 256.552,380.5C256.756,380.009 257.46,379.848 257.664,379.357Z" style="fill:rgb(208,119,161);"/>
        <path d="M226.44,415.248L226.5,416.691C226.3,417.022 224.342,420.265 224.949,421.261C226.121,423.183 229.516,420.634 229.833,420.396L230.807,421.545C230.639,423.363 230.916,423.427 230.271,424.377C225.067,432.047 212.931,416.904 226.44,415.248Z" style="fill:rgb(97,142,172);"/>
        <path d="M253.56,374.469C255.858,376.786 255.743,376.774 257.664,379.357C257.46,379.848 256.756,380.009 256.552,380.5C256.521,380.574 258.948,387.448 259.801,388.353C261.751,390.42 261.821,390.251 263.73,392.441C264.312,393.108 263.754,393.125 262.451,394.554C257.873,390.161 256.988,389.169 255.814,386.376C251.376,375.818 253.46,374.801 253.56,374.469Z" style="fill:rgb(167,77,114);"/>
        <path d="M127.801,323.035C127.789,323.026 120.9,319.45 118.908,313.433C117.608,309.506 120.738,313.125 127.315,316.829C131.356,319.104 131.971,324.789 127.801,323.035Z" style="fill:rgb(174,180,187);"/>
        <path d="M187.513,290.607C186.686,290.594 175.528,290.406 177.931,286.745C178.076,286.524 184.095,282.873 188.604,286.308C190.305,287.604 192.497,288.108 189.749,289.817C188.292,290.722 187.854,290.487 187.513,290.607Z" style="fill:rgb(246,213,188);"/>
        <path d="M172.466,347.524C169.442,338.599 184.674,342.336 180.265,347.401C176.97,351.187 175.697,351.294 172.466,347.524Z" style="fill:rgb(231,44,87);"/>
        <path d="M252.855,289.509C255.585,282.387 264.479,290.571 259.705,293.776C254.198,297.473 252.963,290.146 252.855,289.509Z" style="fill:rgb(237,109,146);"/>
        <path d="M209.577,403.879C212.585,402.613 213.918,401.565 213.745,403.444C213.047,411.014 212.143,411.31 211.506,411.519C206.184,413.26 206.606,410.282 206.928,404.745C207.811,404.456 208.694,404.167 209.577,403.879Z" style="fill:rgb(44,21,21);"/>
        <path d="M316.6,125.498C316.89,137.974 317.491,150.191 314.539,147.458C314.001,146.961 314.422,146.793 314.442,131.501C315.124,128.336 315.142,128.385 316.6,125.498Z" style="fill:rgb(0,15,64);"/>
        <path d="M137.529,323.374C137.255,323.837 136.528,323.9 136.253,324.363C135.713,325.273 136.094,325.324 137.975,337.476C138.018,337.633 137.852,337.621 138.159,339.5C138.305,340.008 138.451,340.516 138.597,341.023C136.229,340.106 135.695,339.854 133.234,324.554C134.666,324.161 136.098,323.767 137.529,323.374Z" style="fill:rgb(227,178,199);"/>
        <path d="M155.912,288.18L156.416,288.553C155.537,292.071 155.091,291.977 155.245,292.246C155.439,292.584 155.726,292.365 158.065,296.21C157.654,296.618 152.773,301.463 150.881,297.11C150.366,295.925 151.469,294.746 151.612,294.593C152.409,293.74 152.576,293.746 152.438,293.452C152.144,292.829 151.82,293.136 151.56,292.481C151.485,292.293 151.643,292.318 152.711,290.217C154.594,291.782 154.539,290.168 155.912,288.18Z" style="fill:rgb(240,153,170);"/>
        <path d="M196.808,420.348C197.014,423.792 196.569,424.632 199.873,425.4C200.728,426.861 200.413,427.196 201.598,427.341C203.446,427.566 203.81,428.877 203.914,428.949C198.324,434.916 197.449,427.46 193.902,425.901C195.853,421.743 196.525,420.762 196.808,420.348Z" style="fill:rgb(92,138,169);"/>
        <path d="M157.704,461.894C161.994,465.206 161.566,465.61 162.12,467.593C162.23,467.826 163.488,470.504 163.488,470.504C163.729,470.667 164.213,470.393 164.347,470.651C164.488,470.921 163.866,471.23 164.007,471.5L163.312,472.914C162.177,472.154 158.747,471.033 157.173,466.616C156.185,463.842 154.881,462.906 157.704,461.894Z" style="fill:rgb(235,206,217);"/>
        <path d="M261.588,244.381C259.024,241.623 262.924,241.997 267.498,241.471C267.776,241.439 273.434,240.788 270.416,243.412C266.852,246.512 265.292,249.602 261.588,244.381Z" style="fill:rgb(207,205,78);"/>
        <path d="M220.707,440.841C229.124,437.734 217.12,449.423 216.396,449.207C210.179,447.347 217.489,443.347 220.707,440.841Z" style="fill:rgb(242,132,157);"/>
        <path d="M253.743,231.467C253.778,221.134 258.078,234.233 258.215,234.65C258.353,235.069 261.236,243.85 257.752,240.145C254.368,236.545 254.745,236.295 253.743,231.467Z" style="fill:rgb(229,217,104);"/>
        <path d="M155.364,408.69C154.845,408.017 149.055,400.507 155.536,398.06C158.697,396.867 155.272,401.64 156.322,402.652C157.412,403.703 158.73,407.194 158.657,407.475C158.657,407.475 155.628,408.593 155.364,408.69Z" style="fill:rgb(183,53,99);"/>
        <path d="M197.221,259.494C197.195,260.822 197.168,262.15 197.141,263.479C196.594,263.921 196.047,264.364 195.5,264.806C192.671,261.946 191.68,260.559 189.388,263.876C185.377,259.912 189.161,259.404 194.555,257.828C195.814,257.46 195.781,258.437 195.907,258.5C195.744,259.733 194.402,260.229 195.662,260.36C195.662,260.36 197.097,259.563 197.221,259.494Z" style="fill:rgb(232,125,158);"/>
        <path d="M210.558,12.191C213.425,12.959 225.117,14.633 221.803,21.712C218.908,16.057 214.204,15.923 211.5,14.472C211.253,14.485 206.416,14.735 209.568,12.052C209.822,11.836 210.304,12.407 210.558,12.191Z" style="fill:rgb(244,162,158);"/>
        <path d="M156.416,288.553C157.548,289.014 157.295,289.553 158.561,289.427C162.504,289.032 163.843,292.689 163.662,293.587C163.565,294.072 163.369,293.909 158.065,296.21C155.726,292.365 155.439,292.584 155.245,292.246C155.091,291.977 155.537,292.071 156.416,288.553Z" style="fill:rgb(243,186,189);"/>
        <path d="M322.5,328.499C323.181,328.85 323.861,329.2 324.542,329.551C314.465,333.535 314.394,333.269 310.772,333.966C310.729,331.958 310.757,332.011 310.331,330.058C310.492,329.931 312.124,328.649 312.505,328.701C313.582,328.848 313.094,329.287 313.184,330.57C313.237,331.332 313.757,332.158 322.5,328.499Z" style="fill:rgb(124,91,107);"/>
        <path d="M207.624,419.892C214.839,418.524 213.361,422.298 213.79,429.598C213.096,429.273 210.263,428.506 209.881,427.461C209.775,427.172 209.188,425.568 209.969,423.62C210.697,421.804 209.957,421.889 208.637,420.5L207.624,419.892Z" style="fill:rgb(125,182,223);"/>
        <path d="M214.214,192.772C214.427,193.26 216.914,198.987 209.505,197.474C207.279,197.019 207.334,194.795 207.341,194.501C207.426,191.066 213.574,192.72 214.214,192.772Z" style="fill:rgb(247,248,228);"/>
        <path d="M259.72,345.947L256.905,347.906C256.912,347.066 256.226,340.74 256.6,338.519C256.752,337.613 257.569,337.464 256.271,335.494C255.249,333.944 257.415,333.371 257.439,333.388C260.584,335.56 259.531,338.052 259.362,338.451C257.29,343.356 258.833,343.857 259.72,345.947Z" style="fill:rgb(223,145,165);"/>
        <path d="M211.38,377.678C219.066,377.678 217.898,380.389 218.523,385.628C215.65,383.677 215.961,383.035 212.504,382.542C212.007,380.981 211.454,378.071 211.38,377.678Z" style="fill:rgb(35,43,58);"/>
        <path d="M215.099,250.702C215.102,244.946 212.816,241.614 218.512,242.457C222.362,243.026 219.428,244.706 217.245,250.384C216.53,250.49 215.814,250.596 215.099,250.702Z" style="fill:rgb(244,244,241);"/>
        <path d="M240.708,449.993C244.27,448.055 243.554,446.897 245.507,446.542C245.962,446.459 249.142,447.373 244.084,452.145C241.537,454.549 236.943,453.212 240.708,449.993Z" style="fill:rgb(236,115,143);"/>
        <path d="M196.524,418.483C199.845,420.265 200.326,418.486 203.657,420.212C202.276,423.234 201.401,422.553 199.873,425.4C196.569,424.632 197.014,423.792 196.808,420.348C196.713,419.727 196.618,419.105 196.524,418.483Z" style="fill:rgb(89,142,177);"/>
        <path d="M260.988,406.575L259.5,405.435L258.888,404.5C258.721,399.043 254.622,399.375 256.663,395.869C257.245,394.869 260.214,395.309 260.408,396.493C260.589,397.591 260.521,401.692 260.988,406.575Z" style="fill:rgb(248,170,192);"/>
        <path d="M169.24,296.294C173.657,292.702 182.115,294.006 175.684,299.823L174.5,298.329C173.424,297.797 173.519,297.787 173.424,297.797C171.078,298.065 171.17,297.654 169.24,296.294Z" style="fill:rgb(242,87,137);"/>
        <path d="M242.618,332.507C241.34,334.816 240.03,333.405 238.724,335.61C237.294,338.024 237.538,340.231 235.694,338.334C234.739,337.351 234.615,328.953 242.618,332.507Z" style="fill:rgb(227,91,127);"/>
        <path d="M183.499,252.37C185.362,250.449 185.286,250.358 185.509,250.298C186.71,249.972 186.689,250.274 196.944,252.759C196.808,253.33 196.672,253.901 196.535,254.472C189.989,253.243 190.099,253.145 183.499,252.37Z" style="fill:rgb(44,51,62);"/>
        <path d="M72.808,280.223L73.343,280.616C73.65,280.874 73.592,280.848 77.114,283.922C77.41,284.243 77.705,284.565 78,284.887L79.862,287.306C78.919,287.755 79.513,288.338 78.574,288.785C78.497,288.822 78.376,288.879 77.574,288.395C74.498,286.54 75.311,285.734 72.605,283.397C69.883,281.045 72.414,280.887 72.808,280.223Z" style="fill:rgb(204,218,228);"/>
        <path d="M162.354,444.372C161.82,444.101 161.441,444.803 160.544,443.456C160.4,443.239 160.298,442.973 160.305,442.714C160.347,441.132 160.143,441.18 158.85,440.17C154.938,437.115 163.234,435.296 163.584,440.502C163.699,442.212 162.83,443.204 162.354,444.372Z" style="fill:rgb(184,59,103);"/>
        <path d="M138.292,288.465C139.022,288.882 139.752,289.298 140.482,289.714C138.633,290.849 138.558,290.768 137.761,292.757C136.794,295.168 138.676,296.208 134.47,299.596C133.85,299.367 133.229,299.139 132.608,298.91C132.871,298.714 133.726,299.187 134.502,297.501C134.502,297.501 134.664,295.755 134.678,295.603C135.988,291.698 135.043,291.109 138.292,288.465Z" style="fill:rgb(135,127,134);"/>
        <path d="M196.194,446.309C196.29,446.488 197.396,448.551 197.396,448.551C197.492,448.741 198.007,449.765 199.221,450.5C199.682,451.19 200.142,451.88 200.603,452.571C198.174,454.559 197.779,453.609 195.646,451.393C192.05,447.655 194.702,447.211 196.194,446.309Z" style="fill:rgb(222,70,97);"/>
        <path d="M194.185,276.22C195.073,276.888 194.582,278.051 197.518,277.718C199.482,277.495 199.568,277.85 199.607,278.014C199.995,279.615 196.231,285.455 192.436,278.357C193.239,277.146 193.154,277.194 194.185,276.22Z" style="fill:rgb(244,141,171);"/>
        <path d="M215.099,250.702C215.814,250.596 216.53,250.49 217.245,250.384C217.064,251.511 216.547,260.609 216.496,261.499C216.445,262.392 214.591,263.401 214.703,260.487C215.049,251.459 215.072,251.485 215.099,250.702Z" style="fill:rgb(190,187,194);"/>
        <path d="M239.205,350.233C231.699,354.944 236.348,343.2 239.306,344.875C239.774,345.14 239.518,346.65 239.679,347.435C239.985,348.931 239.813,348.876 239.205,350.233Z" style="fill:rgb(224,56,97);"/>
        <path d="M98.532,330.472C100.07,331.752 100.067,331.787 100.35,333.75C94.901,333.128 95.025,332.879 89.827,331.147C92.238,327.817 96.04,332.241 97.521,331.529C97.96,331.318 98.092,330.683 98.532,330.472Z" style="fill:rgb(162,132,147);"/>
        <path d="M268.231,257.58C268.156,257.172 267.312,252.576 267.418,252.458C267.996,251.819 276.428,255.993 271.455,258.319C270.38,258.073 269.306,257.826 268.231,257.58Z" style="fill:rgb(204,206,64);"/>
        <path d="M156.061,341.891C154.293,337.343 158.701,339.199 158.77,339.266C159.078,339.559 161.946,342.294 161.97,343.506C162.041,347.113 156.43,342.213 156.061,341.891Z" style="fill:rgb(189,41,87);"/>
        <path d="M241.515,233.511C242.142,233.554 242.77,233.597 243.398,233.639C245.498,236.978 247.453,236.894 245.539,240.343C241.874,237.596 239.964,237.86 241.515,233.511Z" style="fill:rgb(252,228,216);"/>
        <path d="M232.755,413.805C231.495,415.171 231.583,415.875 233.377,416.275C234.248,416.468 233.887,415.953 234.059,414.575C234.475,414.769 235.017,414.476 235.434,414.67C236.469,415.15 236.003,415.413 236.198,416.51C237.05,421.307 227.034,415.634 230.582,412.581C231.825,411.511 234.007,413.01 233.574,413.93C233.457,414.18 232.872,413.554 232.755,413.805Z" style="fill:rgb(60,115,146);"/>
        <path d="M272.141,319.059C272.008,320.025 272.916,323.075 269.391,323.288C267.52,323.4 267.679,324.015 265.741,324.042C265.07,322.227 265.002,322.249 265.016,322.082C265.052,321.651 265.522,322.038 265.559,321.602C269.007,320.467 271.626,319.29 272.141,319.059Z" style="fill:rgb(229,183,188);"/>
        <path d="M250.122,407.38C250.788,410.501 251.597,410.021 253.551,412.484L252.436,413.414C246.326,413.9 246.693,409.212 250.122,407.38Z" style="fill:rgb(204,64,101);"/>
        <path d="M339.921,163.064L341.324,163.691C342.347,164.259 343.37,164.827 344.392,165.395C343.711,167.183 342.643,172.121 339.675,166.387C339.209,165.486 338.27,166.017 338.5,164.99C338.674,164.212 339.747,163.843 339.921,163.064Z" style="fill:rgb(17,58,125);"/>
        <path d="M366.999,391.5L366.999,411.5C366.931,411.025 366.03,410.977 365.962,410.502C365.754,409.053 365.964,397.582 365.985,396.459C366.009,395.142 365.733,393.798 365.997,392.508C366.092,392.044 366.904,391.964 366.999,391.5Z" style="fill:none;"/>
        <path d="M199.529,398.428C202.483,401.331 204.601,400.803 203.241,403.31C202.888,403.373 199.551,403.968 198.763,403.163C196.847,401.207 198.412,400.986 199.529,398.428Z" style="fill:rgb(55,21,33);"/>
        <path d="M219.56,398.554C219.824,398.717 220.222,398.288 220.486,398.452C223.308,400.198 221.227,405.582 216.92,403.196C214.612,401.918 217.547,401.863 219.56,398.554Z" style="fill:rgb(57,25,41);"/>
        <path d="M90.206,52.448C88.752,53.614 88.543,54.134 86.387,52.663C86.187,52.527 84.17,51.15 84.139,50.648C83.906,46.857 86.008,49.489 89.488,50.836C91.263,51.523 90.06,52.121 90.206,52.448Z" style="fill:rgb(21,89,188);"/>
        <path d="M187.707,412.167C190.797,414.905 190.683,414.912 190.96,415.129C185.994,418.737 186.123,418.896 185.666,419.169C184.937,418.499 185.061,418.485 184.868,417.468C186.609,414.897 186.546,414.958 187.707,412.167Z" style="fill:rgb(120,180,219);"/>
        <path d="M169.24,296.294C171.17,297.654 171.078,298.065 173.424,297.797C173.519,297.787 173.424,297.797 174.5,298.329L175.684,299.823C169.597,303.083 167.971,298.794 169.24,296.294Z" style="fill:rgb(213,103,136);"/>
        <path d="M159.257,276.607C159.755,276.425 159.944,275.728 160.442,275.546C161.394,275.199 166.39,284.405 158.22,280.938C159.54,278.892 159.986,278.882 159.257,276.607Z" style="fill:rgb(214,151,149);"/>
        <path d="M196.194,446.309C196.513,446.042 199.127,443.852 200.946,448.416C201.757,450.45 201.295,450.455 200.603,452.571C200.142,451.88 199.682,451.19 199.221,450.5C198.007,449.765 197.492,448.741 197.396,448.551C197.396,448.551 196.29,446.488 196.194,446.309Z" style="fill:rgb(214,50,84);"/>
        <path d="M152.47,331.487C151.142,333.768 150.724,335.037 148.894,333.154C145.692,329.861 152.11,326.919 152.47,331.487Z" style="fill:rgb(151,29,71);"/>
        <path d="M207.729,365.141C204.577,363.082 201.58,363.991 203.571,360.745C204.505,359.222 204.262,361.983 205.984,362.082C208.627,362.234 210.146,361.908 209.085,364.358C209.035,364.473 208.985,364.416 207.729,365.141Z" style="fill:rgb(149,33,96);"/>
        <path d="M202.905,379.892C202.43,382.788 202.538,382.705 202.452,385.57C202.125,385.541 201.764,386.983 198.474,384.431L199.454,383.531C200.468,382.132 200.77,382.28 200.797,380.558C200.82,379.058 201.5,379.773 202.905,379.892Z" style="fill:rgb(64,62,101);"/>
        <path d="M229.833,420.396C229.516,420.634 226.121,423.183 224.949,421.261C224.342,420.265 226.3,417.022 226.5,416.691C227.834,418.929 227.719,418.989 229.833,420.396Z" style="fill:rgb(122,186,228);"/>
        <path d="M36.046,390.421C36.238,390.598 38.444,392.622 38.444,392.622C42.004,393.679 38.014,397.125 37.431,396.502C35.074,393.984 35.18,393.694 36.046,390.421Z" style="fill:rgb(224,127,174);"/>
        <path d="M156.611,274.158C157.197,274.265 157.783,274.373 158.369,274.48C158.665,275.189 158.961,275.898 159.257,276.607C159.986,278.882 159.54,278.892 158.22,280.938C155.991,276.823 157.016,276.531 156.806,276.195C156.537,275.764 155.737,275.896 155.468,275.466L156.611,274.158Z" style="fill:rgb(178,142,145);"/>
        <path d="M10.396,216.624C11.011,216.792 18.462,217.96 18.48,217.966C18.905,218.095 19.073,218.695 19.498,218.825C18.502,218.978 17.506,219.131 16.51,219.285C14.794,219.16 13.077,219.036 11.361,218.911C11.251,218.746 11.442,218.69 10.396,216.624Z" style="fill:rgb(29,12,22);fill-opacity:0.9;"/>
        <path d="M219.628,359.388C220.085,360.987 220.181,360.93 219.764,362.463C215.517,365.566 214.968,364.853 214.951,364.437C214.875,362.575 217.781,361.562 218.5,360.635L219.628,359.388Z" style="fill:rgb(237,134,198);"/>
        <path d="M281.374,192.612C282.871,193.984 283.487,193.007 284.785,194.59C285.159,195.046 285.991,195.33 285.952,195.918C285.919,196.413 285.053,196.351 284.65,196.639C283.144,197.717 283.11,197.549 281.26,197.239C281.633,194.949 281.206,194.988 281.374,192.612Z" style="fill:rgb(23,29,46);"/>
        <path d="M298.509,91.122C297.597,89.536 297.526,89.569 297.617,87.533C297.993,79.038 299.851,88.27 299.876,88.463C300.355,92.159 298.613,91.08 298.509,91.122Z" style="fill:rgb(55,145,236);"/>
        <path d="M301.5,0L310.5,-0C305.57,4.149 303.961,1.366 301.5,0Z" style="fill:none;"/>
        <path d="M196.241,362.488L196.518,363.487C197.332,365.201 196.979,365.41 198.555,366.375C198.1,366.641 198.086,367.393 197.631,367.659C195.354,368.99 193.08,360.063 195.592,361.423C195.958,361.621 195.876,362.29 196.241,362.488Z" style="fill:rgb(192,62,130);"/>
        <path d="M218.46,407.826C223.234,409.139 217.217,413.688 216.422,411.526C215.994,410.361 216.619,409.563 216.623,409.525L218.46,407.826Z" style="fill:rgb(59,24,6);"/>
        <path d="M184.868,417.468C185.061,418.485 184.937,418.499 185.666,419.169C185.535,420.239 186.631,419.851 186.5,420.921C186.489,421.013 186.472,421.146 185.408,421.281C181.188,421.817 182.657,416.413 183.588,416.399C184.144,416.391 184.312,417.477 184.868,417.468Z" style="fill:rgb(64,120,157);"/>
        <path d="M232.354,255.37L233.423,255.163C233.663,255.245 238.628,256.946 235.519,257.544C234.372,257.765 234.576,258.143 233.468,258.26C230.941,258.526 230.602,257.193 232.354,255.37Z" style="fill:rgb(248,75,94);"/>
        <path d="M203.914,428.949C203.93,428.636 204.612,415.483 206.241,425.802C206.606,428.114 206.179,428.08 206.575,430.439C205.314,429.822 204.121,429.078 203.914,428.949Z" style="fill:rgb(59,103,134);"/>
        <path d="M201.496,407.287C202.619,408.268 202.608,408.267 202.709,408.346C202.926,408.516 202.888,408.368 203.162,408.582C203.204,408.85 204.239,415.35 200.891,411.106C199.411,409.231 199.501,408.721 201.496,407.287Z" style="fill:rgb(58,16,4);"/>
        <path d="M201.544,358.533C201.542,359.03 201.35,358.942 201.348,359.439C201.338,362.04 201.521,361.973 201.52,364.521C201.52,364.521 200.583,365.421 200.502,365.499C200.31,365.042 200.119,364.586 199.927,364.129C199.71,362.7 199.492,361.27 199.275,359.841C201.18,358.7 201.135,358.691 201.544,358.533Z" style="fill:rgb(160,54,114);"/>
        <path d="M176.591,408.755C178.067,408.717 177.974,408.686 179.44,408.903L180.98,410.5C180.281,410.995 178.634,413.516 177.073,411.82C176.041,410.699 177.494,410.586 177.5,410.567L176.575,409.5L176.591,408.755Z" style="fill:rgb(122,183,220);"/>
        <path d="M189.329,368.526L189.273,369.439L188.432,370.133C188.162,369.93 187.764,370.714 187.493,370.512C187.352,370.406 187.847,370.229 186.785,368.422C186.631,368.159 184.652,364.792 187.507,364.683C190.262,364.579 187.31,366.449 187.802,367.178C187.894,367.313 187.915,367.277 189.329,368.526Z" style="fill:rgb(179,48,125);"/>
        <path d="M198.697,359.21L199.275,359.841C199.492,361.27 199.71,362.7 199.927,364.129C198.791,363.915 197.654,363.701 196.518,363.487L196.241,362.488C197.474,361.445 198.539,359.497 198.697,359.21Z" style="fill:rgb(232,119,186);"/>
        <path d="M189.388,263.876C191.68,260.559 192.671,261.946 195.5,264.806C192.324,264.828 192.411,264.768 189.388,263.876Z" style="fill:rgb(247,166,192);"/>
        <path d="M155.912,288.18C154.539,290.168 154.594,291.782 152.711,290.217C152.436,289.849 151.826,289.841 151.551,289.473C151.333,289.181 150.394,285.888 155.912,288.18Z" style="fill:rgb(216,107,128);"/>
        <path d="M74.578,276.474C74.673,276.713 75.735,279.383 75.607,279.527C75.548,279.593 75.599,278.942 74.5,279.471C73.685,279.864 74.1,280.251 73.343,280.616L72.808,280.223C69.879,277.843 71.261,277.314 71.505,277.221C72.163,276.969 72.89,277.814 73.574,277.647C74.075,277.526 74.078,276.595 74.578,276.474Z" style="fill:rgb(110,115,128);"/>
        <path d="M218.46,407.826L216.623,409.525C215.26,407.495 213.867,407.341 215.562,405.551C217.35,403.664 217.364,405.539 218.46,407.826Z" style="fill:rgb(122,85,58);"/>
        <path d="M181.498,463.339C186.696,459.482 186.509,463.314 186.328,463.656C185.24,465.716 184.666,464.002 181.498,463.339Z" style="fill:rgb(251,139,175);"/>
        <path d="M257.998,327.701C259.886,327.558 260.172,327.089 261.292,328.627C262.643,330.481 257.339,332.666 257.998,327.701Z" style="fill:rgb(223,119,144);"/>
        <path d="M212.842,388.499C214.447,387.361 214.521,388.1 216.085,389.282C212.941,396.542 212.839,388.766 212.842,388.499Z" style="fill:rgb(154,140,152);"/>
        <path d="M272.5,0L281.5,0C281.014,0.122 280.928,0.946 280.442,1.069C279.768,1.239 274.092,1.228 273.598,1.073C273.11,0.92 272.988,0.153 272.5,0Z" style="fill:none;"/>
        <path d="M366.999,311.5L366.999,320.5C366.851,320.022 366.095,319.907 365.947,319.429C365.606,318.329 365.782,314.918 365.802,314.527C365.889,312.83 366.389,313.042 366.999,311.5Z" style="fill:none;"/>
        <path d="M203.881,389.454C205.009,387.668 204.82,387.451 205.494,387.437C206.978,387.405 206.405,388.137 206.906,389.646C206.759,389.839 204.101,393.351 203.881,389.454Z" style="fill:rgb(167,160,173);"/>
        <path d="M239.537,326.686C240.452,326.744 241.367,326.801 242.282,326.859C242.482,327.435 242.683,328.011 242.883,328.587L242.768,329.604C240.565,329.353 240.604,329.351 238.666,328.38C238.854,328.03 238.604,328.011 238.777,327.69C238.824,327.601 238.777,327.69 239.537,326.686Z" style="fill:rgb(214,159,168);"/>
        <path d="M195.668,476.142C195.32,476.108 188.115,475.409 192.467,473.162C194.871,471.921 194.305,473.742 195.668,476.142Z" style="fill:rgb(250,140,171);"/>
        <path d="M208.353,400.894C208.435,401.139 208.557,401.015 209.577,403.879C208.694,404.167 207.811,404.456 206.928,404.745C206.32,402.078 205.659,400.947 208.353,400.894Z" style="fill:rgb(138,117,77);"/>
        <path d="M242.416,265.134C237.754,265.504 240.534,263.026 240.746,262.971C240.913,262.928 246.645,262.341 242.416,265.134Z" style="fill:rgb(253,117,135);"/>
        <path d="M215.003,31.671C215.051,34.083 214.982,35.116 212.636,34.353C211.839,34.094 212.272,33.885 212.374,32.489C212.505,30.693 213.28,31.317 215.003,31.671Z" style="fill:rgb(28,115,197);"/>
        <path d="M241.588,413.172C237.68,408.448 242.654,409.837 242.834,410.038C244.239,411.61 243.127,411.738 241.588,413.172Z" style="fill:rgb(134,169,182);"/>
        <path d="M253.47,402.552C256.082,405.211 253.85,405.392 252.447,406.298C251.677,404.613 251.137,404.132 253.47,402.552Z" style="fill:rgb(159,69,87);"/>
        <path d="M224.428,367.639C224.185,367.058 223.562,367.13 224.251,365.424C224.997,363.574 225.188,363.264 225.436,363.391C228.254,364.83 226.968,365.882 224.428,367.639Z" style="fill:rgb(247,140,211);"/>
        <path d="M134.678,295.603C134.664,295.755 134.502,297.501 134.502,297.501C133.726,299.187 132.871,298.714 132.608,298.91L131.788,298.653C131.835,298.454 132.379,296.169 132.379,296.169C132.544,296.076 132.549,296.127 134.678,295.603Z" style="fill:rgb(184,175,179);"/>
        <path d="M196.518,363.487C197.654,363.701 198.791,363.915 199.927,364.129C200.119,364.586 200.31,365.042 200.502,365.499C199.853,365.791 199.204,366.083 198.555,366.375C196.979,365.41 197.332,365.201 196.518,363.487Z" style="fill:rgb(233,117,185);"/>
        <path d="M101.5,0L108.5,-0C108.01,0.114 107.907,0.936 107.417,1.051C104.314,1.775 104.253,1.594 101.5,0Z" style="fill:none;"/>
        <path d="M204.601,405.405C204.544,407.246 204.247,407.084 203.162,408.582C202.888,408.368 202.926,408.516 202.709,408.346C202.608,408.267 202.619,408.268 201.496,407.287C203.301,405.176 203.528,405.63 204.601,405.405Z" style="fill:rgb(126,87,68);"/>
        <path d="M210.549,395.619C211.996,395.813 212.263,395.263 213.091,396.563C213.891,397.819 213,397.725 211.667,398.246C210.975,398.045 210.284,397.845 209.593,397.644C209.912,396.969 210.23,396.294 210.549,395.619Z" style="fill:rgb(102,86,81);"/>
        <path d="M77.114,283.922C77.317,283.735 82.662,278.816 80.532,283.533C80.053,284.595 79.614,283.674 79.532,283.703C78.923,283.917 78.609,284.673 78,284.887C77.705,284.565 77.41,284.243 77.114,283.922Z" style="fill:rgb(74,62,77);"/>
        <path d="M208.505,395.491C208.868,396.209 209.23,396.926 209.593,397.644C207.91,398.414 207.836,398.515 206.186,397.645L206.71,396.576C207.308,396.214 207.907,395.853 208.505,395.491Z" style="fill:rgb(89,71,82);"/>
        <path d="M195.147,338.534C195.101,338.732 193.191,346.904 192.777,339.452C192.717,338.374 192.741,338.342 193.641,337.837C193.757,337.772 193.753,337.888 195.147,338.534Z" style="fill:rgb(191,94,119);"/>
        <path d="M19.498,218.825L25.499,218.837C26.825,218.994 28.152,219.151 29.478,219.307C22.978,219.333 23.078,219.338 16.51,219.285C17.506,219.131 18.502,218.978 19.498,218.825Z" style="fill:rgb(36,42,61);fill-opacity:0.48;"/>
        <path d="M0,326.5L0,322.5C1.211,323.328 1.691,323.01 1.784,324.472C1.884,326.02 1.305,325.722 0,326.5Z" style="fill:none;"/>
        <path d="M222.996,332.579C224.12,331.732 224.178,331.986 225.56,332.474C225.332,334.122 225.434,334.174 225.314,334.254C223.251,335.633 223.015,332.807 222.996,332.579Z" style="fill:rgb(188,99,119);"/>
        <path d="M320.589,251.426C319.658,252.935 319.884,253.783 318.674,253.136C317.55,252.534 317.723,251.773 317.754,251.636C318.133,249.968 320.394,251.31 320.589,251.426Z" style="fill:rgb(246,203,228);"/>
        <path d="M231.825,243.57C232.389,243.202 231.903,242.895 232.503,242.503C232.57,242.459 233.018,242.166 233.508,242.47C234.979,243.383 232.456,246.797 231.825,243.57Z" style="fill:rgb(254,134,144);"/>
        <path d="M40.206,375.613C40.602,376.077 41.41,376.036 41.806,376.5C43.903,378.956 41.124,379.629 40.712,378.484C40.633,378.264 40.674,378.271 40.206,375.613Z" style="fill:rgb(229,123,176);"/>
        <path d="M128.5,0L133.5,0C131.207,0.958 131.308,1.351 128.901,1.006L128.5,0Z" style="fill:none;"/>
        <path d="M322.5,328.499C324.977,327.332 326.144,325.875 326.566,328.575C326.773,329.898 325.777,328.912 324.542,329.551C323.861,329.2 323.181,328.85 322.5,328.499Z" style="fill:rgb(241,196,216);"/>
        <path d="M268.231,257.58C269.306,257.826 270.38,258.073 271.455,258.319C269.814,259.499 269.996,260.23 268.197,259.715C268.033,259.668 267.947,259.643 268.231,257.58Z" style="fill:rgb(135,133,49);"/>
        <path d="M289.754,296.35C289.69,296.15 288.979,293.922 289.569,293.732C290.041,293.58 293.855,296.604 289.754,296.35Z" style="fill:rgb(132,135,146);"/>
        <path d="M187.518,422.56C187.689,422.37 190.472,419.263 190.53,421.495C190.53,421.495 189.633,423.343 189.555,423.504C189.393,423.288 188.927,423.541 188.764,423.325C188.527,423.01 188.881,422.369 188.545,422.163C188.232,421.971 187.831,422.752 187.518,422.56Z" style="fill:rgb(60,104,135);"/>
        <path d="M0,303.5L0,300.5L1.409,300.774C1.489,302.369 1.515,302.36 1.495,302.497C1.495,302.497 0.12,303.42 0,303.5Z" style="fill:none;"/>
        <path d="M198.043,381.445C198.514,382.141 198.984,382.836 199.454,383.531L198.474,384.431L197.499,384.499L198.043,381.445Z" style="fill:rgb(79,80,101);"/>
        <path d="M232.755,413.805L234.059,414.575C233.887,415.953 234.248,416.468 233.377,416.275C231.583,415.875 231.495,415.171 232.755,413.805Z" style="fill:rgb(137,186,220);"/>
        <path d="M347.293,381.513C345.736,380.22 344.71,379.449 346.605,378.916C346.812,378.858 347.578,378.642 347.293,381.513Z" style="fill:rgb(241,208,231);"/>
        <path d="M169.503,22.615C167.835,22.905 166.167,23.195 164.499,23.485C164.557,23.46 164.201,22.182 169.503,22.615Z" style="fill:rgb(32,147,217);"/>
        <path d="M253.474,129.127C254.582,128.863 254.473,128.863 255.522,128.639C256.163,128.501 256.779,128.01 257.423,128.134C257.91,128.228 257.972,129.11 258.459,129.203C256.797,129.178 255.136,129.152 253.474,129.127Z" style="fill:rgb(65,160,221);"/>
        <path d="M208.505,395.491L210.549,395.619C210.23,396.294 209.912,396.969 209.593,397.644C209.23,396.926 208.868,396.209 208.505,395.491Z" style="fill:rgb(163,147,148);"/>
        <path d="M232.506,24.474C235.306,24.231 235.293,24.155 235.53,24.211C235.986,24.319 236.086,25.08 236.543,25.188C235.197,24.95 233.852,24.712 232.506,24.474Z" style="fill:rgb(42,158,220);"/>
        <path d="M209.372,251.49C209.558,251.991 210.427,252.006 210.613,252.507C210.743,252.857 210.23,253.158 210.125,253.517C210.125,253.517 209.614,255.322 209.569,255.479L209.372,251.49Z" style="fill:rgb(253,227,142);"/>
        <path d="M161.443,334.224C161.389,334.416 159.988,339.426 159.5,335.777C159.474,335.58 159.639,335.666 161.443,334.224Z" style="fill:rgb(218,116,150);"/>
        <path d="M243.5,129.334C246.043,128.798 246.037,128.563 248.486,129.275C246.824,129.295 245.162,129.315 243.5,129.334Z" style="fill:rgb(81,169,217);"/>
        <path d="M366.999,141.5L366.999,144.5C366.911,144.342 365.894,142.52 365.894,142.52C366.134,142.08 366.759,141.94 366.999,141.5Z" style="fill:none;"/>
        <path d="M253.551,412.484C255.538,415.256 252.672,413.426 252.436,413.414L253.551,412.484Z" style="fill:rgb(229,126,151);"/>
        <path d="M0,265.5L0,264.5C1.836,264.793 1.772,264.708 3.504,265.474C2.184,265.24 2.219,265.372 0,265.5Z" style="fill:none;"/>
        <path d="M357.063,71.387L357.188,75.533C356.93,74.491 356.804,74.59 356.686,73.5C356.565,72.383 356.863,72.508 357.063,71.387Z" style="fill:none;"/>
        <path d="M112.509,33.544C111.515,33.891 110.521,34.238 109.527,34.584C110.028,34.349 109.939,33.434 110.439,33.198C110.439,33.198 112.344,33.517 112.509,33.544Z" style="fill:rgb(25,142,210);"/>
        <path d="M109.527,34.584C108.837,34.839 108.146,35.094 107.455,35.349L106.505,35.516C106.985,35.313 106.961,34.467 107.441,34.264C107.597,34.198 107.596,34.288 109.527,34.584Z" style="fill:rgb(24,139,212);"/>
        <path d="M231.511,273.738C232.517,273.913 233.523,274.088 234.53,274.263C234.366,274.308 232.489,274.826 232.489,274.826C232.022,274.686 231.979,273.877 231.511,273.738Z" style="fill:rgb(102,13,37);"/>
        <path d="M324.509,265.193C326.074,264.924 326.029,264.965 327.565,265.374C326.546,265.313 325.528,265.253 324.509,265.193Z" style="fill:rgb(50,67,90);fill-opacity:0.62;"/>
        <path d="M218.476,127.691C220.356,127.212 220.346,127.125 220.506,127.174C221.287,127.413 220.776,127.944 221.509,128.169C220.498,128.01 219.487,127.85 218.476,127.691Z" style="fill:rgb(72,151,200);"/>
        <path d="M151.532,24.777C150.521,25.024 149.511,25.271 148.501,25.518C149.411,25.154 149.116,24.438 150.517,24.711C151.074,24.819 150.994,24.672 151.532,24.777Z" style="fill:rgb(34,143,222);"/>
        <path d="M249.496,129.252C251.477,128.7 251.442,128.675 253.474,129.127L249.496,129.252Z" style="fill:rgb(76,163,217);"/>
        <path d="M120.507,31.528C118.519,32.166 118.598,32.219 116.521,32.56C118.505,31.794 118.415,31.662 120.507,31.528Z" style="fill:rgb(25,141,219);"/>
        <path d="M174.5,22.473C175.157,22.296 174.986,21.361 176.445,21.948C177.912,22.536 176.024,22.062 174.5,22.473Z" style="fill:rgb(55,155,212);"/>
        <path d="M106.505,35.516L107.455,35.349C106.468,35.722 105.481,36.094 104.494,36.467C105.164,36.15 105.835,35.833 106.505,35.516Z" style="fill:rgb(22,127,217);"/>
        <path d="M242.671,36.058C244.146,36.558 244.059,36.544 245.582,37.105C244.611,36.756 243.641,36.407 242.671,36.058Z" style="fill:rgb(50,132,215);"/>
        <path d="M145.545,25.729C144.525,25.963 143.506,26.197 142.487,26.431C144.273,25.839 144.198,25.628 145.545,25.729Z" style="fill:rgb(36,135,212);"/>
        <path d="M248.281,243.601C249.098,244.987 249.135,244.884 249.382,246.476C248.844,245.444 248.929,245.468 248.281,243.601Z" style="fill:rgb(250,145,152);"/>
        <path d="M140.515,26.646C139.511,26.936 138.507,27.225 137.503,27.515C139.383,26.811 139.304,26.647 140.515,26.646Z" style="fill:rgb(27,138,228);"/>
        <path d="M241.828,232.61C242.351,232.953 242.875,233.296 243.398,233.639C242.77,233.597 242.142,233.554 241.515,233.511L241.828,232.61Z" style="fill:rgb(245,179,178);"/>
        <path d="M30.283,275.6C31.665,276.856 31.711,276.722 32.684,278.327C31.437,276.984 31.6,276.985 30.283,275.6Z" style="fill:none;"/>
        <path d="M299.273,281.574C299.672,281.839 300.071,282.103 300.47,282.368C299.743,282.43 300.04,282.948 299.356,283.006C298.41,283.087 299.328,282.531 299.273,281.574Z" style="fill:rgb(125,128,134);"/>
        <path d="M192.58,366.569C192.874,366.908 193.167,367.247 193.461,367.587L192.412,367.411L192.58,366.569Z" style="fill:rgb(148,56,113);"/>
        <path d="M311.581,145.797C311.154,146.004 311.989,146.322 311.502,146.558C311.403,146.606 310.601,146.994 310.122,146.503C309.318,145.68 310.526,146.308 311.581,145.797Z" style="fill:rgb(41,158,222);"/>
        <path d="M21.718,146.508C22.055,147.07 22.391,147.632 22.728,148.194C22.391,147.632 22.055,147.07 21.718,146.508Z" style="fill:none;"/>
    </g>
</svg>
