<?xml version="1.0" encoding="UTF-8" standalone="no"?>
<!DOCTYPE svg PUBLIC "-//W3C//DTD SVG 1.1//EN" "http://www.w3.org/Graphics/SVG/1.1/DTD/svg11.dtd">
<svg width="100%" height="100%" viewBox="0 0 2147 708" version="1.1" xmlns="http://www.w3.org/2000/svg" xmlns:xlink="http://www.w3.org/1999/xlink" xml:space="preserve" xmlns:serif="http://www.serif.com/" style="fill-rule:evenodd;clip-rule:evenodd;stroke-linejoin:round;stroke-miterlimit:2;">
    <g transform="matrix(26.7077,0,0,26.7077,-31880,-21386.6)">
        <path d="M1201.26,806.36C1201.77,806.48 1202.16,806.728 1202.44,807.104C1202.73,807.472 1202.88,807.9 1202.88,808.388C1202.88,809.132 1202.63,809.708 1202.13,810.116C1201.64,810.516 1200.94,810.716 1200.02,810.716L1195.57,810.716L1195.57,802.22L1199.9,802.22C1200.77,802.22 1201.44,802.408 1201.94,802.784C1202.44,803.16 1202.68,803.708 1202.68,804.428C1202.68,804.924 1202.55,805.344 1202.29,805.688C1202.03,806.024 1201.69,806.248 1201.26,806.36ZM1198.23,805.532L1199.27,805.532C1199.51,805.532 1199.68,805.484 1199.79,805.388C1199.91,805.292 1199.97,805.144 1199.97,804.944C1199.97,804.736 1199.91,804.584 1199.79,804.488C1199.68,804.384 1199.51,804.332 1199.27,804.332L1198.23,804.332L1198.23,805.532ZM1199.44,808.58C1199.68,808.58 1199.86,808.536 1199.97,808.448C1200.09,808.352 1200.15,808.2 1200.15,807.992C1200.15,807.584 1199.92,807.38 1199.44,807.38L1198.23,807.38L1198.23,808.58L1199.44,808.58Z" style="fill-rule:nonzero;"/>
        <path d="M1211.42,803.948L1207.09,813.956L1204.17,813.956L1205.88,810.38L1203.06,803.948L1206.02,803.948L1207.29,807.38L1208.48,803.948L1211.42,803.948Z" style="fill-rule:nonzero;"/>
        <path d="M1220.89,805.136C1220.89,805.672 1220.77,806.16 1220.52,806.6C1220.27,807.032 1219.9,807.376 1219.41,807.632C1218.93,807.888 1218.35,808.016 1217.66,808.016L1216.61,808.016L1216.61,810.716L1213.94,810.716L1213.94,802.22L1217.66,802.22C1218.7,802.22 1219.5,802.484 1220.05,803.012C1220.61,803.54 1220.89,804.248 1220.89,805.136ZM1217.36,805.916C1217.91,805.916 1218.19,805.656 1218.19,805.136C1218.19,804.616 1217.91,804.356 1217.36,804.356L1216.61,804.356L1216.61,805.916L1217.36,805.916Z" style="fill-rule:nonzero;"/>
        <path d="M1228.28,807.272C1228.28,807.456 1228.27,807.632 1228.25,807.8L1223.96,807.8C1224,808.384 1224.25,808.676 1224.69,808.676C1224.98,808.676 1225.19,808.544 1225.32,808.28L1228.14,808.28C1228.04,808.76 1227.84,809.192 1227.53,809.576C1227.22,809.952 1226.83,810.252 1226.36,810.476C1225.9,810.692 1225.38,810.8 1224.83,810.8C1224.15,810.8 1223.55,810.66 1223.03,810.38C1222.51,810.1 1222.1,809.7 1221.8,809.18C1221.51,808.652 1221.37,808.036 1221.37,807.332C1221.37,806.628 1221.51,806.016 1221.8,805.496C1222.1,804.968 1222.51,804.564 1223.03,804.284C1223.55,804.004 1224.15,803.864 1224.83,803.864C1225.5,803.864 1226.09,804.004 1226.61,804.284C1227.14,804.556 1227.55,804.948 1227.84,805.46C1228.13,805.972 1228.28,806.576 1228.28,807.272ZM1225.58,806.636C1225.58,806.412 1225.51,806.244 1225.37,806.132C1225.22,806.012 1225.04,805.952 1224.83,805.952C1224.35,805.952 1224.08,806.18 1224,806.636L1225.58,806.636Z" style="fill-rule:nonzero;"/>
        <path d="M1233.86,803.9C1234.64,803.9 1235.24,804.16 1235.67,804.68C1236.11,805.2 1236.33,805.904 1236.33,806.792L1236.33,810.716L1233.68,810.716L1233.68,807.128C1233.68,806.808 1233.59,806.556 1233.42,806.372C1233.25,806.18 1233.02,806.084 1232.73,806.084C1232.44,806.084 1232.2,806.18 1232.04,806.372C1231.87,806.556 1231.79,806.808 1231.79,807.128L1231.79,810.716L1229.12,810.716L1229.12,803.948L1231.79,803.948L1231.79,804.98C1231.99,804.66 1232.27,804.4 1232.61,804.2C1232.96,804 1233.38,803.9 1233.86,803.9Z" style="fill-rule:nonzero;"/>
        <path d="M1239.92,803.864C1240.36,803.864 1240.74,803.956 1241.06,804.14C1241.38,804.316 1241.62,804.56 1241.79,804.872L1241.79,803.948L1244.44,803.948L1244.44,810.596C1244.44,811.228 1244.33,811.804 1244.1,812.324C1243.87,812.844 1243.49,813.26 1242.97,813.572C1242.46,813.884 1241.8,814.04 1240.99,814.04C1239.9,814.04 1239.04,813.784 1238.4,813.272C1237.77,812.768 1237.4,812.08 1237.32,811.208L1239.93,811.208C1240.01,811.56 1240.29,811.736 1240.8,811.736C1241.11,811.736 1241.35,811.656 1241.53,811.496C1241.7,811.336 1241.79,811.036 1241.79,810.596L1241.79,809.792C1241.62,810.104 1241.38,810.352 1241.06,810.536C1240.74,810.712 1240.36,810.8 1239.92,810.8C1239.39,810.8 1238.92,810.664 1238.49,810.392C1238.07,810.112 1237.73,809.712 1237.49,809.192C1237.25,808.664 1237.12,808.044 1237.12,807.332C1237.12,806.62 1237.25,806.004 1237.49,805.484C1237.73,804.956 1238.07,804.556 1238.49,804.284C1238.92,804.004 1239.39,803.864 1239.92,803.864ZM1241.79,807.332C1241.79,806.972 1241.7,806.692 1241.52,806.492C1241.33,806.292 1241.1,806.192 1240.81,806.192C1240.52,806.192 1240.29,806.292 1240.1,806.492C1239.92,806.692 1239.83,806.972 1239.83,807.332C1239.83,807.692 1239.92,807.972 1240.1,808.172C1240.29,808.372 1240.52,808.472 1240.81,808.472C1241.1,808.472 1241.33,808.372 1241.52,808.172C1241.7,807.972 1241.79,807.692 1241.79,807.332Z" style="fill-rule:nonzero;"/>
        <path d="M1252.81,803.948L1252.81,810.716L1250.14,810.716L1250.14,809.684C1249.94,810.004 1249.66,810.264 1249.31,810.464C1248.96,810.664 1248.55,810.764 1248.07,810.764C1247.29,810.764 1246.68,810.504 1246.25,809.984C1245.81,809.464 1245.6,808.76 1245.6,807.872L1245.6,803.948L1248.25,803.948L1248.25,807.536C1248.25,807.856 1248.33,808.112 1248.5,808.304C1248.68,808.488 1248.91,808.58 1249.2,808.58C1249.49,808.58 1249.73,808.488 1249.89,808.304C1250.06,808.112 1250.14,807.856 1250.14,807.536L1250.14,803.948L1252.81,803.948Z" style="fill-rule:nonzero;"/>
        <path d="M1255.35,803.408C1254.89,803.408 1254.52,803.284 1254.24,803.036C1253.96,802.788 1253.82,802.476 1253.82,802.1C1253.82,801.716 1253.96,801.4 1254.24,801.152C1254.52,800.896 1254.89,800.768 1255.35,800.768C1255.81,800.768 1256.18,800.896 1256.46,801.152C1256.74,801.4 1256.88,801.716 1256.88,802.1C1256.88,802.476 1256.74,802.788 1256.46,803.036C1256.18,803.284 1255.81,803.408 1255.35,803.408ZM1256.67,803.948L1256.67,810.716L1254.01,810.716L1254.01,803.948L1256.67,803.948Z" style="fill-rule:nonzero;"/>
        <path d="M1262.61,803.9C1263.39,803.9 1263.99,804.16 1264.42,804.68C1264.87,805.2 1265.09,805.904 1265.09,806.792L1265.09,810.716L1262.43,810.716L1262.43,807.128C1262.43,806.808 1262.35,806.556 1262.17,806.372C1262,806.18 1261.77,806.084 1261.49,806.084C1261.19,806.084 1260.96,806.18 1260.79,806.372C1260.62,806.556 1260.54,806.808 1260.54,807.128L1260.54,810.716L1257.87,810.716L1257.87,803.948L1260.54,803.948L1260.54,804.98C1260.75,804.66 1261.02,804.4 1261.37,804.2C1261.72,804 1262.13,803.9 1262.61,803.9Z" style="fill-rule:nonzero;"/>
        <path d="M1269.25,810.8C1268.61,810.8 1268.04,810.696 1267.55,810.488C1267.06,810.28 1266.67,809.992 1266.38,809.624C1266.09,809.256 1265.93,808.84 1265.89,808.376L1268.44,808.376C1268.48,808.576 1268.56,808.724 1268.7,808.82C1268.84,808.916 1269.02,808.964 1269.24,808.964C1269.37,808.964 1269.48,808.936 1269.56,808.88C1269.64,808.816 1269.68,808.74 1269.68,808.652C1269.68,808.5 1269.6,808.392 1269.43,808.328C1269.26,808.264 1268.98,808.192 1268.58,808.112C1268.09,808.016 1267.68,807.912 1267.37,807.8C1267.05,807.688 1266.78,807.496 1266.54,807.224C1266.31,806.952 1266.19,806.576 1266.19,806.096C1266.19,805.68 1266.3,805.304 1266.51,804.968C1266.74,804.624 1267.07,804.356 1267.5,804.164C1267.93,803.964 1268.45,803.864 1269.07,803.864C1269.98,803.864 1270.69,804.088 1271.2,804.536C1271.73,804.984 1272.04,805.568 1272.14,806.288L1269.78,806.288C1269.74,806.104 1269.65,805.964 1269.53,805.868C1269.4,805.764 1269.23,805.712 1269.01,805.712C1268.87,805.712 1268.77,805.74 1268.7,805.796C1268.62,805.844 1268.59,805.92 1268.59,806.024C1268.59,806.16 1268.67,806.264 1268.84,806.336C1269.01,806.4 1269.28,806.468 1269.64,806.54C1270.13,806.636 1270.55,806.744 1270.88,806.864C1271.22,806.984 1271.51,807.192 1271.76,807.488C1272.01,807.776 1272.13,808.176 1272.13,808.688C1272.13,809.088 1272.01,809.448 1271.78,809.768C1271.55,810.088 1271.21,810.34 1270.77,810.524C1270.34,810.708 1269.83,810.8 1269.25,810.8Z" style="fill-rule:nonzero;"/>
        <path d="M1199.67,815.42L1199.67,817.532L1196.33,817.532L1196.33,818.708L1198.73,818.708L1198.73,820.712L1196.33,820.712L1196.33,823.916L1193.67,823.916L1193.67,815.42L1199.67,815.42Z" style="fill-rule:nonzero;"/>
        <path d="M1203.78,824C1203.1,824 1202.49,823.86 1201.95,823.58C1201.4,823.3 1200.98,822.9 1200.66,822.38C1200.36,821.852 1200.21,821.236 1200.21,820.532C1200.21,819.828 1200.36,819.216 1200.66,818.696C1200.98,818.168 1201.4,817.764 1201.95,817.484C1202.49,817.204 1203.1,817.064 1203.78,817.064C1204.46,817.064 1205.08,817.204 1205.62,817.484C1206.16,817.764 1206.59,818.168 1206.89,818.696C1207.2,819.216 1207.36,819.828 1207.36,820.532C1207.36,821.236 1207.2,821.852 1206.89,822.38C1206.59,822.9 1206.16,823.3 1205.62,823.58C1205.08,823.86 1204.46,824 1203.78,824ZM1203.78,821.696C1204.03,821.696 1204.24,821.6 1204.41,821.408C1204.58,821.208 1204.66,820.916 1204.66,820.532C1204.66,820.148 1204.58,819.86 1204.41,819.668C1204.24,819.468 1204.03,819.368 1203.78,819.368C1203.54,819.368 1203.33,819.468 1203.16,819.668C1202.99,819.86 1202.91,820.148 1202.91,820.532C1202.91,820.916 1202.99,821.208 1203.15,821.408C1203.32,821.6 1203.53,821.696 1203.78,821.696Z" style="fill-rule:nonzero;"/>
        <path d="M1210.86,818.396C1211.13,818.004 1211.47,817.692 1211.86,817.46C1212.25,817.22 1212.66,817.1 1213.08,817.1L1213.08,819.944L1212.33,819.944C1211.82,819.944 1211.45,820.032 1211.21,820.208C1210.98,820.384 1210.86,820.696 1210.86,821.144L1210.86,823.916L1208.2,823.916L1208.2,817.148L1210.86,817.148L1210.86,818.396Z" style="fill-rule:nonzero;"/>
        <path d="M1222.79,818.336C1222.79,818.872 1222.67,819.36 1222.42,819.8C1222.17,820.232 1221.8,820.576 1221.32,820.832C1220.84,821.088 1220.25,821.216 1219.56,821.216L1218.51,821.216L1218.51,823.916L1215.84,823.916L1215.84,815.42L1219.56,815.42C1220.6,815.42 1221.4,815.684 1221.95,816.212C1222.51,816.74 1222.79,817.448 1222.79,818.336ZM1219.26,819.116C1219.82,819.116 1220.09,818.856 1220.09,818.336C1220.09,817.816 1219.82,817.556 1219.26,817.556L1218.51,817.556L1218.51,819.116L1219.26,819.116Z" style="fill-rule:nonzero;"/>
        <path d="M1230.18,820.472C1230.18,820.656 1230.17,820.832 1230.15,821L1225.86,821C1225.9,821.584 1226.15,821.876 1226.6,821.876C1226.88,821.876 1227.09,821.744 1227.22,821.48L1230.04,821.48C1229.94,821.96 1229.74,822.392 1229.43,822.776C1229.12,823.152 1228.74,823.452 1228.26,823.676C1227.8,823.892 1227.29,824 1226.73,824C1226.06,824 1225.45,823.86 1224.93,823.58C1224.41,823.3 1224,822.9 1223.7,822.38C1223.41,821.852 1223.27,821.236 1223.27,820.532C1223.27,819.828 1223.41,819.216 1223.7,818.696C1224,818.168 1224.41,817.764 1224.93,817.484C1225.45,817.204 1226.06,817.064 1226.73,817.064C1227.4,817.064 1228,817.204 1228.52,817.484C1229.04,817.756 1229.45,818.148 1229.74,818.66C1230.04,819.172 1230.18,819.776 1230.18,820.472ZM1227.48,819.836C1227.48,819.612 1227.41,819.444 1227.27,819.332C1227.12,819.212 1226.94,819.152 1226.73,819.152C1226.26,819.152 1225.98,819.38 1225.9,819.836L1227.48,819.836Z" style="fill-rule:nonzero;"/>
        <path d="M1235.76,817.1C1236.54,817.1 1237.14,817.36 1237.58,817.88C1238.02,818.4 1238.24,819.104 1238.24,819.992L1238.24,823.916L1235.58,823.916L1235.58,820.328C1235.58,820.008 1235.5,819.756 1235.32,819.572C1235.15,819.38 1234.92,819.284 1234.63,819.284C1234.34,819.284 1234.11,819.38 1233.94,819.572C1233.77,819.756 1233.69,820.008 1233.69,820.328L1233.69,823.916L1231.02,823.916L1231.02,817.148L1233.69,817.148L1233.69,818.18C1233.89,817.86 1234.17,817.6 1234.52,817.4C1234.87,817.2 1235.28,817.1 1235.76,817.1Z" style="fill-rule:nonzero;"/>
        <path d="M1241.82,817.064C1242.26,817.064 1242.64,817.156 1242.96,817.34C1243.28,817.516 1243.53,817.76 1243.69,818.072L1243.69,817.148L1246.35,817.148L1246.35,823.796C1246.35,824.428 1246.23,825.004 1246,825.524C1245.77,826.044 1245.39,826.46 1244.87,826.772C1244.36,827.084 1243.7,827.24 1242.89,827.24C1241.8,827.24 1240.94,826.984 1240.3,826.472C1239.67,825.968 1239.31,825.28 1239.22,824.408L1241.84,824.408C1241.91,824.76 1242.19,824.936 1242.7,824.936C1243.01,824.936 1243.26,824.856 1243.43,824.696C1243.61,824.536 1243.69,824.236 1243.69,823.796L1243.69,822.992C1243.53,823.304 1243.28,823.552 1242.96,823.736C1242.64,823.912 1242.26,824 1241.82,824C1241.3,824 1240.82,823.864 1240.39,823.592C1239.97,823.312 1239.63,822.912 1239.39,822.392C1239.15,821.864 1239.03,821.244 1239.03,820.532C1239.03,819.82 1239.15,819.204 1239.39,818.684C1239.63,818.156 1239.97,817.756 1240.39,817.484C1240.82,817.204 1241.3,817.064 1241.82,817.064ZM1243.69,820.532C1243.69,820.172 1243.6,819.892 1243.42,819.692C1243.24,819.492 1243,819.392 1242.71,819.392C1242.42,819.392 1242.19,819.492 1242,819.692C1241.82,819.892 1241.73,820.172 1241.73,820.532C1241.73,820.892 1241.82,821.172 1242,821.372C1242.19,821.572 1242.42,821.672 1242.71,821.672C1243,821.672 1243.24,821.572 1243.42,821.372C1243.6,821.172 1243.69,820.892 1243.69,820.532Z" style="fill-rule:nonzero;"/>
        <path d="M1254.71,817.148L1254.71,823.916L1252.05,823.916L1252.05,822.884C1251.84,823.204 1251.56,823.464 1251.21,823.664C1250.86,823.864 1250.45,823.964 1249.97,823.964C1249.19,823.964 1248.59,823.704 1248.15,823.184C1247.71,822.664 1247.5,821.96 1247.5,821.072L1247.5,817.148L1250.15,817.148L1250.15,820.736C1250.15,821.056 1250.24,821.312 1250.4,821.504C1250.58,821.688 1250.81,821.78 1251.1,821.78C1251.39,821.78 1251.63,821.688 1251.8,821.504C1251.96,821.312 1252.05,821.056 1252.05,820.736L1252.05,817.148L1254.71,817.148Z" style="fill-rule:nonzero;"/>
        <path d="M1257.26,816.608C1256.79,816.608 1256.42,816.484 1256.14,816.236C1255.86,815.988 1255.72,815.676 1255.72,815.3C1255.72,814.916 1255.86,814.6 1256.14,814.352C1256.42,814.096 1256.79,813.968 1257.26,813.968C1257.71,813.968 1258.08,814.096 1258.36,814.352C1258.64,814.6 1258.78,814.916 1258.78,815.3C1258.78,815.676 1258.64,815.988 1258.36,816.236C1258.08,816.484 1257.71,816.608 1257.26,816.608ZM1258.58,817.148L1258.58,823.916L1255.91,823.916L1255.91,817.148L1258.58,817.148Z" style="fill-rule:nonzero;"/>
        <path d="M1264.52,817.1C1265.29,817.1 1265.89,817.36 1266.33,817.88C1266.77,818.4 1266.99,819.104 1266.99,819.992L1266.99,823.916L1264.34,823.916L1264.34,820.328C1264.34,820.008 1264.25,819.756 1264.07,819.572C1263.9,819.38 1263.67,819.284 1263.39,819.284C1263.09,819.284 1262.86,819.38 1262.69,819.572C1262.52,819.756 1262.44,820.008 1262.44,820.328L1262.44,823.916L1259.78,823.916L1259.78,817.148L1262.44,817.148L1262.44,818.18C1262.65,817.86 1262.92,817.6 1263.27,817.4C1263.62,817.2 1264.04,817.1 1264.52,817.1Z" style="fill-rule:nonzero;"/>
        <path d="M1271.15,824C1270.51,824 1269.94,823.896 1269.45,823.688C1268.96,823.48 1268.57,823.192 1268.28,822.824C1268,822.456 1267.83,822.04 1267.79,821.576L1270.35,821.576C1270.38,821.776 1270.46,821.924 1270.6,822.02C1270.74,822.116 1270.92,822.164 1271.14,822.164C1271.28,822.164 1271.38,822.136 1271.46,822.08C1271.54,822.016 1271.58,821.94 1271.58,821.852C1271.58,821.7 1271.5,821.592 1271.33,821.528C1271.16,821.464 1270.88,821.392 1270.48,821.312C1269.99,821.216 1269.59,821.112 1269.27,821C1268.95,820.888 1268.68,820.696 1268.44,820.424C1268.21,820.152 1268.09,819.776 1268.09,819.296C1268.09,818.88 1268.2,818.504 1268.41,818.168C1268.64,817.824 1268.97,817.556 1269.4,817.364C1269.83,817.164 1270.36,817.064 1270.97,817.064C1271.88,817.064 1272.6,817.288 1273.11,817.736C1273.63,818.184 1273.94,818.768 1274.04,819.488L1271.68,819.488C1271.64,819.304 1271.56,819.164 1271.43,819.068C1271.3,818.964 1271.13,818.912 1270.91,818.912C1270.78,818.912 1270.67,818.94 1270.6,818.996C1270.53,819.044 1270.49,819.12 1270.49,819.224C1270.49,819.36 1270.58,819.464 1270.74,819.536C1270.91,819.6 1271.18,819.668 1271.55,819.74C1272.04,819.836 1272.45,819.944 1272.78,820.064C1273.12,820.184 1273.41,820.392 1273.66,820.688C1273.91,820.976 1274.03,821.376 1274.03,821.888C1274.03,822.288 1273.91,822.648 1273.68,822.968C1273.45,823.288 1273.12,823.54 1272.67,823.724C1272.24,823.908 1271.74,824 1271.15,824Z" style="fill-rule:nonzero;"/>
    </g>
</svg>
