<svg xmlns="http://www.w3.org/2000/svg" width="33.523" height="31.364" viewBox="0 0 33.523 31.364"><defs><style>.a{fill:#00142d;}.b{fill:#d0f0ff;}.c{fill:#6addff;}.d{fill:#fff;}.e{fill:#30aace;}</style></defs><g transform="translate(0 1.675) rotate(-3)"><path class="a" d="M14.042,11.576,11.591,2.3,4.119,0,0,29.315H10.624l.6-4.013,1.134,2.661,3,1.766,1.04-2.944.226,2.53H32.012L27.418.3,17.353,2.687Z" transform="translate(0 0)"/><path class="b" d="M6.27,1.509,2.308,0,0,15.669,9.329,11.7Z" transform="translate(3.136 3.169)"/><path class="b" d="M10.5,0,3.335,1.51,0,10.181,11.84,9.27Z" transform="translate(14.751 4.112)"/><path class="c" d="M12.891.911,11.51,4.5l-.9-3.012L1.277,5.456,0,14.127l6.792-.189L8.3,6.2l3.208,6.6.755.566,3.208-7.359.943,8.3H26.793L24.731,0Z" transform="translate(1.859 13.382)"/><path class="d" d="M0,13.588C.651,12.1,5.552,2.348,5.552,2.348L11.815,0,4.646,1.509Z" transform="translate(13.44 4.112)"/><path class="d" d="M4.131,1.4l3.1.15-.013-.043L3.256,0,0,22.108Z" transform="translate(2.188 3.169)"/><g transform="translate(1.925 17.557)"><path class="e" d="M0,9.28l6.727-.187L8.195,1.568,7.786,0,5.554,8.037Z" transform="translate(0 0.67)"/><path class="e" d="M.17,1.5H10.547l0-.035L0,0Z" transform="translate(16.179 8.644)"/><path class="e" d="M.387,9.2,3.416,2.247,3.453,0,0,8.906Z" transform="translate(11.811 0)"/></g></g></svg>