<?xml version="1.0" encoding="UTF-8" standalone="no"?>
<!DOCTYPE svg PUBLIC "-//W3C//DTD SVG 1.1//EN" "http://www.w3.org/Graphics/SVG/1.1/DTD/svg11.dtd">
<svg width="100%" height="100%" viewBox="0 0 2705 1468" version="1.1" xmlns="http://www.w3.org/2000/svg" xmlns:xlink="http://www.w3.org/1999/xlink" xml:space="preserve" xmlns:serif="http://www.serif.com/" style="fill-rule:evenodd;clip-rule:evenodd;stroke-linecap:round;stroke-linejoin:round;stroke-miterlimit:1.5;">
    <g transform="matrix(-1,0,0,1,6227.05,-1347.8)">
        <g transform="matrix(0.955733,0.0121839,-0.0121839,0.955733,-0.143923,26.2925)">
            <rect x="4083.56" y="2234.22" width="774.639" height="330.051" style="fill:rgb(119,0,0);"/>
            <path d="M4859.62,2234.22L4864.74,2234.22L4864.28,2564.28C4864.28,2564.65 4864.27,2566.79 4862.49,2568.57C4862.23,2568.83 4860.71,2570.34 4858.2,2570.33L4083.56,2568.61C4081.26,2568.61 4079.25,2566.68 4079.26,2564.28L4080.06,2234.22C4080.07,2232.4 4081.6,2230.76 4083.56,2230.76C4267.85,2231.22 4858.18,2232.78 4858.44,2232.83C4858.5,2232.84 4858.82,2232.89 4859.11,2233.14C4859.59,2233.53 4859.46,2233.62 4859.62,2234.22ZM4851.66,2235.66L4087.04,2237.7L4087.88,2559.96L4852.13,2558.21L4851.66,2235.66Z"/>
        </g>
        <g id="Polly" transform="matrix(-0.762289,0.176702,0.176702,0.762289,4395.54,1413.19)">
            <g id="Flipper---Left" serif:id="Flipper - Left" transform="matrix(1.26018,0.443298,-0.443298,1.26018,-1369.47,-1478.3)">
                <g id="Flipper---Colour" serif:id="Flipper - Colour" transform="matrix(-0.0019325,0.999998,0.999998,0.0019325,1030.81,-643.464)">
                    <path d="M1635.09,987.543C1617.35,999.02 1586.09,1030.19 1568.46,1053.83C1537.67,1095.13 1499.37,1159.72 1521.9,1176.24C1544.43,1192.76 1606.31,1147.73 1634.85,1115.43C1650.98,1097.18 1665.19,1074.13 1674.5,1057.54" style="fill:rgb(246,194,217);"/>
                </g>
                <g transform="matrix(-0.146471,0.546638,-0.546638,-0.146471,3016.24,-19.8991)">
                    <path d="M2048.56,983.769C2048.56,983.769 1944.47,937.506 1907.56,974.664L1903.38,986.23C1903.38,986.23 1932.04,965.559 1983.96,975.402C2035.88,985.245 2083.86,1003.95 2083.86,1003.95L2048.56,983.769Z" style="fill:white;fill-opacity:0.2;"/>
                </g>
                <g id="Flipper---Frame" serif:id="Flipper - Frame" transform="matrix(-0.0019325,0.999998,0.999998,0.0019325,1030.81,-643.464)">
                    <path d="M1673.6,1059.58C1674.94,1060.35 1674.99,1060.42 1675.39,1061.92C1675.91,1063.84 1675.57,1063.89 1674.57,1065.61C1671.45,1071 1662.39,1090.07 1646.12,1111.51C1641.17,1118.03 1635.91,1123.58 1634.96,1124.57C1608.3,1152.67 1557.91,1190.09 1528.94,1185.36C1522.53,1184.31 1504.94,1178.95 1510.08,1150.52C1516.88,1112.87 1559.32,1055.45 1567.81,1044.94C1583.59,1025.39 1610.13,1001.22 1627.21,988.82C1630.8,986.211 1632.98,984.856 1633.21,984.709C1634.52,983.874 1634.58,983.825 1636.11,984.113C1636.12,984.116 1638.58,985.719 1638.58,985.727C1638.78,986.69 1639.36,987.65 1639.18,988.617C1638.81,990.594 1638.42,990.43 1636.81,991.644C1636.42,991.937 1627.89,997.993 1608.57,1017.58C1601.03,1025.21 1583.04,1044.21 1572.54,1058.36C1542.12,1099.38 1517.49,1145.01 1521.52,1164.74C1521.99,1167.01 1523.8,1176.58 1541.24,1173.05C1566.94,1167.84 1607.85,1137.52 1631.03,1111.13C1635.07,1106.54 1635.08,1106.56 1638.97,1101.83C1647.26,1091.76 1653.92,1082.29 1655.16,1080.54C1656.3,1078.91 1660.65,1072.99 1666.99,1063.24C1667.58,1062.33 1668.3,1061 1668.33,1060.98C1670.49,1059.33 1670.44,1059.26 1670.67,1059.19C1672.17,1058.79 1672.26,1058.8 1673.6,1059.58Z"/>
                </g>
            </g>
            <g id="Penguin" transform="matrix(-0.34602,-0.543931,-0.543931,0.34602,2191.16,823.453)">
                <g id="Body" transform="matrix(-3.25094,-2.60625,-2.60625,3.25094,6265.4,2714.28)">
                    <path id="Body---Frame" serif:id="Body - Frame" d="M878.223,560.506C878.223,560.506 841.123,527.501 834.1,477.215C827.529,430.165 851.098,376.094 951.367,356.552C1031.47,340.941 1062.96,388.701 1072.48,418.736C1077.55,434.736 1073.07,443.102 1076.54,454.811C1079.72,465.511 1096.2,470.767 1095.16,501.217C1094.23,528.342 1076.72,542.068 1076.72,542.068C1111.88,624.927 1107.58,660.591 1060.7,707.366C1029.24,738.753 983.443,748.111 949.51,749.866C896.647,752.6 863.317,719.238 859.745,660.417C856.107,600.514 878.223,560.506 878.223,560.506Z" style="fill:rgb(246,194,217);"/>
                    <path d="M1016.18,423.846C1022.71,422.502 1025.94,414.722 1029.38,406.482C1033.27,397.171 1037.49,394.152 1045.67,392.394C1045.7,392.388 1045.73,392.386 1045.76,392.381C1059.97,390.414 1068.92,399.732 1073.59,421.932C1077.29,439.503 1073.85,447.35 1077.88,456.824C1081.31,464.872 1099.1,474.795 1095,506.561C1092.18,528.435 1077.01,542.406 1077.01,542.406C1116.01,629.316 1097.81,666.582 1070.57,696.982C1011.9,738.255 1044.76,654.08 1041.18,624.182C1033.17,557.175 978.093,569.76 945.633,551.189C936.661,546.055 905.761,535.186 894.209,489.664C886.059,457.546 885.26,421.122 930.437,407.064C957.85,398.533 979.819,398.284 995.083,412.968C1007,424.431 1010.66,424.984 1016.18,423.846Z" style="fill:rgb(255,253,246);"/>
                    <g transform="matrix(-0.352386,0.120091,0.120091,0.352386,1810.54,-213.78)">
                        <path d="M2546.17,1549C2546.17,1549 2805.48,1644.44 2953.12,1621.43C3100.76,1598.42 3250.61,1511.62 3276.99,1490.14C3276.99,1490.14 3268.34,1628.86 3065.36,1697C2956.42,1733.57 2804.37,1723.54 2731,1700.75C2600.82,1660.33 2548.43,1557.78 2546.17,1549Z" style="fill-opacity:0.2;"/>
                    </g>
                    <g id="Chin-Shadow" serif:id="Chin Shadow" transform="matrix(0.523779,-0.0872691,0.106641,0.640045,472.092,300.23)">
                        <path d="M920.476,532.935C915.331,531.223 917.023,527.91 924.514,528.366C933.192,528.894 965.448,529.01 991.268,526.742C1010.96,525.012 1040.62,520.099 1045.93,520.203C1048.94,520.262 1049.16,525.466 1048.68,525.852C1045.25,528.584 1024.22,537.082 991.088,540.222C971.932,542.038 939.159,539.149 920.476,532.935Z" style="fill-opacity:0.1;"/>
                    </g>
                    <path id="Body---Frame1" serif:id="Body - Frame" d="M880.171,559.673C880.171,559.673 841.123,527.501 834.1,477.215C827.529,430.165 851.098,376.094 951.367,356.552C1031.47,340.941 1062.96,388.701 1072.48,418.736C1077.55,434.736 1073.07,443.102 1076.54,454.811C1079.72,465.511 1096.2,470.767 1095.16,501.217C1094.23,528.342 1076.72,542.068 1076.72,542.068C1111.88,624.927 1107.58,660.591 1060.7,707.366C1029.24,738.753 968.93,750.528 934.997,752.282C882.134,755.016 864.374,706.08 860.616,645.846C856.879,585.949 880.171,559.673 880.171,559.673Z" style="fill:none;stroke:black;stroke-width:5.95px;"/>
                    <g id="Hair" transform="matrix(0.582457,0.312784,-0.262284,0.488418,92.6824,-510.009)">
                        <g>
                            <path d="M1819.82,631.161C1819.82,631.161 1823.66,591.091 1834.23,583.401C1844.81,575.711 1851.28,579.075 1847.32,593.974C1843.37,608.874 1837.59,626.476 1827.51,636.269" style="fill:rgb(246,194,217);"/>
                            <path d="M1819.82,631.161C1819.82,631.161 1823.66,591.091 1834.23,583.401C1844.81,575.711 1851.28,579.075 1847.32,593.974C1843.37,608.874 1840.91,622.574 1827.51,636.269" style="fill:none;stroke:black;stroke-width:3.9px;"/>
                        </g>
                        <g>
                            <path d="M1826.53,639.352C1826.53,639.352 1844.81,569.943 1862.11,580.517C1879.41,591.091 1840.94,635.987 1826.53,639.352Z" style="fill:rgb(246,194,217);"/>
                            <path d="M1826.64,635.284C1826.64,635.284 1844.81,569.943 1862.11,580.517C1875.53,588.717 1855.99,615.705 1839.82,628.978" style="fill:none;stroke:black;stroke-width:3.9px;"/>
                        </g>
                        <g>
                            <path d="M1830.87,636.75C1830.87,636.75 1865.95,583.881 1880.37,597.339C1894.79,610.796 1844.81,664.626 1832.79,650.207" style="fill:rgb(246,194,217);"/>
                            <path d="M1830.87,636.75C1830.87,636.75 1865.95,583.881 1880.37,597.339C1894.79,610.796 1844.81,664.626 1832.79,650.207" style="fill:none;stroke:black;stroke-width:3.9px;"/>
                        </g>
                    </g>
                    <g transform="matrix(-0.383099,0.245002,0.245002,0.383099,2137.33,-1259.3)">
                        <path d="M4462.9,1911.67C4462.96,1911.56 4463.05,1911.61 4465.27,1907.01C4473.29,1890.42 4476.44,1881.26 4479.45,1874.63C4479.63,1874.25 4480.61,1872.09 4483.3,1871.18C4484.1,1870.91 4484.96,1870.79 4485.79,1870.85C4488.54,1871.03 4490.07,1872.8 4490.34,1873.11C4492.09,1875.12 4491.94,1877.38 4491.91,1877.78C4491.79,1879.51 4491.67,1879.5 4490.83,1881.02C4489.16,1884.07 4481,1896.41 4465.73,1912.44L4462.9,1911.67Z"/>
                    </g>
                </g>
                <g id="Beak" transform="matrix(-1.15846,-1.24507,-1.17865,1.09666,4850.21,2876.41)">
                    <g transform="matrix(0.787958,0,0,0.787958,62.9536,182.813)">
                        <path d="M2184.78,918.924C2184.78,918.924 2207.81,993.091 2250.35,993.091C2292.89,993.091 2315.93,920.253 2315.93,920.253L2184.78,918.924Z" style="fill-opacity:0.15;"/>
                    </g>
                    <path d="M1784.46,906.063C1784.46,906.063 1801.64,875.927 1841.46,875.326C1881.29,874.725 1887.2,895.849 1887.8,906.663C1888.4,917.477 1862.44,954.869 1843.39,954.869C1824.34,954.869 1785.67,919.881 1784.46,906.063Z" style="fill:rgb(255,119,44);"/>
                    <path d="M1784.46,906.322C1784.46,906.322 1788.56,906.875 1793.48,903.922C1798.4,900.969 1815.98,885.961 1847.46,886.342C1866.15,886.568 1877.21,898.61 1880.86,901.885C1884.51,905.161 1885.52,906.155 1887.81,906.322C1887.81,906.322 1885.05,880.837 1836.13,881.417C1793.59,881.921 1784.46,906.322 1784.46,906.322Z" style="fill:rgb(245,164,91);"/>
                    <path d="M1887.81,905.44C1887.81,905.44 1879.57,882.284 1844.63,882.788C1809.68,883.292 1790.41,902.416 1784.46,906.322C1784.46,906.322 1804.5,874.9 1846.03,875.313C1846.03,875.313 1887.28,875.301 1887.81,905.44Z" style="fill:rgb(252,228,204);"/>
                    <path d="M1797.35,908.773C1797.35,908.773 1847.58,870.849 1880.86,908.335C1881.08,913.512 1854.72,941.532 1843.26,941.186C1832.16,940.851 1804.42,919.539 1797.35,908.773Z" style="fill:rgb(169,0,28);stroke:black;stroke-width:5.99px;"/>
                    <g transform="matrix(0.82431,9.42978e-18,-9.42978e-18,0.82431,454.983,-959.853)">
                        <path d="M1632.43,2270.58C1632.43,2270.58 1684.53,2265.14 1708.23,2291.94C1708.23,2291.94 1699.57,2299.95 1691.92,2303.39C1684.28,2306.84 1669.1,2301.58 1656.77,2293.17C1644.44,2284.76 1632.43,2270.58 1632.43,2270.58Z" style="fill:rgb(250,0,9);"/>
                    </g>
                    <g transform="matrix(0.82431,9.42978e-18,-9.42978e-18,0.82431,454.983,-959.853)">
                        <path d="M1632.43,2270.58C1632.43,2270.58 1686.39,2265.7 1708.23,2292.5" style="fill:none;stroke:black;stroke-width:7.26px;"/>
                    </g>
                    <path d="M1797.35,908.773C1797.35,908.773 1840.68,868.942 1880.78,907.267C1882.57,911.625 1855,941.506 1843.46,941.186C1832.35,940.878 1804.42,919.539 1797.35,908.773Z" style="fill:none;stroke:black;stroke-width:5.99px;"/>
                    <path d="M1784.46,906.063C1784.46,906.063 1801.83,875.914 1841.65,875.313C1881.48,874.713 1887.2,895.849 1887.8,906.663C1888.4,917.477 1862.27,954.869 1843.22,954.869C1824.17,954.869 1785.67,919.881 1784.46,906.063Z" style="fill:none;stroke:black;stroke-width:5.99px;"/>
                </g>
                <g id="Eyes" transform="matrix(-0.81429,-0.901977,-0.901977,0.81429,4800.37,1961.37)">
                    <g id="Eye---Left" serif:id="Eye - Left" transform="matrix(1,0,5.55112e-17,1,5.51392,-0.460632)">
                        <g transform="matrix(0.515798,-0.092702,0.0903587,0.50276,768.862,1185.21)">
                            <ellipse cx="1702.53" cy="1228.02" rx="102.699" ry="119.721"/>
                        </g>
                        <g transform="matrix(0.495477,0.094949,-0.0982004,0.512444,1039.78,882.408)">
                            <ellipse cx="1724.09" cy="1196.81" rx="55.038" ry="66.953" style="fill:white;"/>
                        </g>
                        <g transform="matrix(0.521768,0,0,0.521768,866.038,955.948)">
                            <circle cx="1648.5" cy="1279.53" r="23.709" style="fill:white;"/>
                        </g>
                    </g>
                    <g id="Eye---Right" serif:id="Eye - Right">
                        <g transform="matrix(0.437321,-0.0849347,0.0766108,0.460635,1241.61,1214.3)">
                            <ellipse cx="1702.53" cy="1228.02" rx="102.699" ry="119.721"/>
                        </g>
                        <g transform="matrix(0.426296,0.0460344,-0.0635536,0.472801,1437.99,999.458)">
                            <ellipse cx="1724.09" cy="1196.81" rx="55.038" ry="66.953" style="fill:white;"/>
                        </g>
                        <g transform="matrix(0.442382,0,5.30743e-17,0.47805,1324.09,1003.86)">
                            <circle cx="1648.5" cy="1279.53" r="23.709" style="fill:white;"/>
                        </g>
                    </g>
                </g>
            </g>
            <g transform="matrix(1,0,0,1,-1783.56,-499.366)">
                <path d="M2321.71,1316.13C2321.71,1316.13 2414.47,1375.73 2480.79,1388.7C2547.12,1401.68 2556.73,1400.24 2568.74,1397.84C2568.74,1397.84 2579.66,1403.48 2583.01,1403.67L2593.83,1371.98L2452.91,1314.62L2321.71,1316.13Z" style="fill-opacity:0.3;"/>
            </g>
            <g id="Feet---Right" serif:id="Feet - Right" transform="matrix(-0.935669,-1.1121,-1.25263,1.05391,4106.82,1869.68)">
                <g id="Feet---Right1" serif:id="Feet - Right" transform="matrix(-0.46424,1.34573,-0.824196,-0.284325,3996.56,-560.777)">
                    <ellipse cx="1737.46" cy="1434.15" rx="47" ry="59.608" style="fill:rgb(239,180,88);"/>
                </g>
                <path d="M1961.17,1344.79C1982.96,1289.23 2076.55,1295.91 2026.56,1405.28C2026.56,1405.28 2010.21,1445.87 1982.96,1431.45C1960.77,1419.7 1944.87,1386.36 1961.17,1344.79Z" style="fill:rgb(255,117,71);"/>
                <g id="Feet---Right2" serif:id="Feet - Right" transform="matrix(-0.46424,1.34573,-0.824196,-0.284325,3996.56,-560.777)">
                    <ellipse cx="1737.46" cy="1434.15" rx="47" ry="59.608" style="fill:none;stroke:black;stroke-width:8.84px;"/>
                </g>
            </g>
            <g id="Feet---Right3" serif:id="Feet - Right" transform="matrix(-0.881575,-1.15545,-1.30146,0.992979,4314.87,1981.96)">
                <g id="Feet---Right4" serif:id="Feet - Right" transform="matrix(-0.46424,1.34573,-0.824196,-0.284325,3996.56,-560.777)">
                    <ellipse cx="1737.46" cy="1434.15" rx="47" ry="59.608" style="fill:rgb(239,180,88);"/>
                </g>
                <path d="M1961.17,1344.79C1991.56,1277.91 2085.63,1303 2035.64,1412.37C2035.64,1412.37 2010.21,1445.87 1982.96,1431.45C1960.77,1419.7 1942.62,1385.61 1961.17,1344.79Z" style="fill:rgb(255,117,71);"/>
                <g id="Feet---Right5" serif:id="Feet - Right" transform="matrix(-0.46424,1.34573,-0.824196,-0.284325,3996.56,-560.777)">
                    <ellipse cx="1737.46" cy="1434.15" rx="47" ry="59.608" style="fill:none;stroke:black;stroke-width:8.84px;"/>
                </g>
            </g>
            <g transform="matrix(1.00638,0.14161,-0.14161,1.00638,-4223.28,-2019.44)">
                <circle cx="4611.73" cy="1553.09" r="75.76" style="fill:rgb(210,236,249);stroke:black;stroke-width:15.72px;"/>
                <path d="M4668.29,1604.75C4668.29,1604.75 4689.71,1552.8 4719.33,1515.89C4719.33,1515.89 4742.57,1437.06 4763.53,1415.18C4763.53,1415.18 4716.14,1431.59 4688.8,1468.04C4661.46,1504.5 4649.15,1516.35 4640.04,1511.79C4630.93,1507.23 4627.28,1497.21 4638.67,1468.5C4650.07,1439.79 4746.1,1227.09 4870.28,1202.03C4994.46,1176.97 5024.65,1214.2 5071.93,1244C5119.21,1273.8 5163.07,1283.49 5189.27,1327.35C5215.47,1371.21 5288.38,1454.37 5301.48,1507.35C5314.59,1560.32 4915.85,1608.73 4915.85,1608.73L4668.29,1604.75Z" style="fill:rgb(255,0,0);stroke:black;stroke-width:15.72px;"/>
                <path d="M4670.45,1659.91C4670.45,1659.91 4663.52,1622.36 4660.24,1612.15C4656.96,1601.94 4668.99,1595.38 4687.58,1585.17C4706.18,1574.97 4840.72,1497.38 5022.29,1494.54C5203.86,1491.69 5290.18,1502.34 5310.23,1511.45C5330.28,1520.57 5320.86,1542.01 5320.28,1551.92C5319.69,1561.84 5324.07,1584 5324.07,1584C5324.07,1584 5347.98,1608.21 5344.48,1627.16C5340.98,1646.12 5332.53,1651.08 5330.19,1631.83C5330.19,1631.83 5270.43,1611.19 5172.88,1611.91C5075.34,1612.62 4893.98,1648.67 4801.2,1678.12C4710.8,1706.83 4681,1718.12 4667.88,1722.86C4654.76,1727.6 4651.88,1700.13 4670.45,1659.91Z" style="fill:rgb(210,236,249);stroke:black;stroke-width:15.72px;"/>
                <path d="M4811.48,1323.67C4810.31,1323.72 4810.27,1323.78 4809.46,1324.63C4808.17,1326 4808.62,1326.22 4808.36,1328.09C4807.95,1331.02 4805.71,1344.81 4790.41,1362.78C4786.11,1367.83 4772.49,1381.63 4761.37,1401.69C4758.34,1407.16 4756.64,1411.58 4756.61,1411.74C4756.45,1412.76 4756.13,1413.78 4756.19,1414.81C4756.21,1415.28 4756.37,1418.01 4758.75,1420.15C4761.2,1422.36 4764,1422.2 4764.49,1422.17C4767.68,1421.98 4769.51,1419.96 4769.83,1419.61C4771.44,1417.83 4771.13,1417.64 4772.02,1415.41C4781.02,1392.77 4795.73,1374.1 4798.19,1370.59C4811.93,1351.06 4815.01,1334.48 4814.65,1326.95C4814.59,1325.57 4814.63,1325.47 4813.63,1324.52C4813.49,1324.39 4812.68,1323.62 4811.48,1323.67Z"/>
                <path d="M4684.94,1634.19C4683.03,1636.3 4677.55,1642.29 4670.67,1650.56C4662.75,1660.1 4659.98,1664.53 4659.88,1664.87C4659.58,1665.86 4659.1,1666.81 4659,1667.84C4658.95,1668.32 4658.7,1671.03 4660.73,1673.51C4662.83,1676.06 4665.62,1676.32 4666.1,1676.36C4669.28,1676.65 4671.4,1674.93 4671.77,1674.63C4673.31,1673.38 4673.26,1673.3 4674.11,1671.51C4676.16,1667.16 4680.43,1653.99 4686.93,1635.54C4687.41,1634.18 4686.14,1635 4684.94,1634.19Z"/>
                <path d="M5295.28,1566.79C5295.58,1566.88 5295.92,1566.74 5296.22,1566.82C5296.22,1566.82 5300.52,1570.23 5305.16,1574.64C5315.53,1584.5 5322.97,1594.68 5326.35,1598.96C5326.67,1599.36 5328.53,1601.71 5331.95,1601.99C5332.95,1602.07 5333.98,1601.97 5334.94,1601.67C5335.41,1601.52 5338.08,1600.67 5339.59,1597.74C5341.05,1594.88 5340.22,1592.29 5340.08,1591.83C5339.42,1589.76 5339.28,1589.81 5337.77,1588.24C5333.98,1584.32 5319.03,1572.35 5297.36,1564.75C5297.23,1564.71 5296.52,1564.46 5295.75,1565.22C5295.36,1565.6 5295.67,1566.41 5295.28,1566.79Z"/>
            </g>
        </g>
        <g id="Pax" transform="matrix(0.813332,-0.0729551,0.0729551,0.813332,2649.44,1428.25)">
            <g id="Flipper---Right" serif:id="Flipper - Right" transform="matrix(1.59278,0.501568,-0.501568,1.59278,-287.119,-1642.63)">
                <g id="Flipper---Colour1" serif:id="Flipper - Colour" transform="matrix(-0.0019325,0.999998,0.999998,0.0019325,1030.81,-643.464)">
                    <path d="M1651.47,975.31C1633.6,986.352 1587.92,1027.73 1568.46,1053.83C1537.67,1095.13 1499.37,1159.72 1521.9,1176.24C1544.43,1192.76 1591.27,1153.02 1619.81,1120.73C1648.34,1088.44 1663.48,1021.47 1663.48,1021.47" style="fill:rgb(129,171,255);"/>
                </g>
                <g transform="matrix(0.309531,-0.724616,0.724616,0.309531,542.463,2311.85)">
                    <path d="M2328.62,1077.89C2328.62,1077.89 2427.61,1122.09 2470.45,1166.97C2491.13,1188.64 2511.59,1217.34 2495.83,1230.41C2495.83,1230.41 2494.29,1217.15 2465.07,1189.56C2435.85,1161.98 2347.85,1102.12 2335.93,1096.35C2324.01,1090.58 2328.62,1077.89 2328.62,1077.89Z" style="fill:white;fill-opacity:0.4;"/>
                </g>
                <g id="Flipper---Frame1" serif:id="Flipper - Frame" transform="matrix(-0.0019325,0.999998,0.999998,0.0019325,1030.81,-643.464)">
                    <path d="M1649.88,975.618C1632.35,986.116 1589.26,1025.93 1568.46,1053.83C1537.67,1095.13 1499.37,1159.72 1521.9,1176.24C1544.43,1192.76 1591.07,1152.7 1619.61,1120.41C1648.14,1088.12 1664.04,1020.72 1664.04,1020.72" style="fill:none;stroke:black;stroke-width:9.17px;"/>
                </g>
            </g>
            <g id="Body1" serif:id="Body" transform="matrix(-1.51342,-0.102222,-0.102222,1.51342,5164.42,-445.919)">
                <path id="Outer-Body---Colour" serif:id="Outer Body - Colour" d="M1837.43,631.169C1937.17,630.419 2081.66,683.894 2076.81,850.593C2073.29,971.452 2025.18,1000.79 2025.18,1000.79C2025.18,1000.79 2084.97,1058.22 2085.72,1194.05C2086.44,1324.48 2019.31,1406.07 1858.56,1401.38C1697.8,1396.68 1595.01,1334.5 1595.01,1187.82C1595.01,1041.14 1666.12,1004.31 1666.12,1004.31C1666.12,1004.31 1631.24,987.093 1614.49,932.417C1603.46,896.422 1631.16,852.937 1627.89,829.995C1609.82,703.472 1681.37,632.343 1837.43,631.169Z" style="fill:rgb(129,171,255);"/>
                <path id="Innter-Body" serif:id="Innter Body" d="M1774,778.054C1817.77,788.256 1842.2,714.629 1932.06,730.149C1993.07,740.687 2007.44,842.506 2000.06,881.705C1980.91,983.462 1895.98,987.207 1892.81,1020.27C1887.52,1075.5 2010.87,1085.88 2022.89,1202.28C2034.9,1318.68 1988.01,1420.13 1819,1398.32C1732.66,1387.17 1693.1,1375.44 1644.58,1328.2C1623.62,1307.8 1610.54,1283.55 1602.48,1249.61C1596.11,1222.77 1591.84,1188.9 1596.59,1152.81C1596.64,1152.42 1596.72,1152.04 1596.74,1151.65C1602.94,1038.65 1665.63,1003.39 1665.63,1003.39C1665.63,1003.39 1613.23,972.433 1604.4,927.61C1596.09,885.433 1626.29,851.079 1624.97,840.279C1612.81,740.623 1651.62,697.71 1703.2,708.141C1754.95,718.606 1729.22,767.615 1774,778.054Z" style="fill:rgb(255,253,244);"/>
                <g transform="matrix(0.777101,0.130352,-0.130352,0.777101,235.002,-90.4498)">
                    <path d="M2148.99,568.32C2148.99,568.32 2228.29,547.293 2323.22,576.13C2418.14,604.966 2471,668.648 2496.24,753.356C2409.95,610.662 2280.52,586.614 2148.99,568.32Z" style="fill:white;fill-opacity:0.2;"/>
                </g>
                <path id="Outer-Body---Frame" serif:id="Outer Body - Frame" d="M1837.43,631.169C1937.17,630.419 2081.66,683.894 2076.81,850.593C2073.29,971.452 2025.18,1000.79 2025.18,1000.79C2025.18,1000.79 2084.13,1056.32 2084.89,1192.15C2085.61,1322.58 2019.31,1406.07 1858.56,1401.38C1697.8,1396.68 1595.01,1334.5 1595.01,1187.82C1595.01,1041.14 1666.12,1004.31 1666.12,1004.31C1666.12,1004.31 1608.72,973.231 1603.47,922.056C1597.76,866.369 1631.51,855.362 1626.86,828.842C1606.38,712.093 1681.37,632.343 1837.43,631.169Z" style="fill:none;stroke:black;stroke-width:10.09px;"/>
                <g opacity="0.2">
                    <path d="M1596.78,1225.6C1596.78,1225.6 1712.75,1304.35 1855.12,1302.08C1995.28,1299.86 2069.45,1262.12 2101.89,1231.11C2101.89,1231.11 2083.07,1402.07 1859.27,1401.54C1678.83,1401.12 1610.84,1311.85 1596.78,1225.6Z"/>
                </g>
                <g id="Hair1" serif:id="Hair" transform="matrix(-0.997731,0.505496,0.505496,0.997731,3324.72,-892.311)">
                    <g>
                        <path d="M1819.82,631.161C1819.82,631.161 1823.66,591.091 1834.23,583.401C1844.81,575.711 1851.28,579.075 1847.32,593.974C1843.37,608.874 1837.59,626.476 1827.51,636.269" style="fill:rgb(129,171,255);"/>
                        <path d="M1819.82,631.161C1819.82,631.161 1823.66,591.091 1834.23,583.401C1844.81,575.711 1851.28,579.075 1847.32,593.974C1843.37,608.874 1840.91,622.574 1827.51,636.269" style="fill:none;stroke:black;stroke-width:3.61px;"/>
                    </g>
                    <g>
                        <path d="M1827.51,636.269C1827.51,636.269 1844.81,569.943 1862.11,580.517C1879.41,591.091 1841.92,632.905 1827.51,636.269Z" style="fill:rgb(129,171,255);"/>
                        <path d="M1827.51,636.269C1827.51,636.269 1844.81,569.943 1862.11,580.517C1879.41,591.091 1841.92,632.905 1827.51,636.269Z" style="fill:none;stroke:black;stroke-width:3.61px;"/>
                    </g>
                    <g>
                        <path d="M1830.87,636.75C1830.87,636.75 1865.95,583.881 1880.37,597.339C1894.79,610.796 1844.81,664.626 1832.79,650.207" style="fill:rgb(129,171,255);"/>
                        <path d="M1830.87,636.75C1830.87,636.75 1865.95,583.881 1880.37,597.339C1894.79,610.796 1844.81,664.626 1832.79,650.207" style="fill:none;stroke:black;stroke-width:3.61px;"/>
                    </g>
                </g>
                <g transform="matrix(0.820801,0.00153634,-0.00187175,0.999998,232.125,18.4333)">
                    <path d="M1774.62,987.843C1774.62,987.843 1903.82,1016.08 1984.24,993.897C2013.98,985.694 1993.47,1001.59 1985.78,1003.64C1978.09,1005.69 1912.07,1018.03 1875.67,1018.03C1839.28,1018.03 1785.9,1005.27 1774.11,997.071C1762.32,988.868 1763.85,985.792 1774.62,987.843Z" style="fill-opacity:0.1;"/>
                </g>
            </g>
            <g id="Beak1" serif:id="Beak" transform="matrix(1.29287,-2.47482e-17,2.47482e-17,1.29287,26.2009,-454.577)">
                <g transform="matrix(0.787958,0,0,0.787958,62.9536,182.813)">
                    <path d="M2184.78,918.924C2184.78,918.924 2207.81,993.091 2250.35,993.091C2292.89,993.091 2315.93,920.253 2315.93,920.253L2184.78,918.924Z" style="fill-opacity:0.15;"/>
                </g>
                <path d="M1784.46,906.063C1784.46,906.063 1801.64,875.927 1841.46,875.326C1881.29,874.725 1887.2,895.849 1887.8,906.663C1888.4,917.477 1862.44,954.869 1843.39,954.869C1824.34,954.869 1785.67,919.881 1784.46,906.063Z" style="fill:rgb(255,119,44);"/>
                <path d="M1784.46,906.322C1784.46,906.322 1788.56,906.875 1793.48,903.922C1798.4,900.969 1815.98,885.961 1847.46,886.342C1866.15,886.568 1877.21,898.61 1880.86,901.885C1884.51,905.161 1885.52,906.155 1887.81,906.322C1887.81,906.322 1885.05,880.837 1836.13,881.417C1793.59,881.921 1784.46,906.322 1784.46,906.322Z" style="fill:rgb(245,164,91);"/>
                <path d="M1887.81,905.44C1887.81,905.44 1879.57,882.284 1844.63,882.788C1809.68,883.292 1790.41,902.416 1784.46,906.322C1784.46,906.322 1804.5,874.9 1846.03,875.313C1846.03,875.313 1887.28,875.301 1887.81,905.44Z" style="fill:rgb(252,228,204);"/>
                <path d="M1797.35,908.773C1797.35,908.773 1847.58,870.849 1880.86,908.335C1881.08,913.512 1854.72,941.532 1843.26,941.186C1832.16,940.851 1804.42,919.539 1797.35,908.773Z" style="fill:rgb(169,0,28);stroke:black;stroke-width:4.74px;"/>
                <g transform="matrix(0.82431,9.42978e-18,-9.42978e-18,0.82431,454.983,-959.853)">
                    <path d="M1632.43,2270.58C1632.43,2270.58 1684.53,2265.14 1708.23,2291.94C1708.23,2291.94 1699.57,2299.95 1691.92,2303.39C1684.28,2306.84 1669.1,2301.58 1656.77,2293.17C1644.44,2284.76 1632.43,2270.58 1632.43,2270.58Z" style="fill:rgb(250,0,9);"/>
                </g>
                <g transform="matrix(0.82431,9.42978e-18,-9.42978e-18,0.82431,454.983,-959.853)">
                    <path d="M1632.43,2270.58C1632.43,2270.58 1686.39,2265.7 1708.23,2292.5" style="fill:none;stroke:black;stroke-width:5.75px;"/>
                </g>
                <path d="M1797.35,908.773C1797.35,908.773 1840.68,868.942 1880.78,907.267C1882.57,911.625 1855,941.506 1843.46,941.186C1832.35,940.878 1804.42,919.539 1797.35,908.773Z" style="fill:none;stroke:black;stroke-width:4.74px;"/>
                <path d="M1784.46,906.063C1784.46,906.063 1801.83,875.914 1841.65,875.313C1881.48,874.713 1887.2,895.849 1887.8,906.663C1888.4,917.477 1862.27,954.869 1843.22,954.869C1824.17,954.869 1785.67,919.881 1784.46,906.063Z" style="fill:none;stroke:black;stroke-width:4.74px;"/>
            </g>
            <g transform="matrix(2.2317,0.083844,-0.083844,2.2317,1733.81,-1163.12)">
                <g id="Normal-Eyes---Big" serif:id="Normal Eyes - Big">
                    <g>
                        <g transform="matrix(-1,0,0,1,652.324,0)">
                            <path d="M283.986,787.538C283.986,787.538 292.115,801.845 286.49,812.391C284.81,815.541 279.98,815.961 267.801,813.861C255.622,811.761 255.307,811.341 253.418,806.722C251.528,802.102 254.059,785.614 263.812,777.324C270.111,771.97 276.967,772.448 283.986,787.538Z"/>
                        </g>
                        <g transform="matrix(1,6.93889e-18,-6.93889e-18,1,116.276,3.62215)">
                            <ellipse cx="272.579" cy="789.661" rx="6.352" ry="8.557" style="fill:white;"/>
                        </g>
                    </g>
                </g>
            </g>
            <g transform="matrix(0.819493,-0.134387,0.134387,0.819493,-2039.75,-156.534)">
                <path d="M4972.13,1806.71C4964.04,1801.33 4953.22,1794.24 4938.46,1784.55C4926.62,1776.78 4894.7,1755.75 4881.53,1747.22C4881.4,1747.13 4881.19,1747.1 4881.12,1746.95C4880.8,1746.22 4880.74,1745.39 4880.42,1744.66C4881.22,1744.61 4881.91,1744 4882.71,1743.95C4882.72,1743.95 4900.93,1751.76 4909.75,1755.77C4939.09,1769.11 4959.67,1778.88 4983.38,1792.71C4997.04,1800.68 5003.72,1806.34 5005.34,1807.72C5007.25,1809.34 5008.33,1810.51 5008.96,1811.66C5009.3,1812.27 5011.35,1816.03 5008.97,1820.4C5008.63,1821.01 5006.58,1824.77 5001.62,1825.12C5000.73,1825.18 5000.73,1825.14 4990.56,1824.15C4978.54,1822.99 4953.5,1821.45 4931.51,1821.29C4930.08,1821.28 4912.8,1820.86 4887.04,1822.07C4884.58,1822.19 4882.15,1822.32 4882.15,1822.32C4881.84,1821.23 4881.99,1820.05 4881.68,1818.96C4900.74,1814.71 4922.11,1810.75 4949.94,1808.13C4950.48,1808.08 4962.2,1807.09 4972.13,1806.71Z"/>
            </g>
            <g id="Flipper---Right1" serif:id="Flipper - Right" transform="matrix(1.5407,0.720397,-0.720397,1.5407,-332.222,-2062.14)">
                <g id="Flipper---Colour2" serif:id="Flipper - Colour" transform="matrix(-0.0019325,0.999998,0.999998,0.0019325,1030.81,-643.464)">
                    <path d="M1651.47,975.31C1633.6,986.352 1587.92,1027.73 1568.46,1053.83C1537.67,1095.13 1499.37,1159.72 1521.9,1176.24C1544.43,1192.76 1599.3,1153.03 1627.84,1120.74C1656.37,1088.45 1690.19,1036.47 1690.19,1036.47" style="fill:rgb(129,171,255);"/>
                </g>
                <g id="Flipper---Frame2" serif:id="Flipper - Frame" transform="matrix(-0.0019325,0.999998,0.999998,0.0019325,1030.81,-643.464)">
                    <path d="M1623.21,996.456C1604.19,1013.26 1581.77,1035.98 1568.46,1053.83C1537.67,1095.13 1499.37,1159.72 1521.9,1176.24C1544.43,1192.76 1601.2,1150.85 1629.74,1118.56C1658.27,1086.26 1689.33,1035.44 1689.33,1035.44" style="fill:none;stroke:black;stroke-width:9px;"/>
                </g>
            </g>
            <g transform="matrix(1.05926,0,0,1.05926,-3016.42,-1155.74)">
                <circle cx="4611.73" cy="1553.09" r="75.76" style="fill:rgb(210,236,249);stroke:black;stroke-width:14.45px;"/>
                <path d="M4668.29,1604.75C4668.29,1604.75 4689.71,1552.8 4719.33,1515.89C4719.33,1515.89 4742.57,1437.06 4763.53,1415.18C4763.53,1415.18 4716.14,1431.59 4688.8,1468.04C4661.46,1504.5 4649.15,1516.35 4640.04,1511.79C4630.93,1507.23 4627.28,1497.21 4638.67,1468.5C4650.07,1439.79 4746.1,1227.09 4870.28,1202.03C4994.46,1176.97 5024.65,1214.2 5071.93,1244C5119.21,1273.8 5163.07,1283.49 5189.27,1327.35C5215.47,1371.21 5288.38,1454.37 5301.48,1507.35C5314.59,1560.32 4915.85,1608.73 4915.85,1608.73L4668.29,1604.75Z" style="fill:rgb(255,0,0);stroke:black;stroke-width:14.45px;"/>
                <path d="M4670.45,1659.91C4670.45,1659.91 4663.52,1622.36 4660.24,1612.15C4656.96,1601.94 4668.99,1595.38 4687.58,1585.17C4706.18,1574.97 4840.72,1497.38 5022.29,1494.54C5203.86,1491.69 5290.18,1502.34 5310.23,1511.45C5330.28,1520.57 5320.86,1542.01 5320.28,1551.92C5319.69,1561.84 5324.07,1584 5324.07,1584C5324.07,1584 5347.98,1608.21 5344.48,1627.16C5340.98,1646.12 5332.53,1651.08 5330.19,1631.83C5330.19,1631.83 5270.43,1611.19 5172.88,1611.91C5075.34,1612.62 4893.98,1648.67 4801.2,1678.12C4710.8,1706.83 4681,1718.12 4667.88,1722.86C4654.76,1727.6 4651.88,1700.13 4670.45,1659.91Z" style="fill:rgb(210,236,249);stroke:black;stroke-width:14.45px;"/>
                <path d="M4770.85,1416.73C4770.84,1416.75 4770.84,1416.76 4770.85,1416.73ZM4770.85,1416.71L4770.85,1416.73L4770.85,1416.71ZM4770.85,1416.71C4770.83,1416.76 4770.28,1418.17 4769.36,1419.18C4769.07,1419.51 4767.38,1421.37 4764.45,1421.54C4764.01,1421.56 4761.43,1421.71 4759.17,1419.68C4758.85,1419.39 4756.99,1417.71 4756.82,1414.77C4756.72,1412.96 4756.8,1412.95 4757.47,1411.26C4760.63,1403.27 4769.64,1386.61 4786.95,1367.38C4787.9,1366.32 4804.17,1349.5 4808.15,1330.8C4808.68,1328.32 4808.73,1326.82 4808.74,1326.81C4809.43,1325 4809.49,1324.93 4809.61,1324.8C4810.36,1324.01 4810.4,1323.97 4811.48,1323.92C4812.6,1323.87 4812.65,1323.92 4813.46,1324.69C4814.51,1325.69 4814.38,1325.82 4814.41,1327.26C4814.6,1334.76 4811.63,1351.86 4796.02,1372.83C4794.48,1374.9 4780.03,1393.62 4771.44,1415.16C4771.11,1415.97 4770.9,1416.56 4770.85,1416.71Z"/>
                <path d="M4685.03,1634.24C4685.3,1634.91 4686.62,1634.69 4686.89,1635.36C4686.89,1635.37 4683.96,1643.23 4681.79,1649.32C4674.13,1670.73 4673.53,1671.24 4673.2,1671.94C4672.65,1673.09 4671.55,1673.99 4671.37,1674.14C4671.03,1674.41 4669.08,1676 4666.16,1675.73C4665.72,1675.69 4663.15,1675.45 4661.22,1673.11C4660.95,1672.77 4659.36,1670.83 4659.63,1667.9C4659.81,1666.03 4659.92,1666.04 4660.88,1664.42C4662.64,1661.46 4670.51,1650.7 4685.03,1634.24Z"/>
                <path d="M5295.83,1565.26C5296.35,1565.2 5296.8,1564.89 5297.31,1564.83C5297.31,1564.83 5300.65,1566.03 5303.91,1567.45C5306.08,1568.39 5318.35,1573.72 5329.63,1582.17C5334.82,1586.07 5337.86,1589.11 5338.1,1589.52C5338.58,1590.34 5339.19,1591.12 5339.47,1592.02C5339.61,1592.44 5340.36,1594.83 5339.02,1597.45C5337.64,1600.15 5335.18,1600.93 5334.75,1601.07C5331.95,1601.95 5329.71,1600.81 5329.33,1600.61C5327.48,1599.68 5327.61,1599.48 5326.29,1597.89C5324.51,1595.75 5319.6,1588.88 5311.06,1580.07C5309.02,1577.97 5304.11,1572.88 5296.26,1566.74C5295.92,1566.47 5295.86,1566.7 5295.43,1566.66L5295.83,1565.26Z"/>
            </g>
        </g>
        <g id="Sleigh" transform="matrix(0.772757,-0.0693156,0.0600304,0.669242,605.284,969.248)">
            <g transform="matrix(0.872018,0,0,1.0069,385.626,-236.782)">
                <path d="M3671.47,2838.37C3671.47,2838.37 3711.53,2806.6 3833.24,2833.85C3881.18,2844.58 4165.74,3014.42 4325.35,3086.74C4484.96,3159.05 4960.28,3338.45 5090.45,3362.09C5220.62,3385.73 5334.66,3373.22 5334.66,3373.22C5334.66,3373.22 5254,3473.35 5014.81,3430.23C4775.61,3387.12 4291.66,3200.06 4187.36,3147.57C4083.06,3095.08 3692.38,2870.91 3671.47,2838.37Z" style="fill:rgb(203,97,23);stroke:black;stroke-width:18.48px;"/>
            </g>
            <g transform="matrix(0.872018,0,0,1.0069,1494.37,-511.42)">
                <path d="M3671.47,2838.37C3671.47,2838.37 3711.53,2806.6 3833.24,2833.85C3881.18,2844.58 4165.74,3014.42 4325.35,3086.74C4484.96,3159.05 4960.28,3338.45 5090.45,3362.09C5220.62,3385.73 5334.66,3373.22 5334.66,3373.22C5334.66,3373.22 5254,3473.35 5014.81,3430.23C4775.61,3387.12 4291.66,3200.06 4187.36,3147.57C4083.06,3095.08 3692.38,2870.91 3671.47,2838.37Z" style="fill:rgb(203,97,23);stroke:black;stroke-width:18.48px;"/>
            </g>
            <g transform="matrix(1,0,0,1,-309.206,0)">
                <path d="M5995.06,2078.92C5995.06,2078.92 6012.14,2054 6091.89,2054C6171.64,2054 6188.02,2134.46 6188.02,2180.74C6188.02,2227.03 6140.71,2272.97 6053.13,2272.25C6053.13,2272.25 6264.91,2352.34 6264.91,2490.3C6264.91,2628.25 6142.67,2818.71 5858.06,2820.45C5858.06,2820.45 6180.6,2703.49 6184.7,2548.99C6190.72,2322.11 5997,2277.3 5997,2277.3C5997,2277.3 6129.39,2258.39 6129.39,2177.17C6129.39,2095.95 6048.74,2073.02 5995.06,2078.92Z" style="fill:rgb(203,97,23);stroke:black;stroke-width:17.22px;"/>
            </g>
            <g transform="matrix(1,0,0,1,146.368,-7.77484)">
                <g transform="matrix(0.872018,0,0,1.0069,1296.85,-496.731)">
                    <path d="M5194.38,3261.84C5194.38,3261.84 5254.08,3283.26 5368.46,3241.79C5368.46,3241.79 5347.22,3149.96 5263.38,3184.59C5263.38,3184.59 5195.02,3113.2 5243.44,3025.48C5243.44,3025.48 5174.52,2953.71 5135.21,3020.93C5095.91,3088.14 5153.3,3229.33 5194.38,3261.84Z" style="fill:rgb(203,97,23);stroke:black;stroke-width:18.48px;"/>
                    <path d="M5263.2,3184.95L5173.73,3203.17" style="fill:none;stroke:black;stroke-width:18.48px;"/>
                    <path d="M5156.86,2981.05C5156.86,2981.05 5206.41,2953.71 5320.91,2956.56C5435.4,2959.41 5501.45,3134.52 5498.67,3222.13C5495.89,3309.74 5477.81,3498.8 5080.07,3461.29C5080.07,3461.29 5330.04,3483.65 5368.46,3267.37C5368.46,3267.37 5413.04,3034.8 5156.86,2981.05Z" style="fill:rgb(203,97,23);stroke:black;stroke-width:18.48px;"/>
                    <path d="M3733.7,2857.06C3733.7,2857.06 3690.98,2812.92 3666.06,2846.38C3641.13,2879.85 3697.38,2899.07 3774.28,2948.91C3851.18,2998.75 4269.31,3209.79 4408.37,3263.68C4547.44,3317.57 4893.99,3441.72 5049.82,3456.63C5178.68,3468.97 5374.19,3471.23 5390.88,3270.98C5407.57,3070.72 5251.81,2976.16 5179.5,2976.16C5107.18,2976.16 5104.4,3077.67 5104.4,3113.83C5104.4,3149.99 5141.95,3266.81 5225.39,3266.81C5308.83,3266.81 5240.69,3127.74 5175.33,3204.22C5175.33,3204.22 5141.95,3172.24 5141.95,3099.93C5141.95,3051.25 5165.59,3019.27 5194.8,3019.27C5224,3019.27 5350.55,3062.38 5350.55,3252.9C5350.55,3443.42 5128.04,3426.73 5034.87,3411.43C4941.69,3396.14 4587.07,3327.99 4190.73,3124.96C3794.39,2921.92 3733.7,2857.06 3733.7,2857.06Z" style="fill:rgb(255,253,152);stroke:black;stroke-width:18.48px;"/>
                </g>
                <g transform="matrix(1.05251,0,0,1.2153,606.976,-673.699)">
                    <path d="M3938.73,2645.36L4076.1,2725.71C4028.98,2679.31 4082.51,2627.72 4082.51,2627.72L4040.22,2593.31C4040.22,2593.31 3997.06,2663.64 3938.73,2645.36Z" style="fill:rgb(255,253,152);"/>
                    <path d="M4033.14,2600.97C4033.14,2600.97 3996.35,2663.68 3953.71,2642.38" style="fill:none;stroke:black;stroke-width:15.31px;"/>
                    <path d="M4077.13,2635.23C4077.13,2635.23 4031.06,2682.1 4067.22,2703.45" style="fill:none;stroke:black;stroke-width:15.31px;"/>
                </g>
                <g transform="matrix(0.901435,-0.627348,0.543311,1.04086,232.352,2532.43)">
                    <path d="M3941.76,2631.95L4052.37,2764.78C3992.8,2688.42 4082.51,2627.72 4082.51,2627.72L4040.22,2593.31C4040.22,2593.31 4000.09,2650.22 3941.76,2631.95Z" style="fill:rgb(255,253,152);"/>
                    <path d="M4033.14,2600.97C4033.14,2600.97 3975.28,2662.42 3951.38,2627.33" style="fill:none;stroke:black;stroke-width:15.31px;"/>
                    <path d="M4077.13,2635.23C4077.13,2635.23 3998.86,2686.6 4046.71,2741.97" style="fill:none;stroke:black;stroke-width:15.31px;"/>
                </g>
            </g>
            <g transform="matrix(1.05251,0,0,1.2153,-304.253,-413.75)">
                <path d="M4484.57,2765.83L4643.18,2779.3C4643.18,2779.3 4619.78,2842.01 4643.18,2859.51C4666.58,2877.01 4529.51,2858.63 4529.51,2858.63L4460.32,2814.3L4484.57,2765.83Z" style="fill:rgb(203,97,23);"/>
                <path d="M4641.75,2797.78C4641.75,2797.78 4608.53,2847.47 4655.93,2864.79" style="fill:none;stroke:black;stroke-width:15.31px;"/>
            </g>
            <g transform="matrix(1.28374,0.132961,-0.11515,1.4823,-913.1,-1580.9)">
                <path d="M4032.78,2626L4127.63,2624.86" style="fill:none;stroke:black;stroke-width:12.5px;"/>
            </g>
            <g transform="matrix(1.28374,0.132961,-0.11515,1.4823,-913.1,-1580.9)">
                <path d="M4401.53,2745.15L4526.65,2726.19" style="fill:none;stroke:black;stroke-width:12.5px;"/>
            </g>
            <path d="M4544.06,2200.72C4544.06,2200.72 4865.87,2107.17 5374.12,2089.9C5720.21,2078.14 5723.42,2069.2 5754.01,2076.15C5784.61,2083.11 5820.77,2127.61 5820.77,2169.33C5820.77,2211.05 5806.86,2252.77 5738.72,2262.51C5738.72,2262.51 5890.3,2377.45 5890.3,2494.51C5890.3,2611.57 5827.85,2742.33 5642.61,2832.17C5465.98,2917.83 4963.82,2986.35 4647.89,2985.55C4136.13,2984.24 4222.11,2820.1 4222.11,2820.1C4222.11,2820.1 4640.7,2772.81 4596.2,2555.87C4596.2,2555.87 4440.46,2326.75 4544.06,2200.72Z" style="fill:rgb(255,0,0);stroke:black;stroke-width:17.22px;"/>
            <path d="M4671.78,2335.2C4671.78,2335.2 5000.08,2345.98 5311.59,2311.22C5623.1,2276.45 5811.17,2220.18 5811.17,2220.18C5811.17,2220.18 5805.23,2255.08 5739.43,2262.69C5739.43,2262.69 5745.19,2271.53 5786.91,2298.58C5786.91,2298.58 5570.61,2356.15 5313.34,2377.01C5056.06,2397.87 4614.34,2422.81 4574.43,2406.12C4534.52,2389.43 4671.78,2335.2 4671.78,2335.2Z"/>
            <g>
                <path d="M3733.36,2110.15C3733.36,2110.15 3823.76,2207.5 3880.77,2217.24C3937.79,2226.97 4163.08,2184.9 4186.72,2303.98C4210.36,2423.06 4193.68,2557.95 4236.79,2605.24C4279.9,2652.52 4393.94,2791.29 4489.89,2710.78C4585.85,2630.27 4645.65,2488.42 4716.57,2551C4787.5,2613.58 4806.97,2888.94 4704.06,2925.09C4601.15,2961.25 4352.22,2965.42 4178.38,2880.59C4004.54,2795.76 3829.32,2648.35 3772.3,2488.42C3715.28,2328.49 3679.12,2182.7 3733.36,2110.15Z" style="fill:rgb(255,0,0);stroke:black;stroke-width:17.22px;"/>
                <path d="M4518.45,2158.83C4518.45,2158.83 4566.23,2147.61 4625.41,2150.49C4655.3,2151.95 4717.01,2206 4708.46,2296.43C4699.92,2386.86 4625.86,2403.23 4568.19,2388.28C4568.19,2388.28 4866.57,2462.6 4879.44,2749.28C4892.3,3035.95 4415.63,2995.62 4344.71,2962.25C4344.71,2962.25 4688.21,2998.41 4754.96,2839.87C4821.71,2681.33 4721.59,2572.86 4633.97,2521.4C4546.36,2469.95 4400.8,2289.16 4500,2216.84C4599.2,2144.53 4568.19,2388.28 4568.19,2388.28" style="fill:rgb(203,97,23);stroke:black;stroke-width:17.22px;"/>
                <path d="M3691.27,1939C3691.27,1939 3693.26,1937.34 3767.31,2067C3841.36,2196.66 3982.35,2185.06 4097.5,2186.48C4212.65,2187.9 4219.34,2366.51 4209.55,2435.05C4199.76,2503.58 4185.52,2602.37 4333.27,2685.15C4481.01,2767.92 4529.96,2640.64 4529.96,2565.88C4529.96,2491.12 4431.55,2376.49 4422.12,2310.98C4409.39,2222.56 4471.22,2155.57 4541.53,2157.35C4611.85,2159.13 4629.65,2239.24 4634.99,2283.74C4640.33,2328.24 4628.76,2375.41 4572.69,2386.09C4516.61,2396.77 4492.12,2316.94 4506.89,2290.38C4533.57,2242.41 4523.34,2239.49 4510.38,2252.87C4477.64,2286.68 4468.15,2432.67 4647.3,2472.73C4840.15,2515.86 4923.69,2985.55 4552.99,2985.55C4182.28,2985.55 3948.48,2799.54 3797.24,2575.3C3646,2351.05 3691.27,1939 3691.27,1939ZM3738.09,2150.02C3701.65,2152.39 3723.55,2287.32 3759.15,2413.26C3797.99,2550.68 3918.97,2680.64 4019.1,2757.4C4188.43,2887.22 4381.01,2931.85 4513.35,2929.85C4660.49,2927.62 4738.91,2859.76 4748.93,2749.61C4758.94,2639.47 4655.47,2522.65 4587.61,2672.85C4519.74,2823.04 4350.64,2760.74 4264.97,2701.77C4119.46,2601.62 4063.6,2391.37 4055.81,2349.1C4048.02,2306.82 4060.26,2279.01 4092.53,2274.55C4124.79,2270.11 4141.48,2358 4141.48,2358C4144.81,2192.23 3995.73,2269.56 3906.73,2252.87C3817.73,2236.19 3767.72,2148.1 3738.09,2150.02Z" style="fill:rgb(255,253,152);stroke:black;stroke-width:17.22px;"/>
                <path d="M3712.48,1942.95C3712.48,1942.95 3816.74,2175.28 3962.76,2173.89C4108.78,2172.5 4207.52,2164.97 4242.29,2252.87C4277.05,2340.77 4252.02,2439.51 4222.82,2458.98C4222.82,2458.98 4235.39,2667.45 4445.33,2705.13C4445.33,2705.13 4324.19,2745.6 4215.28,2609.85C4138.51,2514.18 4152.98,2465.22 4152.98,2465.22C4152.98,2465.22 4185.24,2475.24 4185.24,2366.21C4185.24,2257.18 4135.48,2207.11 4097.5,2195.99C4059.52,2184.86 3889.3,2221.58 3813.65,2145.92C3738,2070.27 3672.4,1998.42 3695.76,1897.17L3712.48,1942.95Z" style="fill:rgb(203,97,23);stroke:black;stroke-width:17.22px;"/>
                <g transform="matrix(1.05251,0,0,1.05251,-178.009,-104.19)">
                    <path d="M4116.35,2442.56L4180.6,2433.93" style="fill:none;stroke:black;stroke-width:16.36px;"/>
                </g>
            </g>
            <g transform="matrix(0.872018,0,0,1.0069,385.626,-236.782)">
                <path d="M5194.38,3261.84C5194.38,3261.84 5254.08,3283.26 5368.46,3241.79C5368.46,3241.79 5347.22,3149.96 5263.38,3184.59C5263.38,3184.59 5195.02,3113.2 5243.44,3025.48C5243.44,3025.48 5174.52,2953.71 5135.21,3020.93C5095.91,3088.14 5153.3,3229.33 5194.38,3261.84Z" style="fill:rgb(203,97,23);stroke:black;stroke-width:18.48px;"/>
                <path d="M5263.2,3184.95L5173.73,3203.17" style="fill:none;stroke:black;stroke-width:18.48px;"/>
                <path d="M5156.86,2981.05C5156.86,2981.05 5206.41,2953.71 5320.91,2956.56C5435.4,2959.41 5501.45,3134.52 5498.67,3222.13C5495.89,3309.74 5477.81,3498.8 5080.07,3461.29C5080.07,3461.29 5330.04,3483.65 5368.46,3267.37C5368.46,3267.37 5413.04,3034.8 5156.86,2981.05Z" style="fill:rgb(203,97,23);stroke:black;stroke-width:18.48px;"/>
                <path d="M3733.7,2857.06C3733.7,2857.06 3690.98,2812.92 3666.06,2846.38C3641.13,2879.85 3697.38,2899.07 3774.28,2948.91C3851.18,2998.75 4269.31,3209.79 4408.37,3263.68C4547.44,3317.57 4893.99,3441.72 5049.82,3456.63C5178.68,3468.97 5374.19,3471.23 5390.88,3270.98C5407.57,3070.72 5251.81,2976.16 5179.5,2976.16C5107.18,2976.16 5104.4,3077.67 5104.4,3113.83C5104.4,3149.99 5141.95,3266.81 5225.39,3266.81C5308.83,3266.81 5240.69,3127.74 5175.33,3204.22C5175.33,3204.22 5141.95,3172.24 5141.95,3099.93C5141.95,3051.25 5165.59,3019.27 5194.8,3019.27C5224,3019.27 5350.55,3062.38 5350.55,3252.9C5350.55,3443.42 5128.04,3426.73 5034.87,3411.43C4941.69,3396.14 4587.07,3327.99 4190.73,3124.96C3794.39,2921.92 3733.7,2857.06 3733.7,2857.06Z" style="fill:rgb(255,253,152);stroke:black;stroke-width:18.48px;"/>
            </g>
            <g transform="matrix(1.05251,0,0,1.2153,-304.253,-413.75)">
                <path d="M3938.73,2645.36L4076.1,2725.71C4028.98,2679.31 4082.51,2627.72 4082.51,2627.72L4040.22,2593.31C4040.22,2593.31 3997.06,2663.64 3938.73,2645.36Z" style="fill:rgb(255,253,152);"/>
                <path d="M4033.14,2600.97C4033.14,2600.97 3996.35,2663.68 3953.71,2642.38" style="fill:none;stroke:black;stroke-width:15.31px;"/>
                <path d="M4077.13,2635.23C4077.13,2635.23 4031.06,2682.1 4067.22,2703.45" style="fill:none;stroke:black;stroke-width:15.31px;"/>
            </g>
            <g transform="matrix(0.901435,-0.627348,0.543311,1.04086,-678.876,2792.37)">
                <path d="M3941.76,2631.95L4052.37,2764.78C3992.8,2688.42 4082.51,2627.72 4082.51,2627.72L4040.22,2593.31C4040.22,2593.31 4000.09,2650.22 3941.76,2631.95Z" style="fill:rgb(255,253,152);"/>
                <path d="M4033.14,2600.97C4033.14,2600.97 3975.28,2662.42 3951.38,2627.33" style="fill:none;stroke:black;stroke-width:15.31px;"/>
                <path d="M4077.13,2635.23C4077.13,2635.23 3998.86,2686.6 4046.71,2741.97" style="fill:none;stroke:black;stroke-width:15.31px;"/>
            </g>
        </g>
        <g id="Flipper---Right2" serif:id="Flipper - Right" transform="matrix(-0.525024,1.27915,1.27915,0.525024,3909.66,-1085.57)">
            <g id="Flipper---Colour3" serif:id="Flipper - Colour" transform="matrix(-0.0019325,0.999998,0.999998,0.0019325,1030.81,-643.464)">
                <path d="M1617.12,981.089C1600.78,997.169 1585.02,1022.37 1567.38,1048.19C1538.32,1090.72 1499.37,1159.72 1521.9,1176.24C1544.43,1192.76 1606.31,1147.73 1634.85,1115.43C1650.98,1097.18 1665.19,1074.13 1674.5,1057.54" style="fill:rgb(246,194,217);"/>
            </g>
            <g transform="matrix(0.327558,-0.46149,0.46149,0.327558,723.709,1670.8)">
                <path d="M2317.28,1145.27C2317.28,1145.27 2404.7,1165.73 2504.12,1208.69C2577.76,1240.51 2709.84,1303.31 2621.04,1347.94C2621.7,1343.99 2656.3,1293.81 2493.81,1219.48C2388.81,1171.45 2317.28,1145.27 2317.28,1145.27Z" style="fill:white;fill-opacity:0.6;"/>
            </g>
            <g id="Flipper---Frame3" serif:id="Flipper - Frame" transform="matrix(-0.0019325,0.999998,0.999998,0.0019325,1030.81,-643.464)">
                <path d="M1673.12,1060.39C1674.14,1060.98 1674.18,1061.03 1674.48,1062.16C1674.67,1062.88 1674.38,1063.65 1674.2,1064.37C1674.13,1064.65 1674.01,1064.58 1672.45,1067.47C1664.73,1081.8 1659.27,1090.3 1655,1096.7C1651.42,1102.06 1646.31,1109.39 1639.33,1117.58C1633.48,1124.45 1625.8,1131.71 1624.56,1132.88C1597.1,1158.82 1549.53,1192.15 1524.34,1182.64C1512.41,1178.13 1510.96,1166.55 1510.71,1164.86C1506.81,1138.77 1534.02,1091.85 1558.18,1051.22C1562.37,1044.17 1572.48,1027.8 1594.95,1001.85C1595.82,1000.85 1606.47,988.631 1617.19,978.205C1617.32,978.079 1618.05,977.365 1619.26,977.348C1619.27,977.347 1621.32,978.144 1621.32,978.15C1621.6,978.823 1622.16,979.44 1622.17,980.171C1622.19,981.652 1621.96,981.631 1620.96,982.723C1618.73,985.155 1608.67,996.122 1594.6,1014.44C1582.17,1030.62 1573.7,1043.59 1572,1046.2C1570.31,1048.79 1569.1,1050.35 1557.97,1069.34C1541.13,1098.06 1515.03,1144.35 1519.97,1165.21C1525.17,1187.11 1564.97,1171.03 1604.02,1138.92C1622.56,1123.68 1632.9,1111.54 1640.07,1102.7C1644.13,1097.69 1650.58,1089.49 1660.11,1075.46C1661.57,1073.32 1666.81,1065.49 1668.71,1062.21C1669.13,1061.47 1669.13,1061.47 1669.14,1061.45C1670.77,1060.21 1670.74,1060.15 1670.91,1060.11C1672.05,1059.8 1672.11,1059.81 1673.12,1060.39Z"/>
            </g>
        </g>
    </g>
    <g id="Rudolph" transform="matrix(-1,0,0,1,7581.22,-1582.12)">
        <path d="M6901.47,2561.71C6901.47,2561.71 6896.91,2541.64 6884.38,2530.25C6871.85,2518.85 6856.47,2516.58 6843.36,2505.18C6830.26,2493.79 6818.3,2486.39 6808.05,2486.95C6797.8,2487.53 6778.43,2519.99 6790.39,2571.26C6802.35,2622.52 6827.99,2640.75 6863.87,2630.5C6899.76,2620.24 6901.47,2561.71 6901.47,2561.71Z" style="fill:rgb(147,58,28);stroke:black;stroke-width:12.5px;"/>
        <g>
            <path d="M7278.53,2818.83C7278.53,2818.83 7261.03,2844.95 7285.09,2860.26C7309.15,2875.57 7370.03,2906.2 7394.46,2912.76C7418.89,2919.32 7434.56,2891.98 7433.83,2853.7C7433.1,2815.42 7278.53,2818.83 7278.53,2818.83Z"/>
            <path d="M7213.56,2644.05C7213.56,2644.05 7261.41,2638.95 7276.22,2633.24C7291.03,2627.53 7313.82,2614.43 7334.89,2624.11C7355.97,2633.79 7372.49,2677.08 7390.71,2714.11C7408.94,2751.13 7444.26,2822.34 7430.02,2857.08C7430.02,2857.08 7296.16,2831.45 7276.79,2829.17C7276.79,2829.17 7273.94,2810.94 7289.32,2792.72C7304.7,2774.49 7324.64,2761.96 7317.23,2743.16C7309.83,2724.36 7292.74,2708.41 7292.74,2708.41C7292.74,2708.41 7260.27,2730.06 7240.9,2738.03C7221.54,2746.01 7162.87,2732.34 7162.87,2732.34L7213.56,2644.05Z" style="fill:rgb(147,58,28);stroke:black;stroke-width:12.5px;"/>
        </g>
        <g>
            <path d="M6815.49,2738.86C6815.49,2738.86 6775.99,2719.91 6742.51,2742.15C6709.04,2764.39 6678.41,2801.29 6684.25,2813.83C6690.08,2826.36 6715.6,2836.93 6738.57,2835.84C6761.53,2834.75 6815.49,2738.86 6815.49,2738.86Z"/>
            <path d="M7025.36,2788.16C7025.36,2788.16 6954.73,2819.37 6901.47,2794.74C6901.47,2794.74 6867,2870.93 6799.22,2874.92L6734.28,2838.46C6734.28,2838.46 6745.1,2766.86 6812.89,2738.86L6898.33,2757.58L7029.91,2788.16" style="fill:rgb(147,58,28);stroke:black;stroke-width:12.5px;"/>
        </g>
        <g transform="matrix(-0.744452,0.413717,0.480345,0.864344,11503.1,-2636.28)">
            <g transform="matrix(0.682946,0.16587,-0.169872,0.699422,2561.07,-546.975)">
                <path d="M6986.91,2050.98C6986.91,2050.98 6920,1970.93 6794.78,1945.62C6688.29,1924.1 6527.32,1964.1 6508.93,1990.62C6461.24,2059.4 6589.62,2188.57 6725.49,2210.25C6794.69,2221.28 6937.68,2197.84 6937.68,2197.84" style="fill:rgb(147,58,28);stroke:black;stroke-width:18.4px;"/>
            </g>
            <path d="M6960.48,2050.12C6960.48,2050.12 6855.49,1957.47 6760.22,1958.52C6701.78,1959.17 6688.8,1973.18 6728.61,2024.35C6776.13,2085.43 6896.79,2117.39 6930.96,2116.82C6930.96,2116.82 6939.06,2062.99 6960.48,2050.12Z" style="fill:rgb(236,222,211);"/>
        </g>
        <g transform="matrix(0.886237,0.0012591,-0.0012591,0.886237,957.414,196.999)">
            <path d="M7191.29,1952.7C7191.29,1952.7 7139.61,1674.43 7002.77,1629.93C6865.93,1585.43 6923.58,1661.08 6950.94,1672.21C6978.29,1683.33 7088.38,1773.16 7038.54,1771.02C6988.69,1768.88 6958.76,1769.6 6950.94,1786.69C6943.12,1803.78 6984.42,1822.29 7027.14,1823C7069.86,1823.71 7110.06,1825.49 7142.24,1952.7C7145.92,1967.23 7163.19,1970.22 7170.85,1970.22C7178.5,1970.22 7193.5,1963.99 7191.29,1952.7Z" style="fill:rgb(124,61,42);stroke:black;stroke-width:14.1px;"/>
        </g>
        <path d="M7304.45,1919.98C7387.67,1934.74 7543.6,1988.53 7505.46,2230.76C7505.46,2230.76 7692.71,2458.35 7264.68,2522.46C7264.68,2522.46 7250.6,2654.58 7208.33,2732.46C7166.05,2810.34 7071.49,2809.22 7004.74,2794.76C6937.98,2780.3 6819.22,2722.09 6835.74,2652.03C6852.26,2581.97 6898.97,2535.83 6951.94,2539.24C7004.91,2542.66 7042.4,2577.19 7057.89,2576.84C7133.93,2575.13 7114.27,2503.27 7114.27,2503.27C7114.27,2503.27 6944.6,2467.4 6879.43,2327.18C6856.97,2278.87 6836.37,2174.99 6857.17,2110.14C6889.16,2010.35 7008.24,1867.46 7304.45,1919.98Z" style="fill:rgb(147,58,28);stroke:black;stroke-width:12.5px;"/>
        <g transform="matrix(0.987971,-0.154639,0.154639,0.987971,-294.722,1140.11)">
            <path d="M7191.29,1952.7C7191.29,1952.7 7139.61,1674.43 7002.77,1629.93C6865.93,1585.43 6923.58,1661.08 6950.94,1672.21C6978.29,1683.33 7088.38,1773.16 7038.54,1771.02C6988.69,1768.88 6958.76,1769.6 6950.94,1786.69C6943.12,1803.78 6984.42,1822.29 7027.14,1823C7069.86,1823.71 7110.06,1825.49 7142.24,1952.7C7145.92,1967.23 7163.19,1970.22 7170.85,1970.22C7178.5,1970.22 7193.5,1963.99 7191.29,1952.7Z" style="fill:rgb(124,61,42);stroke:black;stroke-width:12.5px;"/>
        </g>
        <g transform="matrix(1,0,0,1,5.88891,43.297)">
            <path d="M7260.3,2472.59C7260.1,2472.61 7261.53,2472.45 7262.77,2472.8C7263.13,2472.9 7265.23,2473.49 7266.49,2475.69C7266.68,2476.02 7267.79,2477.96 7267.09,2480.49C7266.4,2482.94 7264.52,2484.02 7264.19,2484.2C7263.96,2484.34 7262.89,2484.95 7261.02,2485.06C7251.74,2485.6 7231.82,2481.63 7229.32,2481.13C7221.7,2479.61 7216.56,2478.41 7214.97,2478.04C7214.09,2477.84 7214.01,2477.91 7213.45,2477.2C7213.44,2477.19 7213.06,2475.87 7213.02,2475.75C7213,2475.67 7213.06,2475.68 7213.83,2474.03C7218.18,2473.87 7221.54,2474.23 7237.22,2473.91C7248.19,2473.68 7255.22,2473.07 7256.78,2472.93C7258.69,2472.77 7260.07,2472.62 7260.3,2472.59ZM7260.3,2472.59C7260.34,2472.58 7260.34,2472.59 7260.3,2472.59Z"/>
        </g>
        <g transform="matrix(0.851687,0,0,0.988848,1022.79,16.0321)">
            <g transform="matrix(0.682946,0.16587,-0.169872,0.699422,2561.07,-546.975)">
                <path d="M6986.91,2050.98C6986.91,2050.98 6920,1970.93 6794.78,1945.62C6688.29,1924.1 6527.32,1964.1 6508.93,1990.62C6461.24,2059.4 6589.62,2188.57 6725.49,2210.25C6794.69,2221.28 6937.68,2197.84 6937.68,2197.84" style="fill:rgb(147,58,28);stroke:black;stroke-width:18.4px;"/>
            </g>
            <path d="M6960.48,2050.12C6960.48,2050.12 6855.49,1957.47 6760.22,1958.52C6701.78,1959.17 6688.8,1973.18 6728.61,2024.35C6776.13,2085.43 6896.79,2117.39 6930.96,2116.82C6930.96,2116.82 6939.06,2062.99 6960.48,2050.12Z" style="fill:rgb(236,222,211);"/>
        </g>
        <g>
            <path d="M7089.55,2901.49C7089.55,2901.49 7072.78,2924.09 7084.81,2945.97C7096.84,2967.84 7142.41,3026.9 7182.51,3031.27C7222.61,3035.65 7224.43,3010.13 7235.37,2968.2C7246.31,2926.28 7089.55,2901.49 7089.55,2901.49Z"/>
            <path d="M7036.41,2626.93C7036.41,2626.93 6982.29,2682.18 7008.49,2732.88C7034.7,2783.57 7095.08,2774.46 7137.23,2781.3C7179.38,2788.13 7180.52,2792.12 7180.52,2792.12C7180.52,2792.12 7178.24,2848.57 7150.33,2857.08C7122.42,2865.6 7093.94,2884.97 7088.24,2903.76C7082.55,2922.56 7201.02,2969.27 7233.49,2970.41C7233.49,2970.41 7260.83,2934.52 7257.99,2890.66C7255.14,2846.8 7249.44,2810.35 7259.69,2784.71C7269.95,2759.08 7264.25,2711.23 7205.01,2703.26C7145.77,2695.28 7132.67,2678.76 7132.67,2678.76C7132.67,2678.76 7105.33,2558.58 7036.41,2626.93Z" style="fill:rgb(147,58,28);"/>
            <path d="M7036.41,2626.93C7036.41,2626.93 6982.29,2682.18 7008.49,2732.88C7034.7,2783.57 7095.08,2774.46 7137.23,2781.3C7179.38,2788.13 7180.52,2792.12 7180.52,2792.12C7180.52,2792.12 7178.24,2848.57 7150.33,2857.08C7122.42,2865.6 7093.94,2884.97 7088.24,2903.76C7082.55,2922.56 7201.02,2969.27 7233.49,2970.41C7233.49,2970.41 7260.83,2934.52 7257.99,2890.66C7255.14,2846.8 7249.44,2810.35 7259.69,2784.71C7269.95,2759.08 7264.25,2711.23 7205.01,2703.26C7145.77,2695.28 7132.67,2678.76 7132.67,2678.76" style="fill:none;stroke:black;stroke-width:12.5px;"/>
        </g>
        <g>
            <path d="M6734.28,2822.22C6734.28,2822.22 6700.26,2794.42 6668.36,2839.99C6636.46,2885.56 6640.11,2921.56 6656.51,2935.69C6672.92,2949.81 6706.64,2959.84 6730.79,2951.64C6754.94,2943.43 6734.28,2822.22 6734.28,2822.22Z"/>
            <path d="M6839.72,2637C6839.72,2637 6823.78,2691.68 6828.33,2727.68C6832.89,2763.68 6815.57,2763.22 6805.55,2764.13C6795.52,2765.05 6775.02,2799.68 6767.27,2814.26C6759.52,2828.84 6734.91,2824.74 6728.99,2821.1C6723.07,2817.45 6664.74,2911.32 6723.98,2952.33C6723.98,2952.33 6790.97,2960.08 6825.6,2862.11C6841.67,2816.64 6844.04,2825.65 6844.04,2825.65C6844.04,2825.65 6963.79,2806.17 6932.46,2728.7" style="fill:rgb(147,58,28);stroke:black;stroke-width:12.5px;"/>
        </g>
        <g transform="matrix(1.03802,0,0,1.03802,-242.483,-109.841)">
            <ellipse cx="7168.16" cy="2165.71" rx="58.811" ry="66.131"/>
            <ellipse cx="7191.29" cy="2151.4" rx="23.123" ry="34.633" style="fill:white;"/>
            <circle cx="7135.21" cy="2196.67" r="10.638" style="fill:white;"/>
        </g>
        <g transform="matrix(0.89733,0,0,0.89733,965.811,167.197)">
            <ellipse cx="7168.16" cy="2165.71" rx="58.811" ry="66.131"/>
            <ellipse cx="7191.29" cy="2151.4" rx="23.123" ry="34.633" style="fill:white;"/>
            <circle cx="7135.21" cy="2196.67" r="10.638" style="fill:white;"/>
        </g>
        <g transform="matrix(1.22517,0,0,1.22517,-1686.08,-512.916)">
            <g transform="matrix(1,0,0,0.767771,-165.19,546.938)">
                <circle cx="7653.16" cy="2233.03" r="71.025" style="fill:rgb(255,0,0);stroke:black;stroke-width:11.44px;"/>
            </g>
            <g transform="matrix(0.709205,-0.319323,0.3806,0.845298,1333.93,2744.93)">
                <ellipse cx="7526.51" cy="2254.38" rx="20.506" ry="18.513" style="fill:white;"/>
            </g>
        </g>
        <path d="M6044.72,2198.11C6232.54,2037.4 6889.65,2385.95 7055.76,2578.41C7055.76,2578.41 6924.93,2636.61 6978.33,2788.16" style="fill:none;stroke:black;stroke-width:12.5px;"/>
        <path d="M6970.4,2679.32C7006.37,2666.07 6801.18,2469.48 6564.24,2341.49C6419.97,2263.56 6060.57,2264.94 6037.73,2233.58" style="fill:none;stroke:black;stroke-width:12.5px;"/>
    </g>
</svg>
