<?xml version="1.0" encoding="UTF-8" standalone="no"?>
<!DOCTYPE svg PUBLIC "-//W3C//DTD SVG 1.1//EN" "http://www.w3.org/Graphics/SVG/1.1/DTD/svg11.dtd">
<svg width="100%" height="100%" viewBox="0 0 1790 2201" version="1.1" xmlns="http://www.w3.org/2000/svg" xmlns:xlink="http://www.w3.org/1999/xlink" xml:space="preserve" xmlns:serif="http://www.serif.com/" style="fill-rule:evenodd;clip-rule:evenodd;stroke-linecap:round;stroke-linejoin:round;stroke-miterlimit:1.5;">
    <g transform="matrix(0.788957,0,0,1,-187.677,-177.998)">
        <ellipse cx="1270.4" cy="2247.85" rx="1032.52" ry="130.912" style="fill:rgb(208,208,208);"/>
    </g>
    <g id="Flipper---Left" serif:id="Flipper - Left" transform="matrix(-2.15258,0.302774,0.302774,2.15258,4568.03,-1970.44)">
        <g id="Flipper---Colour" serif:id="Flipper - Colour" transform="matrix(-0.0019325,0.999998,0.999998,0.0019325,1030.81,-643.464)">
            <path d="M1651.07,986.993C1651.07,986.993 1599.25,1012.53 1568.46,1053.83C1537.67,1095.13 1499.37,1159.72 1521.9,1176.24C1544.43,1192.76 1606.31,1147.73 1634.85,1115.43C1663.38,1083.14 1685.91,1035.83 1685.91,1035.83" style="fill:rgb(68,69,69);"/>
        </g>
        <path id="Shine" d="M2207.15,892.169C2207.15,892.169 2187.6,857.415 2061.7,946.798C2061.7,946.798 2088.86,918.022 2110.88,905.472C2132.9,892.922 2206.6,851.552 2207.15,892.169Z" style="fill:white;fill-opacity:0.15;"/>
        <g id="Flipper---Frame" serif:id="Flipper - Frame" transform="matrix(-0.0019325,0.999998,0.999998,0.0019325,1030.81,-643.464)">
            <path d="M1651.07,986.993C1651.07,986.993 1599.25,1012.53 1568.46,1053.83C1537.67,1095.13 1499.37,1159.72 1521.9,1176.24C1544.43,1192.76 1606.31,1148.14 1634.85,1115.85C1663.38,1083.55 1685.91,1036.24 1685.91,1036.24" style="fill:none;stroke:black;stroke-width:9.2px;"/>
        </g>
    </g>
    <g id="Vest---Left" serif:id="Vest - Left" transform="matrix(1,0,0,1,-948.503,-1278.12)">
        <g transform="matrix(1,0,0,1,35.8266,34.8598)">
            <path d="M1402.1,1952.77C1402.1,1952.77 1290.44,1940.16 1270.73,2044.13C1255.76,2123.13 1288.08,2152 1288.08,2152C1288.08,2152 1259.45,2166.66 1258.51,2229.54C1257.48,2298.71 1288.22,2298.96 1288.22,2298.96C1288.22,2298.96 1226.15,2387.08 1298.77,2428.74C1371.4,2470.39 1578.32,2421.14 1578.32,2421.14L1402.1,1952.77Z" style="fill:rgb(30,171,224);"/>
            <path d="M1277.56,2302.82C1267.91,2297.67 1254.63,2283.94 1251.89,2247.08C1251.47,2241.39 1250.53,2224.27 1253.14,2205.94C1257.66,2174.23 1269.88,2158.17 1277.67,2150.88C1268.44,2138.13 1251.74,2105.21 1263.48,2042.76C1275.24,1980.21 1320.21,1951.67 1372.41,1945.81C1373.55,1945.68 1378.01,1945.61 1378.5,1945.6C1386.95,1945.46 1391.41,1945.9 1392.53,1946.02C1398.11,1946.57 1401.87,1947.26 1402.67,1947.41C1403.21,1947.6 1403.78,1947.66 1404.31,1947.86C1404.56,1947.95 1405.66,1948.6 1406.31,1949.4C1406.39,1949.51 1406.82,1950.05 1407.14,1950.87C1407.16,1950.93 1583.23,2416.4 1584.18,2418.93C1585.42,2422.21 1583.58,2424.6 1583.28,2424.99C1582.27,2426.28 1581,2426.82 1580.77,2426.92C1580.44,2427.06 1580.31,2427.19 1570.63,2429.33C1520.83,2440.32 1478.86,2445.49 1470.82,2446.47C1341.26,2462.44 1303.33,2440.02 1290.17,2431.38C1268.27,2416.99 1260.41,2398.83 1257.82,2384.05C1252.09,2351.42 1268.9,2317.6 1277.56,2302.82ZM1398.41,1958.2C1396.57,1958.27 1394.38,1958.43 1388.31,1958.92C1380.16,1959.57 1375.05,1960.61 1373.47,1960.78C1325.21,1966.22 1304.5,1990.94 1298.79,1998.05C1282.84,2017.93 1278.16,2040.84 1275.76,2059.3C1268.49,2115.15 1287.2,2139.86 1291.19,2144.71C1292.33,2146.1 1293.55,2147.25 1293.83,2147.61C1294.12,2148 1295.86,2150.27 1295.15,2153.54C1294.59,2156.09 1292.85,2157.45 1292.54,2157.7C1292.04,2158.09 1288.39,2159.8 1283.6,2165.67C1268.12,2184.59 1264.6,2216.49 1265.79,2242.09C1267.67,2282.48 1282.38,2291.23 1288.47,2291.98L1288.47,2291.99C1289.2,2292.19 1289.97,2292.22 1290.7,2292.43C1291.6,2292.69 1292.54,2293.47 1292.68,2293.58C1293.09,2293.92 1295.58,2295.99 1295.16,2299.73C1295.14,2299.91 1295.04,2300.89 1294.54,2301.94C1294.09,2302.89 1291.56,2306.18 1287.47,2313.57C1274.45,2337.04 1258.92,2378.36 1282.94,2407.16C1295.85,2422.64 1314.03,2428.5 1318.07,2429.84C1385.66,2452.22 1522.21,2427.4 1575.5,2415.34L1398.41,1958.2Z"/>
        </g>
        <g transform="matrix(1,1.11022e-16,-1.11022e-16,1,35.8266,34.8598)">
            <path d="M1287.27,2144.68C1287.42,2144.5 1287.51,2144.28 1287.65,2144.1C1287.69,2144.05 1287.77,2144.03 1287.82,2144.01C1289.02,2143.4 1289.07,2143.52 1290.38,2143.23C1290.71,2143.16 1290.67,2143.38 1294.37,2144.74C1319.63,2154.04 1352.41,2156 1352.43,2156C1386.3,2158.58 1414.91,2155.57 1415.69,2155.65C1416.39,2155.72 1417.12,2155.65 1417.8,2155.86C1419.9,2156.49 1420.79,2158.15 1420.94,2158.44C1422.01,2160.45 1421.44,2162.3 1421.34,2162.62C1420.69,2164.71 1419.04,2165.6 1418.76,2165.75C1417.52,2166.42 1417.47,2166.3 1416.08,2166.46C1369.94,2171.73 1328.29,2169.94 1297.01,2161.22C1290.97,2159.54 1284.86,2157.16 1284.7,2157.04C1284.69,2157.03 1283.41,2155.36 1283.4,2155.34C1283.26,2155.07 1283.09,2154.63 1282.66,2153.85C1282.64,2153.81 1282.64,2153.81 1282.6,2153.77C1282.05,2153.32 1281.42,2152.94 1280.97,2152.39C1280.76,2152.14 1279.57,2150.67 1279.73,2148.52C1279.76,2148.19 1279.9,2146.3 1281.65,2144.8C1281.9,2144.59 1283.35,2143.36 1285.52,2143.57C1285.53,2143.57 1287.39,2144.14 1287.55,2144.19C1287.59,2144.2 1287.54,2144.22 1287.27,2144.68Z"/>
        </g>
        <g transform="matrix(1,1.11022e-16,-1.11022e-16,1,35.8266,34.8598)">
            <path d="M1285.71,2293.39C1285.68,2293.39 1285.95,2293.22 1286.72,2292.75C1287.35,2292.35 1287.39,2292.39 1288.77,2291.86C1288.96,2291.78 1289.13,2291.65 1289.33,2291.64C1290.46,2291.58 1354.4,2299.03 1423.35,2284.56C1441.8,2280.68 1453.98,2276.59 1454.25,2276.56C1454.95,2276.47 1455.65,2276.25 1456.36,2276.31C1458.55,2276.48 1459.77,2277.9 1459.98,2278.14C1460.69,2278.97 1460.7,2278.97 1461.04,2280.01C1461.14,2280.32 1461.73,2282.11 1460.72,2284.11C1460.41,2284.73 1459.97,2285.3 1459.45,2285.75C1458.32,2286.73 1458.23,2286.6 1456.81,2287.08C1420.9,2299.29 1377.48,2306.99 1327.65,2307.8C1306.18,2308.16 1288.18,2306.65 1287.98,2306.58C1287.96,2306.57 1285.87,2305.34 1285.86,2305.33C1285.74,2305.24 1285.75,2305.23 1284.51,2304.15C1284.37,2304.03 1284.22,2304.41 1282.43,2303.33C1282.15,2303.17 1280.53,2302.18 1279.91,2300.14C1279.82,2299.82 1279.28,2298.04 1280.41,2295.97C1280.56,2295.68 1281.49,2293.97 1283.6,2293.45C1284.52,2293.22 1285.57,2293.37 1285.71,2293.39Z"/>
        </g>
    </g>
    <g id="Penguin" transform="matrix(0.460745,-0.724275,0.724275,0.460745,-1401.25,1071.89)">
        <g id="Body" transform="matrix(-3.25094,-2.60625,-2.60625,3.25094,6265.4,2714.28)">
            <path id="Body---Frame" serif:id="Body - Frame" d="M868.123,563.997C868.123,563.997 842.39,549.567 825.208,501.789C806.217,448.979 833.642,386.234 923.738,356.013C1009.6,327.212 1034.36,372.711 1050.63,399.686C1057.2,410.57 1055.41,422.692 1060.65,433.727C1065.44,443.812 1082.53,447.283 1086.19,477.531C1089.44,504.477 1073.79,520.899 1073.79,520.899C1121.27,597.366 1073.76,630.222 1026.88,676.997C995.416,708.384 948.655,755.537 914.71,754.008C903.054,753.482 871.502,773.722 865.157,767.386C834.033,736.307 832.648,719.796 825.361,679.465C814.634,620.087 868.123,563.997 868.123,563.997Z" style="fill:rgb(68,69,69);"/>
            <path d="M971.57,408.464C977.831,406.185 979.324,397.212 981.532,388.558C984.033,378.756 993.289,371.425 1005.49,368.413C1020.35,364.746 1030.09,366.394 1044.27,390.185C1058.44,413.976 1056.52,426.263 1059.65,434.434C1062.77,442.604 1085.35,457.131 1084.74,481.23C1084.18,503.278 1073.68,521.885 1073.68,521.885C1124.09,590.409 1060.2,646.7 1044.36,660.194C1036.78,666.654 992.577,768.34 902.353,753.946C869.617,750.475 848.445,675.086 876.923,639.743C894.475,617.96 913.777,608.384 913.777,608.384C913.777,608.384 918.17,587.141 911.195,559.666C906.296,540.371 877.866,538.581 859.817,495.222C847.082,464.632 845.304,422.277 887.956,401.797C913.836,389.37 939.302,394.841 949.111,400.77C963.262,409.322 966.268,410.394 971.57,408.464Z" style="fill:rgb(255,253,246);"/>
            <g id="Chin-Shadow" serif:id="Chin Shadow" transform="matrix(0.793574,-0.148577,0.181558,0.969729,127.596,173.198)">
                <path d="M941.651,533.974C941.651,533.974 966.056,527.362 998.16,524.541C1020.34,522.593 1051.64,523.155 1051.64,523.155C1051.64,523.155 1036.26,537.274 998.444,540.858C978.459,542.752 962.645,537.416 941.651,533.974Z" style="fill-opacity:0.1;"/>
            </g>
            <g transform="matrix(-0.212448,-0.111651,-0.111651,0.212448,1584.28,336.443)">
                <path d="M2451.16,1410.71C2451.16,1410.71 2760.35,1763.31 2540.22,2001.55C2550.99,1924.03 2585.84,1796.6 2568.09,1709.83C2547.89,1611.09 2524.1,1504.84 2451.16,1410.71Z" style="fill:white;fill-opacity:0.15;"/>
            </g>
            <g transform="matrix(-0.264642,0.0901885,0.0901885,0.264642,1252.84,-154.631)">
                <path d="M1433.48,2086.3C1433.49,2086.54 1433.55,2087.88 1431.24,2088.3C1428.01,2088.9 1400.48,2094.42 1370.51,2081.12C1367.9,2079.96 1365.03,2078.57 1362.05,2076.49C1358.64,2074.12 1358.11,2070.44 1358.02,2069.83C1357.83,2068.56 1357.88,2067.23 1358.19,2065.99C1358.35,2065.39 1359.22,2061.91 1362.83,2059.77C1363.35,2059.46 1366.34,2057.68 1370.29,2058.68C1372.89,2059.33 1372.79,2059.6 1374.95,2061.19C1378.64,2063.91 1396.36,2078.31 1422.32,2083.2C1428.69,2084.41 1431.38,2084.48 1431.53,2084.54C1432.77,2085.09 1432.79,2085.06 1432.87,2085.14C1433.39,2085.6 1433.44,2085.61 1433.48,2086.3Z"/>
            </g>
            <path id="Body---Frame1" serif:id="Body - Frame" d="M870.113,564.225C870.113,564.225 838.754,542.734 824.082,494.126C810.354,448.646 825.328,391.593 921.4,356.866C998.147,329.123 1036.61,371.472 1050.63,399.686C1058.1,414.716 1054.96,423.672 1060.2,434.707C1064.98,444.792 1082.07,447.451 1085.73,477.699C1088.98,504.644 1073.79,520.899 1073.79,520.899C1121.27,597.366 1073.76,630.222 1026.88,676.997C995.416,708.384 948.655,755.537 914.71,754.008C901.374,753.407 872.416,779.821 866.208,772.283C834.585,733.884 826.65,706.002 824.815,668.742C821.861,608.801 870.113,564.225 870.113,564.225Z" style="fill:none;stroke:black;stroke-width:5.59px;"/>
        </g>
        <g id="Beak" transform="matrix(-2.36532,-3.43021,-3.43021,2.36532,5731.79,3989.96)">
            <g transform="matrix(1,0,0,1,22.4895,-0.977806)">
                <path d="M954.523,463.803C954.523,463.803 965.279,487.328 977.78,486.934C990.28,486.54 997.663,469.118 995.891,461.244C994.119,453.369 954.523,463.803 954.523,463.803Z" style="fill:rgb(243,214,211);"/>
            </g>
            <path d="M997.241,438.158C1004.28,437.783 1019.75,445.638 1020.83,454.103C1021.91,462.569 1007.05,476.25 1001.14,476.349C995.237,476.447 974.763,463.159 974.763,458.139C974.763,453.119 986.155,438.748 997.241,438.158Z" style="fill:rgb(255,120,61);"/>
            <path d="M1002.54,448.318C1010.85,448.71 1018.29,451.472 1018.41,454.874C1018.54,458.275 1008.53,470.555 1001.53,470.87C994.543,471.185 982.123,459.893 982.123,457.075C982.123,454.256 989.188,447.688 1002.54,448.318Z" style="fill:rgb(157,0,6);stroke:black;stroke-width:1.68px;"/>
            <path id="Tongue" d="M983.806,460.095C983.806,460.095 988.044,455.959 996.548,456.463C1005.05,456.967 1011.85,462.23 1013.04,463.238C1013.04,463.238 1007.49,470.725 1001.4,470.889C997.935,470.983 989.917,466.302 983.806,460.095Z" style="fill:rgb(250,0,9);stroke:black;stroke-width:1.68px;"/>
            <path d="M978.164,451.725C978.164,451.725 986.832,443.254 997.33,443.254C1007.83,443.254 1019.39,450.547 1019.39,450.547C1019.39,450.547 1015.68,441.657 999.873,438.992C992.402,437.732 985.456,441.311 978.164,451.725Z" style="fill:rgb(247,179,82);"/>
            <path d="M997.241,438.158C1004.28,437.783 1019.75,445.638 1020.83,454.103C1021.91,462.569 1007.05,476.25 1001.14,476.349C995.237,476.447 974.763,463.159 974.763,458.139C974.763,453.119 986.155,438.748 997.241,438.158Z" style="fill:none;stroke:black;stroke-width:2.24px;"/>
        </g>
        <g id="Eyes" transform="matrix(-0.604229,-0.996001,-0.996001,0.604229,4719.4,2501.54)">
            <g id="Eye---Left" serif:id="Eye - Left" transform="matrix(1,0,0,1,-32.6878,1.44689)">
                <g transform="matrix(0.515798,-0.092702,0.0903587,0.50276,768.862,1185.21)">
                    <ellipse cx="1702.53" cy="1228.02" rx="102.699" ry="119.721"/>
                </g>
                <g transform="matrix(0.497121,-0.0859246,0.088867,0.514144,811.175,1163.07)">
                    <ellipse cx="1724.09" cy="1196.81" rx="55.038" ry="66.953" style="fill:white;"/>
                </g>
                <g transform="matrix(0.521768,0,0,0.521768,874.102,1005.96)">
                    <circle cx="1648.5" cy="1279.53" r="23.709" style="fill:white;"/>
                </g>
            </g>
            <g id="Eye---Right" serif:id="Eye - Right" transform="matrix(1,0,0,1,9.39869,15.9673)">
                <g transform="matrix(0.437321,-0.0849347,0.0766108,0.460635,1241.61,1214.3)">
                    <ellipse cx="1702.53" cy="1228.02" rx="102.699" ry="119.721"/>
                </g>
                <g transform="matrix(0.421485,-0.0787252,0.075346,0.471066,1277.49,1194.01)">
                    <ellipse cx="1724.09" cy="1196.81" rx="55.038" ry="66.953" style="fill:white;"/>
                </g>
                <g transform="matrix(0.442382,0,0,0.47805,1330.84,1050.07)">
                    <circle cx="1648.5" cy="1279.53" r="23.709" style="fill:white;"/>
                </g>
            </g>
        </g>
    </g>
    <g id="Pig" transform="matrix(0.988679,0.150048,-0.150048,0.988679,-819.872,-49.031)">
        <g id="Ear---Back" serif:id="Ear - Back">
            <path d="M1338.37,981.01C1338.37,981.01 1214.46,948.468 1190.68,992.274C1166.9,1036.08 1155.63,1104.56 1179.42,1123.51C1203.2,1142.47 1233.24,1111.4 1267.03,1080C1300.82,1048.6 1338.37,981.01 1338.37,981.01Z" style="fill:rgb(253,205,201);"/>
            <path d="M1339.64,976.19C1340.12,976.455 1340.66,976.599 1341.13,976.864C1341.37,976.992 1342.31,977.798 1342.78,978.685C1342.93,978.969 1343.8,980.623 1343.06,982.687C1342.74,983.603 1335.95,995.736 1328.15,1008.57C1294.61,1063.77 1273.97,1082.14 1269.79,1086.13C1239.44,1115.03 1211.31,1144.13 1184.66,1134.86C1173.76,1131.07 1168.34,1122.62 1168.29,1122.55C1148.2,1094.43 1161.25,1028.71 1182.91,988.04C1198.03,959.646 1243.21,958.502 1273.37,960.55C1278.47,960.896 1303.65,962.605 1336.53,970.275C1338.72,970.787 1338.72,970.791 1340.91,971.337L1339.64,976.19ZM1327.98,988.761C1318.79,986.641 1302.4,983.224 1283.36,980.931C1239.48,975.647 1207.48,980.319 1198.45,996.508C1177.11,1034.76 1166.71,1091.75 1180.19,1113.14C1180.21,1113.18 1183.47,1119.06 1190.65,1121.28C1208.41,1126.79 1235.74,1099.92 1262.71,1075.36C1288.1,1052.23 1315.95,1008.57 1327.98,988.761Z"/>
        </g>
        <g>
            <path d="M1331.11,1731.98C1331.11,1731.98 1287.37,1796.39 1275.36,1809.85C1263.34,1823.31 1266.7,1837.25 1295.54,1854.07C1324.38,1870.89 1343.12,1871.37 1383.98,1847.82C1424.83,1824.27 1477.7,1772.84 1477.7,1772.84L1331.11,1731.98Z" style="fill:rgb(253,205,201);"/>
            <path d="M1383.98,1847.82L1290.95,1789.52C1284.39,1798.56 1278.67,1806.14 1275.36,1809.85C1263.34,1823.31 1266.7,1837.25 1295.54,1854.07C1324.38,1870.89 1343.12,1871.37 1383.98,1847.82Z" style="fill:rgb(125,109,96);stroke:black;stroke-width:10px;"/>
            <path d="M1331.11,1731.98C1331.11,1731.98 1287.37,1796.39 1275.36,1809.85C1263.34,1823.31 1266.7,1837.25 1295.54,1854.07C1324.38,1870.89 1343.12,1871.37 1383.98,1847.82C1424.83,1824.27 1477.7,1772.84 1477.7,1772.84L1331.11,1731.98Z" style="fill:none;stroke:black;stroke-width:20px;"/>
        </g>
        <path d="M2807.45,1205.87C2807.45,1205.92 2807.45,1205.96 2807.44,1205.98C2807.53,1204.44 2807.55,1204.5 2807.45,1205.87ZM2703.67,1354.62C2698.49,1357.23 2692.68,1359.78 2686.15,1362.23C2668.88,1368.73 2648.46,1373.31 2637.46,1374.99C2635.3,1375.32 2635.27,1375.36 2633.15,1374.81C2632.57,1374.66 2629.21,1373.79 2627.13,1370.28C2624.98,1366.67 2625.88,1363.2 2626.04,1362.6C2627.06,1358.66 2630.05,1356.89 2630.56,1356.58C2632.93,1355.17 2633.05,1355.45 2635.78,1355.02C2645.87,1353.43 2663.51,1349.71 2680.62,1343.43C2659.64,1326.43 2653.41,1296.22 2660.29,1274.07C2665.46,1257.42 2675.79,1252.25 2678.61,1250.69C2711.36,1232.62 2749.25,1251.63 2745.51,1304.55C2744.84,1314.02 2741.08,1328.29 2723.21,1342.41C2726.28,1342.34 2729.44,1342.06 2732.66,1341.58C2744.59,1339.82 2775.55,1332.04 2795.42,1268.37C2804.53,1239.2 2807.05,1211.49 2807.45,1205.87C2807.49,1205.56 2807.61,1204.75 2807.94,1204.06C2808.07,1203.79 2808.83,1202.24 2810.74,1201.56C2811.68,1201.22 2811.69,1201.22 2812.68,1201.27C2814.73,1201.37 2815.92,1202.69 2816.12,1202.91C2816.55,1203.39 2816.89,1203.95 2817.11,1204.55C2817.51,1205.69 2817.44,1205.72 2817.38,1206.93C2817.21,1210.18 2815.09,1248.3 2802.12,1284.84C2779.25,1349.3 2742.36,1354.78 2727.28,1356.1C2718.56,1356.86 2710.7,1356.28 2703.67,1354.62ZM2696.67,1336.58C2712.82,1328.51 2725.79,1317.66 2727.18,1303.58C2729.85,1276.62 2718.9,1259.07 2699.2,1261.2C2692.26,1261.96 2684.99,1265.62 2682.26,1268.05C2669.4,1279.52 2668.8,1316.73 2692.5,1333.93C2693.83,1334.9 2695.22,1335.78 2696.67,1336.58ZM2807.44,1205.98C2807.44,1206 2807.44,1205.99 2807.44,1205.98Z"/>
        <g transform="matrix(5.69546,1.11022e-16,-1.11022e-16,5.69546,974.005,337.454)">
            <path d="M131.117,89.879C185.531,86.77 248.162,99.987 269.181,130.375C313.023,193.761 275.472,217.126 266.821,223.462L271.537,238.311C271.537,238.311 265.764,244.362 261.944,245.3C258.124,246.238 242.004,234.757 242.004,234.757C242.004,234.757 208.051,248.807 173.467,253.775C173.467,253.775 158.643,269.387 153.437,273.258C148.231,277.128 144.966,275.216 140.318,273.441C135.67,271.666 136.697,267.931 138.431,262.867C140.164,257.804 139.668,255.617 139.668,255.617C139.668,255.617 99.416,256.674 75.241,253.035C61.678,250.994 32.182,247.571 26.695,221.994C24.616,212.305 25.02,202.755 31.64,191.505C38.323,180.149 39.327,173.475 38.805,162.697C38.284,151.92 48.779,94.584 131.117,89.879Z" style="fill:rgb(253,205,201);"/>
        </g>
        <g transform="matrix(5.59681,-1.05545,1.05545,5.59681,718.392,467.826)">
            <path d="M154.642,277.698C157.284,277.888 150.681,280.658 149.394,281.43C143.831,284.768 140.772,282.543 136.322,280.318C131.872,278.093 133.262,274.477 135.487,269.61C135.487,269.61 149.023,277.295 154.642,277.698Z" style="fill:rgb(125,109,96);stroke:black;stroke-width:1.76px;"/>
        </g>
        <g transform="matrix(5.67874,-0.436005,0.436005,5.67874,867.843,344.396)">
            <path d="M268.609,250.008L270.367,258.314C270.367,258.314 264.026,263.765 260.132,264.322C258.469,264.559 254.799,262.322 251.138,259.681C251.138,259.681 262.601,253.649 268.609,250.008Z" style="fill:rgb(125,109,96);stroke:black;stroke-width:1.76px;"/>
        </g>
        <g transform="matrix(0.365069,-0.93098,0.93098,0.365069,-584.047,2763.72)">
            <path d="M1811.68,1825.45C1812.16,1826.98 1812.13,1827.06 1811.39,1828.48C1810.92,1829.4 1809.89,1829.92 1809.05,1830.52C1808.97,1830.59 1792.8,1838.16 1775.76,1844.08C1764.31,1848.06 1759.84,1849.07 1757.51,1849.56C1756.88,1849.69 1753.3,1850.45 1749.74,1847.95C1748.69,1847.22 1747.76,1846.27 1747.08,1845.19C1744.81,1841.65 1745.59,1838.15 1745.73,1837.55C1745.86,1836.96 1746.62,1833.57 1750.06,1831.38C1752.43,1829.86 1752.56,1830.11 1755.35,1829.69C1759.96,1828.99 1782.97,1827.05 1806.6,1822.81C1808.16,1822.53 1808.24,1822.27 1809.65,1823C1811.14,1823.77 1811.17,1823.86 1811.68,1825.45Z"/>
        </g>
        <path d="M1954.73,1775.77C1955.2,1775.35 1957.82,1772.86 1959.96,1770.42C1968.69,1760.49 1976.03,1748.89 1982.96,1735.83C1983.71,1734.42 1983.94,1734.31 1984.08,1734.24C1984.09,1734.23 1986.05,1734.14 1986.06,1734.15C1986.5,1734.53 1987.11,1734.79 1987.37,1735.31C1987.65,1735.85 1987.56,1736.52 1987.57,1737.13C1987.57,1737.17 1986.85,1741.86 1986.31,1744.73C1983.33,1760.45 1979.86,1770.29 1976.37,1777.93C1976.14,1778.43 1973.9,1783.08 1971.85,1786.1C1971.56,1786.52 1970.32,1788.43 1968.58,1790.18C1965.66,1793.12 1961.97,1793.02 1961.35,1793.01C1960.07,1792.97 1958.77,1792.7 1957.6,1792.18C1951.73,1789.59 1951.88,1783.92 1951.9,1783.06C1951.93,1781.76 1952.18,1780.45 1952.65,1779.24C1952.66,1779.23 1954.45,1776.21 1954.69,1775.8C1954.7,1775.79 1954.7,1775.79 1954.71,1775.78C1954.71,1775.77 1954.72,1775.76 1954.73,1775.77Z"/>
        <path d="M2327.46,1640.28C2328.76,1639.37 2328.82,1639.22 2330.38,1639.5C2330.69,1639.56 2330.75,1639.57 2333.29,1642.1C2350.11,1658.8 2358.48,1666.03 2362.18,1669.85C2365.34,1673.1 2365.13,1676.82 2365.1,1677.48C2365.03,1678.75 2364.71,1680.04 2364.16,1681.2C2362.34,1684.99 2358.96,1686.17 2358.37,1686.37C2357.8,1686.57 2354.52,1687.71 2350.85,1685.95C2348.5,1684.83 2348.55,1684.7 2346.92,1682.66C2345.67,1681.1 2344.32,1678.97 2342.11,1675.4C2341.24,1673.98 2337.44,1667.35 2334.4,1661.35C2329.64,1651.94 2326.84,1645.73 2326.66,1645.32C2325.09,1641.93 2327.13,1640.51 2327.46,1640.28Z"/>
        <path d="M2467.28,1570.41C2468,1569.79 2468.02,1569.79 2468.93,1569.5C2469.51,1569.32 2470.17,1569.13 2470.77,1569.3C2473.23,1569.98 2473.21,1570.11 2475.1,1571.83C2490.81,1586.16 2499.52,1599.78 2502.4,1605.77C2503.24,1607.5 2503.67,1608.6 2503.68,1608.63C2503.86,1609.94 2504.29,1611.24 2504.21,1612.55C2504.18,1613.15 2503.97,1616.62 2500.94,1619.34C2497.81,1622.14 2494.24,1621.93 2493.62,1621.89C2489.57,1621.65 2487.24,1619.07 2486.84,1618.62C2484.78,1616.33 2485.16,1616.08 2484.13,1613.18C2482.89,1609.68 2478.35,1595.33 2466.75,1577.25C2466.23,1576.44 2466.09,1576.52 2465.77,1575.61C2465.13,1573.76 2465.92,1572.23 2466.05,1571.97C2466.51,1571.08 2466.52,1571.07 2467.28,1570.41Z"/>
        <g transform="matrix(0.988679,-0.150048,0.150048,0.988679,-333.665,-1208)">
            <path d="M1020.98,3003.41C1020.98,3003.41 1073.11,3085.37 1178.15,3122.03C1426.8,3208.8 1706.55,3272.64 2003.71,3209.51C2459.29,3112.72 2470.97,3114.39 2534.39,3049.3C2534.39,3049.3 2484.78,3154.11 2374.77,3210.71L2390.79,3295.09L2316.45,3328.2L2223.11,3254.5C2223.11,3254.5 2039.41,3300.43 1823.66,3300.43L1665.21,3402.18L1600.81,3370.48L1630.91,3281.59L1319.87,3231.01C1319.87,3231.01 1234.12,3295.05 1184.78,3288.4C1135.43,3281.75 1124.23,3240.81 1138.93,3220.16C1153.63,3199.51 1173.23,3183.76 1173.23,3183.76C1173.23,3183.76 1029.46,3113.71 1020.98,3003.41Z" style="fill-opacity:0.15;"/>
        </g>
        <g transform="matrix(5.69546,0,0,5.69546,974.005,337.454)">
            <path d="M129.838,90.827C184.252,87.717 245.493,98.021 269.181,130.375C314.709,192.561 275.472,217.126 266.821,223.462L271.537,238.311C271.537,238.311 265.764,244.362 261.944,245.3C258.124,246.238 242.004,234.757 242.004,234.757C242.004,234.757 208.051,248.807 173.467,253.775C173.467,253.775 158.643,269.387 153.437,273.258C148.231,277.128 144.966,275.216 140.318,273.441C135.67,271.666 136.697,267.931 138.431,262.867C140.164,257.804 139.668,255.617 139.668,255.617C139.668,255.617 99.416,256.674 75.241,253.035C61.678,250.994 32.182,247.571 26.695,221.994C24.616,212.305 25.02,202.755 31.64,191.505C38.323,180.149 39.327,173.475 38.805,162.697C38.284,151.92 47.5,95.531 129.838,90.827Z" style="fill:none;stroke:black;stroke-width:3.51px;"/>
        </g>
        <g id="Snout" transform="matrix(0.996979,-0.0776748,0.0776748,0.996979,-157.042,42.1309)">
            <g transform="matrix(0.997347,-0.0727991,0.0727991,0.997347,-78.9856,-1260.07)">
                <path d="M1457.32,2985.51C1457.32,2985.51 1462.42,3034.89 1441.49,3080.18C1424.89,3116.09 1398.93,3156.53 1213.02,3100.33C1133.21,3076.2 1115.34,3011.89 1115.34,3011.89C1182.69,2975.54 1457.32,2985.51 1457.32,2985.51Z" style="fill-opacity:0.15;"/>
            </g>
            <path d="M1411.83,1496.29C1518.24,1505.15 1593.66,1532.34 1588.05,1628.46C1582.44,1724.58 1519.64,1756.14 1389.56,1733.72C1259.47,1711.29 1242.17,1652.97 1246.01,1606.19C1249.86,1559.41 1269.4,1484.43 1411.83,1496.29Z" style="fill:rgb(227,137,129);stroke:black;stroke-width:10px;"/>
            <g transform="matrix(0.990631,0.136565,-0.136565,0.990631,543.831,-1502.01)">
                <ellipse cx="1199.75" cy="2966.63" rx="26.06" ry="50.411" style="fill:rgb(86,63,66);stroke:black;stroke-width:5px;"/>
            </g>
            <g transform="matrix(1.23119,0.236368,-0.216269,1.1265,647.963,-2003.56)">
                <ellipse cx="1199.75" cy="2966.63" rx="26.06" ry="50.411" style="fill:rgb(86,63,66);stroke:black;stroke-width:4.16px;"/>
            </g>
        </g>
        <g transform="matrix(0.97971,-0.200423,0.200423,0.97971,-190.947,285.477)">
            <g transform="matrix(1.60857,0.150703,-0.152112,1.23447,-642.296,-592.776)">
                <g transform="matrix(0.991056,0.133445,-0.133445,0.991056,192.399,-168.088)">
                    <ellipse cx="1317.13" cy="1395.53" rx="25.633" ry="52.227"/>
                </g>
                <g transform="matrix(0.283492,0.0381718,-0.0381718,0.283492,983.858,923.055)">
                    <ellipse cx="1317.13" cy="1395.53" rx="25.633" ry="52.227" style="fill:white;"/>
                </g>
            </g>
            <g transform="matrix(1.38469,2.77556e-17,-2.08167e-17,1.20396,-693.369,-342.795)">
                <path d="M1599.35,1434.64C1606.67,1438.09 1614.67,1439.36 1621.99,1442.8C1622.64,1443.11 1680.48,1478.87 1680.6,1479.04C1681,1479.58 1681.6,1480 1681.8,1480.68C1681.8,1480.69 1681.69,1482.76 1681.69,1482.77C1681.23,1483.21 1680.88,1483.89 1680.31,1484.11C1679.08,1484.57 1679.04,1484.31 1677.87,1483.69C1661.51,1475.11 1632.47,1459.85 1599.65,1442.09C1598.15,1441.28 1596.65,1440.47 1595.16,1439.63C1592.58,1438.17 1592.32,1435.41 1592.28,1434.95C1592.03,1432.26 1593.4,1430.55 1593.64,1430.26C1594.57,1429.1 1595.69,1428.69 1595.89,1428.62C1624.21,1418.23 1663.08,1406.46 1668.96,1404.68C1672.71,1403.55 1691.51,1397.86 1715.87,1390.74C1716.81,1390.47 1716.86,1390.48 1717.72,1391.01C1717.73,1391.02 1718.87,1392.6 1718.87,1392.61C1718.81,1393.3 1718.95,1394.06 1718.67,1394.66C1718.08,1395.93 1717.91,1395.79 1716.73,1396.26C1694.09,1405.25 1694.1,1405.28 1671.4,1414.07C1667.36,1415.64 1643.84,1424.75 1620.66,1432.92C1618.34,1433.73 1616.12,1435.14 1613.7,1435.34C1608.92,1435.73 1604.13,1434.26 1599.35,1434.64Z"/>
            </g>
            <g transform="matrix(1.3003,0.0153804,0.0153804,1.00079,-478.567,-41.6219)">
                <path d="M1266.93,1210.79C1266.33,1209.6 1266.32,1209.52 1266.56,1208.1C1266.86,1206.28 1267.09,1206.38 1268.28,1205.33C1275.77,1198.74 1300.97,1177.3 1348.02,1168.82C1363.11,1166.1 1374.22,1166.08 1374.34,1166.12C1374.83,1166.25 1375.36,1166.27 1375.81,1166.53C1377.24,1167.33 1377.7,1168.94 1377.79,1169.22C1378.35,1171.17 1377.78,1172.81 1377.67,1173.1C1377.02,1174.96 1375.77,1175.62 1375.55,1175.73C1374.53,1176.27 1374.5,1176.11 1373.41,1176.11C1371.97,1176.11 1355,1176.17 1333.86,1181.17C1297.63,1189.75 1277.77,1205.79 1270.75,1211.73C1269.81,1212.53 1269.76,1212.56 1268.67,1212.29C1267.58,1212.03 1267.53,1211.99 1266.93,1210.79Z"/>
            </g>
        </g>
    </g>
    <g id="Extra-tummy" serif:id="Extra tummy" transform="matrix(0.988679,0.150048,-0.150048,0.988679,-828.621,-48.4842)">
        <g transform="matrix(0.988679,-0.150048,0.150048,0.988679,-364.8,-1101.36)">
            <path d="M1441.25,2279.05C1441.25,2279.05 1405.61,2418.84 1623.32,2414.44C1805.77,2410.75 1913.05,2399.93 1931.74,2379.9C1950.43,2359.88 1937.13,2455.43 1958.5,2467.44C1979.86,2479.46 1952.47,2515.32 2030.4,2443.92C2045.67,2429.92 2104.78,2473.37 2125.47,2480.14C2207.38,2506.95 2346.47,2497.76 2367.83,2476.49C2374.65,2469.69 2209.24,2405.74 2220.59,2411.75C2265.98,2435.78 1780.35,2197.61 1441.25,2279.05Z" style="fill-opacity:0.15;"/>
        </g>
        <g transform="matrix(0.988679,-0.150048,0.150048,0.988679,-388.539,-1160.95)">
            <path d="M1459.8,2263.43C1459.8,2263.43 1447.19,2279.94 1480.78,2328.74C1487.17,2338.01 1464.25,2359.77 1486.85,2377.52C1513.27,2398.28 1587.41,2414.72 1623.38,2416.88C1719.97,2422.66 1798.31,2416.65 1869.78,2426.2C1968.39,2439.39 2050.82,2470.63 2122.16,2498.87C2245.19,2547.57 2324.26,2515.9 2324.26,2515.9L2363.54,2392.57C2363.54,2392.57 1626.81,2219.9 1459.8,2263.43Z" style="fill:rgb(255,253,246);"/>
        </g>
        <g transform="matrix(0.988679,-0.150048,0.150048,0.988679,-370.293,-1164.63)">
            <path d="M2051.41,2395.86C2051.41,2395.86 2171.67,2455.46 2331.59,2418.29L2274.98,2526.92C2274.98,2526.92 2061.94,2527.23 2001.07,2459.94L2051.41,2395.86Z" style="fill-opacity:0.15;"/>
        </g>
        <g transform="matrix(0.988679,-0.150048,0.150048,0.988679,-388.539,-1160.95)">
            <path d="M1461.13,2260.1C1461.13,2260.1 1530.16,2374.39 1695.52,2363.54C1883.64,2351.19 1990.06,2363.64 1990.06,2363.64L1969.15,2442.38C1969.15,2442.38 1747.56,2419.53 1672.65,2421.6C1604.84,2423.48 1519.98,2406.51 1485.06,2374.07C1471.93,2361.88 1483.11,2330.7 1476.36,2317.17C1469.01,2302.43 1459.75,2274.05 1461.13,2260.1Z" style="fill-opacity:0.15;"/>
        </g>
        <g transform="matrix(0.988679,-0.150048,0.150048,0.988679,-388.539,-1160.95)">
            <path d="M1455.78,2259.07C1455.78,2259.07 1466.5,2297.64 1481.82,2324.48C1448.43,2354.05 1511.21,2396.11 1539.22,2406.63C1590.76,2425.99 1649.43,2430.12 1732.51,2422.55C1873.94,2409.67 1975.09,2446.16 2098.12,2494.86C2221.16,2543.57 2324.26,2520.71 2324.26,2520.71" style="fill:none;stroke:black;stroke-width:20px;"/>
        </g>
        <g transform="matrix(0.988679,-0.150048,0.150048,0.988679,-325.096,-1209.85)">
            <path d="M1460.09,2375.68C1460.03,2376.4 1460,2376.43 1459.44,2376.9C1459.32,2377.01 1458.99,2377.29 1457.48,2377.42C1438.46,2379 1416.77,2372.55 1405.09,2366.68C1404.89,2366.58 1404.25,2366.26 1402.66,2365.29C1401.11,2364.33 1400.04,2362.74 1399.86,2362.48C1399.53,2361.98 1397.6,2359.09 1398.38,2355.09C1399.18,2350.96 1402.16,2348.97 1402.67,2348.62C1406.06,2346.36 1409.47,2347.02 1410.06,2347.14C1412.7,2347.65 1412.64,2347.89 1414.85,2349.43C1418.23,2351.78 1433.92,2364.83 1451.14,2371.32C1456.18,2373.22 1458.22,2373.6 1458.41,2373.7C1459.73,2374.33 1460.2,2374.22 1460.09,2375.68Z"/>
        </g>
    </g>
    <g id="Vest---Right" serif:id="Vest - Right" transform="matrix(-3.60364,-0.307771,-0.307771,3.60364,1786.43,-427.065)">
        <path id="Frame" d="M139.953,314.314C139.953,314.314 170.004,335.375 187.876,340.992C205.749,346.609 222.344,357.333 215.451,384.907C215.451,384.907 231.281,399.716 216.983,429.333C216.983,429.333 235.578,449.236 217.45,466.853C199.322,484.47 55.915,437.585 53.127,429.004C53.127,429.004 49.195,401.671 68.898,384.738C68.898,384.738 77.385,353.914 106.409,348.276C106.409,348.276 109.851,335.384 115.652,326.244C121.979,316.276 134.249,310.404 139.953,314.314Z" style="fill:rgb(30,171,224);"/>
        <g transform="matrix(0.717549,0.0857013,-0.0857013,0.717549,-430.644,-140.581)">
            <path d="M858.704,671.363C858.704,671.363 904.073,692.689 984.432,678.13C984.432,678.13 999.823,702.532 997.241,714.631C997.241,714.631 994.455,698.841 978.87,695.765C963.286,692.689 899.512,699.866 858.704,671.363Z" style="fill:white;fill-opacity:0.3;"/>
        </g>
        <g transform="matrix(0.717549,0.0857013,-0.0857013,0.717549,-430.644,-140.581)">
            <path d="M866.08,535.678C866.08,535.678 868.964,546.636 894.533,558.555C908.205,564.929 931.317,568.507 948.122,578.008C962.744,586.276 971.913,600.662 974.507,604.598C974.759,596.94 972.653,589.282 967.778,581.625C967.778,581.625 962.588,571.436 948.938,566.053C935.289,560.67 922.985,560.093 912.411,556.056C901.838,552.019 866.08,535.678 866.08,535.678Z" style="fill:white;fill-opacity:0.3;"/>
        </g>
        <g transform="matrix(0.717549,0.0857013,-0.0857013,0.717549,-430.644,-140.581)">
            <path d="M821.847,568.755C821.847,568.755 839.554,582.598 867.304,589.961L864.515,602.92L818.402,584.175L821.847,568.755Z" style="fill-opacity:0.3;"/>
        </g>
        <path d="M106.535,348.732C106.535,348.732 163.424,386.786 215.369,384.009" style="fill:none;stroke:black;stroke-width:2.76px;"/>
        <path d="M69.23,384.646C69.23,384.646 139.262,437.197 217.312,429.844" style="fill:none;stroke:black;stroke-width:2.76px;"/>
        <g transform="matrix(0.717549,0.0857013,-0.0857013,0.717549,-430.644,-140.581)">
            <path d="M774.209,639.605L776.1,627.684C779.945,624.095 852.386,671.284 918.945,669.429C971.561,667.963 975.444,658.75 982.409,663.667C987.987,667.604 983.924,676.955 983.924,676.955C983.924,676.955 945.006,685.321 904.321,681.384C864.296,677.511 807.303,661.312 774.209,639.605Z" style="fill-opacity:0.3;"/>
        </g>
        <g transform="matrix(0.717549,0.0857013,-0.0857013,0.717549,-430.644,-140.581)">
            <path d="M762.543,706.527C762.543,706.527 757.859,703.298 756.584,698.044C755.685,694.341 753.871,676.96 765.624,685.13C780.918,695.761 919.072,734.353 950.087,733.071C981.103,731.79 995.241,736.916 985.352,741.786C975.464,746.656 963.987,750.471 910.834,742.869C858.571,735.395 762.543,706.527 762.543,706.527Z" style="fill-opacity:0.3;"/>
        </g>
        <path id="Frame1" serif:id="Frame" d="M139.953,314.314C139.953,314.314 170.004,335.375 187.876,340.992C205.749,346.609 222.344,357.333 215.451,384.907C215.451,384.907 231.281,399.716 216.983,429.333C216.983,429.333 235.991,449.727 217.863,467.344C199.735,484.961 55.915,437.585 53.127,429.004C53.127,429.004 49.195,401.671 68.898,384.738C68.898,384.738 77.385,353.914 106.409,348.276C106.409,348.276 109.851,335.384 115.652,326.244C121.979,316.276 134.249,310.404 139.953,314.314Z" style="fill:none;stroke:black;stroke-width:5.53px;"/>
        <g transform="matrix(-0.272161,-0.0487406,-0.0487406,0.272161,828.687,-117.267)">
            <path d="M1941.62,2188.06C1941.62,2188.06 1916.01,2093.05 2033.56,2072.84C2100.85,2061.26 2184.62,2084.63 2174.03,2155.84C2174.03,2155.84 2210.54,2251.05 2108.94,2281.57C1971.24,2322.94 1919.74,2246.02 1941.62,2188.06Z" style="fill:rgb(68,69,69);"/>
            <path d="M1935.86,2188.08C1934.01,2183.36 1933.59,2181.16 1933.32,2179.99C1932.56,2176.66 1932.13,2174.02 1931.95,2172.89C1931.95,2172.87 1931.49,2166.88 1932.02,2159.17C1935.02,2115.73 1963.73,2076.45 2034.8,2065.32C2098.41,2055.36 2172.81,2075.43 2180.93,2133.22C2182.3,2142.95 2181.39,2151.26 2180.86,2155.18C2189.72,2181.76 2199.02,2248.7 2130.52,2280.12C2127.03,2281.72 2117.13,2286.36 2094.67,2291.83C1964.29,2323.58 1915.11,2246.57 1935.86,2188.08ZM1946.83,2186.69C1946.85,2187.24 1946.99,2187.78 1947,2188.33C1947.04,2189.61 1945.69,2191.79 1944.12,2198.29C1932.39,2247.07 1974.68,2305.18 2082.13,2282.17C2084.17,2281.73 2103.59,2277.55 2117.98,2271.91C2135.88,2264.9 2173.16,2246.34 2173.85,2195.78C2174.11,2176.72 2168.92,2161.46 2168.2,2159.33C2167.34,2156.78 2167.18,2156.75 2167.55,2154.09C2174.6,2102.21 2126.52,2081.53 2083.15,2077.81C2049.65,2074.94 2014.03,2081.59 1989.97,2094.54C1979.03,2100.43 1949.27,2118.31 1946.89,2161.17C1946.56,2167.2 1946.91,2171.74 1946.91,2171.94C1946.9,2172.42 1946.62,2175.6 1946.78,2180.78C1946.8,2181.25 1946.68,2181.25 1946.83,2186.69Z"/>
        </g>
    </g>
    <g id="Flipper---Right" serif:id="Flipper - Right" transform="matrix(-2.03769,1.17643,-1.17643,-2.03769,6476,474.898)">
        <g id="Flipper---Colour1" serif:id="Flipper - Colour" transform="matrix(-0.0019325,0.999998,0.999998,0.0019325,1030.81,-643.464)">
            <path d="M1628.34,1000.23C1610.6,1011.71 1586.09,1030.19 1568.46,1053.83C1537.67,1095.13 1499.37,1159.72 1521.9,1176.24C1544.43,1192.76 1606.31,1147.73 1634.85,1115.43C1650.98,1097.18 1665.19,1074.13 1674.5,1057.54" style="fill:rgb(68,69,69);"/>
        </g>
        <g id="Flipper---Frame1" serif:id="Flipper - Frame" transform="matrix(-0.0019325,0.999998,0.999998,0.0019325,1030.81,-643.464)">
            <path d="M1673.04,1060.54C1672.89,1060.46 1672.06,1059.98 1670.96,1060.27C1670.62,1060.36 1670.29,1060.52 1670.01,1060.73C1669.73,1060.95 1669.51,1061.25 1669.29,1061.55C1669.29,1061.55 1668.91,1062.2 1668.42,1063.05C1668.42,1063.06 1664,1070.22 1657.45,1079.64C1657.37,1079.76 1650.75,1089.6 1642.2,1100.4C1638.07,1105.61 1635.27,1108.85 1634.65,1109.57C1633.4,1111.02 1621.67,1125.46 1599.4,1142.99C1573.56,1163.32 1545.87,1177.93 1530.31,1175.21C1522.93,1173.92 1521.04,1168.81 1520.66,1167.9C1516.07,1156.7 1523.42,1131.5 1546.54,1093.69C1556.67,1077.14 1566.13,1064.19 1570.77,1057.8C1574.03,1053.33 1582.63,1041.57 1598.08,1027.44C1608.98,1017.46 1617.5,1011.11 1623.74,1006.59C1623.87,1006.49 1624.65,1005.92 1624.86,1004.8C1624.93,1004.46 1624.93,1004.1 1624.86,1003.76C1624.83,1003.59 1624.64,1002.65 1623.69,1002.04C1622.76,1001.44 1621.82,1001.62 1621.66,1001.65C1621.3,1001.72 1620.97,1001.9 1620.64,1002.05C1620.64,1002.05 1617.71,1003.93 1613.93,1006.52C1599.31,1016.53 1590.36,1024.56 1586.14,1028.43C1572.97,1040.55 1566.5,1049.38 1562.12,1055.26C1559.85,1058.32 1556.31,1063.38 1555.81,1064.09C1541.2,1084.96 1510.02,1132.85 1510.89,1161.34C1511,1164.78 1511.6,1176.36 1522.74,1181.66C1528.24,1184.29 1542.21,1188.41 1573.61,1170.73C1596.14,1158.04 1622.63,1136.68 1640.11,1116.27C1644.29,1111.38 1648.33,1105.85 1649.02,1104.91C1650.54,1102.82 1655.54,1096 1662.98,1083.81C1664.67,1081.05 1667.38,1076.28 1667.75,1075.62C1670.9,1070.07 1672.76,1066.5 1673.16,1065.81C1673.23,1065.69 1674.04,1064.3 1674.05,1064.29C1674.16,1063.94 1674.34,1063.62 1674.39,1063.26C1674.41,1063.09 1674.53,1062.15 1673.85,1061.26C1673.51,1060.82 1673.11,1060.59 1673.04,1060.54Z"/>
        </g>
    </g>
    <g id="Pig-Ear" serif:id="Pig Ear" transform="matrix(0.988679,0.150048,-0.150048,0.988679,-894.968,-122.597)">
        <g transform="matrix(0.988679,-0.150048,0.150048,0.988679,-248.38,-1146.54)">
            <path d="M1832.07,2674.37C1832.07,2674.37 1842.57,2715.54 1916.5,2717.29C1990.43,2719.03 2079.24,2686.22 2121.67,2695.41C2164.1,2704.6 2182.04,2669.16 2120.36,2642.04C2058.67,2614.92 1868.38,2657.7 1832.07,2674.37Z" style="fill-opacity:0.15;"/>
        </g>
        <path d="M2130.07,1169.87C2130.07,1169.87 2050.61,1254.79 1994.73,1248.73C1994.73,1248.73 1970.54,1245.37 1965.32,1220.67C1963.71,1213.03 1967.07,1202.34 1969.49,1190.38C1982.94,1123.65 2130.07,1169.87 2130.07,1169.87Z" style="fill:rgb(227,137,129);"/>
        <path d="M2132.69,1172.33L2133.72,1173.29C2116.01,1191.84 2056.94,1247.86 2008.39,1253.17C2007.25,1253.29 2000.6,1254.02 1994.15,1253.24C1991.58,1252.93 1976.96,1249.74 1967.84,1237.21C1962.33,1229.63 1960.72,1221.65 1960.55,1217.67C1960.23,1210.49 1962.24,1203.7 1965.37,1189.1C1973.04,1153.4 2016.1,1143.56 2080.92,1154.6C2108.92,1159.36 2131.13,1166.43 2131.14,1166.44C2131.71,1166.67 2131.73,1166.63 2132.22,1166.99C2133.35,1167.83 2133.9,1169.38 2133.55,1170.75C2133.45,1171.14 2133.38,1171.28 2133.36,1171.32C2133.07,1171.85 2132.98,1171.8 2132.69,1172.33ZM2121.77,1171.24C2081.94,1160.35 1989.65,1142.42 1974.92,1186.52C1973.95,1189.44 1974.12,1189.49 1971.58,1201.07C1968.72,1214.1 1968.7,1217.44 1970.54,1223.19C1975.19,1237.74 1988.41,1243 1995.34,1244.22C2002.7,1244.89 2030.59,1247.34 2085.27,1203.89C2099.24,1192.8 2112.42,1180.65 2121.77,1171.24Z"/>
        <path d="M2123.11,1171.77C2080.72,1160.25 1994.62,1144.92 1976.64,1183.19C1974.63,1187.48 1974.05,1191.25 1973.99,1191.38C1973.74,1191.98 1973.59,1192.64 1973.22,1193.19C1973.05,1193.44 1972.08,1194.88 1970.08,1195.27C1969.78,1195.34 1968.02,1195.68 1966.28,1194.51C1964.59,1193.37 1964.25,1191.66 1964.19,1191.37C1963.95,1190.17 1964.03,1190.15 1964.28,1188.96C1971.89,1153.2 2014.91,1141.97 2085.06,1155.01C2107.03,1159.1 2125.02,1164.39 2130.73,1166.18C2130.8,1166.2 2132.29,1166.53 2133.14,1167.79C2133.73,1168.65 2134.35,1170.63 2132.77,1172.42C2131.84,1173.48 2054.5,1254.15 1998.27,1251.25C1996.38,1251.15 1995.37,1251.04 1994.49,1250.94C1993.6,1250.84 1993.56,1250.82 1993,1250.12C1992.99,1250.1 1992.51,1248.49 1992.52,1248.48C1992.79,1247.98 1992.89,1247.35 1993.33,1246.99C1994.28,1246.24 1994.39,1246.47 1995.59,1246.57C2038.07,1250.33 2096.48,1199.07 2123.11,1171.77Z"/>
        <path d="M1925.05,1050.24C1925.05,1050.24 1962.87,1022.2 2009.81,1024.49C2056.74,1026.78 2126.28,1068.75 2187.56,1080C2248.84,1091.25 2292.09,1106.87 2242.83,1142.91C2193.57,1178.96 2163.57,1184.7 2082.35,1187.59C2001.12,1190.47 1964.12,1222.67 1964.12,1222.67L1898.17,1249.04L1925.05,1050.24Z" style="fill:rgb(253,205,201);"/>
        <path d="M1961.97,1224.54C1961.21,1223.68 1961.21,1223.62 1961.29,1222.48C1961.39,1221.01 1961.65,1221.08 1962.73,1220.07C1969.87,1213.43 1980.76,1207.08 1982.42,1206.1C1982.93,1205.81 1992.4,1200.13 2005.44,1194.75C2012.53,1191.81 2021.02,1189.17 2022.4,1188.75C2034.84,1184.88 2045.26,1182.75 2050.3,1181.77C2055.9,1180.68 2063.87,1179.66 2065.06,1179.51C2076.55,1178.05 2078.38,1178.25 2096.55,1177.02C2103.11,1176.58 2134.99,1175.81 2161.11,1170.55C2184.39,1165.86 2206.1,1157.63 2237.46,1134.45C2251.57,1124.02 2254.98,1117.09 2254.04,1114.31C2252.91,1110.95 2245.57,1104.31 2220.6,1097.5C2201.6,1092.32 2187.29,1090.44 2175.18,1087.63C2133.53,1077.97 2089.58,1056.78 2052.24,1044.2C2050.98,1043.77 2039.06,1039.39 2026.47,1036.17C2006.62,1031.09 1989.63,1031.27 1968.47,1036.08C1943.91,1041.67 1926.77,1052.53 1926.72,1052.54C1926,1052.7 1925.28,1053.08 1924.55,1052.97C1924.53,1052.96 1922.75,1051.92 1922.75,1051.91C1922.59,1051.24 1922.19,1050.56 1922.29,1049.88C1922.51,1048.45 1922.7,1048.5 1923.81,1047.58C1929.36,1042.97 1936.98,1038.3 1938.18,1037.57C1959.03,1024.8 1976.07,1020.73 1977.25,1020.42C1993.05,1016.21 2005.7,1015.79 2013.27,1016C2019.18,1016.17 2026.6,1017.35 2027.75,1017.53C2034.69,1018.64 2042.47,1020.25 2057.24,1024.78C2060.43,1025.76 2068.77,1028.8 2069.77,1029.16C2108.4,1043.23 2150.46,1062.97 2189.38,1070.17C2236.91,1078.95 2267.6,1088.83 2273.36,1109.09C2277.29,1122.94 2266.54,1134.78 2264.25,1137.35C2260.02,1142.09 2254.09,1147.62 2238.33,1158.34C2195.86,1187.25 2164.06,1193.93 2099.21,1196.92C2090.38,1197.32 2074.29,1196.98 2058.32,1198.24C2036.33,1199.98 2022.29,1202.67 2005.69,1207.41C1979.13,1215 1966.07,1224.79 1965.98,1224.83C1964.08,1225.46 1964.09,1225.52 1963.92,1225.51C1962.78,1225.43 1962.73,1225.4 1961.97,1224.54Z"/>
    </g>
    <g id="Feet---Right" serif:id="Feet - Right" transform="matrix(-5.05799,4.4805,2.10917,2.38103,5861.96,-5268.29)">
        <g transform="matrix(-0.112529,0.204188,0.0961207,0.239044,1162.4,-533.825)">
            <path d="M2322.94,2688.9C2322.94,2688.9 2340.33,2726.23 2383.28,2744.77C2426.83,2763.56 2509.8,2770.29 2557.82,2718.16C2557.82,2718.16 2527.35,2667.51 2500,2648.11C2472.66,2628.71 2322.94,2688.9 2322.94,2688.9Z" style="fill-opacity:0.15;"/>
        </g>
        <g transform="matrix(0.699123,0.376258,-0.139597,0.926215,487.891,-480.164)">
            <ellipse cx="1076.46" cy="712.798" rx="23.262" ry="43.833" style="fill:rgb(254,120,62);"/>
        </g>
        <g transform="matrix(0.470746,0,0,1,692.483,-164.096)">
            <path d="M915.146,750.169C915.146,750.169 913.857,754.057 918.69,758.634C921.333,761.138 926.021,764.129 930.279,753.79C935.512,741.083 942.697,717.731 960.024,717.834C967.516,717.879 985.551,718.44 985.945,729.071C985.945,729.071 985.885,719.288 974.254,713.874C962.623,708.461 949.402,706.486 941.953,711.414C921.365,725.032 915.146,750.169 915.146,750.169Z" style="fill:rgb(243,180,87);"/>
        </g>
        <g transform="matrix(0.699123,0.376258,-0.139597,0.926215,487.891,-480.164)">
            <ellipse cx="1076.46" cy="712.798" rx="23.262" ry="43.833" style="fill:none;stroke:black;stroke-width:5.04px;"/>
        </g>
    </g>
    <g id="Durag---From-Front" serif:id="Durag - From Front" transform="matrix(-4.18381,0.0813379,0.0830939,4.27413,1769.64,-608.73)">
        <g id="Head-Dark" serif:id="Head Dark" transform="matrix(1,0,0,1,0.0134493,1.33084)">
            <path d="M128.645,240.059C128.645,240.059 125.373,183.65 183.273,154.719C262.23,115.267 330.999,153.648 342.166,198.979C344.904,210.094 345.135,219.807 344.866,219.656C287.08,187.2 174.026,211.382 128.645,240.059Z" style="fill:rgb(28,115,199);"/>
        </g>
        <g id="Head-Dark1" serif:id="Head Dark" transform="matrix(1,-3.46945e-18,0,1,0.0134493,1.33084)">
            <path d="M130.278,240.028C130.278,240.028 127.034,183.003 180,156.031C260.166,115.208 330.999,153.648 342.166,198.979C344.904,210.094 345.137,219.803 344.866,219.656C288.135,188.929 181.323,210.556 130.278,240.028Z" style="fill:none;stroke:black;stroke-width:4.73px;"/>
        </g>
        <path d="M339.796,194.001C339.91,193.755 339.909,193.741 339.811,193.487C339.679,193.148 339.618,193.185 339.281,193.036C283.178,168.31 171.318,186.484 134.811,213.402C134.26,213.808 132.858,215.032 132.364,215.512C131.737,216.12 131.275,216.604 131.274,216.605C131.206,216.765 131.077,216.913 131.069,217.086C131.069,217.091 131.23,217.555 131.232,217.556C131.385,217.623 131.524,217.747 131.691,217.755C132.031,217.77 132.031,217.728 132.3,217.523C132.866,217.095 134.4,215.979 135.088,215.504C135.526,215.2 135.534,215.212 135.962,214.896C171.791,188.413 282.949,169.886 338.718,194.265C339.055,194.412 339.067,194.482 339.413,194.353C339.672,194.257 339.683,194.248 339.796,194.001Z"/>
        <path d="M224.079,142.544C276.839,134.582 281.838,174.124 282.588,181.828" style="fill:none;stroke:black;stroke-width:1.89px;"/>
        <g transform="matrix(0.278056,0,0,0.278056,-253.869,-221.98)">
            <path d="M1502.59,1537.2C1502.59,1537.2 1624.2,1482.08 1829.21,1469.6" style="fill:none;stroke:black;stroke-width:6.8px;"/>
        </g>
        <path d="M207.944,201.757C207.944,201.757 261.957,191.633 302.102,198.628" style="fill:none;stroke:black;stroke-width:1.89px;"/>
        <g transform="matrix(1,0,0,1,0,-1.45256)">
            <path d="M136.088,233.787C136.088,233.787 177.656,211.281 226.36,205.711" style="fill:none;stroke:black;stroke-width:1.89px;"/>
        </g>
        <g transform="matrix(0.278056,0,0,0.278056,-253.869,-221.98)">
            <path d="M1822.55,1488.52C1822.55,1488.52 1972.46,1475.34 2138.64,1525.09" style="fill:none;stroke:black;stroke-width:6.8px;"/>
        </g>
        <g transform="matrix(0.895572,-0.321733,0.381658,1.01795,-72.8302,42.333)">
            <g transform="matrix(0.00514691,0.161112,-0.108389,-0.0262839,282.817,166.566)">
                <path d="M406.727,2035.97C406.727,2035.97 471.263,2073.52 517.025,2074.69L517.025,2106.37C517.025,2106.37 624.977,2123.97 705.941,2109.89C705.941,2109.89 688.34,1835.32 689.513,1706.25C690.687,1577.17 659.005,1389.43 630.844,1334.28C602.683,1279.13 573.348,1290.87 560.441,1294.39C547.533,1297.91 506.465,1317.86 532.279,1378.87C532.279,1378.87 515.038,1626.57 443.102,1859.96C390.299,2031.28 406.727,2035.97 406.727,2035.97Z" style="fill:rgb(28,115,199);stroke:black;stroke-width:37.78px;"/>
            </g>
            <g transform="matrix(0.00514691,0.161112,-0.108389,-0.0262839,282.817,166.566)">
                <path d="M519.372,2077.04C519.372,2077.04 525.707,2092.84 526.234,2086.51C532.245,2014.27 563.878,1541.36 573.231,1409.09C577.56,1347.85 565.491,1339.72 563.088,1331.91C560.685,1324.1 563.088,1389.58 563.088,1389.58C563.088,1389.58 548.669,1370.36 545.064,1358.34C545.064,1358.34 554.677,1407.61 567.293,1423.23C579.909,1438.85 510.164,2029.39 519.372,2077.04Z" style="stroke:black;stroke-width:13.22px;"/>
            </g>
        </g>
    </g>
</svg>
