<?xml version="1.0" encoding="UTF-8" standalone="no"?>
<!DOCTYPE svg PUBLIC "-//W3C//DTD SVG 1.1//EN" "http://www.w3.org/Graphics/SVG/1.1/DTD/svg11.dtd">
<svg width="100%" height="100%" viewBox="0 0 826 661" version="1.1" xmlns="http://www.w3.org/2000/svg" xmlns:xlink="http://www.w3.org/1999/xlink" xml:space="preserve" xmlns:serif="http://www.serif.com/" style="fill-rule:evenodd;clip-rule:evenodd;stroke-linejoin:round;stroke-miterlimit:2;">
    <g transform="matrix(1,0,0,1,-62.4766,-47.6791)">
        <g>
            <g transform="matrix(0.113171,-0.00580691,0.0081287,0.15842,511.619,286.708)">
                <ellipse cx="1270.4" cy="2247.85" rx="1032.52" ry="130.912" style="fill:rgb(208,208,208);"/>
            </g>
            <g>
                <g transform="matrix(1.0831,0.363846,-0.299235,0.890767,-0.216702,-266.437)">
                    <path d="M828.177,295.108C837.191,295.144 841.244,314.869 840.993,332.409C840.733,350.565 830.036,369.113 821.869,369.077C811.434,369.032 802.336,350.687 802.664,332.486C803.056,310.724 817.742,295.067 828.177,295.108Z" style="fill:rgb(254,120,62);"/>
                    <path d="M828.038,293.63C829.201,293.553 837.349,292.952 841.385,313.598C842.303,318.293 843.92,329.615 842.726,339.241C840.708,355.509 831.07,372.721 821.405,372.254C807.395,371.577 796.351,344.25 802.027,321.649C804.218,312.925 808.502,305.97 813.055,301.287C820.582,293.545 827.023,293.584 828.038,293.63ZM828.164,296.58C826.93,296.644 821.257,296.967 814.665,304.682C806.837,313.844 802.089,328.791 806.491,345.871C809.767,358.58 816.566,366.181 822.053,365.883C828.383,365.538 838.32,348.998 838.836,332.359C839.153,322.144 838.09,311.892 835.569,304.836C832.716,296.847 829.2,296.66 828.165,296.586L828.164,296.58Z"/>
                </g>
                <g transform="matrix(0.999357,0.0358653,-0.0358653,0.999357,12.2409,-24.0905)">
                    <path d="M778.418,346.357C783.24,343.72 783.834,346.35 794.327,339.451C801.808,334.533 810.335,320.108 813.051,311.496C813.121,311.273 811.893,330.081 802.714,341.665C796.589,349.396 787.199,356.006 782.02,354.899C779.034,354.26 776.593,351.918 776.16,351.223C775.42,350.033 776.393,347.466 778.418,346.357Z" style="fill:rgb(243,180,87);"/>
                </g>
            </g>
            <g>
                <g transform="matrix(1.1229,0,0,1.25988,-137.287,-41.6491)">
                    <path d="M876.55,159.805C895.213,159.052 910.481,164.988 910.6,175.053C910.706,183.978 903.15,193.452 879.798,195.753C871.182,196.601 863.515,196.899 857.326,195.888C850.841,194.828 839.564,171.631 842.006,169.828C848.006,165.399 860.762,160.443 876.55,159.805Z" style="fill:rgb(254,120,62);"/>
                    <path d="M876.494,158.704C896.893,157.522 909.158,163.633 912.078,171.316C913.835,175.939 913.378,186.139 900.795,192.67C895.365,195.488 887.287,198.075 871.412,198.743C870.238,198.792 862.288,199.127 856.734,198.044C855.963,197.893 851.804,197.393 845.434,186.079C843.264,182.225 838.502,172.565 839.978,169.428C840.159,169.043 840.221,168.69 842.773,167.169C847.303,164.468 854.024,161.86 862.075,160.265C868.976,158.898 874.38,158.773 876.494,158.704ZM876.606,160.896C874.82,161.023 868.126,161.397 860.093,163.596C850.295,166.279 845.046,169.843 843.655,170.872C843.835,175.257 852.369,191.021 857.307,193.538C857.539,193.656 857.809,193.794 860.596,194.033C867.781,194.652 880.521,193.594 887.24,192.264C906.773,188.398 908.136,178.831 908.357,175.816C908.41,175.089 909.512,168.351 897.471,163.927C888.412,160.598 877.995,160.895 876.606,160.901L876.606,160.896Z"/>
                </g>
                <path d="M830.696,174.233C837.695,174.511 852.396,168.537 863.346,171.644C872.723,174.305 874.247,172.957 874.411,172.112C874.89,169.633 856.636,159.177 830.758,167.925C827.315,169.088 827.681,174.114 830.696,174.233Z" style="fill:rgb(243,180,87);"/>
            </g>
            <path d="M535.217,260.858C534.887,260.911 538.391,294.994 568.848,329.16C626.165,393.46 658.159,363.103 739.432,389.827C739.937,353.29 763.855,333.984 761.869,288.983C759.547,236.353 739.601,213.848 684.731,164.916C676.506,230.716 547.337,254.797 535.217,260.858Z" style="fill:rgb(45,45,47);"/>
            <path d="M534.601,259.627L534.599,259.622C542.518,255.88 581.452,247.494 617.97,230.299C640.683,219.604 677.916,198.381 682.255,165.353C682.269,165.246 682.237,163.437 683.707,162.743C684.442,162.396 685.517,162.413 686.332,163.123C692.908,168.853 700.831,176.086 702.08,177.226C744.779,216.209 762.788,240.108 764.846,289.391C766.729,334.508 743.086,354.187 742.329,389.454C742.328,389.471 742.474,391.033 741.303,392.028C740.11,393.041 738.751,392.636 738.535,392.572C734.69,391.427 716.617,384.813 687.649,380.977C640.349,374.715 611.058,379.987 567.399,330.452C537.678,296.731 533.479,262.528 533.839,260.61C533.902,260.271 534.102,260.025 534.137,259.982C534.337,259.735 534.44,259.681 534.601,259.627ZM535.438,262.222L535.439,262.229L535.548,262.182C535.514,262.194 535.477,262.208 535.438,262.222ZM536.657,261.74C537.543,269.673 544.278,299.098 570.297,327.868C621.466,384.448 651.261,365.834 715.901,380.352C725.035,382.403 732.723,384.688 736.689,385.922C737.822,366.451 744.471,353.527 750.92,335.859C757.711,317.257 760.843,301.493 757.896,275.829C753.148,234.483 733.631,212.407 686.913,170.119C686.682,169.91 686.493,169.74 686.34,169.602C683.11,184.682 671.823,208.771 623.644,231.817C586.703,249.487 545.694,258.176 536.657,261.74Z"/>
            <g>
                <path d="M546.857,255.004C518.826,253.731 495.416,230.937 484.831,210.011C471.596,183.849 469.697,128.844 518.625,95.002C585.882,48.482 652.506,76.057 656.977,131.884C664.464,131.906 673.319,138.163 676.514,144.267C682.523,155.745 680.171,173.371 680.453,172.96C700.052,144.409 728.813,128.77 776.237,144.131C809.72,154.976 833.647,184.416 832.214,226.465C830.859,266.18 809.524,297.943 781.898,321.935C741.506,357.012 684.064,361.424 650.388,355.733C596.02,346.544 550.099,309.412 546.857,255.004Z" style="fill:rgb(245,193,217);"/>
                <path d="M544.961,256.924C538.624,256.493 518.758,253.868 498.849,233.242C483.994,217.85 479.477,203.062 479.468,203.036C469.676,175.387 470.576,124.961 518.014,92.412C585.545,46.078 652.883,73.142 659.436,128.972C659.445,129.053 659.45,129.094 659.477,129.357C668.514,130.674 676.072,137.698 678.774,142.649C682.404,149.301 683.317,157.877 683.437,164.302C699.189,144.698 726.683,124.879 777.497,141.619C817.247,154.715 841.684,192.308 833.354,241.866C826.922,280.126 802.641,307.312 783.556,323.845C743.066,358.92 684.276,364.788 646.139,357.303C619.377,352.05 594.872,340.081 576.651,322.676C549.2,296.453 545.765,267.422 544.961,256.924ZM546.955,252.991L546.955,252.978C547.165,253.041 547.388,253.052 547.597,253.115C547.832,253.186 548.63,253.647 548.836,254.557C549.237,256.329 548.906,277.985 564.399,301.438C585.511,333.4 625.201,352.694 666.036,355.143C674.408,355.646 735.53,359.307 780.877,319.467C817.819,287.012 829.436,252.551 829.584,223.513C829.778,185.435 808.204,157.253 774.836,146.598C730.113,132.318 702.481,146.183 683.194,173.881C682.89,174.318 682.544,175.184 681.156,175.653C680.127,176 677.579,175.424 677.652,172.664C677.678,171.684 679.303,154.919 673.881,145.196C671.215,140.414 663.698,134.77 657.109,134.62C654.093,134.551 654.206,131.567 654.198,131.473C649.5,78.207 585.554,51.963 520.035,97.04C472.338,129.854 473.65,183.773 487.287,209.972C492.954,220.859 502.14,232.188 513.592,240.487C529.395,251.936 542.727,252.75 546.955,252.991Z"/>
                <path d="M607.088,179.391C607.038,162.906 586.905,144.647 575.676,143.454C542.424,139.924 502.696,177.223 529.386,216.708C540.804,233.598 562.262,234.009 574.44,244.11C575.197,244.738 574.538,307.501 629.086,330.063C665.9,345.29 710.659,347.99 757.85,325.595C789.623,310.516 816.363,268.184 819.878,235.678C824.252,195.216 815.695,146.212 727.786,151.77C693.533,153.936 680.643,175.915 680.076,175.687C679.36,175.401 681.897,159.667 676.508,148.334C672.418,139.732 662.631,131.632 654.386,133.287C654.177,125.651 653.14,118.144 649.894,112.786C637.186,91.814 602.594,107.689 601.811,131.032C601.389,143.589 610.601,160.454 626.771,167.475C627.809,167.926 613.376,177.201 607.088,179.391Z" style="fill:rgb(255,252,243);"/>
                <g transform="matrix(0.998294,-0.0583926,0.0583926,0.998294,-10.0677,37.3029)">
                    <path d="M618.047,221.659C611.08,212.019 631.477,208.451 640.734,201.965C651.334,194.539 657.15,182.601 662.941,187.85C668.705,193.076 662.223,208.739 652.53,215.959C643.437,222.732 624.261,230.257 618.047,221.659Z" style="fill-opacity:0.13;"/>
                </g>
            </g>
            <g>
                <g transform="matrix(0.922445,0,0,0.909887,47.4185,22.8741)">
                    <path d="M549.357,259.659C540.694,258.596 536.418,265.061 527.459,267.454C493.17,276.614 479.802,260.323 462.52,253.41C459.564,252.227 427.823,242.584 442.107,291.151C454.471,333.188 495.474,361.6 549.607,349.164C571.356,344.167 590.062,326.8 612.772,331.023" style="fill:rgb(245,193,217);"/>
                    <path d="M550.55,259.806C550.063,260.098 549.702,260.576 549.216,260.869C549.025,260.983 546.218,260.091 541.522,262.275C536.809,264.466 534.155,267.282 527.055,269.238C492.76,278.688 478.223,262.2 461.596,255.812C461.421,255.745 448.538,251.208 443.533,259.563C442.6,261.121 438.245,268.197 445.122,290.758C457.453,331.21 496.571,358.448 549.116,346.976C570.693,342.265 589.454,325.127 612.761,329.512C614.009,329.747 613.944,330.016 614.216,331.276C614.252,331.44 614.435,332.288 612.524,332.484C611.966,332.541 605.376,330.613 594.33,333.614C578.909,337.804 566.272,347.635 548.811,351.655C494.829,364.084 451.762,335.961 439.068,291.44C435.999,280.675 430.604,257.265 445.701,250.653C450.42,248.587 457.892,248.534 464.713,251.55C481.692,259.059 494.263,274.165 527.252,265.847C535.648,263.73 540.219,257.333 549.285,258.421C549.357,258.43 549.452,258.396 549.502,258.45C550.08,259.083 549.97,259.17 550.55,259.806Z"/>
                </g>
                <path d="M482.211,258.171C491.494,283.804 468.128,308.36 466.657,307.521C465.393,306.801 460.353,300.042 456.907,294.094C461.07,289.367 464.872,286.604 478.125,260.26L482.211,258.171Z" style="fill-opacity:0.55;"/>
            </g>
            <g>
                <g transform="matrix(0.982327,-0.187173,0.187173,0.982327,-18.4351,127.333)">
                    <path d="M680.758,172.735C686.851,155.225 693.796,151.853 717.738,133.74C738.61,117.949 749.756,87.925 761.843,97.395C803.33,129.9 753.668,178.504 737.561,212.113" style="fill:rgb(245,193,217);"/>
                    <path d="M737.183,212.902C737.124,212.494 736.832,212.142 736.773,211.733C736.754,211.6 738.383,208.356 738.529,208.065C753.255,178.74 787.974,139.692 770.767,111.251C770.108,110.161 766.808,104.706 760.01,99.517C756.711,96.999 753.221,98.106 744.443,108.53C737.501,116.773 729.48,127.616 718.902,135.275C696.243,151.682 688.248,155.029 681.603,171.678C681.166,172.772 681.211,172.796 681.138,172.867C681.002,173 680.762,172.983 680.626,173.115C680.601,172.927 680.404,172.79 680.379,172.602C680.358,172.444 681.355,169.678 681.446,169.426C686.798,154.582 693.872,150.188 716.574,132.204C735.732,117.027 746.058,89.087 759.829,93.204C761.029,93.563 762.661,94.066 767.375,98.445C787.318,116.97 779.877,139.633 775.208,150.866C766.331,172.22 747.554,194.545 738.547,212.105C738.481,212.234 738.475,212.419 738.35,212.491C737.812,212.806 737.724,212.586 737.183,212.902Z"/>
                </g>
                <path d="M753.614,87.199C753.713,87.208 749.31,82.464 744.17,82.369C741.723,82.324 738.533,84.056 728.455,103.212C723.318,112.975 719.443,117.981 714.327,124.513C728.78,112.553 736.034,99.113 739.124,93.963C743.662,86.4 747.114,86.643 753.614,87.199Z" style="fill:white;fill-opacity:0.95;"/>
            </g>
            <g>
                <path d="M502.988,264.214C518.685,259.708 529.47,263.311 536.34,259.653C571.947,240.693 652.808,235.357 664.915,222.426C682.818,203.306 681.833,176.427 682.135,173.863C683.992,158.126 685.755,150.164 693.888,143.548C726.397,117.105 770.752,131.58 793.605,158.437C808.306,175.714 811.893,186.748 816.34,222.21C819.469,247.161 831.021,264.612 827.655,270.109C825.904,272.966 793.593,316.584 740.087,330.188C704.047,339.351 683.459,360.347 643.573,361.677C618.085,362.528 593.977,350.915 574.979,334.664C548.791,312.262 499.975,283.75 502.988,264.214Z" style="fill:rgb(45,45,47);"/>
                <path d="M502.607,262.885L502.605,262.879C516.223,259.016 524.05,260.75 531.417,259.571C535.628,258.897 535.465,257.772 544.842,253.92C582.3,238.531 649.625,232.277 662.482,221.541C662.811,221.266 668.609,215.787 673.147,205.647C679.921,190.512 679.367,175.636 679.598,173.588C681.681,155.149 683.909,147.937 693.389,140.517C726.535,114.57 771.893,128.235 796.214,156.924C811.621,175.099 814.925,187.18 819.3,221.833C822.625,248.17 834.73,264.271 830.125,271.62C827.891,275.185 795.27,318.732 741.361,332.527C724.635,336.807 715.404,341.452 698.389,349.196C682.805,356.289 665.623,363.478 642.48,363.897C626.892,364.179 601.241,359.685 573.772,336.081C546.557,312.694 498.755,284.778 501.584,264.26C501.746,263.089 502.286,263.07 502.607,262.885ZM504.281,265.305C504.06,269.843 506.19,277.121 521.652,290.876C537.77,305.214 558.615,318.482 576.631,333.622C588.364,343.483 612.854,360.59 643.501,359.484C682.571,358.072 702.534,337.319 739.444,327.689C745.474,326.116 777.999,318.114 810.731,285.329C819.916,276.129 825.104,268.891 825.246,268.457C826.367,265.021 820.121,252.245 816.223,237.187C812.944,224.524 813.315,218.672 810.469,202.646C807.194,184.207 803.187,174.007 790.827,159.756C768.181,133.646 725.702,120.926 695.404,145.768C688.611,151.338 686.617,157.897 684.672,174.137C684.436,176.11 685.219,204.455 666.599,224.018C656.95,234.156 613.226,238.78 573.815,248.489C545.449,255.477 538.479,260.715 535.375,261.806C531.333,263.227 526.881,263.018 520.899,263.165C512.635,263.367 508.278,264.28 504.281,265.305Z"/>
                <path d="M536.877,261.398C533.365,264.015 541.4,302.451 568.838,325.918C561.034,287.895 564.034,266.173 569.852,255.243C585.208,292.753 621.281,340.784 685.666,351.145C668.011,308.183 635.969,281.235 616.237,244.402C691.592,333.112 783.412,309.951 796.825,298.321C760.78,261.154 733.451,266.061 674.653,231.039C726.602,244.66 774.486,243.632 811.998,232.205C761.005,203.055 710.521,190.313 692.932,195.003C723.481,186.732 735.226,195.992 763.951,189.18C776.238,186.266 788.418,166.857 792.185,165.726C761.154,152.962 747.774,163.973 694.354,178.645C736.471,161.395 752.782,140.576 757.994,137.52C698.132,132.41 683.094,159.895 684.321,174.631C684.45,176.188 686.102,197.95 665.457,224.803C661.69,229.703 631.569,236.61 600.926,242.868C575.595,248.041 549.116,252.276 536.877,261.398Z" style="fill:rgb(168,169,171);"/>
                <path d="M569.754,256.461C567.143,262.586 561.273,281.973 569.471,323.95C569.668,324.958 569.907,325.86 569.8,326.211C569.604,326.852 568.784,327.176 568.183,326.68C565.084,324.128 561.723,320.501 561.195,319.931C540.06,297.121 533.082,265.829 535.976,261.287C536,261.248 536.141,261.027 536.348,260.854C536.373,260.832 536.393,260.79 536.426,260.793C536.96,260.836 536.947,260.903 537.482,260.947C537.325,261.96 537.346,261.97 537.284,262.051C535.528,264.37 538.911,285.774 553.406,307.088C558.836,315.073 564.328,320.512 567.233,323.168C566.909,321.506 566.395,318.638 566.333,318.291C560.328,284.78 563.197,263.628 568.604,253.14C568.632,253.087 568.889,252.391 569.574,252.241C570.068,252.133 570.712,252.35 570.985,252.979C573.325,258.37 602.335,334.428 682.895,348.964C669.24,317.857 650.383,297.657 631.776,271.897C626.505,264.6 620.626,255.946 615.446,246.445C615.396,246.352 614.904,245.45 614.844,245.269C614.197,243.334 616.698,241.712 618.201,243.374C621.893,247.455 640.643,270.718 671.222,287.821C682.637,294.205 707.837,306.684 741.657,307.786C765.742,308.57 785.245,303.126 793.448,298.034C776.426,281.185 761.399,273.027 737.07,262.826C717.255,254.517 696.073,246.358 669.109,230.33C668.956,230.239 667.656,229.697 667.422,228.504C667.141,227.068 668.436,225.659 670.037,226.045C672.487,226.637 729.594,242.965 785.817,236.304C796.642,235.021 804.518,233.195 809.203,231.944C777.06,213.179 751.08,202.02 718.531,198.785C704.582,197.398 697.55,196.208 692.517,196.292C691.363,196.423 690.178,196.564 688.962,196.713C687.999,196.832 688.003,196.868 687.652,196.852C685.873,196.772 685.324,194.083 687.454,193.55C689.082,193.143 690.806,192.962 692.815,192.95C716.258,190.45 724.119,191.428 737.284,191.446C743.668,191.455 751.435,191.179 763.787,188.257C773.892,185.867 784.954,170.898 790.47,165.912C777.469,160.387 767.605,158.356 750.02,162.305C736.375,165.37 718.83,171.692 690.518,180.358C689.14,180.78 689.149,180.81 688.86,180.847C687.526,181.017 687.01,179.094 688.305,178.595C696.46,175.452 721.072,166.673 746.76,145.509C750.511,142.418 752.793,140.332 754.429,138.968C749.295,138.579 732.877,137.39 718.978,140.153C700.345,143.856 690.683,153.45 685.828,169.843C685.668,170.382 685.7,170.395 685.653,170.443C685.266,170.833 685.098,170.578 684.712,170.968C684.633,170.616 684.267,170.375 684.187,170.024C684.186,170.016 684.635,168.446 685.01,167.312C692.87,143.508 711.623,133.875 756.188,137.117C756.299,137.125 757.413,137.206 757.572,137.275C758.045,137.478 758.708,138.491 757.481,139.121C754.742,140.528 740.125,156.73 710.341,171.591C711.571,171.192 712.879,170.768 714.271,170.316C755.533,156.91 767.81,152.651 793.936,164.335C794.896,164.764 795.272,166.403 793.748,166.99C790.958,168.063 780.213,183.412 769.475,189.208C767.068,190.508 765.645,191.039 759.336,192.326C740.7,196.127 733.201,193.704 712.143,194.675C714.205,194.894 716.438,195.123 718.865,195.354C748.185,198.148 774.846,207.222 814.056,230.375C814.152,230.432 815.109,230.997 815.237,231.105C816.279,231.984 816.144,233.85 814.56,234.389C812.117,235.221 807.389,236.373 806.76,236.526C789.974,240.619 769.413,242.549 745.923,241.697C720.162,240.762 697.673,236.722 683.643,233.661C714.597,250.421 735.377,256.294 757.174,267.032C771.412,274.045 784.447,282.499 797.972,296.354C798.039,296.422 799.27,297.377 798.97,298.779C798.875,299.224 798.807,299.796 796.328,301.42C783.961,309.516 741.933,320.295 693.784,302.775C663.954,291.921 642.138,273.975 628.232,260.083C634.967,270.327 642.216,279.598 652.259,292.923C665.174,310.058 677.89,327.849 687.019,349.995C687.059,350.091 687.689,351.156 687.069,352.083C686.988,352.204 686.479,352.966 685.393,352.811C681.226,352.215 675.799,350.916 674.972,350.718C658.937,346.88 633.784,337.965 609.259,314.39C585.113,291.179 573.429,265.106 569.754,256.461Z" style="fill:white;"/>
                <path d="M683.603,167.619C683.739,167.761 684.011,167.702 684.147,167.844C684.154,167.851 685.647,171.191 686.531,175.333C691.855,200.294 675.305,227.643 669.903,231.663C657.989,240.529 591.599,250.308 562.876,255.242C553.362,256.877 537.633,259.669 536.606,261.276C536.581,261.315 536.568,261.291 536.067,261.486C536.008,261.299 535.914,261.124 535.855,260.937C535.84,260.891 535.991,260.711 536.009,260.689C538.786,257.272 581.486,250.468 619.816,243.067C649.077,237.417 665.451,233.288 669.532,229.371C675.342,223.794 693.415,193.792 683.5,168.465C683.461,168.364 683.366,168.27 683.379,168.163C683.415,167.866 683.566,167.918 683.603,167.619Z"/>
                <path d="M670.113,343.75C670.322,343.417 670.363,342.996 670.572,342.663C670.574,342.661 671.407,342.21 672.14,341.877C687.201,335.025 721.973,335.59 742.297,329.334C742.775,329.187 742.772,329.161 742.813,329.173C743.628,329.418 743.5,329.695 744.313,329.939C743.969,330.384 743.889,330.996 743.545,331.442C743.466,331.543 740.554,332.363 740.292,332.437C717.218,338.936 683.884,337.485 671.428,343.877C671.374,343.905 671.328,343.968 671.268,343.962C670.68,343.905 670.701,343.807 670.113,343.75Z"/>
            </g>
            <g transform="matrix(0.953222,0,0,0.953222,27.8322,4.08945)">
                <g transform="matrix(0.797153,-0.701919,0.768636,0.872921,21.9063,464.77)">
                    <ellipse cx="634.918" cy="139.749" rx="11.692" ry="10.486"/>
                </g>
                <g transform="matrix(1.10693,0,0,1.12575,-68.1232,-20.0705)">
                    <ellipse cx="637.7" cy="138.124" rx="4.237" ry="4.11" style="fill:white;"/>
                </g>
                <g transform="matrix(0.826087,0,0,0.821642,106.709,32.7663)">
                    <ellipse cx="637.7" cy="138.124" rx="4.237" ry="4.11" style="fill:white;"/>
                </g>
            </g>
            <g transform="matrix(1.13053,0,0,1.13053,-148.768,15.6643)">
                <g transform="matrix(0.797153,-0.701919,0.768636,0.872921,21.9063,464.77)">
                    <ellipse cx="634.918" cy="139.749" rx="11.692" ry="10.486"/>
                </g>
                <g transform="matrix(1.10693,0,0,1.12575,-68.1232,-20.0705)">
                    <ellipse cx="637.7" cy="138.124" rx="4.237" ry="4.11" style="fill:white;"/>
                </g>
                <g transform="matrix(0.826087,0,0,0.821642,106.709,32.7663)">
                    <ellipse cx="637.7" cy="138.124" rx="4.237" ry="4.11" style="fill:white;"/>
                </g>
            </g>
            <g transform="matrix(1,0,0,1,-13.2999,-9.36545)">
                <g transform="matrix(1.06259,-0.863965,0.630863,0.775894,-166.921,584.934)">
                    <path d="M637.536,177.178C645.717,178.492 650.827,196.456 648.455,199.914C646.823,202.293 640.91,199.038 637.294,198.872C632.336,198.644 626.396,201.214 624.102,197.538C621.792,193.835 630.427,176.036 637.536,177.178Z" style="fill:rgb(247,178,82);"/>
                    <path d="M637.505,176.632C638.173,176.735 641.987,177.039 645.804,183.778C649.221,189.809 651.481,199.455 648.2,201.435C645.6,203.003 640.586,200.017 636.592,200.015C631.933,200.013 625.711,202.223 623.467,198.046C621.914,195.154 624.593,188.528 627.234,184.363C632.927,175.384 637.297,176.607 637.505,176.632ZM637.488,177.71C630.53,177 623.224,193.532 624.589,196.763C624.663,196.937 625.106,197.62 625.923,197.999C629.127,199.485 634.34,196.877 639.266,197.996C642.855,198.812 647.329,200.795 648.042,198.873C648.789,196.861 647.806,190.714 645.2,185.404C641.649,178.169 637.785,177.784 637.488,177.712L637.488,177.71Z"/>
                </g>
                <g transform="matrix(0.696833,-0.56658,0.371946,0.457454,114.724,455.737)">
                    <path d="M638.031,174.719C645.023,176.006 651.328,197.668 648.948,201.117C647.111,203.779 643.478,196.896 638.269,197.498C632.173,198.204 626.206,201.128 624.217,198.236C622.588,195.868 632.439,173.69 638.031,174.719Z" style="fill:rgb(157,0,6);"/>
                    <path d="M638.076,174.157C645.123,175.337 651.127,193.233 650.526,199.81C650.307,202.204 649.029,204.646 646.131,202.97C643.569,201.488 641.48,199.065 638.091,199.492C631.882,200.273 625.403,203.038 623.366,199.203C623.244,198.972 621.732,197.196 625.893,188.213C627.807,184.081 630.527,179.509 633.1,176.748C635.963,173.676 637.534,174.033 638.081,174.088L638.076,174.157ZM637.987,175.271L637.984,175.317C637.817,175.323 635.426,174.632 630.972,182.298C628.149,187.158 625.285,194.247 625.095,197.218C627.172,198.93 632.377,196.242 638.174,195.536C643.025,194.945 646.927,200.418 648.071,199.913C648.895,199.549 648.061,190.837 644.237,182.624C642.64,179.193 641.119,177.521 640.797,177.167C639.338,175.563 638.015,175.281 637.987,175.271Z"/>
                </g>
                <g transform="matrix(1,0,0,1,10.3878,6.52943)">
                    <path d="M611.831,176.853C611.831,176.847 618.741,170.418 624.889,175.19C620.661,176.48 615.602,185.214 613.38,185.184C612.79,185.176 611.617,179.747 611.831,176.853Z" style="fill:rgb(250,0,9);"/>
                </g>
            </g>
            <g transform="matrix(0.654005,-0.361701,0.361701,0.654005,132.418,106.571)">
                <g transform="matrix(0.551739,0.0145529,-0.0145529,0.551739,176.681,157.79)">
                    <path d="M323.862,343.419C317.1,340.487 433.236,317.265 473.625,310.534C542.234,299.099 713.513,279.809 779.807,310.534C786.999,313.867 777.635,325.363 782.44,330.168C782.555,330.283 721.553,322.777 647.661,324.065C567.591,325.461 409.337,347.633 322.758,390.228C320.521,391.329 322.394,343.419 323.862,343.419Z" style="fill-opacity:0.39;"/>
                </g>
                <path d="M356.668,307.492C354.598,307.157 360.969,275.003 386.421,242.724C404.708,219.532 430.207,193.339 481.811,192.54C517.959,191.98 542.513,216.744 560.14,236.659C583.16,262.668 595.25,293.622 597.21,297.544C598.782,300.688 356.668,302.411 356.668,307.492Z" style="fill:rgb(245,252,254);"/>
                <path d="M356.043,311.352C355.626,311.234 352.106,310.792 352.437,305.58C352.995,296.798 361.914,268.418 384.196,240.971C401.866,219.204 427.882,191.501 481.782,190.595C516.079,190.019 540.898,210.788 563.299,236.071C583.633,259.02 595.166,284.773 600.34,296.239C600.642,296.909 601.355,300.317 597.173,301.192C582.443,304.274 379.233,306.38 358.985,310.755C358.72,310.95 358.418,311.122 358.078,311.25C357.861,311.331 357.639,311.414 357.409,311.437C356.95,311.482 356.485,311.409 356.026,311.454L356.043,311.352ZM360.638,307.683L360.672,307.685L360.682,307.492C360.665,307.555 360.651,307.619 360.638,307.683ZM360.635,302.373C388.496,298.928 520.096,297.603 575.463,295.718C584.644,295.405 589.576,295.134 592.332,294.923C587.421,283.835 576.769,259.95 557.266,237.539C537.844,215.222 514.935,193.943 481.245,194.494C432.171,195.296 406.807,220.46 388.074,245.231C369.994,269.137 362.421,292.486 360.635,302.373Z"/>
                <path d="M606.037,343.703C605.339,346.108 605.148,355.562 605.565,355.511C612.877,354.618 617.464,347.391 615.319,342.136C611.605,333.039 607.644,330.059 604.63,314.885C602.963,306.496 604.144,298.468 600.763,291.042C595.75,280.033 552.048,271.249 507.484,270.46C485.783,270.075 454.867,270.16 426.846,274.006C396.072,278.23 368.765,286.378 360.395,289.005C347.889,292.929 343.28,304.829 344.221,323.008C344.234,323.253 345.228,321.727 345.789,320.681C346.59,319.189 347.631,317.662 347.484,317.995C347.111,318.841 344.933,322.143 343.39,327.129C340.05,337.919 334.912,351.587 336.38,360.496C337.609,367.955 339.388,371.85 345.922,374.722C346.319,374.896 347.518,367.02 349.621,365.557C365.007,354.851 415.104,339.972 474.596,336.563C542.963,332.645 604.612,339.849 609.451,343.957C609.541,344.032 606.396,342.467 606.037,343.703Z" style="fill:white;"/>
                <path d="M342.973,324.034C342.711,323.701 342.625,323.337 342.616,323.226C342.006,315.825 342.847,310.041 343.012,308.906C345.734,290.189 358.42,287.353 361.549,286.387C401.889,273.938 433.565,270.908 439.938,270.299C470.345,267.39 508.133,267.832 527.299,269.162C560.376,271.457 597.528,278.576 602.762,290.128C606.567,298.526 604.78,305.425 607.217,316.465C610.169,329.831 614.191,333.202 617.44,341.459C619.929,347.783 614.854,356.46 606.037,357.698C604.248,357.949 603.416,356.716 603.247,355.554C603.044,354.152 603.027,348.265 603.614,344.498C586.47,340.492 529.122,336.039 472.018,339.939C423.71,343.238 382.773,353.86 361.909,362.948C358.68,364.355 355.993,365.318 351.508,368.109C349.851,370.3 349.28,375.477 347.858,376.731C346.16,378.228 344.517,377.137 343.529,376.59C337.361,373.174 335.295,368.626 334.396,360.583C333.624,353.688 336.466,345.743 337.823,340.856C338.15,339.68 338.788,337.384 342.221,326.241C342.461,325.46 342.714,324.725 342.973,324.034ZM607.914,345.985C607.864,346.431 607.811,346.988 607.762,347.677C607.702,348.5 607.574,350.75 607.576,352.736C608.871,352.244 610.528,351.316 611.879,349.573C613.53,347.444 614.029,344.939 613.295,343.059C610.321,335.435 605.316,330.484 602.383,314.901C600.836,306.678 601.837,298.522 598.723,291.87C595.349,284.661 567.042,276.183 525.983,273.41C508.415,272.224 463.951,271.266 428.448,275.993C393.567,280.637 361.213,290.895 359.233,291.711C357.7,292.341 351.944,294.54 348.686,302.213C346.471,307.428 345.912,313.193 345.801,317.634C346.391,316.788 346.975,316.298 347.78,316.451C348.374,316.564 349.56,317.358 348.745,318.878C346.932,322.262 346.308,322.695 344.369,328.556C341.949,335.873 340.103,341.11 339.315,344.836C337.374,354.016 337.585,358.679 339.327,364.065C340.541,367.819 342.064,369.547 344.106,370.776C344.797,367.763 345.719,364.503 347.675,363.056C351.367,360.327 356.01,358.013 358.463,356.837C367.253,352.621 400.354,340.404 452.428,335.07C517.593,328.396 603.017,335.664 610.911,341.968C613.03,343.66 611.553,347.053 608.657,346.291C608.465,346.241 608.25,346.117 607.914,345.985Z"/>
                <g>
                    <g transform="matrix(0.551739,0.0145529,-0.0145529,0.551739,176.681,157.79)">
                        <path d="M340.268,228.754C339.369,229.049 336.242,238.81 335.048,244.342C330.244,266.602 345.149,273.009 351.246,292.133C354.279,301.649 337.471,312.006 340.902,334.632C341.952,341.554 346.791,350.684 352.826,349.176C356.234,348.324 364.284,345.969 364.284,345.258C364.284,345.212 351.595,336.435 350.44,326.82C349.746,321.034 359.43,302.331 353.811,287.293C350.844,279.352 344.451,263.706 346.144,243.572C346.525,239.044 354.591,225.821 353.617,225.824C349.954,225.834 344.553,227.346 340.268,228.754Z" style="fill:rgb(45,45,47);fill-opacity:0.24;"/>
                        <path d="M429.204,204.139C426.041,214.072 418.373,219.859 422.136,236.633C427.28,259.568 441.134,265.95 438.221,272.897C420.207,315.858 439.874,325.753 441.516,325.082C444.601,323.821 450.632,324.298 452.857,322.073C453.325,321.605 437.849,312.48 442.316,271.537C443.592,259.842 435.635,262.335 433.184,239.678C431.067,220.109 445.448,203.905 444.437,201.883C443.469,199.948 435.255,203.781 429.204,204.139Z" style="fill-opacity:0.23;"/>
                        <path d="M534.655,190.041C531.277,191.633 529.671,197.484 528.726,206.628C526.597,227.231 539.078,233.988 542.619,248.151C544.627,256.183 539.948,265.004 538.222,272.333C534.252,289.197 543.854,308.678 544.991,308.858C548.674,309.442 559.655,308.23 559.921,307.75C560.488,306.732 550.331,300.131 550.524,287.293C550.807,268.559 550.102,253.908 548.437,248.913C544.615,237.446 540.176,234.326 540.054,219.205C539.931,203.879 546.82,192.262 545.917,191.358C544.894,190.335 533.935,190.761 534.655,190.041Z" style="fill-opacity:0.31;"/>
                        <path d="M628.667,189.738C628.603,188.9 642.833,203.265 645.232,212.829C648.666,226.519 642.342,235.026 644.375,245.19C645.311,249.868 660.028,272.336 659.869,278.669C659.537,291.836 650.097,304.328 650.834,305.064C651.519,305.75 663.691,305.764 663.691,305.727C663.691,304.172 668.318,295.469 665.882,277.649C665.253,273.053 653.506,256.532 651.739,242.639C651.088,237.529 653.651,222.448 653.137,217.311C652.527,211.213 642.937,189.31 641.985,188.834C640.72,188.202 630.564,189.738 628.667,189.738Z" style="fill-opacity:0.3;"/>
                        <path d="M729.063,201.34C728.963,201.324 745.132,202.425 740.663,240.168C738.356,259.66 736.602,267.106 747.705,290.855C752.221,300.517 748.011,308.082 748.028,308.099C748.667,308.738 762.561,310.376 764.055,310.532C766.279,310.766 754.499,284.831 746.105,273.996C739.728,265.763 742.581,260.922 746.897,249.528C749.591,242.414 752.149,232.272 752.74,224.301C753.267,217.185 747.533,204.623 746.682,203.772C745.263,202.352 733.062,201.983 729.063,201.34Z" style="fill-opacity:0.28;"/>
                    </g>
                    <path d="M363.891,289.419L363.933,289.465C363.627,290.012 362.756,291.575 362.197,297.107C361.988,299.171 361.825,303.564 362.364,305.689C363.678,310.872 369.21,319.851 368.909,326.332C368.78,329.1 367.295,329.783 365.041,335.49C362.914,340.873 362.821,345.404 365.367,349.683C366.629,351.804 368.833,353.431 369.19,353.694C369.946,354.252 369.946,355.446 369.946,355.61C369.946,355.634 369.191,357.483 369.18,357.488C368.553,357.746 367.976,358.259 367.297,358.259C365.775,358.259 365.778,358.016 364.881,356.786C360.694,351.044 360.455,345.25 362.266,337.588C363.452,332.569 365.74,327.888 365.851,327.242C366.499,323.479 360.689,313.892 358.952,307.246C358.692,306.25 357.707,302.478 359.933,294.419C360.44,292.587 361.542,289.307 362.622,288.257C362.669,288.211 362.964,287.925 363.327,287.839C363.429,287.815 364.289,287.612 364.436,288.541C364.496,288.921 364.127,289.25 363.891,289.419ZM363.689,289.127C363.694,289.04 363.686,288.982 363.635,289.012L363.689,289.127Z"/>
                    <path d="M415.544,275.251C415.593,275.865 415.803,276.46 415.852,277.074C415.866,277.244 415.706,277.178 414.816,278.93C414.698,279.163 409.212,289.712 411.425,296.445C413.405,302.469 418.531,307.11 417.058,314.707C415.802,321.183 411.324,326.465 413.717,332.492C415.596,337.223 418.032,338.65 421.293,341.608C422.029,342.276 421.943,343.395 421.93,343.559C421.929,343.581 421.009,345.391 420.997,345.395C420.37,345.592 419.768,346.027 419.112,345.976C417.579,345.859 417.591,345.638 416.752,344.349C414.657,341.133 411.965,337.55 411.465,331.495C410.912,324.797 416.369,316.351 413.952,310.137C411.753,304.484 406.02,299.308 406.784,291.911C406.911,290.682 407.485,285.125 412.351,277.513C413.144,276.273 413.715,275.556 413.716,275.556C414.311,275.391 414.948,275.416 415.544,275.251Z"/>
                    <path d="M472.145,270.941C472.122,271.278 472.225,271.616 472.202,271.952C472.201,271.968 470.279,274.122 470.21,280.193C470.169,283.824 471.058,289.701 472.85,292.43C475.556,296.549 476.478,300.906 475.827,311.062C475.262,319.885 474.491,327.761 478.546,333.713C479.81,335.567 479.242,335.8 478.009,337.673C478.002,337.683 476.013,338.089 475.991,338.084C474.729,337.838 474.74,337.7 474.062,336.607C465.287,322.45 477.136,304.623 470.097,294.883C469.785,294.451 465.466,289.382 467.43,279.11C468.542,273.298 471.075,271.01 471.132,270.997C471.462,270.925 471.815,271.014 472.145,270.941Z"/>
                    <path d="M534.183,338.624C533.189,338.286 533.164,338.232 532.7,337.291C532.063,335.999 532.196,335.903 532.809,334.599C539.936,319.447 534.777,316.865 530.166,302.999C526.924,293.246 528.621,287.546 528.605,286.579C528.537,282.513 524.881,275.247 522.636,273.748C521.722,273.137 521.654,273.108 521.468,272.028C521.464,272.007 521.917,270.054 521.927,270.048C522.49,269.687 522.962,269.088 523.621,268.974C523.842,268.936 524.884,268.756 526.235,269.99C530.133,273.55 533.61,283.569 532.628,287.763C530.599,296.426 532.872,302.606 537.047,315.543C539.98,324.632 538.913,330.659 537.6,336.843C537.362,337.963 537.256,337.979 536.225,338.488C535.227,338.98 534.338,338.677 534.183,338.624Z"/>
                    <path d="M578.343,281.808C578.245,281.708 577.525,280.965 577.452,280.02C577.45,279.997 578.054,278.13 578.065,278.124C580.152,277.056 580.55,276.556 582.147,278.273C584.93,281.266 589.728,290.206 585.658,302.545C583.359,309.513 580.965,310.943 582.982,317.427C584.319,321.727 586.124,323.794 588.96,329.891C589.89,331.891 591.79,335.335 592.067,340.003C592.123,340.951 591.164,341.681 591.033,341.781C590.903,341.88 590.145,342.456 589.054,342.306C588.012,342.162 587.975,342.117 587.337,341.28C586.11,339.668 586.857,339.477 587.369,337.515C588.943,331.487 585.794,327.92 582.786,321.617C579.147,313.993 580.536,310.543 581.057,308.881C582.387,304.643 587.176,295.907 581.852,286.003C580.254,283.032 578.409,281.833 578.343,281.808ZM578.343,281.808C578.357,281.822 578.358,281.824 578.343,281.81C578.34,281.808 578.34,281.807 578.343,281.808Z"/>
                </g>
                <g transform="matrix(1.4925,0,0,1.47959,-330.523,-411.577)">
                    <g>
                        <g transform="matrix(1.02165,-0.196657,0.206087,1.08941,-118.302,56.4142)">
                            <path d="M535.908,496.513L535.908,479.333L541.475,479.333C543.584,479.333 544.959,479.419 545.6,479.591C546.584,479.849 547.408,480.41 548.072,481.273C548.736,482.136 549.068,483.251 549.068,484.619C549.068,485.673 548.877,486.56 548.494,487.279C548.111,487.997 547.625,488.562 547.035,488.972C546.445,489.382 545.846,489.654 545.236,489.787C544.408,489.951 543.209,490.033 541.639,490.033L539.377,490.033L539.377,496.513L535.908,496.513ZM539.377,482.24L539.377,487.115L541.275,487.115C542.643,487.115 543.557,487.025 544.018,486.845C544.478,486.665 544.84,486.384 545.102,486.001C545.363,485.619 545.494,485.173 545.494,484.665C545.494,484.04 545.31,483.525 544.943,483.119C544.576,482.712 544.111,482.458 543.549,482.357C543.135,482.279 542.303,482.24 541.053,482.24L539.377,482.24Z" style="fill:rgb(38,169,226);fill-rule:nonzero;stroke:black;stroke-width:0.84px;"/>
                        </g>
                        <g transform="matrix(1.18823,-0.0779776,0.0727707,1.12832,-144.043,-27.1502)">
                            <path d="M551.893,479.333L555.361,479.333L555.361,488.638C555.361,490.115 555.404,491.072 555.49,491.509C555.639,492.212 555.992,492.777 556.551,493.203C557.109,493.628 557.873,493.841 558.842,493.841C559.826,493.841 560.568,493.64 561.068,493.238C561.568,492.835 561.869,492.341 561.971,491.755C562.072,491.169 562.123,490.197 562.123,488.837L562.123,479.333L565.592,479.333L565.592,488.357C565.592,490.419 565.498,491.876 565.31,492.728C565.123,493.579 564.777,494.298 564.273,494.884C563.769,495.47 563.096,495.937 562.252,496.285C561.408,496.632 560.307,496.806 558.947,496.806C557.307,496.806 556.062,496.617 555.215,496.238C554.367,495.859 553.697,495.367 553.205,494.761C552.713,494.156 552.389,493.521 552.232,492.857C552.006,491.872 551.893,490.419 551.893,488.497L551.893,479.333Z" style="fill:rgb(38,169,226);fill-rule:nonzero;stroke:black;stroke-width:0.78px;"/>
                        </g>
                        <g transform="matrix(1.13441,0.0326201,-0.0311472,1.10217,-62.325,-77.4149)">
                            <path d="M569.236,479.333L575.576,479.333C577.006,479.333 578.096,479.443 578.846,479.662C579.853,479.958 580.717,480.486 581.435,481.244C582.154,482.001 582.701,482.929 583.076,484.027C583.451,485.124 583.639,486.478 583.639,488.087C583.639,489.501 583.463,490.72 583.111,491.744C582.682,492.994 582.068,494.005 581.271,494.779C580.67,495.365 579.857,495.822 578.834,496.15C578.068,496.392 577.045,496.513 575.764,496.513L569.236,496.513L569.236,479.333ZM572.705,482.24L572.705,493.619L575.295,493.619C576.264,493.619 576.963,493.564 577.393,493.454C577.955,493.314 578.422,493.076 578.793,492.74C579.164,492.404 579.467,491.851 579.701,491.081C579.935,490.312 580.053,489.263 580.053,487.935C580.053,486.607 579.935,485.587 579.701,484.876C579.467,484.165 579.139,483.611 578.717,483.212C578.295,482.814 577.76,482.544 577.111,482.404C576.627,482.294 575.678,482.24 574.264,482.24L572.705,482.24Z" style="fill:rgb(38,169,226);fill-rule:nonzero;stroke:black;stroke-width:0.8px;"/>
                        </g>
                        <g transform="matrix(1.05998,0.165468,-0.159416,1.03911,42.9264,-123.652)">
                            <path d="M594.572,490.197L594.572,487.302L602.049,487.302L602.049,494.146C601.322,494.849 600.269,495.468 598.891,496.003C597.512,496.538 596.115,496.806 594.701,496.806C592.904,496.806 591.338,496.429 590.002,495.675C588.666,494.921 587.662,493.843 586.99,492.441C586.318,491.038 585.982,489.513 585.982,487.865C585.982,486.076 586.357,484.486 587.107,483.095C587.857,481.704 588.955,480.638 590.4,479.896C591.502,479.326 592.873,479.04 594.514,479.04C596.646,479.04 598.312,479.488 599.512,480.382C600.711,481.277 601.482,482.513 601.826,484.091L598.381,484.736C598.139,483.892 597.684,483.226 597.016,482.738C596.348,482.249 595.514,482.005 594.514,482.005C592.998,482.005 591.793,482.486 590.898,483.447C590.004,484.408 589.557,485.833 589.557,487.724C589.557,489.763 590.01,491.292 590.916,492.312C591.822,493.331 593.01,493.841 594.478,493.841C595.205,493.841 595.934,493.699 596.664,493.413C597.394,493.128 598.021,492.783 598.545,492.376L598.545,490.197L594.572,490.197Z" style="fill:rgb(38,169,226);fill-rule:nonzero;stroke:black;stroke-width:0.85px;"/>
                        </g>
                        <g transform="matrix(1.0523,0.334322,-0.308391,0.98769,118.357,-200.835)">
                            <path d="M609.76,496.513L609.76,489.283L603.467,479.333L607.533,479.333L611.576,486.13L615.537,479.333L619.533,479.333L613.217,489.306L613.217,496.513L609.76,496.513Z" style="fill:rgb(38,169,226);fill-rule:nonzero;stroke:black;stroke-width:0.84px;"/>
                        </g>
                    </g>
                </g>
            </g>
        </g>
        <g>
            <g transform="matrix(0.219195,0,0,0.277829,10.3345,47.2886)">
                <ellipse cx="1270.4" cy="2247.85" rx="1032.52" ry="130.912" style="fill:rgb(208,208,208);"/>
            </g>
            <g id="Ear---Back" serif:id="Ear - Back" transform="matrix(0.274684,0.0416877,-0.0416877,0.274684,-165.308,83.1194)">
                <g>
                    <path d="M1338.37,981.01C1338.37,981.01 1214.46,948.468 1190.68,992.274C1166.9,1036.08 1155.63,1104.56 1179.42,1123.51C1203.2,1142.47 1233.24,1111.4 1267.03,1080C1300.82,1048.6 1338.37,981.01 1338.37,981.01Z" style="fill:rgb(253,205,201);"/>
                    <path d="M1339.64,976.19C1340.12,976.455 1340.66,976.599 1341.13,976.864C1341.37,976.992 1342.31,977.798 1342.78,978.685C1342.93,978.969 1343.8,980.623 1343.06,982.687C1342.74,983.603 1335.95,995.736 1328.15,1008.57C1294.61,1063.77 1273.97,1082.14 1269.79,1086.13C1239.44,1115.03 1211.31,1144.13 1184.66,1134.86C1173.76,1131.07 1168.34,1122.62 1168.29,1122.55C1148.2,1094.43 1161.25,1028.71 1182.91,988.04C1198.03,959.646 1243.21,958.502 1273.37,960.55C1278.47,960.896 1303.65,962.605 1336.53,970.275C1338.72,970.787 1338.72,970.791 1340.91,971.337L1339.64,976.19ZM1327.98,988.761C1318.79,986.641 1302.4,983.224 1283.36,980.931C1239.48,975.647 1207.48,980.319 1198.45,996.508C1177.11,1034.76 1166.71,1091.75 1180.19,1113.14C1180.21,1113.18 1183.47,1119.06 1190.65,1121.28C1208.41,1126.79 1235.74,1099.92 1262.71,1075.36C1288.1,1052.23 1315.95,1008.57 1327.98,988.761Z"/>
                </g>
            </g>
            <g transform="matrix(-0.0774963,-0.996993,0.996993,-0.0774963,-121.811,610.522)">
                <g id="Flipper---Colour" serif:id="Flipper - Colour" transform="matrix(0.085275,0.597886,-0.597886,0.085275,728.11,-734.112)">
                    <path d="M1651.07,986.993C1651.07,986.993 1599.25,1012.53 1568.46,1053.83C1537.67,1095.13 1499.37,1159.72 1521.9,1176.24C1544.43,1192.76 1606.31,1147.73 1634.85,1115.43C1663.38,1083.14 1685.91,1035.83 1685.91,1035.83" style="fill:rgb(68,69,69);"/>
                </g>
                <g id="Flipper---Frame" serif:id="Flipper - Frame" transform="matrix(0.085275,0.597886,-0.597886,0.085275,728.11,-734.112)">
                    <path d="M1651.07,986.993C1651.07,986.993 1599.25,1012.53 1568.46,1053.83C1537.67,1095.13 1499.37,1159.72 1521.9,1176.24C1544.43,1192.76 1606.31,1148.14 1634.85,1115.85C1663.38,1083.55 1685.91,1036.24 1685.91,1036.24" style="fill:none;stroke:black;stroke-width:9.2px;stroke-linecap:round;stroke-miterlimit:1.5;"/>
                </g>
            </g>
            <g transform="matrix(0.277829,0,0,0.277829,-191.092,-248.672)">
                <path d="M1402.1,1952.77C1402.1,1952.77 1290.44,1940.16 1270.73,2044.13C1255.76,2123.13 1288.08,2152 1288.08,2152C1288.08,2152 1259.45,2166.66 1258.51,2229.54C1257.48,2298.71 1288.22,2298.96 1288.22,2298.96C1288.22,2298.96 1226.15,2387.08 1298.77,2428.74C1371.4,2470.39 1578.32,2421.14 1578.32,2421.14L1402.1,1952.77Z" style="fill:rgb(30,171,224);"/>
                <path d="M1277.56,2302.82C1267.91,2297.67 1254.63,2283.94 1251.89,2247.08C1251.47,2241.39 1250.53,2224.27 1253.14,2205.94C1257.66,2174.23 1269.88,2158.17 1277.67,2150.88C1268.44,2138.13 1251.74,2105.21 1263.48,2042.76C1275.24,1980.21 1320.21,1951.67 1372.41,1945.81C1373.55,1945.68 1378.01,1945.61 1378.5,1945.6C1386.95,1945.46 1391.41,1945.9 1392.53,1946.02C1398.11,1946.57 1401.87,1947.26 1402.67,1947.41C1403.21,1947.6 1403.78,1947.66 1404.31,1947.86C1404.56,1947.95 1405.66,1948.6 1406.31,1949.4C1406.39,1949.51 1406.82,1950.05 1407.14,1950.87C1407.16,1950.93 1583.23,2416.4 1584.18,2418.93C1585.42,2422.21 1583.58,2424.6 1583.28,2424.99C1582.27,2426.28 1581,2426.82 1580.77,2426.92C1580.44,2427.06 1580.31,2427.19 1570.63,2429.33C1520.83,2440.32 1478.86,2445.49 1470.82,2446.47C1341.26,2462.44 1303.33,2440.02 1290.17,2431.38C1268.27,2416.99 1260.41,2398.83 1257.82,2384.05C1252.09,2351.42 1268.9,2317.6 1277.56,2302.82ZM1398.41,1958.2C1396.57,1958.27 1394.38,1958.43 1388.31,1958.92C1380.16,1959.57 1375.05,1960.61 1373.47,1960.78C1325.21,1966.22 1304.5,1990.94 1298.79,1998.05C1282.84,2017.93 1278.16,2040.84 1275.76,2059.3C1268.49,2115.15 1287.2,2139.86 1291.19,2144.71C1292.33,2146.1 1293.55,2147.25 1293.83,2147.61C1294.12,2148 1295.86,2150.27 1295.15,2153.54C1294.59,2156.09 1292.85,2157.45 1292.54,2157.7C1292.04,2158.09 1288.39,2159.8 1283.6,2165.67C1268.12,2184.59 1264.6,2216.49 1265.79,2242.09C1267.67,2282.48 1282.38,2291.23 1288.47,2291.98L1288.47,2291.99C1289.2,2292.19 1289.97,2292.22 1290.7,2292.43C1291.6,2292.69 1292.54,2293.47 1292.68,2293.58C1293.09,2293.92 1295.58,2295.99 1295.16,2299.73C1295.14,2299.91 1295.04,2300.89 1294.54,2301.94C1294.09,2302.89 1291.56,2306.18 1287.47,2313.57C1274.45,2337.04 1258.92,2378.36 1282.94,2407.16C1295.85,2422.64 1314.03,2428.5 1318.07,2429.84C1385.66,2452.22 1522.21,2427.4 1575.5,2415.34L1398.41,1958.2Z"/>
            </g>
            <g transform="matrix(0.277829,3.08452e-17,-3.08452e-17,0.277829,-191.092,-248.672)">
                <path d="M1287.27,2144.68C1287.42,2144.5 1287.51,2144.28 1287.65,2144.1C1287.69,2144.05 1287.77,2144.03 1287.82,2144.01C1289.02,2143.4 1289.07,2143.52 1290.38,2143.23C1290.71,2143.16 1290.67,2143.38 1294.37,2144.74C1319.63,2154.04 1352.41,2156 1352.43,2156C1386.3,2158.58 1414.91,2155.57 1415.69,2155.65C1416.39,2155.72 1417.12,2155.65 1417.8,2155.86C1419.9,2156.49 1420.79,2158.15 1420.94,2158.44C1422.01,2160.45 1421.44,2162.3 1421.34,2162.62C1420.69,2164.71 1419.04,2165.6 1418.76,2165.75C1417.52,2166.42 1417.47,2166.3 1416.08,2166.46C1369.94,2171.73 1328.29,2169.94 1297.01,2161.22C1290.97,2159.54 1284.86,2157.16 1284.7,2157.04C1284.69,2157.03 1283.41,2155.36 1283.4,2155.34C1283.26,2155.07 1283.09,2154.63 1282.66,2153.85C1282.64,2153.81 1282.64,2153.81 1282.6,2153.77C1282.05,2153.32 1281.42,2152.94 1280.97,2152.39C1280.76,2152.14 1279.57,2150.67 1279.73,2148.52C1279.76,2148.19 1279.9,2146.3 1281.65,2144.8C1281.9,2144.59 1283.35,2143.36 1285.52,2143.57C1285.53,2143.57 1287.39,2144.14 1287.55,2144.19C1287.59,2144.2 1287.54,2144.22 1287.27,2144.68Z"/>
            </g>
            <g transform="matrix(0.277829,3.08452e-17,-3.08452e-17,0.277829,-191.092,-248.672)">
                <path d="M1285.71,2293.39C1285.68,2293.39 1285.95,2293.22 1286.72,2292.75C1287.35,2292.35 1287.39,2292.39 1288.77,2291.86C1288.96,2291.78 1289.13,2291.65 1289.33,2291.64C1290.46,2291.58 1354.4,2299.03 1423.35,2284.56C1441.8,2280.68 1453.98,2276.59 1454.25,2276.56C1454.95,2276.47 1455.65,2276.25 1456.36,2276.31C1458.55,2276.48 1459.77,2277.9 1459.98,2278.14C1460.69,2278.97 1460.7,2278.97 1461.04,2280.01C1461.14,2280.32 1461.73,2282.11 1460.72,2284.11C1460.41,2284.73 1459.97,2285.3 1459.45,2285.75C1458.32,2286.73 1458.23,2286.6 1456.81,2287.08C1420.9,2299.29 1377.48,2306.99 1327.65,2307.8C1306.18,2308.16 1288.18,2306.65 1287.98,2306.58C1287.96,2306.57 1285.87,2305.34 1285.86,2305.33C1285.74,2305.24 1285.75,2305.23 1284.51,2304.15C1284.37,2304.03 1284.22,2304.41 1282.43,2303.33C1282.15,2303.17 1280.53,2302.18 1279.91,2300.14C1279.82,2299.82 1279.28,2298.04 1280.41,2295.97C1280.56,2295.68 1281.49,2293.97 1283.6,2293.45C1284.52,2293.22 1285.57,2293.37 1285.71,2293.39Z"/>
            </g>
            <g id="Body" transform="matrix(-0.94059,0.320548,0.320548,0.94059,1021.37,-518.759)">
                <path id="Body---Frame" serif:id="Body - Frame" d="M868.123,563.997C868.123,563.997 842.39,549.567 825.208,501.789C806.217,448.979 833.642,386.234 923.738,356.013C1009.6,327.212 1034.36,372.711 1050.63,399.686C1057.2,410.57 1055.41,422.692 1060.65,433.727C1065.44,443.812 1082.53,447.283 1086.19,477.531C1089.44,504.477 1073.79,520.899 1073.79,520.899C1121.27,597.366 1073.76,630.222 1026.88,676.997C995.416,708.384 948.655,755.537 914.71,754.008C903.054,753.482 871.502,773.722 865.157,767.386C834.033,736.307 832.648,719.796 825.361,679.465C814.634,620.087 868.123,563.997 868.123,563.997Z" style="fill:rgb(68,69,69);"/>
                <path d="M971.57,408.464C977.831,406.185 979.324,397.212 981.532,388.558C984.033,378.756 993.289,371.425 1005.49,368.413C1020.35,364.746 1030.09,366.394 1044.27,390.185C1058.44,413.976 1056.52,426.263 1059.65,434.434C1062.77,442.604 1085.35,457.131 1084.74,481.23C1084.18,503.278 1073.68,521.885 1073.68,521.885C1124.09,590.409 1060.2,646.7 1044.36,660.194C1036.78,666.654 992.577,768.34 902.353,753.946C869.617,750.475 848.445,675.086 876.923,639.743C894.475,617.96 913.777,608.384 913.777,608.384C913.777,608.384 918.17,587.141 911.195,559.666C906.296,540.371 877.866,538.581 859.817,495.222C847.082,464.632 845.304,422.277 887.956,401.797C913.836,389.37 939.302,394.841 949.111,400.77C963.262,409.322 966.268,410.394 971.57,408.464Z" style="fill:rgb(255,253,246);"/>
                <g id="Chin-Shadow" serif:id="Chin Shadow" transform="matrix(0.793574,-0.148577,0.181558,0.969729,127.596,173.198)">
                    <path d="M941.651,533.974C941.651,533.974 966.056,527.362 998.16,524.541C1020.34,522.593 1051.64,523.155 1051.64,523.155C1051.64,523.155 1036.26,537.274 998.444,540.858C978.459,542.752 962.645,537.416 941.651,533.974Z" style="fill-opacity:0.1;"/>
                </g>
                <g transform="matrix(-0.212448,-0.111651,-0.111651,0.212448,1584.28,336.443)">
                    <path d="M2451.16,1410.71C2451.16,1410.71 2760.35,1763.31 2540.22,2001.55C2550.99,1924.03 2585.84,1796.6 2568.09,1709.83C2547.89,1611.09 2524.1,1504.84 2451.16,1410.71Z" style="fill:white;fill-opacity:0.15;"/>
                </g>
                <g transform="matrix(-0.264642,0.0901885,0.0901885,0.264642,1252.84,-154.631)">
                    <path d="M1433.48,2086.3C1433.49,2086.54 1433.55,2087.88 1431.24,2088.3C1428.01,2088.9 1400.48,2094.42 1370.51,2081.12C1367.9,2079.96 1365.03,2078.57 1362.05,2076.49C1358.64,2074.12 1358.11,2070.44 1358.02,2069.83C1357.83,2068.56 1357.88,2067.23 1358.19,2065.99C1358.35,2065.39 1359.22,2061.91 1362.83,2059.77C1363.35,2059.46 1366.34,2057.68 1370.29,2058.68C1372.89,2059.33 1372.79,2059.6 1374.95,2061.19C1378.64,2063.91 1396.36,2078.31 1422.32,2083.2C1428.69,2084.41 1431.38,2084.48 1431.53,2084.54C1432.77,2085.09 1432.79,2085.06 1432.87,2085.14C1433.39,2085.6 1433.44,2085.61 1433.48,2086.3Z"/>
                </g>
                <path id="Body---Frame1" serif:id="Body - Frame" d="M870.113,564.225C870.113,564.225 838.754,542.734 824.082,494.126C810.354,448.646 825.328,391.593 921.4,356.866C998.147,329.123 1036.61,371.472 1050.63,399.686C1058.1,414.716 1054.96,423.672 1060.2,434.707C1064.98,444.792 1082.07,447.451 1085.73,477.699C1088.98,504.644 1073.79,520.899 1073.79,520.899C1121.27,597.366 1073.76,630.222 1026.88,676.997C995.416,708.384 948.655,755.537 914.71,754.008C901.374,753.407 872.416,779.821 866.208,772.283C834.585,733.884 826.65,706.002 824.815,668.742C821.861,608.801 870.113,564.225 870.113,564.225Z" style="fill:none;stroke:black;stroke-width:5.59px;stroke-linecap:round;stroke-miterlimit:1.5;"/>
            </g>
            <g id="Beak" transform="matrix(-0.993024,0.0368652,0.0368652,0.993024,1209.76,-248.086)">
                <g transform="matrix(1,0,0,1,22.4895,-0.977806)">
                    <path d="M954.523,463.803C954.523,463.803 965.279,487.328 977.78,486.934C990.28,486.54 997.663,469.118 995.891,461.244C994.119,453.369 954.523,463.803 954.523,463.803Z" style="fill:rgb(243,214,211);"/>
                </g>
                <path d="M997.241,438.158C1004.28,437.783 1019.75,445.638 1020.83,454.103C1021.91,462.569 1007.05,476.25 1001.14,476.349C995.237,476.447 974.763,463.159 974.763,458.139C974.763,453.119 986.155,438.748 997.241,438.158Z" style="fill:rgb(255,120,61);"/>
                <path d="M1002.54,448.318C1010.85,448.71 1018.29,451.472 1018.41,454.874C1018.54,458.275 1008.53,470.555 1001.53,470.87C994.543,471.185 982.123,459.893 982.123,457.075C982.123,454.256 989.188,447.688 1002.54,448.318Z" style="fill:rgb(157,0,6);stroke:black;stroke-width:1.68px;stroke-linecap:round;stroke-miterlimit:1.5;"/>
                <path id="Tongue" d="M983.806,460.095C983.806,460.095 988.044,455.959 996.548,456.463C1005.05,456.967 1011.85,462.23 1013.04,463.238C1013.04,463.238 1007.49,470.725 1001.4,470.889C997.935,470.983 989.917,466.302 983.806,460.095Z" style="fill:rgb(250,0,9);stroke:black;stroke-width:1.68px;stroke-linecap:round;stroke-miterlimit:1.5;"/>
                <path d="M978.164,451.725C978.164,451.725 986.832,443.254 997.33,443.254C1007.83,443.254 1019.39,450.547 1019.39,450.547C1019.39,450.547 1015.68,441.657 999.873,438.992C992.402,437.732 985.456,441.311 978.164,451.725Z" style="fill:rgb(247,179,82);"/>
                <path d="M997.241,438.158C1004.28,437.783 1019.75,445.638 1020.83,454.103C1021.91,462.569 1007.05,476.25 1001.14,476.349C995.237,476.447 974.763,463.159 974.763,458.139C974.763,453.119 986.155,438.748 997.241,438.158Z" style="fill:none;stroke:black;stroke-width:2.24px;stroke-linecap:round;stroke-miterlimit:1.5;"/>
            </g>
            <g id="Eyes" transform="matrix(-0.277766,-0.00591068,-0.00591068,0.277766,780.663,-234.898)">
                <g id="Eye---Left" serif:id="Eye - Left" transform="matrix(1,0,0,1,-32.6878,1.44689)">
                    <g transform="matrix(0.515798,-0.092702,0.0903587,0.50276,768.862,1185.21)">
                        <ellipse cx="1702.53" cy="1228.02" rx="102.699" ry="119.721"/>
                    </g>
                    <g transform="matrix(0.497121,-0.0859246,0.088867,0.514144,811.175,1163.07)">
                        <ellipse cx="1724.09" cy="1196.81" rx="55.038" ry="66.953" style="fill:white;"/>
                    </g>
                    <g transform="matrix(0.521768,0,0,0.521768,874.102,1005.96)">
                        <circle cx="1648.5" cy="1279.53" r="23.709" style="fill:white;"/>
                    </g>
                </g>
                <g id="Eye---Right" serif:id="Eye - Right" transform="matrix(1,0,0,1,9.39869,15.9673)">
                    <g transform="matrix(0.437321,-0.0849347,0.0766108,0.460635,1241.61,1214.3)">
                        <ellipse cx="1702.53" cy="1228.02" rx="102.699" ry="119.721"/>
                    </g>
                    <g transform="matrix(0.421485,-0.0787252,0.075346,0.471066,1277.49,1194.01)">
                        <ellipse cx="1724.09" cy="1196.81" rx="55.038" ry="66.953" style="fill:white;"/>
                    </g>
                    <g transform="matrix(0.442382,0,0,0.47805,1330.84,1050.07)">
                        <circle cx="1648.5" cy="1279.53" r="23.709" style="fill:white;"/>
                    </g>
                </g>
            </g>
            <g transform="matrix(0.274684,0.0416877,-0.0416877,0.274684,-165.308,83.1194)">
                <path d="M1331.11,1731.98C1331.11,1731.98 1287.37,1796.39 1275.36,1809.85C1263.34,1823.31 1266.7,1837.25 1295.54,1854.07C1324.38,1870.89 1343.12,1871.37 1383.98,1847.82C1424.83,1824.27 1477.7,1772.84 1477.7,1772.84L1331.11,1731.98Z" style="fill:rgb(253,205,201);"/>
                <path d="M1383.98,1847.82L1290.95,1789.52C1284.39,1798.56 1278.67,1806.14 1275.36,1809.85C1263.34,1823.31 1266.7,1837.25 1295.54,1854.07C1324.38,1870.89 1343.12,1871.37 1383.98,1847.82Z" style="fill:rgb(125,109,96);stroke:black;stroke-width:10px;stroke-linecap:round;stroke-miterlimit:1.5;"/>
                <path d="M1331.11,1731.98C1331.11,1731.98 1287.37,1796.39 1275.36,1809.85C1263.34,1823.31 1266.7,1837.25 1295.54,1854.07C1324.38,1870.89 1343.12,1871.37 1383.98,1847.82C1424.83,1824.27 1477.7,1772.84 1477.7,1772.84L1331.11,1731.98Z" style="fill:none;stroke:black;stroke-width:20px;stroke-linecap:round;stroke-miterlimit:1.5;"/>
            </g>
            <g transform="matrix(0.274684,0.0416877,-0.0416877,0.274684,-165.308,83.1194)">
                <path d="M2807.45,1205.87C2807.45,1205.92 2807.45,1205.96 2807.44,1205.98C2807.53,1204.44 2807.55,1204.5 2807.45,1205.87ZM2703.67,1354.62C2698.49,1357.23 2692.68,1359.78 2686.15,1362.23C2668.88,1368.73 2648.46,1373.31 2637.46,1374.99C2635.3,1375.32 2635.27,1375.36 2633.15,1374.81C2632.57,1374.66 2629.21,1373.79 2627.13,1370.28C2624.98,1366.67 2625.88,1363.2 2626.04,1362.6C2627.06,1358.66 2630.05,1356.89 2630.56,1356.58C2632.93,1355.17 2633.05,1355.45 2635.78,1355.02C2645.87,1353.43 2663.51,1349.71 2680.62,1343.43C2659.64,1326.43 2653.41,1296.22 2660.29,1274.07C2665.46,1257.42 2675.79,1252.25 2678.61,1250.69C2711.36,1232.62 2749.25,1251.63 2745.51,1304.55C2744.84,1314.02 2741.08,1328.29 2723.21,1342.41C2726.28,1342.34 2729.44,1342.06 2732.66,1341.58C2744.59,1339.82 2775.55,1332.04 2795.42,1268.37C2804.53,1239.2 2807.05,1211.49 2807.45,1205.87C2807.49,1205.56 2807.61,1204.75 2807.94,1204.06C2808.07,1203.79 2808.83,1202.24 2810.74,1201.56C2811.68,1201.22 2811.69,1201.22 2812.68,1201.27C2814.73,1201.37 2815.92,1202.69 2816.12,1202.91C2816.55,1203.39 2816.89,1203.95 2817.11,1204.55C2817.51,1205.69 2817.44,1205.72 2817.38,1206.93C2817.21,1210.18 2815.09,1248.3 2802.12,1284.84C2779.25,1349.3 2742.36,1354.78 2727.28,1356.1C2718.56,1356.86 2710.7,1356.28 2703.67,1354.62ZM2696.67,1336.58C2712.82,1328.51 2725.79,1317.66 2727.18,1303.58C2729.85,1276.62 2718.9,1259.07 2699.2,1261.2C2692.26,1261.96 2684.99,1265.62 2682.26,1268.05C2669.4,1279.52 2668.8,1316.73 2692.5,1333.93C2693.83,1334.9 2695.22,1335.78 2696.67,1336.58ZM2807.44,1205.98C2807.44,1206 2807.44,1205.99 2807.44,1205.98Z"/>
            </g>
            <g transform="matrix(1.56445,0.237431,-0.237431,1.56445,88.168,216.417)">
                <path d="M131.117,89.879C185.531,86.77 248.162,99.987 269.181,130.375C313.023,193.761 275.472,217.126 266.821,223.462L271.537,238.311C271.537,238.311 265.764,244.362 261.944,245.3C258.124,246.238 242.004,234.757 242.004,234.757C242.004,234.757 208.051,248.807 173.467,253.775C173.467,253.775 158.643,269.387 153.437,273.258C148.231,277.128 144.966,275.216 140.318,273.441C135.67,271.666 136.697,267.931 138.431,262.867C140.164,257.804 139.668,255.617 139.668,255.617C139.668,255.617 99.416,256.674 75.241,253.035C61.678,250.994 32.182,247.571 26.695,221.994C24.616,212.305 25.02,202.755 31.64,191.505C38.323,180.149 39.327,173.475 38.805,162.697C38.284,151.92 48.779,94.584 131.117,89.879Z" style="fill:rgb(253,205,201);"/>
            </g>
            <g transform="matrix(1.58135,-0.0565969,0.0565969,1.58135,12.5204,241.572)">
                <path d="M154.642,277.698C157.284,277.888 150.681,280.658 149.394,281.43C143.831,284.768 140.772,282.543 136.322,280.318C131.872,278.093 133.262,274.477 135.487,269.61C135.487,269.61 149.023,277.295 154.642,277.698Z" style="fill:rgb(125,109,96);stroke:black;stroke-width:1.76px;stroke-linecap:round;stroke-miterlimit:1.5;"/>
            </g>
            <g transform="matrix(1.57803,0.11697,-0.11697,1.57803,58.7177,213.898)">
                <path d="M268.609,250.008L270.367,258.314C270.367,258.314 264.026,263.765 260.132,264.322C258.469,264.559 254.799,262.322 251.138,259.681C251.138,259.681 262.601,253.649 268.609,250.008Z" style="fill:rgb(125,109,96);stroke:black;stroke-width:1.76px;stroke-linecap:round;stroke-miterlimit:1.5;"/>
            </g>
            <g transform="matrix(0.139089,-0.240506,0.240506,0.139089,-440.949,817.921)">
                <path d="M1811.68,1825.45C1812.16,1826.98 1812.13,1827.06 1811.39,1828.48C1810.92,1829.4 1809.89,1829.92 1809.05,1830.52C1808.97,1830.59 1792.8,1838.16 1775.76,1844.08C1764.31,1848.06 1759.84,1849.07 1757.51,1849.56C1756.88,1849.69 1753.3,1850.45 1749.74,1847.95C1748.69,1847.22 1747.76,1846.27 1747.08,1845.19C1744.81,1841.65 1745.59,1838.15 1745.73,1837.55C1745.86,1836.96 1746.62,1833.57 1750.06,1831.38C1752.43,1829.86 1752.56,1830.11 1755.35,1829.69C1759.96,1828.99 1782.97,1827.05 1806.6,1822.81C1808.16,1822.53 1808.24,1822.27 1809.65,1823C1811.14,1823.77 1811.17,1823.86 1811.68,1825.45Z"/>
            </g>
            <g transform="matrix(0.274684,0.0416877,-0.0416877,0.274684,-165.308,83.1194)">
                <path d="M1954.73,1775.77C1955.2,1775.35 1957.82,1772.86 1959.96,1770.42C1968.69,1760.49 1976.03,1748.89 1982.96,1735.83C1983.71,1734.42 1983.94,1734.31 1984.08,1734.24C1984.09,1734.23 1986.05,1734.14 1986.06,1734.15C1986.5,1734.53 1987.11,1734.79 1987.37,1735.31C1987.65,1735.85 1987.56,1736.52 1987.57,1737.13C1987.57,1737.17 1986.85,1741.86 1986.31,1744.73C1983.33,1760.45 1979.86,1770.29 1976.37,1777.93C1976.14,1778.43 1973.9,1783.08 1971.85,1786.1C1971.56,1786.52 1970.32,1788.43 1968.58,1790.18C1965.66,1793.12 1961.97,1793.02 1961.35,1793.01C1960.07,1792.97 1958.77,1792.7 1957.6,1792.18C1951.73,1789.59 1951.88,1783.92 1951.9,1783.06C1951.93,1781.76 1952.18,1780.45 1952.65,1779.24C1952.66,1779.23 1954.45,1776.21 1954.69,1775.8C1954.7,1775.79 1954.7,1775.79 1954.71,1775.78C1954.71,1775.77 1954.72,1775.76 1954.73,1775.77Z"/>
            </g>
            <g transform="matrix(0.274684,0.0416877,-0.0416877,0.274684,-165.308,83.1194)">
                <path d="M2327.46,1640.28C2328.76,1639.37 2328.82,1639.22 2330.38,1639.5C2330.69,1639.56 2330.75,1639.57 2333.29,1642.1C2350.11,1658.8 2358.48,1666.03 2362.18,1669.85C2365.34,1673.1 2365.13,1676.82 2365.1,1677.48C2365.03,1678.75 2364.71,1680.04 2364.16,1681.2C2362.34,1684.99 2358.96,1686.17 2358.37,1686.37C2357.8,1686.57 2354.52,1687.71 2350.85,1685.95C2348.5,1684.83 2348.55,1684.7 2346.92,1682.66C2345.67,1681.1 2344.32,1678.97 2342.11,1675.4C2341.24,1673.98 2337.44,1667.35 2334.4,1661.35C2329.64,1651.94 2326.84,1645.73 2326.66,1645.32C2325.09,1641.93 2327.13,1640.51 2327.46,1640.28Z"/>
            </g>
            <g transform="matrix(0.274684,0.0416877,-0.0416877,0.274684,-165.308,83.1194)">
                <path d="M2467.28,1570.41C2468,1569.79 2468.02,1569.79 2468.93,1569.5C2469.51,1569.32 2470.17,1569.13 2470.77,1569.3C2473.23,1569.98 2473.21,1570.11 2475.1,1571.83C2490.81,1586.16 2499.52,1599.78 2502.4,1605.77C2503.24,1607.5 2503.67,1608.6 2503.68,1608.63C2503.86,1609.94 2504.29,1611.24 2504.21,1612.55C2504.18,1613.15 2503.97,1616.62 2500.94,1619.34C2497.81,1622.14 2494.24,1621.93 2493.62,1621.89C2489.57,1621.65 2487.24,1619.07 2486.84,1618.62C2484.78,1616.33 2485.16,1616.08 2484.13,1613.18C2482.89,1609.68 2478.35,1595.33 2466.75,1577.25C2466.23,1576.44 2466.09,1576.52 2465.77,1575.61C2465.13,1573.76 2465.92,1572.23 2466.05,1571.97C2466.51,1571.08 2466.52,1571.07 2467.28,1570.41Z"/>
            </g>
            <g transform="matrix(0.277829,0,0,0.277829,-206.601,-262.608)">
                <path d="M1020.98,3003.41C1020.98,3003.41 1073.11,3085.37 1178.15,3122.03C1426.8,3208.8 1706.55,3272.64 2003.71,3209.51C2459.29,3112.72 2470.97,3114.39 2534.39,3049.3C2534.39,3049.3 2484.78,3154.11 2374.77,3210.71L2390.79,3295.09L2316.45,3328.2L2223.11,3254.5C2223.11,3254.5 2039.41,3300.43 1823.66,3300.43L1665.21,3402.18L1600.81,3370.48L1630.91,3281.59L1319.87,3231.01C1319.87,3231.01 1234.12,3295.05 1184.78,3288.4C1135.43,3281.75 1124.23,3240.81 1138.93,3220.16C1153.63,3199.51 1173.23,3183.76 1173.23,3183.76C1173.23,3183.76 1029.46,3113.71 1020.98,3003.41Z" style="fill-opacity:0.15;"/>
            </g>
            <g transform="matrix(1.56445,0.237431,-0.237431,1.56445,88.168,216.417)">
                <path d="M129.838,90.827C184.252,87.717 245.493,98.021 269.181,130.375C314.709,192.561 275.472,217.126 266.821,223.462L271.537,238.311C271.537,238.311 265.764,244.362 261.944,245.3C258.124,246.238 242.004,234.757 242.004,234.757C242.004,234.757 208.051,248.807 173.467,253.775C173.467,253.775 158.643,269.387 153.437,273.258C148.231,277.128 144.966,275.216 140.318,273.441C135.67,271.666 136.697,267.931 138.431,262.867C140.164,257.804 139.668,255.617 139.668,255.617C139.668,255.617 99.416,256.674 75.241,253.035C61.678,250.994 32.182,247.571 26.695,221.994C24.616,212.305 25.02,202.755 31.64,191.505C38.323,180.149 39.327,173.475 38.805,162.697C38.284,151.92 47.5,95.531 129.838,90.827Z" style="fill:none;stroke:black;stroke-width:3.51px;stroke-linecap:round;stroke-miterlimit:1.5;"/>
            </g>
            <g id="Snout" transform="matrix(0.277092,0.0202258,-0.0202258,0.277092,-210.201,88.1453)">
                <g transform="matrix(0.997347,-0.0727991,0.0727991,0.997347,-78.9856,-1260.07)">
                    <path d="M1457.32,2985.51C1457.32,2985.51 1462.42,3034.89 1441.49,3080.18C1424.89,3116.09 1398.93,3156.53 1213.02,3100.33C1133.21,3076.2 1115.34,3011.89 1115.34,3011.89C1182.69,2975.54 1457.32,2985.51 1457.32,2985.51Z" style="fill-opacity:0.15;"/>
                </g>
                <path d="M1411.83,1496.29C1518.24,1505.15 1593.66,1532.34 1588.05,1628.46C1582.44,1724.58 1519.64,1756.14 1389.56,1733.72C1259.47,1711.29 1242.17,1652.97 1246.01,1606.19C1249.86,1559.41 1269.4,1484.43 1411.83,1496.29Z" style="fill:rgb(227,137,129);stroke:black;stroke-width:10px;stroke-linecap:round;stroke-miterlimit:1.5;"/>
                <g transform="matrix(0.990631,0.136565,-0.136565,0.990631,543.831,-1502.01)">
                    <ellipse cx="1199.75" cy="2966.63" rx="26.06" ry="50.411" style="fill:rgb(86,63,66);stroke:black;stroke-width:5px;stroke-linecap:round;stroke-miterlimit:1.5;"/>
                </g>
                <g transform="matrix(1.23119,0.236368,-0.216269,1.1265,647.963,-2003.56)">
                    <ellipse cx="1199.75" cy="2966.63" rx="26.06" ry="50.411" style="fill:rgb(86,63,66);stroke:black;stroke-width:4.16px;stroke-linecap:round;stroke-miterlimit:1.5;"/>
                </g>
            </g>
            <g transform="matrix(0.277466,-0.0142111,0.0142111,0.277466,-229.659,153.575)">
                <g transform="matrix(1.60857,0.150703,-0.152112,1.23447,-642.296,-592.776)">
                    <g transform="matrix(0.991056,0.133445,-0.133445,0.991056,192.399,-168.088)">
                        <ellipse cx="1317.13" cy="1395.53" rx="25.633" ry="52.227"/>
                    </g>
                    <g transform="matrix(0.283492,0.0381718,-0.0381718,0.283492,983.858,923.055)">
                        <ellipse cx="1317.13" cy="1395.53" rx="25.633" ry="52.227" style="fill:white;"/>
                    </g>
                </g>
                <g transform="matrix(1.38469,2.77556e-17,-2.08167e-17,1.20396,-693.369,-342.795)">
                    <path d="M1599.35,1434.64C1606.67,1438.09 1614.67,1439.36 1621.99,1442.8C1622.64,1443.11 1680.48,1478.87 1680.6,1479.04C1681,1479.58 1681.6,1480 1681.8,1480.68C1681.8,1480.69 1681.69,1482.76 1681.69,1482.77C1681.23,1483.21 1680.88,1483.89 1680.31,1484.11C1679.08,1484.57 1679.04,1484.31 1677.87,1483.69C1661.51,1475.11 1632.47,1459.85 1599.65,1442.09C1598.15,1441.28 1596.65,1440.47 1595.16,1439.63C1592.58,1438.17 1592.32,1435.41 1592.28,1434.95C1592.03,1432.26 1593.4,1430.55 1593.64,1430.26C1594.57,1429.1 1595.69,1428.69 1595.89,1428.62C1624.21,1418.23 1663.08,1406.46 1668.96,1404.68C1672.71,1403.55 1691.51,1397.86 1715.87,1390.74C1716.81,1390.47 1716.86,1390.48 1717.72,1391.01C1717.73,1391.02 1718.87,1392.6 1718.87,1392.61C1718.81,1393.3 1718.95,1394.06 1718.67,1394.66C1718.08,1395.93 1717.91,1395.79 1716.73,1396.26C1694.09,1405.25 1694.1,1405.28 1671.4,1414.07C1667.36,1415.64 1643.84,1424.75 1620.66,1432.92C1618.34,1433.73 1616.12,1435.14 1613.7,1435.34C1608.92,1435.73 1604.13,1434.26 1599.35,1434.64Z"/>
                </g>
                <g transform="matrix(1.3003,0.0153804,0.0153804,1.00079,-478.567,-41.6219)">
                    <path d="M1266.93,1210.79C1266.33,1209.6 1266.32,1209.52 1266.56,1208.1C1266.86,1206.28 1267.09,1206.38 1268.28,1205.33C1275.77,1198.74 1300.97,1177.3 1348.02,1168.82C1363.11,1166.1 1374.22,1166.08 1374.34,1166.12C1374.83,1166.25 1375.36,1166.27 1375.81,1166.53C1377.24,1167.33 1377.7,1168.94 1377.79,1169.22C1378.35,1171.17 1377.78,1172.81 1377.67,1173.1C1377.02,1174.96 1375.77,1175.62 1375.55,1175.73C1374.53,1176.27 1374.5,1176.11 1373.41,1176.11C1371.97,1176.11 1355,1176.17 1333.86,1181.17C1297.63,1189.75 1277.77,1205.79 1270.75,1211.73C1269.81,1212.53 1269.76,1212.56 1268.67,1212.29C1267.58,1212.03 1267.53,1211.99 1266.93,1210.79Z"/>
                </g>
            </g>
            <g transform="matrix(0.277829,0,0,0.277829,-222.03,-234.462)">
                <path d="M1441.25,2279.05C1441.25,2279.05 1405.61,2418.84 1623.32,2414.44C1805.77,2410.75 1913.05,2399.93 1931.74,2379.9C1950.43,2359.88 1937.13,2455.43 1958.5,2467.44C1979.86,2479.46 1952.47,2515.32 2030.4,2443.92C2045.67,2429.92 2104.78,2473.37 2125.47,2480.14C2207.38,2506.95 2346.47,2497.76 2367.83,2476.49C2374.65,2469.69 2209.24,2405.74 2220.59,2411.75C2265.98,2435.78 1780.35,2197.61 1441.25,2279.05Z" style="fill-opacity:0.15;"/>
            </g>
            <g transform="matrix(0.277829,0,0,0.277829,-226.067,-251.82)">
                <path d="M1459.8,2263.43C1459.8,2263.43 1447.19,2279.94 1480.78,2328.74C1487.17,2338.01 1464.25,2359.77 1486.85,2377.52C1513.27,2398.28 1587.41,2414.72 1623.38,2416.88C1719.97,2422.66 1798.31,2416.65 1869.78,2426.2C1968.39,2439.39 2050.82,2470.63 2122.16,2498.87C2245.19,2547.57 2324.26,2515.9 2324.26,2515.9L2363.54,2392.57C2363.54,2392.57 1626.81,2219.9 1459.8,2263.43Z" style="fill:rgb(255,253,246);"/>
            </g>
            <g transform="matrix(0.277829,0,0,0.277829,-220.901,-252.07)">
                <path d="M2051.41,2395.86C2051.41,2395.86 2171.67,2455.46 2331.59,2418.29L2274.98,2526.92C2274.98,2526.92 2061.94,2527.23 2001.07,2459.94L2051.41,2395.86Z" style="fill-opacity:0.15;"/>
            </g>
            <g transform="matrix(0.277829,0,0,0.277829,-226.067,-251.82)">
                <path d="M1461.13,2260.1C1461.13,2260.1 1530.16,2374.39 1695.52,2363.54C1883.64,2351.19 1990.06,2363.64 1990.06,2363.64L1969.15,2442.38C1969.15,2442.38 1747.56,2419.53 1672.65,2421.6C1604.84,2423.48 1519.98,2406.51 1485.06,2374.07C1471.93,2361.88 1483.11,2330.7 1476.36,2317.17C1469.01,2302.43 1459.75,2274.05 1461.13,2260.1Z" style="fill-opacity:0.15;"/>
            </g>
            <g transform="matrix(0.277829,0,0,0.277829,-226.067,-251.82)">
                <path d="M1455.78,2259.07C1455.78,2259.07 1466.5,2297.64 1481.82,2324.48C1448.43,2354.05 1511.21,2396.11 1539.22,2406.63C1590.76,2425.99 1649.43,2430.12 1732.51,2422.55C1873.94,2409.67 1975.09,2446.16 2098.12,2494.86C2221.16,2543.57 2324.26,2520.71 2324.26,2520.71" style="fill:none;stroke:black;stroke-width:20px;stroke-linecap:round;stroke-miterlimit:1.5;"/>
            </g>
            <g transform="matrix(0.277829,0,0,0.277829,-206.601,-262.607)">
                <path d="M1460.09,2375.68C1460.03,2376.4 1460,2376.43 1459.44,2376.9C1459.32,2377.01 1458.99,2377.29 1457.48,2377.42C1438.46,2379 1416.77,2372.55 1405.09,2366.68C1404.89,2366.58 1404.25,2366.26 1402.66,2365.29C1401.11,2364.33 1400.04,2362.74 1399.86,2362.48C1399.53,2361.98 1397.6,2359.09 1398.38,2355.09C1399.18,2350.96 1402.16,2348.97 1402.67,2348.62C1406.06,2346.36 1409.47,2347.02 1410.06,2347.14C1412.7,2347.65 1412.64,2347.89 1414.85,2349.43C1418.23,2351.78 1433.92,2364.83 1451.14,2371.32C1456.18,2373.22 1458.22,2373.6 1458.41,2373.7C1459.73,2374.33 1460.2,2374.22 1460.09,2375.68Z"/>
            </g>
            <g id="Frame" transform="matrix(-1.0012,-0.0855078,-0.0855078,1.0012,558.799,-21.9095)">
                <path d="M139.953,314.314C139.953,314.314 170.004,335.375 187.876,340.992C205.749,346.609 222.344,357.333 215.451,384.907C215.451,384.907 231.281,399.716 216.983,429.333C216.983,429.333 235.578,449.236 217.45,466.853C199.322,484.47 55.915,437.585 53.127,429.004C53.127,429.004 49.195,401.671 68.898,384.738C68.898,384.738 77.385,353.914 106.409,348.276C106.409,348.276 109.851,335.384 115.652,326.244C121.979,316.276 134.249,310.404 139.953,314.314Z" style="fill:rgb(30,171,224);"/>
            </g>
            <g transform="matrix(-0.725736,0.0244478,0.0244478,0.725736,1001.98,-125.835)">
                <path d="M858.704,671.363C858.704,671.363 904.073,692.689 984.432,678.13C984.432,678.13 999.823,702.532 997.241,714.631C997.241,714.631 994.455,698.841 978.87,695.765C963.286,692.689 899.512,699.866 858.704,671.363Z" style="fill:white;fill-opacity:0.3;"/>
            </g>
            <g transform="matrix(-0.725736,0.0244478,0.0244478,0.725736,1001.98,-125.835)">
                <path d="M866.08,535.678C866.08,535.678 868.964,546.636 894.533,558.555C908.205,564.929 931.317,568.507 948.122,578.008C962.744,586.276 971.913,600.662 974.507,604.598C974.759,596.94 972.653,589.282 967.778,581.625C967.778,581.625 962.588,571.436 948.938,566.053C935.289,560.67 922.985,560.093 912.411,556.056C901.838,552.019 866.08,535.678 866.08,535.678Z" style="fill:white;fill-opacity:0.3;"/>
            </g>
            <g transform="matrix(-0.725736,0.0244478,0.0244478,0.725736,1001.98,-125.835)">
                <path d="M821.847,568.755C821.847,568.755 839.554,582.598 867.304,589.961L864.515,602.92L818.402,584.175L821.847,568.755Z" style="fill-opacity:0.3;"/>
            </g>
            <g transform="matrix(-1.0012,-0.0855078,-0.0855078,1.0012,558.799,-21.9095)">
                <path d="M106.535,348.732C106.535,348.732 163.424,386.786 215.369,384.009" style="fill:none;stroke:black;stroke-width:2.76px;stroke-linecap:round;stroke-miterlimit:1.5;"/>
            </g>
            <g transform="matrix(-1.0012,-0.0855078,-0.0855078,1.0012,558.799,-21.9095)">
                <path d="M69.23,384.646C69.23,384.646 139.262,437.197 217.312,429.844" style="fill:none;stroke:black;stroke-width:2.76px;stroke-linecap:round;stroke-miterlimit:1.5;"/>
            </g>
            <g transform="matrix(-0.725736,0.0244478,0.0244478,0.725736,1001.98,-125.835)">
                <path d="M774.209,639.605L776.1,627.684C779.945,624.095 852.386,671.284 918.945,669.429C971.561,667.963 975.444,658.75 982.409,663.667C987.987,667.604 983.924,676.955 983.924,676.955C983.924,676.955 945.006,685.321 904.321,681.384C864.296,677.511 807.303,661.312 774.209,639.605Z" style="fill-opacity:0.3;"/>
            </g>
            <g transform="matrix(-0.725736,0.0244478,0.0244478,0.725736,1001.98,-125.835)">
                <path d="M762.543,706.527C762.543,706.527 757.859,703.298 756.584,698.044C755.685,694.341 753.871,676.96 765.624,685.13C780.918,695.761 919.072,734.353 950.087,733.071C981.103,731.79 995.241,736.916 985.352,741.786C975.464,746.656 963.987,750.471 910.834,742.869C858.571,735.395 762.543,706.527 762.543,706.527Z" style="fill-opacity:0.3;"/>
            </g>
            <g id="Frame1" serif:id="Frame" transform="matrix(-1.0012,-0.0855078,-0.0855078,1.0012,558.799,-21.9095)">
                <path d="M139.953,314.314C139.953,314.314 170.004,335.375 187.876,340.992C205.749,346.609 222.344,357.333 215.451,384.907C215.451,384.907 231.281,399.716 216.983,429.333C216.983,429.333 235.991,449.727 217.863,467.344C199.735,484.961 55.915,437.585 53.127,429.004C53.127,429.004 49.195,401.671 68.898,384.738C68.898,384.738 77.385,353.914 106.409,348.276C106.409,348.276 109.851,335.384 115.652,326.244C121.979,316.276 134.249,310.404 139.953,314.314Z" style="fill:none;stroke:black;stroke-width:5.53px;stroke-linecap:round;stroke-miterlimit:1.5;"/>
            </g>
            <g transform="matrix(0.276654,-0.025527,0.025527,0.276654,-260.852,-210.176)">
                <path d="M1941.62,2188.06C1941.62,2188.06 1915.62,2093.09 2024.31,2070.12C2026.81,2069.59 2041.61,2060.41 2043.61,2060.14C2109.77,2050.9 2184.31,2086.72 2174.03,2155.84C2174.03,2155.84 2210.54,2251.05 2108.94,2281.57C1971.24,2322.94 1919.74,2246.02 1941.62,2188.06Z" style="fill:rgb(68,69,69);"/>
                <path d="M1935.86,2188.08C1934.01,2183.36 1933.59,2181.16 1933.32,2179.99C1932.56,2176.66 1932.13,2174.02 1931.95,2172.89C1931.95,2172.87 1931.49,2166.88 1932.02,2159.17C1934.23,2127.21 1947.88,2105.52 1986.4,2079.54C1998.56,2071.35 2017.14,2058.27 2035.93,2055.33C2099.54,2045.37 2172.81,2075.43 2180.93,2133.22C2182.3,2142.95 2181.39,2151.26 2180.86,2155.18C2189.72,2181.76 2199.02,2248.7 2130.52,2280.12C2127.03,2281.72 2117.13,2286.36 2094.67,2291.83C1964.29,2323.58 1915.11,2246.57 1935.86,2188.08ZM1946.83,2186.69C1946.85,2187.24 1946.99,2187.78 1947,2188.33C1947.04,2189.61 1945.69,2191.79 1944.12,2198.29C1932.39,2247.07 1974.68,2305.18 2082.13,2282.17C2084.17,2281.73 2103.59,2277.55 2117.98,2271.91C2135.88,2264.9 2173.16,2246.34 2173.85,2195.78C2174.11,2176.72 2168.92,2161.46 2168.2,2159.33C2167.34,2156.78 2167.18,2156.75 2167.55,2154.09C2174.6,2102.21 2126.87,2077.75 2083.5,2074.03C2064.28,2072.38 2045.28,2062.14 2044.27,2062.81C2026.45,2074.51 2000.23,2089.02 1989.97,2094.54C1979.03,2100.43 1949.27,2118.31 1946.89,2161.17C1946.56,2167.2 1946.91,2171.74 1946.91,2171.94C1946.9,2172.42 1946.62,2175.6 1946.78,2180.78C1946.8,2181.25 1946.68,2181.25 1946.83,2186.69Z"/>
            </g>
            <g id="Flipper---Colour1" serif:id="Flipper - Colour" transform="matrix(-0.0813211,0.648628,0.648628,0.0813211,-163.746,-823.44)">
                <path d="M1627.65,998.713C1609.91,1010.19 1586.09,1030.19 1568.46,1053.83C1537.67,1095.13 1499.37,1159.72 1521.9,1176.24C1544.43,1192.76 1606.31,1147.73 1634.85,1115.43C1650.98,1097.18 1665.19,1074.13 1674.5,1057.54" style="fill:rgb(68,69,69);"/>
            </g>
            <g id="Flipper---Frame1" serif:id="Flipper - Frame" transform="matrix(-0.0813211,0.648628,0.648628,0.0813211,-163.746,-823.44)">
                <path d="M1673.04,1060.54C1672.89,1060.46 1672.06,1059.98 1670.96,1060.27C1670.62,1060.36 1670.29,1060.52 1670.01,1060.73C1669.73,1060.95 1669.51,1061.25 1669.29,1061.55C1669.29,1061.55 1668.91,1062.2 1668.42,1063.05C1668.42,1063.06 1664,1070.22 1657.45,1079.64C1657.37,1079.76 1650.75,1089.6 1642.2,1100.4C1638.07,1105.61 1635.27,1108.85 1634.65,1109.57C1633.4,1111.02 1621.67,1125.46 1599.4,1142.99C1573.56,1163.32 1545.87,1177.93 1530.31,1175.21C1522.93,1173.92 1521.04,1168.81 1520.66,1167.9C1516.07,1156.7 1523.42,1131.5 1546.54,1093.69C1556.67,1077.14 1566.13,1064.19 1570.77,1057.8C1574.03,1053.33 1583.67,1042.63 1598.08,1027.44C1612.26,1012.5 1622.08,1002.92 1635.8,987.912C1636.31,987.353 1637.55,985.492 1636.7,984.129C1636.6,983.983 1636.48,983.019 1635.53,982.409C1634.6,981.809 1633.66,981.989 1633.5,982.019C1633.14,982.089 1633,982.176 1630.83,984.016C1628.09,986.327 1626.24,988.533 1622.59,991.925C1609.62,1004 1590.36,1024.56 1586.14,1028.43C1572.97,1040.55 1566.5,1049.38 1562.12,1055.26C1559.85,1058.32 1556.31,1063.38 1555.81,1064.09C1541.2,1084.96 1510.02,1132.85 1510.89,1161.34C1511,1164.78 1511.6,1176.36 1522.74,1181.66C1528.24,1184.29 1542.21,1188.41 1573.61,1170.73C1596.14,1158.04 1622.63,1136.68 1640.11,1116.27C1644.29,1111.38 1648.33,1105.85 1649.02,1104.91C1650.54,1102.82 1655.54,1096 1662.98,1083.81C1664.67,1081.05 1667.38,1076.28 1667.75,1075.62C1670.9,1070.07 1672.76,1066.5 1673.16,1065.81C1673.23,1065.69 1674.04,1064.3 1674.05,1064.29C1674.16,1063.94 1674.34,1063.62 1674.39,1063.26C1674.41,1063.09 1674.53,1062.15 1673.85,1061.26C1673.51,1060.82 1673.11,1060.59 1673.04,1060.54Z"/>
            </g>
            <g>
                <path d="M440.012,258.582C449.387,279.726 476.457,283.957 478.804,264.461C458.649,263.578 459.879,261.639 440.012,258.582Z" style="fill-opacity:0.38;"/>
                <path d="M438.493,255.173C438.478,263.616 473.681,279.103 481.253,257.248C486.542,241.98 438.546,227.12 438.493,255.173Z" style="fill:rgb(245,193,217);"/>
                <path d="M439.195,255.174L437.778,255.17C437.763,254.169 436.797,241.73 450.431,238.569C465.037,235.184 487.651,245.481 483.108,258.205C478.488,271.145 463.946,272.878 450.351,266.894C443.97,264.086 440.996,260.955 440.649,260.609C437.478,257.445 437.786,255.231 437.785,255.171L439.195,255.174C439.308,255.938 439.692,258.512 446.023,262.008C455.786,267.398 474.653,270.85 479.344,256.44C483.275,244.364 440.932,229.468 439.259,254.236C439.254,254.311 439.254,254.311 439.2,255.174L439.195,255.174Z"/>
                <path d="M440.579,248.949C444.038,247.467 448.78,245.734 457.27,245.071C461.428,244.747 470.943,245.49 479.164,252.523C478.74,250.705 473.671,242.965 457.699,240.832C446.286,239.307 441.335,246.615 440.579,248.949Z" style="fill:white;fill-opacity:0.76;"/>
            </g>
            <g transform="matrix(0.277829,0,0,0.277829,-206.601,-262.61)">
                <path d="M1832.07,2674.37C1832.07,2674.37 1842.57,2715.54 1916.5,2717.29C1990.43,2719.03 2079.24,2686.22 2121.67,2695.41C2164.1,2704.6 2182.04,2669.16 2120.36,2642.04C2058.67,2614.92 1868.38,2657.7 1832.07,2674.37Z" style="fill-opacity:0.15;"/>
            </g>
            <g transform="matrix(0.274684,0.0416877,-0.0416877,0.274684,-186.172,62.6806)">
                <path d="M2130.07,1169.87C2130.07,1169.87 2050.61,1254.79 1994.73,1248.73C1994.73,1248.73 1970.54,1245.37 1965.32,1220.67C1963.71,1213.03 1967.07,1202.34 1969.49,1190.38C1982.94,1123.65 2130.07,1169.87 2130.07,1169.87Z" style="fill:rgb(227,137,129);"/>
            </g>
            <g transform="matrix(0.274684,0.0416877,-0.0416877,0.274684,-186.172,62.6806)">
                <path d="M2132.69,1172.33L2133.72,1173.29C2116.01,1191.84 2056.94,1247.86 2008.39,1253.17C2007.25,1253.29 2000.6,1254.02 1994.15,1253.24C1991.58,1252.93 1976.96,1249.74 1967.84,1237.21C1962.33,1229.63 1960.72,1221.65 1960.55,1217.67C1960.23,1210.49 1962.24,1203.7 1965.37,1189.1C1973.04,1153.4 2016.1,1143.56 2080.92,1154.6C2108.92,1159.36 2131.13,1166.43 2131.14,1166.44C2131.71,1166.67 2131.73,1166.63 2132.22,1166.99C2133.35,1167.83 2133.9,1169.38 2133.55,1170.75C2133.45,1171.14 2133.38,1171.28 2133.36,1171.32C2133.07,1171.85 2132.98,1171.8 2132.69,1172.33ZM2121.77,1171.24C2081.94,1160.35 1989.65,1142.42 1974.92,1186.52C1973.95,1189.44 1974.12,1189.49 1971.58,1201.07C1968.72,1214.1 1968.7,1217.44 1970.54,1223.19C1975.19,1237.74 1988.41,1243 1995.34,1244.22C2002.7,1244.89 2030.59,1247.34 2085.27,1203.89C2099.24,1192.8 2112.42,1180.65 2121.77,1171.24Z"/>
            </g>
            <g transform="matrix(0.274684,0.0416877,-0.0416877,0.274684,-186.172,62.6806)">
                <path d="M2123.11,1171.77C2080.72,1160.25 1994.62,1144.92 1976.64,1183.19C1974.63,1187.48 1974.05,1191.25 1973.99,1191.38C1973.74,1191.98 1973.59,1192.64 1973.22,1193.19C1973.05,1193.44 1972.08,1194.88 1970.08,1195.27C1969.78,1195.34 1968.02,1195.68 1966.28,1194.51C1964.59,1193.37 1964.25,1191.66 1964.19,1191.37C1963.95,1190.17 1964.03,1190.15 1964.28,1188.96C1971.89,1153.2 2014.91,1141.97 2085.06,1155.01C2107.03,1159.1 2125.02,1164.39 2130.73,1166.18C2130.8,1166.2 2132.29,1166.53 2133.14,1167.79C2133.73,1168.65 2134.35,1170.63 2132.77,1172.42C2131.84,1173.48 2054.5,1254.15 1998.27,1251.25C1996.38,1251.15 1995.37,1251.04 1994.49,1250.94C1993.6,1250.84 1993.56,1250.82 1993,1250.12C1992.99,1250.1 1992.51,1248.49 1992.52,1248.48C1992.79,1247.98 1992.89,1247.35 1993.33,1246.99C1994.28,1246.24 1994.39,1246.47 1995.59,1246.57C2038.07,1250.33 2096.48,1199.07 2123.11,1171.77Z"/>
            </g>
            <g transform="matrix(0.274684,0.0416877,-0.0416877,0.274684,-186.172,62.6806)">
                <path d="M1925.05,1050.24C1925.05,1050.24 1962.87,1022.2 2009.81,1024.49C2056.74,1026.78 2126.28,1068.75 2187.56,1080C2248.84,1091.25 2292.09,1106.87 2242.83,1142.91C2193.57,1178.96 2163.57,1184.7 2082.35,1187.59C2001.12,1190.47 1964.12,1222.67 1964.12,1222.67L1898.17,1249.04L1925.05,1050.24Z" style="fill:rgb(253,205,201);"/>
            </g>
            <g transform="matrix(0.274684,0.0416877,-0.0416877,0.274684,-186.172,62.6806)">
                <path d="M1961.97,1224.54C1961.21,1223.68 1961.21,1223.62 1961.29,1222.48C1961.39,1221.01 1961.65,1221.08 1962.73,1220.07C1969.87,1213.43 1980.76,1207.08 1982.42,1206.1C1982.93,1205.81 1992.4,1200.13 2005.44,1194.75C2012.53,1191.81 2021.02,1189.17 2022.4,1188.75C2034.84,1184.88 2045.26,1182.75 2050.3,1181.77C2055.9,1180.68 2063.87,1179.66 2065.06,1179.51C2076.55,1178.05 2078.38,1178.25 2096.55,1177.02C2103.11,1176.58 2134.99,1175.81 2161.11,1170.55C2184.39,1165.86 2206.1,1157.63 2237.46,1134.45C2251.57,1124.02 2254.98,1117.09 2254.04,1114.31C2252.91,1110.95 2245.57,1104.31 2220.6,1097.5C2201.6,1092.32 2187.29,1090.44 2175.18,1087.63C2133.53,1077.97 2089.58,1056.78 2052.24,1044.2C2050.98,1043.77 2039.06,1039.39 2026.47,1036.17C2006.62,1031.09 1989.63,1031.27 1968.47,1036.08C1943.91,1041.67 1926.77,1052.53 1926.72,1052.54C1926,1052.7 1925.28,1053.08 1924.55,1052.97C1924.53,1052.96 1922.75,1051.92 1922.75,1051.91C1922.59,1051.24 1922.19,1050.56 1922.29,1049.88C1922.51,1048.45 1922.7,1048.5 1923.81,1047.58C1929.36,1042.97 1936.98,1038.3 1938.18,1037.57C1959.03,1024.8 1976.07,1020.73 1977.25,1020.42C1993.05,1016.21 2005.7,1015.79 2013.27,1016C2019.18,1016.17 2026.6,1017.35 2027.75,1017.53C2034.69,1018.64 2042.47,1020.25 2057.24,1024.78C2060.43,1025.76 2068.77,1028.8 2069.77,1029.16C2108.4,1043.23 2150.46,1062.97 2189.38,1070.17C2236.91,1078.95 2267.6,1088.83 2273.36,1109.09C2277.29,1122.94 2266.54,1134.78 2264.25,1137.35C2260.02,1142.09 2254.09,1147.62 2238.33,1158.34C2195.86,1187.25 2164.06,1193.93 2099.21,1196.92C2090.38,1197.32 2074.29,1196.98 2058.32,1198.24C2036.33,1199.98 2022.29,1202.67 2005.69,1207.41C1979.13,1215 1966.07,1224.79 1965.98,1224.83C1964.08,1225.46 1964.09,1225.52 1963.92,1225.51C1962.78,1225.43 1962.73,1225.4 1961.97,1224.54Z"/>
            </g>
            <g transform="matrix(0.277784,-0.00500327,0.00500284,0.277785,-255.186,-273.107)">
                <path d="M2322.94,2688.9C2322.94,2688.9 2340.33,2726.23 2383.28,2744.77C2426.83,2763.56 2509.8,2770.29 2557.82,2718.16C2557.82,2718.16 2527.35,2667.51 2500,2648.11C2472.66,2628.71 2322.94,2688.9 2322.94,2688.9Z" style="fill-opacity:0.15;"/>
            </g>
            <g transform="matrix(-0.761965,1.11918,0.738921,0.438937,724.117,-1077.25)">
                <ellipse cx="1076.46" cy="712.798" rx="23.262" ry="43.833" style="fill:rgb(254,120,62);"/>
            </g>
            <g transform="matrix(-0.661519,0.585991,0.585989,0.66152,621.825,-613.484)">
                <path d="M915.146,750.169C915.146,750.169 913.857,754.057 918.69,758.634C921.333,761.138 926.021,764.129 930.279,753.79C935.512,741.083 942.697,717.731 960.024,717.834C967.516,717.879 985.551,718.44 985.945,729.071C985.945,729.071 985.885,719.288 974.254,713.874C962.623,708.461 949.402,706.486 941.953,711.414C921.365,725.032 915.146,750.169 915.146,750.169Z" style="fill:rgb(243,180,87);"/>
            </g>
            <g transform="matrix(-0.761965,1.11918,0.738921,0.438937,724.117,-1077.25)">
                <ellipse cx="1076.46" cy="712.798" rx="23.262" ry="43.833" style="fill:none;stroke:black;stroke-width:5.04px;stroke-linecap:round;stroke-miterlimit:1.5;"/>
            </g>
            <g id="Head-Dark" serif:id="Head Dark" transform="matrix(-1.16238,0.022598,0.0230859,1.18748,554.149,-70.8007)">
                <path d="M128.645,240.059C128.645,240.059 125.373,183.65 183.273,154.719C262.23,115.267 330.999,153.648 342.166,198.979C344.904,210.094 345.135,219.807 344.866,219.656C287.08,187.2 174.026,211.382 128.645,240.059Z" style="fill:rgb(28,115,199);"/>
            </g>
            <g id="Head-Dark1" serif:id="Head Dark" transform="matrix(-1.16238,0.022598,0.0230859,1.18748,554.149,-70.8007)">
                <path d="M130.278,240.028C130.278,240.028 127.034,183.003 180,156.031C260.166,115.208 330.999,153.648 342.166,198.979C344.904,210.094 345.137,219.803 344.866,219.656C288.135,188.929 181.323,210.556 130.278,240.028Z" style="fill:none;stroke:black;stroke-width:4.73px;stroke-linecap:round;stroke-miterlimit:1.5;"/>
            </g>
            <g transform="matrix(-1.16238,0.022598,0.0230859,1.18748,554.134,-72.3813)">
                <path d="M339.796,194.001C339.91,193.755 339.909,193.741 339.811,193.487C339.679,193.148 339.618,193.185 339.281,193.036C283.178,168.31 171.318,186.484 134.811,213.402C134.26,213.808 132.858,215.032 132.364,215.512C131.737,216.12 131.275,216.604 131.274,216.605C131.206,216.765 131.077,216.913 131.069,217.086C131.069,217.091 131.23,217.555 131.232,217.556C131.385,217.623 131.524,217.747 131.691,217.755C132.031,217.77 132.031,217.728 132.3,217.523C132.866,217.095 134.4,215.979 135.088,215.504C135.526,215.2 135.534,215.212 135.962,214.896C171.791,188.413 282.949,169.886 338.718,194.265C339.055,194.412 339.067,194.482 339.413,194.353C339.672,194.257 339.683,194.248 339.796,194.001Z"/>
            </g>
            <g transform="matrix(-1.16238,0.022598,0.0230859,1.18748,554.134,-72.3813)">
                <path d="M224.079,142.544C276.839,134.582 281.838,174.124 282.588,181.828" style="fill:none;stroke:black;stroke-width:1.89px;stroke-linecap:round;stroke-miterlimit:1.5;"/>
            </g>
            <g transform="matrix(-0.323208,0.00628352,0.00641918,0.330185,844.103,-341.715)">
                <path d="M1502.59,1537.2C1502.59,1537.2 1624.2,1482.08 1829.21,1469.6" style="fill:none;stroke:black;stroke-width:6.8px;stroke-linecap:round;stroke-miterlimit:1.5;"/>
            </g>
            <g transform="matrix(-1.16238,0.022598,0.0230859,1.18748,554.134,-72.3813)">
                <path d="M207.944,201.757C207.944,201.757 261.957,191.633 302.102,198.628" style="fill:none;stroke:black;stroke-width:1.89px;stroke-linecap:round;stroke-miterlimit:1.5;"/>
            </g>
            <g transform="matrix(-1.16238,0.022598,0.0230859,1.18748,554.101,-74.1062)">
                <path d="M136.088,233.787C136.088,233.787 177.656,211.281 226.36,205.711" style="fill:none;stroke:black;stroke-width:1.89px;stroke-linecap:round;stroke-miterlimit:1.5;"/>
            </g>
            <g transform="matrix(-0.323208,0.00628352,0.00641918,0.330185,844.103,-341.715)">
                <path d="M1822.55,1488.52C1822.55,1488.52 1972.46,1475.34 2138.64,1525.09" style="fill:none;stroke:black;stroke-width:6.8px;stroke-linecap:round;stroke-miterlimit:1.5;"/>
            </g>
            <g transform="matrix(-1.04843,-0.361813,-0.420133,1.21742,639.768,-23.7576)">
                <g transform="matrix(0.00514691,0.161112,-0.108389,-0.0262839,282.817,166.566)">
                    <path d="M406.727,2035.97C406.727,2035.97 471.263,2073.52 517.025,2074.69L517.025,2106.37C517.025,2106.37 624.977,2123.97 705.941,2109.89C705.941,2109.89 688.34,1835.32 689.513,1706.25C690.687,1577.17 659.005,1389.43 630.844,1334.28C602.683,1279.13 573.348,1290.87 560.441,1294.39C547.533,1297.91 506.465,1317.86 532.279,1378.87C532.279,1378.87 515.038,1626.57 443.102,1859.96C390.299,2031.28 406.727,2035.97 406.727,2035.97Z" style="fill:rgb(28,115,199);stroke:black;stroke-width:37.78px;stroke-linecap:round;stroke-miterlimit:1.5;"/>
                </g>
                <g transform="matrix(0.00514691,0.161112,-0.108389,-0.0262839,282.817,166.566)">
                    <path d="M519.372,2077.04C519.372,2077.04 525.707,2092.84 526.234,2086.51C532.245,2014.27 563.878,1541.36 573.231,1409.09C577.56,1347.85 565.491,1339.72 563.088,1331.91C560.685,1324.1 563.088,1389.58 563.088,1389.58C563.088,1389.58 548.669,1370.36 545.064,1358.34C545.064,1358.34 554.677,1407.61 567.293,1423.23C579.909,1438.85 510.164,2029.39 519.372,2077.04Z" style="stroke:black;stroke-width:13.22px;stroke-linecap:round;stroke-miterlimit:1.5;"/>
                </g>
            </g>
        </g>
    </g>
</svg>
