<svg xmlns="http://www.w3.org/2000/svg" xmlns:xlink="http://www.w3.org/1999/xlink" width="599.025" height="325.94" viewBox="0 0 599.025 325.94"><defs><style>.a{fill:#00142d;}.b{fill:#d0f0ff;}.c{fill:#6addff;}.d{fill:#fff;}.e{fill:#30aace;}.f{fill:#b4eff7;}.g{fill:#0086af;}.h{filter:url(#a);}</style><filter id="a" x="185.311" y="118.63" width="352.561" height="207.31" filterUnits="userSpaceOnUse"><feOffset dy="3" input="SourceAlpha"/><feGaussianBlur stdDeviation="1.5" result="b"/><feFlood flood-color="#00142d" flood-opacity="0.322"/><feComposite operator="in" in2="b"/><feComposite in="SourceGraphic"/></filter></defs><g transform="translate(-880 -39.646)"><g transform="translate(880 39.647)"><g transform="translate(0 3.318)"><g transform="translate(0 9.1) rotate(-3)"><path class="a" d="M76.267,62.877,62.957,12.488,22.37,0,0,159.225H57.706l3.27-21.8,6.161,14.454,16.309,9.593,5.65-15.992,1.227,13.743h83.549L148.922,1.647,94.255,14.594Z" transform="translate(0 0)"/><path class="a" d="M34.056,8.2,12.534,0,0,85.107,50.669,63.573Z" transform="translate(17.034 17.21)"/><path class="a" d="M57.057,0,18.115,8.2,0,55.3,64.308,50.35Z" transform="translate(80.117 22.333)"/><path class="a" d="M70.02,4.947,62.514,24.462,57.606,8.1,6.937,29.634,0,76.728,36.893,75.7l8.2-42.018L62.514,69.555l4.1,3.074L84.035,32.661,89.16,77.753h56.364L134.328,0Z" transform="translate(10.097 72.683)"/><path class="a" d="M0,73.8c3.535-8.1,30.158-61.051,30.158-61.051L64.176,0,25.233,8.2Z" transform="translate(72.999 22.334)"/><path class="a" d="M22.435,7.615l16.843.815L39.208,8.2,17.686,0,0,120.08Z" transform="translate(11.882 17.21)"/><g transform="translate(10.455 95.36)"><path class="a" d="M0,50.4l36.535-1.015L44.511,8.516,42.289,0,30.165,43.651Z" transform="translate(0 3.638)"/><path class="a" d="M.923,8.125H57.288l-.027-.189L0,0Z" transform="translate(87.878 46.951)"/><path class="a" d="M2.1,49.952,18.557,12.207,18.757,0,0,48.373Z" transform="translate(64.151 0)"/></g></g><g transform="translate(167.285 3.976) rotate(3)"><path class="a" d="M93.3,145.519l5.672-43.866-38.678,5.378.16-4.643,39.068-4.995,3.309-25.585L59.044,72.99l-.583-7.417,44.8,2.889L112.071.324,0,0,13.769,145.519Z"/><path class="a" d="M4.317,64.946h62.51l2.584-21.7L34.8,45.314,32.214,24.133l43.4-6.2V9.668l-43.4-.517L31.63,0,0,22.469Z" transform="translate(16.277 72.97)"/><path class="a" d="M59.9,48.172,87.5,28.562l2.9-27.012L0,0,8.6,84.612l31.63-22.469-.966-15.13Z" transform="translate(7.678 10.827)"/><path class="a" d="M25.344,21.034,27.606,0,0,19.61Z" transform="translate(67.576 39.388)"/><path class="a" d="M7.738,7.277l82.649-5.53.021-.2L0,0,9.728,95.721Z" transform="translate(7.678 10.827)"/><path class="a" d="M43.838,0,0,2.116,6.21,26.629l.213-.138L3.889,5.707Z" transform="translate(44.603 91.395)"/><path class="a" d="M50.606,30.434,53.878,0,46.085,26.591,0,23.322,5.884,52.084l.285-.075L4.627,27.851Z" transform="translate(42.315 29.988)"/></g><g transform="translate(274.682 3.976) rotate(9)"><path class="a" d="M107.166,48.022C105.3,31.346,92.8,14.662,76.768,7.448,65.786,2.506,49.666,0,28.856,0,15.71,0,5.736,1.034,5.318,1.078L0,1.639,11.872,157.57H116.014L86.092,88.439a32.2,32.2,0,0,0,2.954-1.968C102.381,76.422,108.816,62.768,107.166,48.022Z" transform="translate(0 0)"/><path class="a" d="M28.016,1.606,0,23.891,2.912,61.452l30.744-1.025-1.731-50.2L52.1,61.452l27.671,1.025L52.1,0Z" transform="translate(15.228 87.326)"/><path class="a" d="M22.084,73.861l13.27-.884,5.412-4.3-5.412,4.3,24.088-1.606-.568-1.282C69.115,66.73,82.154,57.041,83.01,41.615,84.035,23.168,61.489-4.5,0,.622l7.336,94.64L35.353,72.977ZM57.391,48.788c-1.025,13.323-22.546,12.3-22.546,12.3l-1.025-24.6S58.416,35.465,57.391,48.788Z" transform="translate(7.89 15.956)"/><path class="a" d="M7.3,8.53c14.08-4.332,39.283-2.37,61.787,6.739C56.333,5.064,34.19-2.227,0,.622L8.808,114.245Z" transform="translate(7.89 15.955)"/><path class="a" d="M23.037.713A6.282,6.282,0,0,0,22.463,0a8.99,8.99,0,0,1,.347,3.383C21.786,16.706.264,15.681.264,15.681L0,19.507C16.974,21.933,29.479,10.053,23.037.713Z" transform="translate(42.471 61.36)"/><path class="a" d="M3.837,7.8l20.177,51.22,27.671,1.025-.8-1.815L26.437,54.154,1.308,0,0,58.178l5.568-.186Z" transform="translate(43.316 89.762)"/><path class="a" d="M2.675,29.1C12.916,25.74,25.955,16.052,26.811.625c.011-.207.017-.416.022-.625C23.229,13.74,7.854,23.264,0,26.092l4.608,7.372Z" transform="translate(64.089 56.944)"/></g><g transform="translate(349.177 30.685) rotate(-8)"><path class="a" d="M63.9,161.473c13.868,0,25.108-4.237,33.411-12.594,14.221-14.316,14.246-35.449,14.24-36.341l-.031-4.708L83.949,103l-.875,5.693a8.608,8.608,0,0,1-8.824,7.4c-8.587,0-15.062-9.079-15.062-21.117,0-11.2,2.067-19.562,5.98-24.176,2.686-3.168,6.318-4.707,11.1-4.707,7.3,0,14.273,3.622,14.329,3.651l5.66,3.014,22.03-58.222-3.911-2.455C113.594,11.59,94.788,0,65.2,0,38.941,0,23.386,14.149,14.96,26.018A84.822,84.822,0,0,0,0,73.4c0,23.984,6.533,46.18,18.4,62.5C30.382,152.391,46.544,161.473,63.9,161.473Z" transform="translate(0 0)"/><path class="a" d="M48.379,53.171a30.69,30.69,0,0,1,32.106-5.16l11.466-37.84S71.311-2.442,47.232.424-2.647,26.223.219,68.65A111.522,111.522,0,0,0,6.371,98.835L38.163,81.716C38.122,70.556,41.086,59.383,48.379,53.171Z" transform="translate(8.304 11.572)"/><path class="a" d="M41.433,30.506C35.671,25.048,31.837,12.531,31.792,0L0,17.119c9.471,26.324,28.454,43.626,50.606,43.2,29.813-.573,32.68-33.826,32.68-33.826L74.113,24.2C68.381,36.24,52.327,40.827,41.433,30.506Z" transform="translate(14.675 93.289)"/><path class="a" d="M77.045,3.7A71.136,71.136,0,0,0,47.232.424C23.152,3.29-2.647,26.223.219,68.65q.36,5.322,1.158,10.4C1.139,11.517,52.746,1.787,77.045,3.7Z" transform="translate(8.304 11.573)"/><path class="a" d="M14.856,0A21.125,21.125,0,0,1,0,11.625C6.5,13.336,15.968,5.35,15.968,5.35l7.414.951a37.326,37.326,0,0,0,.647-4.007Z" transform="translate(73.932 117.488)"/><path class="a" d="M82.091,14.938C73.571,27.97,63.349,40.885,43.177,36.917,27.112,33.757,9.717,16.639,0,0,9.51,26.143,28.429,43.3,50.491,42.88,72.323,42.46,79.7,24.516,82.091,14.938Z" transform="translate(14.792 110.728)"/><path class="a" d="M12.652,42.959A30.69,30.69,0,0,1,44.758,37.8L56.111.335,56.014,0,41.867,31.557A30.091,30.091,0,0,0,12.125,37C-1.738,48.433-2.715,70.073,4.169,85.978.613,71.288,2.109,51.94,12.652,42.959Z" transform="translate(44.031 21.783)"/></g><g transform="translate(467.401 0.2) rotate(3)"><path class="a" d="M74.112,166.683l-2.147-28.936h4.364l.5,28.936h49.637L131.8,0,74.144,11.694l1.531,88.322L69.106,99.2,62.658,12.269,0,21.219,7.38,166.683Z" transform="translate(0 0)"/><path class="a" d="M38.466,0,0,8.742.506,66.679l34.643-4.949Z" transform="translate(83.499 14.711)"/><path class="a" d="M70.622,4.948l.3,34.2L42.577,34.488,41.366,12.581,0,39.973l1.928,40.5,43.128-1.166L43.628,53.485l27.41-.884.244,27.874,29.724-1.166L105.266,0Z" transform="translate(13.382 76.442)"/><path class="a" d="M41.962,0,0,5.244,3.9,87.133,45.266,59.742Z" transform="translate(9.482 29.281)"/><path class="a" d="M0,5.229,3.993,89.066,5.552,10.455,41.835,0Z" transform="translate(9.482 29.297)"/><path class="a" d="M32.166,13.319,66.005,0,27.539,8.742l.806,92.136L0,96.219,32.166,107.1Z" transform="translate(55.959 14.711)"/><path class="a" d="M0,0" transform="translate(8.897 160.055)"/><g transform="translate(16.488 123.552)"><path class="a" d="M41.951,32.2,40.523,6.375,67.491,5.5,38.5,0,35.917,28.022,0,33.332Z" transform="translate(0 0)"/><path class="a" d="M29.786,4.633,0,0,.052,6,29.776,4.836Z" transform="translate(68.125 27.362)"/></g></g></g><g transform="translate(0 9.1) rotate(-3)"><path class="a" d="M76.267,62.877,62.957,12.488,22.37,0,0,159.225H57.706l3.27-21.8,6.161,14.454,16.309,9.593,5.65-15.992,1.227,13.743h83.549L148.922,1.647,94.255,14.594Z" transform="translate(0 0)"/><path class="b" d="M34.056,8.2,12.534,0,0,85.107,50.669,63.573Z" transform="translate(17.034 17.21)"/><path class="b" d="M57.057,0,18.115,8.2,0,55.3,64.308,50.35Z" transform="translate(80.117 22.333)"/><path class="c" d="M70.02,4.947,62.514,24.462,57.606,8.1,6.937,29.634,0,76.728,36.893,75.7l8.2-42.018L62.514,69.555l4.1,3.074L84.035,32.661,89.16,77.753h56.364L134.328,0Z" transform="translate(10.097 72.683)"/><path class="d" d="M0,73.8c3.535-8.1,30.158-61.051,30.158-61.051L64.176,0,25.233,8.2Z" transform="translate(72.999 22.334)"/><path class="d" d="M22.435,7.615l16.843.815L39.208,8.2,17.686,0,0,120.08Z" transform="translate(11.882 17.21)"/><g transform="translate(10.455 95.36)"><path class="e" d="M0,50.4l36.535-1.015L44.511,8.516,42.289,0,30.165,43.651Z" transform="translate(0 3.638)"/><path class="e" d="M.923,8.125H57.288l-.027-.189L0,0Z" transform="translate(87.878 46.951)"/><path class="e" d="M2.1,49.952,18.557,12.207,18.757,0,0,48.373Z" transform="translate(64.151 0)"/></g></g><g transform="translate(167.288 3.977) rotate(3)"><path class="a" d="M93.3,145.519l5.672-43.866-38.678,5.378.16-4.643,39.068-4.995,3.309-25.585L59.044,72.99l-.583-7.417,44.8,2.889L112.071.324,0,0,13.769,145.519Z"/><path class="c" d="M4.317,64.946h62.51l2.584-21.7L34.8,45.314,32.214,24.133l43.4-6.2V9.668l-43.4-.517L31.63,0,0,22.469Z" transform="translate(16.277 72.97)"/><path class="b" d="M59.9,48.172,87.5,28.562l2.9-27.012L0,0,8.6,84.612l31.63-22.469-.966-15.13Z" transform="translate(7.678 10.827)"/><path class="c" d="M25.344,21.034,27.606,0,0,19.61Z" transform="translate(67.576 39.388)"/><path class="d" d="M7.738,7.277l82.649-5.53.021-.2L0,0,9.728,95.721Z" transform="translate(7.678 10.827)"/><path class="e" d="M43.838,0,0,2.116,6.21,26.629l.213-.138L3.889,5.707Z" transform="translate(44.603 91.395)"/><path class="e" d="M50.606,30.434,53.878,0,46.085,26.591,0,23.322,5.884,52.084l.285-.075L4.627,27.851Z" transform="translate(42.315 29.988)"/></g><g transform="translate(274.68 3.977) rotate(9)"><path class="a" d="M107.166,48.022C105.3,31.346,92.8,14.662,76.768,7.448,65.786,2.506,49.666,0,28.856,0,15.71,0,5.736,1.034,5.318,1.078L0,1.639,11.872,157.57H116.014L86.092,88.439a32.2,32.2,0,0,0,2.954-1.968C102.381,76.422,108.816,62.768,107.166,48.022Z" transform="translate(0 0)"/><path class="c" d="M28.016,1.606,0,23.891,2.912,61.452l30.744-1.025-1.731-50.2L52.1,61.452l27.671,1.025L52.1,0Z" transform="translate(15.228 87.326)"/><path class="b" d="M22.084,73.861l13.27-.884,5.412-4.3-5.412,4.3,24.088-1.606-.568-1.282C69.115,66.73,82.154,57.041,83.01,41.615,84.035,23.168,61.489-4.5,0,.622l7.336,94.64L35.353,72.977ZM57.391,48.788c-1.025,13.323-22.546,12.3-22.546,12.3l-1.025-24.6S58.416,35.465,57.391,48.788Z" transform="translate(7.89 15.956)"/><path class="d" d="M7.3,8.53c14.08-4.332,39.283-2.37,61.787,6.739C56.333,5.064,34.19-2.227,0,.622L8.808,114.245Z" transform="translate(7.89 15.955)"/><path class="f" d="M23.037.713A6.282,6.282,0,0,0,22.463,0a8.99,8.99,0,0,1,.347,3.383C21.786,16.706.264,15.681.264,15.681L0,19.507C16.974,21.933,29.479,10.053,23.037.713Z" transform="translate(42.471 61.36)"/><path class="e" d="M3.837,7.8l20.177,51.22,27.671,1.025-.8-1.815L26.437,54.154,1.308,0,0,58.178l5.568-.186Z" transform="translate(43.316 89.762)"/><path class="e" d="M2.675,29.1C12.916,25.74,25.955,16.052,26.811.625c.011-.207.017-.416.022-.625C23.229,13.74,7.854,23.264,0,26.092l4.608,7.372Z" transform="translate(64.089 56.944)"/></g><g transform="translate(349.176 30.685) rotate(-8)"><path class="a" d="M63.9,161.473c13.868,0,25.108-4.237,33.411-12.594,14.221-14.316,14.246-35.449,14.24-36.341l-.031-4.708L83.949,103l-.875,5.693a8.608,8.608,0,0,1-8.824,7.4c-8.587,0-15.062-9.079-15.062-21.117,0-11.2,2.067-19.562,5.98-24.176,2.686-3.168,6.318-4.707,11.1-4.707,7.3,0,14.273,3.622,14.329,3.651l5.66,3.014,22.03-58.222-3.911-2.455C113.594,11.59,94.788,0,65.2,0,38.941,0,23.386,14.149,14.96,26.018A84.822,84.822,0,0,0,0,73.4c0,23.984,6.533,46.18,18.4,62.5C30.382,152.391,46.544,161.473,63.9,161.473Z" transform="translate(0 0)"/><path class="b" d="M48.379,53.171a30.69,30.69,0,0,1,32.106-5.16l11.466-37.84S71.311-2.442,47.232.424-2.647,26.223.219,68.65A111.522,111.522,0,0,0,6.371,98.835L38.163,81.716C38.122,70.556,41.086,59.383,48.379,53.171Z" transform="translate(8.304 11.572)"/><path class="c" d="M41.433,30.506C35.671,25.048,31.837,12.531,31.792,0L0,17.119c9.471,26.324,28.454,43.626,50.606,43.2,29.813-.573,32.68-33.826,32.68-33.826L74.113,24.2C68.381,36.24,52.327,40.827,41.433,30.506Z" transform="translate(14.675 93.289)"/><path class="d" d="M77.045,3.7A71.136,71.136,0,0,0,47.232.424C23.152,3.29-2.647,26.223.219,68.65q.36,5.322,1.158,10.4C1.139,11.517,52.746,1.787,77.045,3.7Z" transform="translate(8.304 11.573)"/><path class="f" d="M14.856,0A21.125,21.125,0,0,1,0,11.625C6.5,13.336,15.968,5.35,15.968,5.35l7.414.951a37.326,37.326,0,0,0,.647-4.007Z" transform="translate(73.932 117.488)"/><path class="e" d="M82.091,14.938C73.571,27.97,63.349,40.885,43.177,36.917,27.112,33.757,9.717,16.639,0,0,9.51,26.143,28.429,43.3,50.491,42.88,72.323,42.46,79.7,24.516,82.091,14.938Z" transform="translate(14.792 110.728)"/><path class="e" d="M12.652,42.959A30.69,30.69,0,0,1,44.758,37.8L56.111.335,56.014,0,41.867,31.557A30.091,30.091,0,0,0,12.125,37C-1.738,48.433-2.715,70.073,4.169,85.978.613,71.288,2.109,51.94,12.652,42.959Z" transform="translate(44.031 21.783)"/></g><g transform="translate(467.396 0.201) rotate(3)"><path class="a" d="M74.112,166.683l-2.147-28.936h4.364l.5,28.936h49.637L131.8,0,74.144,11.694l1.531,88.322L69.106,99.2,62.658,12.269,0,21.219,7.38,166.683Z" transform="translate(0 0)"/><path class="b" d="M38.466,0,0,8.742.506,66.679l34.643-4.949Z" transform="translate(83.499 14.711)"/><path class="c" d="M70.622,4.948l.3,34.2L42.577,34.488,41.366,12.581,0,39.973l1.928,40.5,43.128-1.166L43.628,53.485l27.41-.884.244,27.874,29.724-1.166L105.266,0Z" transform="translate(13.382 76.442)"/><path class="b" d="M41.962,0,0,5.244,3.9,87.133,45.266,59.742Z" transform="translate(9.482 29.281)"/><path class="d" d="M0,5.229,3.993,89.066,5.552,10.455,41.835,0Z" transform="translate(9.482 29.297)"/><path class="d" d="M32.166,13.319,66.005,0,27.539,8.742l.806,92.136L0,96.219,32.166,107.1Z" transform="translate(55.959 14.711)"/><path class="g" d="M0,0" transform="translate(8.897 160.055)"/><g transform="translate(16.488 123.552)"><path class="e" d="M41.951,32.2,40.523,6.375,67.491,5.5,38.5,0,35.917,28.022,0,33.332Z" transform="translate(0 0)"/><path class="e" d="M29.786,4.633,0,0,.052,6,29.776,4.836Z" transform="translate(68.125 27.362)"/></g></g></g><g class="h" transform="matrix(1, 0, 0, 1, 880, 39.65)"><path class="d" d="M66.1,72.586a68.329,68.329,0,0,0,5.732-8.1,39.867,39.867,0,0,0,3.912-8.826,6.282,6.282,0,0,0,.273-2.275,3.9,3.9,0,0,0-1-2.093q-2-2.548,0-4.822A6.9,6.9,0,0,1,80.478,44.2a8.535,8.535,0,0,1,6.005,2.366,14.39,14.39,0,0,1,3.457,4.913,21.375,21.375,0,0,1,1.638,6.369,33.8,33.8,0,0,1,0,7.006A41.133,41.133,0,0,1,90.3,71.676a59.52,59.52,0,0,1-3.73,10.372Q84.663,85.87,83.3,88.054t-1.911,3.275a1.783,1.783,0,0,0,.546,2.184q4.731,5.277,9.372,10.918A73.57,73.57,0,0,0,101.769,114.8a8.457,8.457,0,0,1,3.275,4.822,6.886,6.886,0,0,1-.728,4.913,9.949,9.949,0,0,1-4.185,3.821,14.964,14.964,0,0,1-7.1,1.547,26.661,26.661,0,0,1-8.644-1.456A41.851,41.851,0,0,1,76.2,124.63a71.087,71.087,0,0,1-7.461-5.186q-3.548-2.821-6.642-5.55a1.968,1.968,0,0,0-1.456-.546q-1.82,0-4.731,2.093t-7.006,4.549a62.609,62.609,0,0,1-9.462,4.549,33.638,33.638,0,0,1-12.283,2.093H25.432a8.825,8.825,0,0,1-1.729-.182A24.882,24.882,0,0,1,3.322,113.8,26.819,26.819,0,0,1,.047,101.974,35.81,35.81,0,0,1,2.14,88.236a45.374,45.374,0,0,1,8.189-14.012A66.964,66.964,0,0,1,25.159,61.3a7.75,7.75,0,0,0,2.457-2.093q.273-.637-.455-3.184Q25.7,50.75,24.8,45.927a51.437,51.437,0,0,1-.91-9.553A40.783,40.783,0,0,1,24.977,27a38.3,38.3,0,0,1,3.639-9.372,20,20,0,0,1,8.007-8.917,20.713,20.713,0,0,1,10.19-2.73A23.882,23.882,0,0,1,54.729,7.35a27.84,27.84,0,0,1,7.279,3.821,24.143,24.143,0,0,1,5.732,5.914A24.579,24.579,0,0,1,71.2,24.546a21.861,21.861,0,0,1,.091,11.009,43.593,43.593,0,0,1-4.094,10.1,37.749,37.749,0,0,1-4.367,6.187q-2,2.184-3.275,3.548a7.568,7.568,0,0,0-1.638,2.366,3.306,3.306,0,0,0,.546,2.639q1.82,3.094,3.548,6.1A56.417,56.417,0,0,0,66.1,72.586ZM50.089,42.925a20.558,20.558,0,0,0,3.457-4.64A16.915,16.915,0,0,0,55.457,33.1a9.485,9.485,0,0,0-.273-4.731,5.454,5.454,0,0,0-3.275-3.275,3.269,3.269,0,0,0-2-.546,1.787,1.787,0,0,0-1.638.91,29.051,29.051,0,0,0-1.82,3.094,7.433,7.433,0,0,0-.728,3.366,13.187,13.187,0,0,0,1,4.549A39.531,39.531,0,0,0,50.089,42.925ZM36.259,81.867a44.005,44.005,0,0,0-4.731,5.823,27.688,27.688,0,0,0-3.457,6.187q-.728,2,.728,2a37.109,37.109,0,0,0,6.278-.546,26.189,26.189,0,0,0,6.1-1.82l1.092-.364q.546-.182.546-1.092a48.054,48.054,0,0,1-3.366-5Q37.9,84.414,36.259,81.867ZM168.734,29.459q-2-.364-4.822-.728a22.728,22.728,0,0,1-5.55-1.456,13.3,13.3,0,0,1-4.731-3.184,9.6,9.6,0,0,1-2.366-5.914,11.861,11.861,0,0,1,1.638-7.916,12.624,12.624,0,0,1,6.369-5.186q2-.728,6.1-1.729t9.1-1.82q5-.819,10.1-1.274a51.153,51.153,0,0,1,9.1-.091q7.279.364,11.009,4a13.1,13.1,0,0,1,4.185,8.189,14.149,14.149,0,0,1-2.093,8.826,14.868,14.868,0,0,1-7.825,6.278q-2.548.91-2.912,1.547a7.929,7.929,0,0,0-.182,3.366,163.541,163.541,0,0,1-.273,17.56q-.637,11.191-1.82,23.383t-2.639,23.292q-1.456,11.1-2.912,17.469-.546,2.366-.273,2.821t2.457.819q5.823,1.092,8.189,5a13.2,13.2,0,0,1,1.911,8.371,15.21,15.21,0,0,1-3.366,8.1,11.031,11.031,0,0,1-7.643,4.185q-3.457.364-8.917.728t-11.1.182a70.767,70.767,0,0,1-10.918-1.183,21.225,21.225,0,0,1-8.553-3.366,9.032,9.032,0,0,1-3.366-4.185,7.509,7.509,0,0,1-.273-5,11,11,0,0,1,3.094-4.731,14.652,14.652,0,0,1,6.733-3.366q1.456-.364,1.456-.728a22.731,22.731,0,0,0-.364-2.366,63.193,63.193,0,0,1-.637-6.733,109.038,109.038,0,0,1,.455-13.83q.728-9.1,2.821-23.565T166.55,39.1a43.818,43.818,0,0,1,1-4.731Q168.188,32.007,168.734,29.459ZM255.716,40.2a15.264,15.264,0,0,1,3.73,4.822,16.286,16.286,0,0,1,1.82,6.005,8.524,8.524,0,0,1-1,5.186q-1.274,2.184-4.549,2.184a18.6,18.6,0,0,0-10.372,2.73,19.53,19.53,0,0,0-6.46,6.733,25.309,25.309,0,0,0-3,8.735,33.014,33.014,0,0,0-.273,8.735,16.615,16.615,0,0,0,2.093,6.733q1.638,2.73,4,2.73a17.887,17.887,0,0,0,5.732-1.092A17.143,17.143,0,0,1,252.8,92.6q3.276,0,3.73,3.548a13.466,13.466,0,0,1-1.638,7.734,22.689,22.689,0,0,1-6.733,7.734,18.765,18.765,0,0,1-11.737,3.548,58.73,58.73,0,0,1-7.734-.637,22.849,22.849,0,0,1-9.372-3.73,29.323,29.323,0,0,1-11.1-13.193,38.8,38.8,0,0,1-2.912-16.65,51.935,51.935,0,0,1,3.912-17.469,52.983,52.983,0,0,1,9.553-15.468A32.714,32.714,0,0,1,228.33,40.2a31.688,31.688,0,0,1,10.281-3.457,28.422,28.422,0,0,1,9.644.182A16.869,16.869,0,0,1,255.716,40.2Zm67.693,20.563q0,9.1-4.731,14.74a29.993,29.993,0,0,1-10.918,8.371,28.735,28.735,0,0,1-12.1,2.639q-5.914-.091-8.28-2.457a19.241,19.241,0,0,0-.546,4.185,23.032,23.032,0,0,0,.546,6.369,13.735,13.735,0,0,0,2.821,5.823,7.433,7.433,0,0,0,6.1,2.548,7.881,7.881,0,0,0,4.731-2q2.548-2,5.186-4.094a29.2,29.2,0,0,1,5-3.275,3.169,3.169,0,0,1,4,.455q1.638,1.638.728,5.823a22.82,22.82,0,0,1-4,8.462,31.628,31.628,0,0,1-8.1,7.643,20.212,20.212,0,0,1-11.555,3.366q-11.828,0-19.016-6.1a32.484,32.484,0,0,1-10.1-15.286,49.686,49.686,0,0,1-1.911-19.835,56.15,56.15,0,0,1,5.55-19.835,42.788,42.788,0,0,1,12.556-15.286,30.345,30.345,0,0,1,18.925-6.1q12.01,0,18.561,6.278T323.409,60.758ZM292.292,70.4a4.568,4.568,0,0,0,1.092,1.82q1.274,2,4.731,2a8.827,8.827,0,0,0,6.187-2.548,15.873,15.873,0,0,0,4-5.732,9.277,9.277,0,0,0,.637-5.732q-.637-2.548-3.912-2.548a8.083,8.083,0,0,0-5.368,1.911,19.684,19.684,0,0,0-3.912,4.458A28.809,28.809,0,0,0,292.292,70.4Z" transform="matrix(0.98, -0.17, 0.17, 0.98, 189.81, 176.29)"/></g></g></svg>