<?xml version="1.0" encoding="UTF-8" standalone="no"?>
<!DOCTYPE svg PUBLIC "-//W3C//DTD SVG 1.1//EN" "http://www.w3.org/Graphics/SVG/1.1/DTD/svg11.dtd">
<svg width="100%" height="100%" viewBox="0 0 1000 1030" version="1.1" xmlns="http://www.w3.org/2000/svg" xmlns:xlink="http://www.w3.org/1999/xlink" xml:space="preserve" xmlns:serif="http://www.serif.com/" style="fill-rule:evenodd;clip-rule:evenodd;stroke-linecap:round;stroke-linejoin:round;stroke-miterlimit:1.5;">
    <g transform="matrix(3.92682,0,0,3.92682,-2755.33,-3209.39)">
        <path d="M778.214,834.477C778.214,834.477 765.002,848.956 769.268,863.909C771.575,871.993 785.37,875.248 785.748,878.776C786.126,882.303 784.866,890.367 784.866,890.367L723.133,901.32C723.133,901.32 705.295,912.695 704.35,922.932C703.405,933.169 705.925,976.006 717.894,987.975C729.863,999.945 738.367,995.535 745.769,989.235C753.171,982.936 762.463,973.644 779.157,984.983C782.444,987.216 783.11,989.61 782.118,992.041C772.888,1014.65 745.515,1012.08 745.515,1012.08C745.515,1012.08 734.243,1030.64 736.005,1050.03C738.84,1081.21 739.155,1076.49 762.778,1076.8C786.402,1077.11 814.277,1077.9 822.309,1068.45C830.341,1059 838.688,1039.79 836.641,1033.49L804.986,1010.97L811.6,1005.3C811.6,1005.3 828.452,996.322 842.153,996.952C855.855,997.582 854.752,1001.2 853.177,1018.06C851.602,1034.91 853.335,1053.18 880.896,1049.4C908.456,1045.62 927.197,1031.13 931.45,1028.45C935.702,1025.77 944.836,1000.73 944.836,1000.73L918.408,953.339C918.408,953.339 922.439,947.417 931.763,946.661C941.086,945.905 951.291,936.582 952.929,917.935C954.567,899.288 924.329,906.596 924.329,906.596L862.432,926.85L778.214,834.477" style="fill:rgb(168,184,194);stroke:black;stroke-width:5px;"/>
        <path d="M799.17,881.909C799.17,881.909 799.674,874.098 795.012,870.066C790.351,866.034 773.342,861.499 773.594,848.521C773.846,835.544 783.421,824.205 803.58,820.677C823.738,817.149 840.243,824.583 843.141,837.182C846.039,849.781 832.432,852.931 834.952,860.869C837.472,868.806 849.205,868.194 855.737,864.646C862.268,861.098 877.911,853.922 880.734,850.132C883.556,846.342 887.668,848.6 888.152,857.389C888.636,866.178 888.752,889.033 895.933,899.365C903.115,909.696 907.65,911.712 912.06,907.302C916.47,902.892 915.336,896.845 917.73,890.293C920.124,883.742 933.479,877.19 940.156,884.498C946.834,891.805 958.299,909.066 952,921.035C945.7,933.004 934.109,931.367 927.053,931.87C919.998,932.374 914.706,948.753 922.517,962.99C930.329,977.228 941.306,992.267 944.456,996.677C947.606,1001.09 939.731,1009.59 926.187,1015.89C912.643,1022.19 890.563,1035.73 875.242,1032.21C859.922,1028.68 858.511,1021.52 864.457,1006.81C870.404,992.091 876.049,978.685 846.315,977.577C816.581,976.468 810.634,995.417 811.138,1003.28C811.642,1011.14 811.138,1016.08 824.241,1022.13C837.344,1028.17 842.495,1038.44 822.84,1050.78C803.185,1063.13 766.27,1059.35 758.584,1059.35C750.899,1059.35 751.025,1058.47 748.505,1044.61C745.985,1030.75 743.717,1018.53 744.977,1013.36C746.237,1008.2 751.151,1010.09 758.836,1008.2C766.522,1006.31 780.759,997.74 780.255,984.133C779.751,970.526 764.38,968.006 757.45,968.51C750.521,969.014 747.371,979.976 738.048,978.464C728.724,976.952 719.046,967.447 719.046,945.989C719.046,924.531 720.666,910.153 721.795,903.864C722.924,897.574 727.923,899.268 732.439,898.945C736.955,898.622 761.411,895.121 771.692,891.19C781.973,887.259 799.17,881.909 799.17,881.909" style="fill:rgb(245,253,255);"/>
        <path d="M720.817,919.969C720.817,919.969 749.374,925.728 782.185,923.636C782.185,923.636 771.973,947.31 767.656,967.815L723.652,965.798C723.652,965.798 716.25,949.447 720.817,919.969Z" style="fill:rgb(129,171,255);"/>
        <path d="M814.048,876.986L853.736,865.804C853.736,865.804 873.422,897.775 874.839,908.011C874.839,908.011 832.947,922.185 813.733,921.87L814.048,876.986Z" style="fill:rgb(129,171,255);"/>
        <path d="M919.51,936.641L895.03,948L919.794,987.378L932.739,980.108C932.739,980.108 916.046,959.162 919.51,936.641Z" style="fill:rgb(129,171,255);"/>
        <path d="M782.185,1015.98L813.733,1013.31C813.733,1013.31 824.912,1020.87 833.101,1027.01C841.291,1033.15 831.842,1048.74 818.297,1054.41C804.753,1060.08 778.453,1059.61 778.453,1059.61C778.453,1059.61 778.672,1030.16 782.185,1015.98Z" style="fill:rgb(129,171,255);"/>
        <path id="Top-Frame" serif:id="Top Frame" d="M799.17,881.909C799.17,881.909 799.674,874.098 795.012,870.066C790.351,866.034 773.342,861.499 773.594,848.521C773.846,835.544 783.421,824.205 803.58,820.677C823.738,817.149 840.243,824.583 843.141,837.182C846.039,849.781 832.432,852.931 834.952,860.869C837.472,868.806 849.205,868.194 855.737,864.646C862.268,861.098 876.108,853.394 880.734,850.132C883.802,847.968 887.668,848.6 888.152,857.389C888.636,866.178 888.752,889.033 895.933,899.365C903.115,909.696 907.65,911.712 912.06,907.302C916.47,902.892 915.336,896.845 917.73,890.293C920.124,883.742 933.479,877.19 940.156,884.498C946.834,891.805 958.299,909.066 952,921.035C945.7,933.004 934.109,931.367 927.053,931.87C919.998,932.374 914.706,948.753 922.517,962.99C930.329,977.228 941.306,992.267 944.456,996.677C947.606,1001.09 939.731,1009.59 926.187,1015.89C912.643,1022.19 890.563,1035.73 875.242,1032.21C859.922,1028.68 858.511,1021.52 864.457,1006.81C870.404,992.091 876.049,978.685 846.315,977.577C816.581,976.468 810.634,995.417 811.138,1003.28C811.642,1011.14 811.138,1016.08 824.241,1022.13C837.344,1028.17 842.495,1038.44 822.84,1050.78C803.185,1063.13 766.27,1059.35 758.584,1059.35C750.899,1059.35 751.025,1058.47 748.505,1044.61C745.985,1030.75 743.717,1018.53 744.977,1013.36C746.237,1008.2 751.151,1010.09 758.836,1008.2C766.522,1006.31 780.759,997.74 780.255,984.133C779.751,970.526 764.38,968.006 757.45,968.51C750.521,969.014 747.371,979.976 738.048,978.464C728.724,976.952 719.046,967.447 719.046,945.989C719.046,924.531 721.13,910.219 721.795,903.864C722.16,900.375 727.923,899.268 732.439,898.945C736.955,898.622 761.411,895.121 771.692,891.19C781.973,887.259 799.17,881.909 799.17,881.909" style="fill:none;stroke:black;stroke-width:5px;"/>
        <path d="M795.987,882.825C795.987,882.825 811.933,877.613 817.764,875.703C823.596,873.794 845.524,867.575 849.116,866.869" style="fill:none;stroke:black;stroke-width:5px;"/>
        <path d="M895.03,899.243C881.249,906.724 866.332,911.72 845.268,917.626C824.204,923.532 791.525,923.138 766.72,923.729C741.916,924.319 719.041,919.852 719.041,919.852C719.041,919.852 708.563,925.176 704.612,928.966" style="fill:none;stroke:black;stroke-width:5px;"/>
        <path d="M924.089,932.987C918.105,936.767 911.333,941.807 896.255,948C881.178,954.193 852.274,962.438 826.245,965.442C800.216,968.446 783.609,968.58 768.175,968.265C752.741,967.95 721.621,966.055 721.621,966.055C721.621,966.055 712.59,973.312 711.38,976.054" style="fill:none;stroke:black;stroke-width:5px;"/>
        <path d="M782.185,1016.6C776.2,1039.12 778.08,1059.9 778.08,1059.9C778.08,1059.9 775.988,1073.16 772.375,1076.58" style="fill:none;stroke:black;stroke-width:5px;"/>
        <path d="M829.905,998.365C829.905,998.365 823.325,986.431 822.68,984.303C822.035,982.174 824.859,965.952 824.859,965.952" style="fill:none;stroke:black;stroke-width:5px;"/>
        <path d="M853.52,1013.01C853.52,1013.01 859.004,1006.64 866.099,1003.17C866.099,1003.17 879.969,1002.27 891.419,998.365C902.869,994.461 923.834,986.801 933.026,980.754" style="fill:none;stroke:black;stroke-width:5px;"/>
        <path d="M894.473,998.365C894.473,998.365 908.685,1018.15 907.576,1025.92C906.467,1033.68 903.751,1041.54 898.913,1044.56" style="fill:none;stroke:black;stroke-width:5px;"/>
        <path d="M743.921,1017.32C743.921,1017.32 784.364,1017.01 812.209,1013.01" style="fill:none;stroke:black;stroke-width:5px;"/>
        <path d="M753.504,923.071C753.504,923.071 755.117,913.698 760.762,906.037C766.406,898.377 770.74,892.43 774.873,889.91" style="fill:none;stroke:black;stroke-width:5px;"/>
        <path d="M845.254,917.798C845.254,917.798 863.394,941.983 865.914,957.606" style="fill:none;stroke:black;stroke-width:5px;"/>
        <path d="M895.284,948.381C895.284,948.381 911.605,971.157 919.794,987.378" style="fill:none;stroke:black;stroke-width:5px;"/>
        <path d="M853.623,866.029C853.623,866.029 873.467,893.376 874.884,908.18" style="fill:none;stroke:black;stroke-width:5px;"/>
        <path d="M813.936,876.84L812.834,922.196" style="fill:none;stroke:black;stroke-width:5px;"/>
        <path d="M767.656,967.815C767.656,967.815 768.403,951.732 782.185,923.636" style="fill:none;stroke:black;stroke-width:5px;"/>
        <path id="Shadow" d="M751.502,896.023C751.502,896.023 771.286,967.336 827.884,980.87C827.884,980.87 847.816,974.226 858.151,978.901C868.487,983.577 870.002,990.221 866.168,1001.29C866.168,1001.29 902.327,1014.14 932.093,1013.67C932.093,1013.67 893.35,1033.51 873.507,1031.62C873.507,1031.62 855.837,1028.47 866.168,1004.38C876.499,980.279 865.632,981.228 862.955,980.754C860.278,980.279 834.445,974.452 828.541,979.177C822.638,983.902 801.849,994.611 811.928,1008.31C822.008,1022.01 819.798,1019.34 828.541,1025.32C837.284,1031.31 837.914,1051.15 806.889,1056.5C775.863,1061.86 760.902,1061.24 756.335,1059.9C751.768,1058.55 747.988,1049.73 747.043,1038.08C746.098,1026.42 743.263,1010.68 747.043,1009.57C750.823,1008.47 769.564,1009.39 776.178,996.88C782.793,984.374 778.698,972.247 769.406,970.2C760.114,968.153 753.439,968.875 742.476,978.705C737.908,982.799 717.666,968.674 719.046,945.632C720.427,922.59 723.104,899.596 723.104,899.596L751.502,896.023Z" style="fill-opacity:0.15;"/>
    </g>
</svg>
