<svg xmlns="http://www.w3.org/2000/svg" width="63.883" height="50.047" viewBox="0 0 63.883 50.047">
  <g id="Group_33448" data-name="Group 33448" transform="translate(0 0)">
    <g id="Group_33447" data-name="Group 33447">
      <path id="Path_146112" data-name="Path 146112" d="M234.064,436.821c-10.58,1.927-19.425,9.089-21.785,17.654a10.059,10.059,0,0,0-.014,6.267c2.059,5.419,9.952,7.6,16.82,8.735,11.063,1.827,23.1,2.9,33.2-1.19,10-4.045,13.691-8.764,13.34-13.318C274.773,443.931,250.174,433.888,234.064,436.821Z" transform="translate(-211.769 -421.051)" fill="#00142d" opacity="0.16"/>
      <path id="Path_146140" data-name="Path 146140" d="M234.064,428.943a29.465,29.465,0,0,0-21.785,21.825,15.243,15.243,0,0,0-.014,7.747c2.059,6.7,9.952,9.4,16.82,10.8,11.063,2.259,23.1,3.58,33.2-1.471,10-5,13.691-10.835,13.34-16.465C274.773,437.733,250.174,425.317,234.064,428.943Z" transform="translate(-211.769 -428.305)" fill="#fff"/>
    </g>
    <path id="Path_146141" data-name="Path 146141" d="M275.628,433.846c.351,5.629-3.339,11.464-13.34,16.465-10.1,5.051-22.135,3.73-33.2,1.471-6.868-1.4-14.762-4.1-16.82-10.8a15.192,15.192,0,0,1,.014-7.747c1.58,3.935,5.106,6.682,9.027,8.3s8.207,2.118,12.434,2.446c7.347.569,14.793.66,22.026-.742S270.2,438.829,275.628,433.846Z" transform="translate(-211.767 -410.777)" fill="#edf6fd"/>
  </g>
</svg>
