<svg xmlns="http://www.w3.org/2000/svg" width="264.937" height="33.054" viewBox="0 0 264.937 33.054">
  <g id="Group_32948" data-name="Group 32948" transform="translate(-845.497 -112)">
    <path id="Path_146102" data-name="Path 146102" d="M194.856,108.876q.732.122,1.416.281c5.769,1.348,8.041,1.422,14.452.4,6.473-1.028,13.274-.7,19.93-.365l9.89.5c5.317.267,10.637.535,15.922.98,3.612.3,7.2.69,10.819.982,10.476.849,21.07.914,31.634.976,16.491.1,33.087.192,49.343-1.548,5.931-.635,11.9-1.516,17.894-1.187,3.941.216,7.851.955,11.785.694,4.143-.275,7.868-1.626,11.684-2.67,7.259-1.986,15.514-2.913,23.174-1.648s14.517,5.005,16.188,9.847c.779,2.258,1.5,13.962-6.936,9.913-1.328-.637-2.026-1.7-3.409-2.29-3.4-1.451-7.657.778-11.7,1.286-7.089.891-13.612-3.768-20.755-3.072-3.846.374-6.875,2.232-10.521,3.087-8.663,2.032-18.1-1.933-27.32-1.439-3.72.2-7.234,1.121-10.882,1.622a65.12,65.12,0,0,1-20.638-.878c-5.014-.946-10.187-2.3-15.307-1.61-3.739.5-6.979,2.062-10.754,2.445-6.47.658-12.5-2.232-19.024-2.645-7.632-.484-14.8,2.45-22.462,2.739-9.862.372-19.592-3.661-29.177-2.165-3.317.518-6.35,1.678-9.734,1.974-8.423.735-17.384-3.944-24.858-1.407-2.055.7-3.622,1.868-5.677,2.566-6.375,2.165-14.915-1.691-15.321-6.22s5.351-8.589,12.124-10.214A51.512,51.512,0,0,1,194.856,108.876Z" transform="translate(681 18.175)" fill="#00142d" opacity="0.16"/>
    <g id="Group_32932" data-name="Group 32932" transform="translate(845.497 112)">
      <path id="Path_146120" data-name="Path 146120" d="M194.856,101.906q.732.161,1.416.372c5.769,1.784,8.041,1.882,14.452.535,6.473-1.361,13.274-.927,19.93-.483l9.89.659c5.317.354,10.637.708,15.922,1.3,3.612.4,7.2.913,10.819,1.3,10.476,1.124,21.07,1.21,31.634,1.292,16.491.13,33.087.254,49.343-2.049,5.931-.84,11.9-2.006,17.894-1.571,3.941.286,7.851,1.264,11.785.919,4.143-.364,7.868-2.152,11.684-3.534,7.259-2.629,15.514-3.856,23.174-2.182s14.517,6.625,16.188,13.035c.779,2.989,1.5,18.482-6.936,13.122-1.328-.843-2.026-2.251-3.409-3.031-3.4-1.921-7.657,1.03-11.7,1.7-7.089,1.18-13.612-4.987-20.755-4.067-3.846.5-6.875,2.954-10.521,4.086-8.663,2.69-18.1-2.558-27.32-1.9-3.72.264-7.234,1.483-10.882,2.146-6.808,1.239-13.964.5-20.638-1.162-5.014-1.252-10.187-3.045-15.307-2.131-3.739.668-6.979,2.729-10.754,3.237-6.47.87-12.5-2.955-19.024-3.5-7.632-.64-14.8,3.244-22.462,3.626-9.862.492-19.592-4.846-29.177-2.866-3.317.686-6.35,2.222-9.734,2.613-8.423.973-17.384-5.221-24.858-1.863-2.055.924-3.622,2.473-5.677,3.4-6.375,2.866-14.915-2.238-15.321-8.233s5.351-11.369,12.124-13.521C181.707,101.538,189.277,100.674,194.856,101.906Z" transform="translate(-164.497 -97.696)" fill="#fff"/>
      <path id="Path_146121" data-name="Path 146121" d="M428.984,112.87c.779,2.769,1.5,17.118-6.936,12.153-1.328-.781-2.026-2.085-3.409-2.807-3.4-1.779-7.657.954-11.7,1.577-7.089,1.092-13.612-4.619-20.755-3.767-3.846.459-6.875,2.736-10.521,3.785-8.663,2.492-18.1-2.369-27.32-1.764-3.72.244-7.234,1.374-10.882,1.988a53.356,53.356,0,0,1-20.638-1.076c-5.014-1.16-10.187-2.82-15.307-1.974-3.739.618-6.979,2.528-10.754,3-6.47.806-12.5-2.737-19.024-3.243-7.632-.593-14.8,3-22.462,3.358-9.862.456-19.592-4.489-29.177-2.654-3.317.635-6.35,2.058-9.734,2.42-8.423.9-17.384-4.836-24.858-1.725-2.055.856-3.622,2.29-5.677,3.146-6.375,2.654-14.915-2.073-15.321-7.626,1.426,3.569,8.233,3.523,13.008,2.791s9.1-2.761,13.907-3.37c8.61-1.091,17.2,2.508,25.906,2.044,4.84-.258,9.442-1.762,14.271-2.133,7.574-.581,15.075,1.656,22.686,1.575,7.82-.083,15.409-2.609,23.217-2.276,6.048.258,11.916,2.228,17.955,1.875,5.91-.345,11.548-2.9,17.426-2.307,3.526.357,6.681,1.817,10.08,2.62,12.18,2.88,25.4-2.938,37.893-.986,2.54.4,5,1.112,7.572,1.342,8.084.723,16.357-3.373,24.1-1.438,2.621.655,4.94,1.97,7.645,2.38,6.5.985,13.214-3.469,19.423-1.7a13.987,13.987,0,0,0,3.618.93C426.792,119.057,429.072,115.608,428.984,112.87Z" transform="translate(-164.49 -98.02)" fill="#edf6fd"/>
    </g>
  </g>
</svg>
