<svg xmlns="http://www.w3.org/2000/svg" width="188.003" height="81.281" viewBox="0 0 188.003 81.281">
  <g id="Group_33425" data-name="Group 33425" transform="translate(-855.751 -161.708)">
    <path id="Path_146111" data-name="Path 146111" d="M72.211,14.5a23.887,23.887,0,0,0-2.13,5.258,21.356,21.356,0,0,0-17.4.771,17.415,17.415,0,0,0-9.451,13.149c-4.84-.448-8.833.73-13.5,1.365-3.422.466-6.741.482-10.158,1.348-6.8,1.719-14.023,4.828-18.236,10.125A5.08,5.08,0,0,0,.019,50.089c.306,2.848,4.1,4.286,7.281,4.243,8.276-.112,14.515-.726,22.561,1.526,6.616,1.852,12.818,5.261,20.034,4.056,3.47-.579,6.615-2.188,10-3.088C71.647,53.7,84.4,59.446,96.4,57.2c8.815-1.65,16.638-6.531,25.294-8.828,5.63-1.494,15.578-.4,19.9-3.392a7.432,7.432,0,0,0,2.918-6.927c-.831-8.23-7.837-11.4-15.582-13.94-3.584-1.177-3.951-3.434-4.692-6.721-3.5-15.525-25-21.4-39.443-14.586A28.034,28.034,0,0,0,72.211,14.5Z" transform="matrix(0.999, 0.052, -0.052, 0.999, 864.996, 171.963)" fill="#00142d" opacity="0.16"/>
    <path id="Path_146112" data-name="Path 146112" d="M218.053,436.485a8.3,8.3,0,0,0-6.14,6.152,4.3,4.3,0,0,0,0,2.184c.58,1.888,2.8,2.648,4.741,3.044,3.118.637,6.51,1.009,9.357-.415,2.819-1.41,3.859-3.054,3.76-4.641C229.527,438.962,222.593,435.463,218.053,436.485Z" transform="translate(643.982 -205.441)" fill="#00142d" opacity="0.16"/>
    <path id="Path_146113" data-name="Path 146113" d="M242.94,443.767a1.715,1.715,0,0,0,.715-2.035,8.5,8.5,0,0,0-4.555-3.972,4.178,4.178,0,0,0-4.379.664c-1.29,1.3-1.162,3.4-.946,5.221a9.917,9.917,0,0,0,5.139,1.085A6.38,6.38,0,0,0,242.94,443.767Z" transform="translate(650.187 -205.119)" fill="#00142d" opacity="0.16"/>
    <path id="Path_146114" data-name="Path 146114" d="M333.128,431.443a8.43,8.43,0,0,0,2.757.1,5.028,5.028,0,0,0,1.723-.981c2.493-1.911,4.936-3.979,7.844-5.168s6.453-1.353,9.019.458a33.975,33.975,0,0,1,3.084,2.928c2.2,2.01,5.1,3.1,7.407,4.991a8.292,8.292,0,0,1,3.063,5.158,4.47,4.47,0,0,1-.493,2.669c-1,1.836-3.213,2.686-5.3,2.837s-4.173-.245-6.263-.2c-4.908.11-9.937,2.63-14.533.906-2.675-1-4.759-3.342-7.539-4-2.012-.478-4.117-.006-6.182-.092-2.757-.114-3.958-.964-4.139-2.116C323.118,436.009,329.231,431.139,333.128,431.443Z" transform="translate(675.697 -208.791)" fill="#00142d" opacity="0.16"/>
    <g id="Group_32941" data-name="Group 32941" transform="translate(855.751 161.708)">
      <path id="Path_146138" data-name="Path 146138" d="M72.211,16.139a28.369,28.369,0,0,0-2.13,5.851A19.079,19.079,0,0,0,43.234,37.479c-4.84-.5-8.833.813-13.5,1.519-3.422.519-6.741.537-10.158,1.5C12.78,42.41,5.554,45.87,1.341,51.763A6.04,6.04,0,0,0,.019,55.735C.324,58.9,4.114,60.5,7.3,60.457c8.276-.124,14.515-.807,22.561,1.7,6.616,2.06,12.818,5.854,20.034,4.514,3.47-.644,6.615-2.435,10-3.436,11.752-3.474,24.51,2.915,36.508.417,8.815-1.836,16.638-7.267,25.294-9.823,5.63-1.662,15.578-.447,19.9-3.774,2.273-1.748,3.177-4.852,2.918-7.707-.831-9.158-7.837-12.682-15.582-15.511-3.584-1.309-3.951-3.822-4.692-7.479-3.5-17.275-25-23.817-39.443-16.23A29.488,29.488,0,0,0,72.211,16.139Z" transform="matrix(0.999, 0.052, -0.052, 0.999, 9.783, 0)" fill="#fff"/>
      <path id="Path_146139" data-name="Path 146139" d="M144.5,0c.259,2.855-.646,5.96-2.918,7.707-4.326,3.327-14.274,2.112-19.9,3.774-8.656,2.556-16.478,7.987-25.294,9.823-12,2.5-24.755-3.89-36.508-.417-3.385,1-6.53,2.791-10,3.437-7.217,1.34-13.419-2.453-20.034-4.513C21.8,17.3,15.557,17.987,7.281,18.112,4.1,18.159.306,16.561,0,13.39c8.32,3.18,18.506-1.257,27.267.343,5.511,1.008,10.7,4.173,16.285,3.75,3.643-.276,6.974-2.062,10.469-3.132,9.01-2.76,18.684-.693,27.979.868s19.432,2.457,27.6-2.248c3.125-1.8,5.872-4.383,9.339-5.374,2.647-.756,5.46-.507,8.208-.666C133.506,6.564,139.861,4.371,144.5,0Z" transform="matrix(0.999, 0.052, -0.052, 0.999, 7.584, 42.288)" fill="#edf6fd"/>
      <path id="Path_146140" data-name="Path 146140" d="M218.053,428.485a8.3,8.3,0,0,0-6.14,6.152,4.3,4.3,0,0,0,0,2.184c.58,1.888,2.8,2.648,4.741,3.044,3.118.637,6.51,1.009,9.357-.415,2.819-1.41,3.859-3.054,3.76-4.641C229.527,430.962,222.593,427.463,218.053,428.485Z" transform="translate(-211.769 -362.635)" fill="#fff"/>
      <path id="Path_146141" data-name="Path 146141" d="M229.768,433.408c.1,1.587-.941,3.231-3.76,4.641-2.846,1.424-6.239,1.051-9.357.415-1.936-.4-4.161-1.155-4.741-3.044a4.282,4.282,0,0,1,0-2.184,4.466,4.466,0,0,0,2.544,2.339,11.432,11.432,0,0,0,3.5.689,23.213,23.213,0,0,0,6.208-.209A11.519,11.519,0,0,0,229.768,433.408Z" transform="translate(-211.769 -361.236)" fill="#edf6fd"/>
      <path id="Path_146142" data-name="Path 146142" d="M242.94,435.767a1.715,1.715,0,0,0,.715-2.035,8.5,8.5,0,0,0-4.555-3.972,4.178,4.178,0,0,0-4.379.664c-1.29,1.3-1.162,3.4-.946,5.221a9.917,9.917,0,0,0,5.139,1.085A6.38,6.38,0,0,0,242.94,435.767Z" transform="translate(-205.564 -362.314)" fill="#fff"/>
      <path id="Path_146143" data-name="Path 146143" d="M243.624,432.782a1.717,1.717,0,0,1-.715,2.035,6.372,6.372,0,0,1-4.026.961,9.917,9.917,0,0,1-5.139-1.085A16.571,16.571,0,0,0,243.624,432.782Z" transform="translate(-205.534 -361.365)" fill="#edf6fd"/>
      <path id="Path_146144" data-name="Path 146144" d="M333.128,423.443a8.432,8.432,0,0,0,2.757.1,5.028,5.028,0,0,0,1.723-.981c2.493-1.911,4.936-3.98,7.844-5.168s6.453-1.353,9.019.458a33.975,33.975,0,0,1,3.084,2.928c2.2,2.01,5.1,3.1,7.407,4.991a8.292,8.292,0,0,1,3.063,5.158,4.47,4.47,0,0,1-.493,2.669c-1,1.836-3.213,2.686-5.3,2.837s-4.173-.245-6.263-.2c-4.908.11-9.937,2.63-14.533.906-2.675-1-4.759-3.342-7.539-4-2.012-.478-4.117-.006-6.182-.092-2.757-.114-3.958-.964-4.139-2.116C323.118,428.009,329.231,423.139,333.128,423.443Z" transform="translate(-180.054 -365.985)" fill="#fff"/>
      <path id="Path_146145" data-name="Path 146145" d="M368.019,427.741a4.472,4.472,0,0,1-.493,2.669c-1,1.836-3.213,2.686-5.3,2.837s-4.173-.245-6.263-.2c-4.908.11-9.937,2.63-14.533.906-2.675-1-4.759-3.342-7.539-4-2.012-.478-4.117-.006-6.182-.092-2.757-.114-3.958-.964-4.139-2.116,4.777,2.031,10.14-.72,15.019,1.05,1.227.445,2.342,1.157,3.555,1.641,5.266,2.1,11.188-.4,16.849-.092a29.824,29.824,0,0,0,5.211.244A4.361,4.361,0,0,0,368.019,427.741Z" transform="translate(-180.049 -362.795)" fill="#edf6fd"/>
    </g>
  </g>
</svg>
