<svg xmlns="http://www.w3.org/2000/svg" width="99.369" height="68.593" viewBox="0 0 99.369 68.593">
  <g id="Group_33443" data-name="Group 33443" transform="translate(0 -5.907)">
    <path id="Path_146101" data-name="Path 146101" d="M64.386,99.5c1.9,1.338,4.657.231,6.357-1.334s3.034-3.607,5.19-4.53c2.932-1.256,6.38-.038,9.548-.559,4.136-.68,7.431-3.859,11.79-3.128,1.931.324,3.763,1.059,5.687,1.417a14.935,14.935,0,0,0,11.066-2.338,1.63,1.63,0,0,1,1.957-.248,15.356,15.356,0,0,0,8.287.835,21.737,21.737,0,0,0,3.922-1.387c2.328-1,19.292-6.159,14.862-10.648a5.05,5.05,0,0,0-3.2-1.066l-18.384-1.723c-4.469-.419-9.249-.783-13.2,1.256a24.777,24.777,0,0,0-23.6-4.491c-3.735,1.274-7.129,3.453-11,4.265-9.144,1.916-20.012-3.848-27.427,1.593a12.212,12.212,0,0,0,2.828,10.793c-3.465,2.78-3.212,7.841-2.66,12.122.73,5.663,2.12,35.46,7.949,33.047C58.613,131.613,68.887,102.524,64.386,99.5Z" transform="translate(-44.417 -59.014)" fill="rgba(0,20,45,0.16)"/>
    <g id="Group_32931" data-name="Group 32931" transform="translate(0 5.907)">
      <path id="Path_146118" data-name="Path 146118" d="M64.386,92.982c1.9,1.406,4.657.242,6.357-1.4s3.034-3.79,5.19-4.759c2.932-1.319,6.38-.04,9.548-.588,4.136-.715,7.431-4.054,11.79-3.287,1.931.34,3.763,1.113,5.687,1.489a14.359,14.359,0,0,0,11.066-2.457,2.2,2.2,0,0,1,.882-.468,2.135,2.135,0,0,1,1.075.208,14.666,14.666,0,0,0,8.287.877,21.051,21.051,0,0,0,3.922-1.457c2.328-1.046,19.292-6.471,14.862-11.188a4.9,4.9,0,0,0-3.2-1.121l-18.384-1.811c-4.469-.44-9.249-.822-13.2,1.319a23.853,23.853,0,0,0-23.6-4.719c-3.735,1.339-7.129,3.628-11,4.481-9.144,2.014-20.012-4.043-27.427,1.674a13.3,13.3,0,0,0,2.828,11.341c-3.465,2.922-3.212,8.239-2.66,12.737.73,5.95,2.12,37.258,7.949,34.724C58.613,126.724,68.887,96.159,64.386,92.982Z" transform="translate(-45.936 -62.308)" fill="#fff"/>
      <path id="Path_146119" data-name="Path 146119" d="M143.052,69.951a4.9,4.9,0,0,0-3.2-1.121l-18.384-1.811c-4.469-.44-9.249-.822-13.2,1.319a23.853,23.853,0,0,0-23.6-4.719c-3.735,1.339-7.129,3.628-11,4.481-9.144,2.014-20.012-4.043-27.427,1.674a13.3,13.3,0,0,0,2.828,11.341c-3.465,2.922-3.212,8.239-2.66,12.737.73,5.95,2.12,37.258,7.949,34.723-3.086-4.491-3.923-10.146-4.121-15.591q-.263-7.189-.357-14.383c-.053-4.017-.05-8.131,1.31-11.911.831-2.308,2.177-4.582,1.928-7.023a6.453,6.453,0,0,1-.11-2.78,3.473,3.473,0,0,1,1.679-1.705c7.692-4.406,18.055,1.259,26.077-2.513,3.1-1.459,5.571-4.235,8.9-5.053,3.014-.74,6.151.271,9.089,1.27l6.869,2.336A9.786,9.786,0,0,0,110,72a13.316,13.316,0,0,0,2.717-.85C122.282,67.673,133.128,72.2,143.052,69.951Z" transform="translate(-45.936 -62.31)" fill="#edf6fd"/>
    </g>
  </g>
</svg>
