<svg xmlns="http://www.w3.org/2000/svg" width="70.548" height="62.951" viewBox="0 0 70.548 62.951">
  <g id="Group_33446" data-name="Group 33446" transform="translate(-930.726 -162.309)">
    <path id="Path_146115" data-name="Path 146115" d="M129.148,290.619c5.648,2.406,10.517,6.54,12.181,11.719a11.98,11.98,0,0,1-5.846,14.18c-5.917,3.116-13.579,1.617-20.422,2.693-4.047.636-7.941,2.2-12.054,2.087a29.07,29.07,0,0,1-8.54-1.979q-7.326-2.507-14.652-5.016a13.735,13.735,0,0,1-4.473-2.156,8.8,8.8,0,0,1-2.421-3.8C60.729,275.746,122.52,258.637,129.148,290.619Z" transform="translate(859.394 -96.046)" fill="#00142d" opacity="0.16"/>
    <g id="Group_32942" data-name="Group 32942" transform="translate(930.726 162.309)">
      <path id="Path_146146" data-name="Path 146146" d="M129.148,287.63c5.648,2.831,10.517,7.7,12.181,13.79s-.474,13.358-5.846,16.685c-5.917,3.666-13.579,1.9-20.422,3.169-4.047.749-7.941,2.593-12.054,2.456-2.966-.1-5.787-1.22-8.54-2.329q-7.326-2.949-14.652-5.9a12.991,12.991,0,0,1-4.473-2.537,10.719,10.719,0,0,1-2.421-4.471C60.729,270.128,122.52,250,129.148,287.63Z" transform="translate(-71.332 -267.578)" fill="#fff"/>
      <path id="Path_146147" data-name="Path 146147" d="M140.028,284.209c-.192,2.391-1.079,8.145-6.4,11.1-5.858,3.257-13.173,2.121-19.948,3.245-4.007.665-7.863,2.3-11.935,2.182a27.517,27.517,0,0,1-8.456-2.069q-7.254-2.62-14.508-5.243a13.309,13.309,0,0,1-4.429-2.254,9.274,9.274,0,0,1-2.4-3.972c4.828,3.636,12.074,4.646,18.173,3.219,2.449-.573,4.838-1.573,7.368-1.524,2.876.056,5.469,1.454,8.185,2.308,5.919,1.86,12.558,1.1,18.372-1.012S135.048,287.631,140.028,284.209Z" transform="translate(-69.689 -244.585)" fill="#edf6fd"/>
    </g>
  </g>
</svg>
