<svg id="Group_33444" data-name="Group 33444" xmlns="http://www.w3.org/2000/svg" width="99.346" height="71.982" viewBox="0 0 99.346 71.982">
  <path id="Path_146101" data-name="Path 146101" d="M126.549,104.842c-1.929-1.359-4.728-.234-6.454,1.355s-3.08,3.662-5.269,4.6c-2.977,1.275-6.477.039-9.694.568-4.2.69-7.544,3.918-11.97,3.176-1.961-.329-3.82-1.075-5.774-1.438a15.163,15.163,0,0,0-11.235,2.374,1.655,1.655,0,0,1-1.987.252,15.591,15.591,0,0,0-8.413-.847,22.069,22.069,0,0,0-3.982,1.408c-2.364,1.011-19.587,6.253-15.09,10.811a5.127,5.127,0,0,0,3.251,1.083L68.6,129.93c4.537.426,9.391.795,13.4-1.275a25.156,25.156,0,0,0,23.964,4.56c3.792-1.293,7.238-3.506,11.172-4.33,9.284-1.946,20.318,3.906,27.847-1.618a12.4,12.4,0,0,0-2.871-10.958c3.518-2.823,3.261-7.961,2.7-12.308-.741-5.749-2.153-36-8.071-33.553C132.411,72.238,121.98,101.772,126.549,104.842Z" transform="translate(-45.936 -62.498)" fill="rgba(0,20,45,0.16)"/>
  <g id="Group_32931" data-name="Group 32931" transform="translate(0)">
    <path id="Path_146118" data-name="Path 146118" d="M126.549,98.593c-1.929-1.427-4.728-.246-6.454,1.424s-3.08,3.848-5.269,4.832c-2.977,1.34-6.477.041-9.694.6-4.2.725-7.544,4.116-11.97,3.337-1.961-.346-3.82-1.13-5.774-1.511a14.579,14.579,0,0,0-11.235,2.495,2.231,2.231,0,0,1-.9.475,2.167,2.167,0,0,1-1.092-.211,14.89,14.89,0,0,0-8.413-.89,21.373,21.373,0,0,0-3.982,1.479c-2.364,1.062-19.587,6.57-15.09,11.359a4.975,4.975,0,0,0,3.251,1.138L68.6,124.955c4.537.447,9.391.835,13.4-1.34a24.218,24.218,0,0,0,23.964,4.791c3.792-1.359,7.238-3.684,11.172-4.55,9.284-2.045,20.318,4.1,27.847-1.7a13.5,13.5,0,0,0-2.871-11.514c3.518-2.966,3.261-8.364,2.7-12.932-.741-6.041-2.153-37.828-8.071-35.254C132.411,64.336,121.98,95.367,126.549,98.593Z" transform="translate(-45.936 -62.308)" fill="#fff"/>
    <path id="Path_146119" data-name="Path 146119" d="M45.936,121.979a4.975,4.975,0,0,0,3.251,1.138l18.665,1.838c4.537.447,9.391.835,13.4-1.34a24.218,24.218,0,0,0,23.964,4.791c3.792-1.359,7.238-3.684,11.172-4.55,9.284-2.044,20.318,4.1,27.847-1.7a13.5,13.5,0,0,0-2.871-11.514c3.518-2.966,3.261-8.364,2.7-12.932-.741-6.041-2.153-37.828-8.071-35.254,3.133,4.56,3.983,10.3,4.184,15.83q.267,7.3.362,14.6c.054,4.078.051,8.255-1.33,12.093-.844,2.343-2.21,4.652-1.958,7.13a6.551,6.551,0,0,1,.111,2.823,3.526,3.526,0,0,1-1.7,1.731c-7.81,4.474-18.331-1.278-26.476,2.551-3.15,1.481-5.656,4.3-9.036,5.13-3.06.751-6.245-.275-9.228-1.29l-6.974-2.372a9.936,9.936,0,0,0-4.448-.783,13.519,13.519,0,0,0-2.758.863C67.023,124.291,56.011,119.7,45.936,121.979Z" transform="translate(-45.191 -62.309)" fill="#edf6fd"/>
  </g>
</svg>
