<?xml version="1.0" encoding="UTF-8" standalone="no"?>
<!DOCTYPE svg PUBLIC "-//W3C//DTD SVG 1.1//EN" "http://www.w3.org/Graphics/SVG/1.1/DTD/svg11.dtd">
<svg width="100%" height="100%" viewBox="0 0 600 600" version="1.1" xmlns="http://www.w3.org/2000/svg" xmlns:xlink="http://www.w3.org/1999/xlink" xml:space="preserve" xmlns:serif="http://www.serif.com/" style="fill-rule:evenodd;clip-rule:evenodd;stroke-linecap:round;stroke-linejoin:round;stroke-miterlimit:1.5;">
    <g transform="matrix(1.47606,0,0,1.47606,-828.562,-502.374)">
        <g transform="matrix(1.17756,-0.219474,0.429568,2.3048,-446.215,-788.448)">
            <ellipse cx="734.262" cy="727.641" rx="26.332" ry="6.105" style="fill:rgb(238,167,62);"/>
            <path d="M734.262,721.738L734.262,720.959C748.413,720.96 757.103,723.176 760.219,725.297C764.591,728.273 760.388,732.066 746.545,733.737C732.617,735.418 714.13,733.919 708.354,729.967C704.36,727.234 707.669,723.727 719.771,721.968C726.481,720.993 732.804,721.032 734.26,721.028L734.262,721.738ZM734.262,722.045C718.519,722.096 706.896,725.361 709.473,728.529C712.09,731.745 727.562,733.931 742.502,732.757C756.176,731.683 764.578,728.023 755.563,724.814C753.435,724.057 750.449,723.387 746.792,722.903C740.925,722.127 735.637,722.125 734.262,722.111L734.262,722.045Z"/>
        </g>
        <g transform="matrix(1.235,0,0,1.235,-353.782,-424.173)">
            <path d="M860.773,928.634C860.179,929.928 861.691,934.682 870.102,935.582C894.226,938.162 903.94,928.597 903.189,927.096C901.999,924.716 869.812,921.684 867.313,922.933C865.716,923.732 862.508,924.858 860.773,928.634Z" style="fill-opacity:0.46;"/>
        </g>
        <g transform="matrix(1.13401,0.154554,-0.154554,1.13401,313.081,-36.3677)">
            <g>
                <path d="M409.11,314.541C407.508,314.483 440.461,265.182 494.483,276.075C546.011,286.465 537.359,355.177 537.359,355.177C553.189,359.703 536.947,354.477 466.5,333.374C442.455,326.172 417.59,320.195 409.11,314.541Z" style="fill:rgb(251,222,177);"/>
                <path d="M408.457,315.435C408.146,315.217 407.756,314.741 408.077,313.846C409.846,308.911 442.728,264.255 494.782,274.591C538.486,283.27 541.023,332.893 539.289,353.599C542.01,354.461 543.362,354.916 543.623,355.039C545.246,355.801 544.968,358.142 543.147,358.442C542.851,358.49 542.821,358.579 538.264,357.28C538.132,357.242 536.744,356.846 536.613,356.786C536.503,356.734 536.209,356.574 535.965,356.265C529.797,354.339 517.017,350.406 489.936,342.162C460.453,333.187 460.45,333.198 445.99,329.009C435.825,326.064 426.129,323.228 418.924,320.547C411.956,317.954 409.522,316.347 408.389,315.623L408.457,315.435ZM535.833,352.515C536.572,342.999 537.667,308.503 517.557,289.39C509.171,281.42 498.78,277.565 485.976,276.313C442.514,272.062 414.423,307.071 410.513,313.887C411.802,314.682 414.882,316.361 422.82,319.017C435.012,323.097 450.414,326.968 466.955,331.852C504.559,342.955 525.65,349.345 535.833,352.515Z"/>
                <g transform="matrix(0.950886,0.309542,-0.194072,0.596171,98.8768,0.0609224)">
                    <path d="M455.101,313.214C544.209,313.214 619.755,330.128 618.221,383.599C616.949,427.978 585.431,426.774 537.785,437.697C513.789,443.199 484.947,438.809 455.101,438.809C418.798,438.809 384.843,443.305 357.141,443.067C316.845,442.719 289.778,432.353 287.954,383.556C285.856,327.419 365.993,313.214 455.101,313.214Z" style="fill:rgb(232,198,150);"/>
                    <path d="M455.101,311.637C506.875,311.511 595.449,316.332 615.508,361.614C619.097,369.716 620.524,378.891 619.165,390.895C614.959,428.028 586.409,429.76 545.669,438.553C535.623,440.722 527.875,443.271 505.748,443.134C485.552,443.01 471.726,441.118 444.979,441.715C366.516,443.466 299.831,462.807 288.071,399.914C286.927,393.795 285.954,384.293 286.487,377.184C288.102,355.635 301.631,343.118 313.899,335.616C350.858,313.014 417.81,311.471 455.101,311.608L455.101,311.637ZM455.102,314.791L455.102,314.82C403.299,315.272 308.56,319.666 291.942,366.453C288.895,375.032 289.385,383.032 289.867,388.768C293.883,436.599 326.084,442.039 374.715,439.884C404.656,438.558 433.829,435.037 469.04,436.326C494.363,437.253 517.34,439.669 537.556,435.132C585.773,424.309 615.595,425.359 616.788,383.495C617.258,367.047 611.563,329.972 516.469,318.297C489.958,315.043 464.95,314.851 455.102,314.791Z"/>
                </g>
                <g transform="matrix(1.00379,0.245049,-0.207284,0.849094,72.8996,-52.6887)">
                    <path d="M458.843,349.706C504.956,349.706 545.897,363.891 543.106,376.61C541.116,385.683 500.915,386.239 454.802,386.239C408.688,386.239 373.822,378.652 373.874,363.593C373.903,355.163 412.729,349.706 458.843,349.706Z"/>
                    <path d="M458.843,349.516C459.488,349.517 490.364,348.918 518.273,357.722C534.36,362.796 544.986,369.749 543.401,376.764C541.359,385.806 504.375,386.722 454.801,386.688C409.548,386.657 373.483,379.316 373.573,363.534C373.624,354.719 412.441,349.657 455.612,349.506L458.843,349.5L458.843,349.516ZM458.843,349.895L458.843,349.911C410.197,350.019 375.143,355.92 374.194,363.303C374.187,363.358 374.029,364.995 374.829,366.994C379.637,379.007 410.632,385.794 454.802,385.79C498.025,385.786 538.692,385.375 542.579,377.151C542.665,376.97 543.495,375.169 542.232,372.59C539.571,367.155 529.413,361.51 514.299,357.177C488,349.637 460.976,349.906 458.843,349.895Z"/>
                </g>
            </g>
        </g>
        <g transform="matrix(1.13412,0,0,1.13412,-97.9207,-97.5934)">
            <path d="M748.722,439.984C675.34,433.575 676.867,495.893 674.254,498.372C640.496,530.388 664.434,562.797 662.169,564.156C615.735,592.016 586.824,681.846 680.738,712.156C722.715,725.704 775.174,726.651 796.668,708.594C850.17,663.649 803.02,596.525 805.813,594.056C811.154,589.333 828.252,568.686 834.004,540C846.749,476.433 800.49,444.506 748.722,439.984Z" style="fill:rgb(247,195,218);"/>
            <path d="M807.391,594.787C809.889,603.798 848.91,666.615 798.136,709.693C795.345,712.061 782.388,723.355 746.91,723.996C717.26,724.531 685.077,717.198 664.76,707.785C588.915,672.647 616.223,590.792 660.62,563.465C660.659,563.442 660.674,563.432 660.838,563.333C659.898,559.825 653.121,547.108 655.042,531.096C657.082,514.104 667.794,502.825 673.313,497.55C675.561,491.827 676.861,433.249 747.517,438.881C747.62,438.889 747.62,438.89 748.809,438.99L748.81,438.972C754.622,439.496 793.709,442.28 818.556,469.166C839.944,492.308 839.625,521.286 835.019,542.322C829.247,568.688 814.112,588.393 807.391,594.787ZM748.636,440.974C732.005,439.699 692.646,438.606 679.631,480.845C676.729,490.264 676.468,497.287 675.384,498.943C675.09,499.393 673.007,501.135 670.013,504.632C646.358,532.25 663.032,558.477 663.687,563.362C663.905,564.988 662.855,565.363 662.088,565.84C619.741,592.148 592.415,671.576 667.116,705.116C694.106,717.235 739.198,724.766 771.31,717.806C788.316,714.12 794.903,707.839 797.614,705.409C844.354,663.521 805.705,603.536 804.149,595.116C803.828,593.38 804.711,592.904 805.379,592.267C810.082,587.787 827.252,567.699 832.852,538.246C844.471,477.145 800.243,446.157 749.837,441.111C749.436,441.071 749.035,441.032 748.634,440.991L748.636,440.974Z"/>
        </g>
        <g transform="matrix(1.13412,0,0,1.13412,-97.9207,-97.5934)">
            <path d="M675.766,498.875C676.054,498.622 678.689,457.693 706.37,465.542C725.944,471.093 707.21,516.565 708.26,517.615C708.844,518.199 719.74,520.112 720.543,520.112C720.994,520.112 725.853,493.731 738.918,480.346C762.311,456.378 802.86,470.699 807.897,502.928C820.963,586.536 756.766,576.401 751.622,592.865C743.961,617.382 778.057,644.126 764.607,682.661C750.101,724.22 699.726,725.206 661.253,702.115C649.667,695.161 614.871,668.851 621.465,628.455C624.362,610.708 638.563,578.878 661.86,564.156C664.133,562.72 657.087,557.317 656.325,540C655.762,527.22 662.354,510.676 675.766,498.875Z" style="fill:white;"/>
        </g>
        <g transform="matrix(0.245103,0.0780979,-0.0780979,0.245103,606.105,-7.45992)">
            <g transform="matrix(0.396156,0.0418394,-0.0418394,0.396156,851.852,1430.95)">
                <g transform="matrix(1.77399,0,0,1.12349,-710.973,-33.3034)">
                    <path d="M873.992,245.999C925.964,266.782 916.691,347.962 900.344,414.436C895.469,434.258 911.101,454.417 913.742,472.556C916.495,491.463 911.943,513.519 914.157,536.155C917.156,566.822 946.822,581.259 941.224,646.589C937.215,693.384 906.329,700.298 906.296,723.754C906.149,827.439 881.225,842.726 862.1,844.406C805.684,849.363 804.46,778.248 808.374,702.388C809.432,681.894 799.124,656.422 798.733,634.464C798.278,608.928 806.344,581.961 804.3,552.397C798.853,473.625 743.216,458.006 746.364,412.035C750.859,346.366 811.516,335.113 816.39,306.509C827.729,239.955 857.333,239.337 873.992,245.999Z"/>
                </g>
                <g transform="matrix(1.18982,-2.03516e-16,-5.60464e-17,1.0041,-217.72,28.7466)">
                    <path d="M876.055,256.135C928.085,276.672 909.993,342.658 893.646,409.132C888.771,428.954 906.183,458.748 908.824,476.887C911.577,495.795 909.657,525.842 911.871,548.478C914.87,579.144 946.075,596.014 941.733,652.58C938.137,699.431 906.329,700.298 906.296,723.754C906.149,827.439 881.201,846.492 862.1,844.406C815.587,839.327 818.105,786.331 822.106,706.498C823.133,686.001 807.269,654.989 806.878,633.031C806.423,607.495 819.567,578.042 817.523,548.478C812.076,469.706 748.348,439.653 749.272,402.305C750.585,349.279 817.775,351.424 823.671,323.141C835.076,268.425 862.549,250.804 876.055,256.135Z" style="fill:none;stroke:white;stroke-width:18.02px;"/>
                </g>
            </g>
            <g transform="matrix(0.353212,0.0346273,-0.0346273,0.353212,770.506,1484.16)">
                <path d="M266.862,229.893C345.636,215.249 348.202,288.404 385.154,321.7C427.808,360.135 452.603,369.867 456.024,437.063C459.479,504.919 410.72,504.078 412.675,551.62C414.163,587.796 456.3,596.188 454.604,653.599C452.977,708.675 411.695,714.539 409.36,755.378C404.348,843.07 385.366,873.031 342.104,876.497C282.004,881.313 240.854,837.478 233.841,790.152C228.01,750.799 242.219,703.711 223.039,659.608C202.149,611.573 161.023,602.217 154.498,558.724C145.557,499.122 222.078,433.457 209.12,400.646C165.807,290.973 212.833,239.937 266.862,229.893Z"/>
                <g transform="matrix(0.609733,-3.96458e-17,1.42984e-16,0.858592,119.502,77.5586)">
                    <path d="M254.736,232.057C304.13,222.987 339.974,290.242 374.416,326.04C413.626,366.795 449.971,361 456.024,437.063C459.391,479.367 400.628,503.187 402.583,550.729C404.071,586.905 456.3,596.188 454.604,653.599C452.977,708.675 399.801,712.32 397.467,753.159C392.454,840.851 385.012,866.351 341.749,869.817C281.649,874.633 256.026,830.851 249.013,783.526C243.182,744.173 255.849,698.059 236.668,653.956C215.778,605.922 167.4,594.222 160.876,550.729C151.935,491.127 237.489,432.55 224.296,399.8C180.976,292.264 208.566,240.535 254.736,232.057Z" style="fill:none;stroke:white;stroke-width:29.9px;"/>
                </g>
            </g>
        </g>
        <g transform="matrix(1.235,0,0,1.235,-353.782,-424.173)">
            <path d="M852.994,677.865C849.481,678.223 844.537,681.751 845.189,683.054C845.661,683.998 870.894,688.938 897.355,699.131C943.005,716.717 975.032,735.534 975.773,734.793C976.326,734.24 979.262,731.185 973.694,727.05C959.951,716.843 927.793,700.075 923.921,698.123C898.397,685.255 855.625,675.234 852.994,677.865Z" style="fill-opacity:0.36;"/>
        </g>
        <g transform="matrix(0.937603,0.043447,-0.043447,0.937603,376.671,108.123)">
            <path d="M350.599,308.355C368.755,310.462 391.901,314.138 424.474,325.238C478.562,343.669 510.845,361.682 527.013,373.642C532.296,377.55 526.716,355.936 517.294,348.079C516.488,347.407 466.089,314.17 431.121,305.665C412.355,301.1 381.441,292.683 381.221,292.734C363.678,296.797 350.891,304.563 350.599,308.355Z" style="fill:rgb(232,198,150);"/>
            <path d="M523.469,371.375C523.46,371.369 523.449,371.362 523.453,371.368C523.616,371.588 523.868,371.766 523.94,372.03C524.148,372.805 523.787,372.799 523.843,372.832C525.276,373.655 522.502,373.249 522.382,373.232C522.191,373.204 485.804,346.222 423.192,326.659C371.677,310.563 350.884,311.321 350.741,311.261C350.444,311.136 350.077,311.113 349.851,310.883C349.842,310.875 349.48,309.977 349.482,309.971C349.608,309.673 349.633,309.308 349.863,309.081C350.353,308.598 350.427,308.709 351.115,308.712C373.637,308.794 416.234,319.575 445.391,330.54C448.119,331.566 482.824,344.165 516.065,366.242C516.666,366.641 519.872,368.77 523.469,371.375Z"/>
            <g transform="matrix(1.2145,0.108561,-0.108561,1.2145,-74.8018,-150.641)">
                <path d="M296.791,328.138C294.544,358.887 358.313,374.287 356.441,373.351C347.524,368.893 300.818,348.85 308.589,330.921C316.723,312.152 379.744,324.812 383.377,325.539C398.453,328.554 456.359,341.65 462.071,343.935C482.63,352.158 610.902,390.999 600.034,424.228C595.102,439.307 537.386,427.258 537.386,427.258C537.386,427.434 576.459,437.598 594.223,433.844C600.761,432.463 605.433,428.92 608.486,423.455C609.974,420.791 611.708,417.618 611.84,414.977C612.685,398.045 594.016,386.633 588.142,381.959C556.752,356.977 509.209,343.824 471.483,330.86C454.725,325.101 382.688,309.38 374.309,306.798C314.745,288.444 297.856,313.564 296.791,328.138Z" style="fill:rgb(251,222,177);"/>
            </g>
            <g transform="matrix(1.2145,0.108561,-0.108561,1.2145,-74.8018,-150.641)">
                <path d="M297.216,325.101C313.523,305.776 334.759,309.079 359.426,312.28C376.243,314.463 440.651,328.724 465.646,336.875C488.786,344.422 540.229,363.678 577.8,383.585C610.83,401.087 609.52,421.859 610.029,421.027C613.096,416.015 612.891,405.864 604.723,396.274C597.296,387.554 586.37,378.823 561.676,365.33C545.637,356.565 508.957,342.709 477.193,331.169C436.355,316.332 395.147,304.946 364.747,301.96C335.075,299.046 303.008,296.812 297.216,325.101Z" style="fill:rgb(248,202,75);"/>
            </g>
            <g transform="matrix(0.998928,-0.0462887,0.0462887,0.998928,73.8957,-100.597)">
                <path d="M170.398,376.996C172.143,372.051 175.254,365.795 176.539,365.122C178.537,364.075 186.482,371.901 187.872,371.796C190.669,371.586 193.229,361.433 194.964,361.382C196.413,361.339 203.42,370.885 205.549,371.004C207.985,371.14 214.882,362.345 217.122,362.925C218.771,363.352 222.229,375.664 224.763,375.614C228.022,375.549 237.412,367.683 238.303,367.665C239.037,367.651 241.249,378.512 243.239,381.058C243.933,381.947 258.195,371.949 259.907,372.59C262.211,373.452 266.251,388.623 267.89,389.181C271.2,390.309 281.912,379.768 283.315,380.578C284.606,381.324 284.638,396.527 288.581,396.449C290.307,396.415 301.16,387.531 303.771,388.401C306.628,389.352 307.097,404.111 309.295,404.951C312.865,406.314 325.614,398.404 328.407,399.964C330.629,401.205 333.314,414.867 334.45,415.153C337.253,415.858 346.94,408.304 348.953,409.274C351.564,410.533 350.991,423.098 354.807,423.566C359.356,424.124 366.659,418.505 369.974,419.634C371.856,420.275 373.199,431.336 375.22,432.5C377.517,433.824 385.206,428.701 388.025,429.34C389.448,429.663 388.665,441.362 390.881,442.438C392.862,443.4 405.357,437.809 406.234,438.359C407.507,439.157 408.069,451.803 410.334,453.105C411.641,453.855 423.142,447.086 424.648,448.241C426.344,449.542 424.231,456.63 427.992,461.442C429.607,463.508 442.517,457.919 443.47,459.567C443.919,460.344 442.153,472.229 446.023,474.405C448.695,475.908 459.579,468.19 461.063,469.462C463.051,471.167 460.485,479.936 463.404,483.671C465.996,486.988 475.899,480.103 477.358,481.165C478.194,481.774 479.466,493.032 480.705,494.23C481.261,494.768 490.66,491.599 491.581,492.195C492.4,492.725 490.147,500.126 490.745,501.807C491.056,502.681 500.717,500.103 501.736,501.408C503.384,503.516 499.912,509.828 501.155,511.418C502.372,512.975 510.444,510.877 511.088,511.521C511.994,512.426 508.111,519.432 508.549,519.822C509.298,520.49 517.701,519.503 518.161,520.47C518.746,521.697 515.305,529.512 515.505,529.864C516.034,530.795 523.635,531.165 523.707,531.918C523.78,532.686 520.544,538.795 521.001,540C521.315,540.826 524.721,542.632 524.743,543.572C524.756,544.09 521.542,549.362 521.523,548.726C521.359,543.245 519.135,538.127 517.258,533.458C515.439,528.933 512.145,524.653 509.087,520.686C505.612,516.177 502.524,513.088 498.206,509.388C490.423,502.717 485.451,498.672 479.451,494.957C463.511,485.086 447.828,475.966 432.33,465.686C424.493,460.488 390.419,442.425 382.048,437.47C372.038,431.545 359.654,425.924 349.098,421.425C334.507,415.206 321.399,409.389 306.585,403.91C297.838,400.676 288.83,397.092 280.161,394.109C261.767,387.779 243.451,381.983 224.983,376.232C220.951,374.976 208.132,372.822 205.386,372.309C198.948,371.106 190.963,371.333 186.749,371.938C179.67,372.955 177.287,373.362 170.398,376.996Z" style="fill:rgb(239,76,3);"/>
            </g>
        </g>
        <g transform="matrix(1.12561,0.19754,-0.242539,1.38203,32.422,-369.11)">
            <ellipse cx="717.377" cy="518.076" rx="12.743" ry="4.113" style="fill:rgb(238,167,62);"/>
            <path d="M717.377,513.735L717.377,513.726C717.434,513.726 723.293,513.513 727.527,515.131C733.03,517.233 731.314,521.004 723.027,522.33C713.866,523.795 702.97,521.266 704.199,517.551C704.915,515.386 710.047,513.654 717.376,513.735C717.376,513.735 717.376,513.735 717.377,513.735ZM717.377,514.191C716.961,514.2 711.364,514.219 707.47,515.909C704.262,517.301 705.283,518.597 705.46,518.822C707.436,521.328 717.236,522.453 724.326,520.96C728.772,520.025 731.627,518.066 727.599,516.101C726.612,515.619 725.188,515.149 723.359,514.798C720.492,514.246 717.932,514.214 717.377,514.198L717.377,514.191Z"/>
        </g>
        <g transform="matrix(-1.51268,-0.243385,-0.139465,0.866804,2062.29,257.24)">
            <path d="M785.591,586.149C778.246,582.893 757.366,564.432 742.782,553.873C735.289,548.447 736.585,561.033 735.925,564.012C733.796,573.62 731.127,589.726 732.107,593.327C739.438,620.293 753.631,649.316 775.219,651.197" style="fill:rgb(247,195,218);"/>
            <path d="M775.608,651.231C775.456,651.05 775.39,650.699 775.239,650.518C775.127,650.385 768.86,650.42 761.258,644.708C747.67,634.496 738.461,612.784 733.161,593.22C733.12,593.066 732.296,592.215 733.766,581.873C735.036,572.93 736.92,564.52 736.973,564.173C737.416,561.291 736.945,555.015 739.132,554.325C740.548,553.879 742.44,555.433 744.502,556.927C758.689,567.207 778.142,583.601 785.509,586.703C785.754,586.806 785.693,586.512 785.908,586.29C785.804,586.091 785.776,585.793 785.672,585.594C785.597,585.452 784.253,585.327 776.815,579.52C766.977,571.839 753.547,559.994 743.149,552.32C742.179,551.603 737.177,547.796 735.652,556.081C735.132,558.908 735.176,562.408 734.963,563.381C732.573,574.28 730.154,589.253 731.146,593.757C731.155,593.8 732.735,599.827 735.262,606.852C744.178,631.641 757.622,650.571 774.945,651.857C775.181,651.875 775.181,651.892 775.199,651.875C775.444,651.643 775.362,651.463 775.608,651.231Z"/>
        </g>
        <g transform="matrix(1.235,0,0,1.235,-353.782,-424.173)">
            <path d="M821.976,915.36C822.013,915.052 893.12,927.575 937.962,889.058C953.818,875.439 957.145,852.515 957.422,852.158C975.779,828.46 970.072,805.872 969.486,805.286C968.784,804.584 953.722,835.498 937.358,852.501C897.859,893.542 823.674,915.36 821.976,915.36Z" style="fill-opacity:0.52;"/>
        </g>
        <g transform="matrix(1.235,0,0,1.235,-353.782,-424.173)">
            <path d="M813.796,779.704C790.047,797.116 780.702,812.212 779.271,823.402C778.968,825.778 774.233,869.844 812.471,915.899C813.916,917.64 909.281,914.937 941.312,865.524C956.764,841.687 973.258,795.052 972.093,795.378C967.247,796.737 952.558,802.319 950.836,801.909C908.826,791.894 859.548,808.471 836.294,800.833C825.058,797.142 813.621,779.88 813.796,779.704Z" style="fill:rgb(45,45,47);"/>
            <path d="M813.82,779.708L813.93,779.692C814.546,780.928 825.521,797.2 836.64,800.695C859.858,807.993 908.587,791.594 950.469,801.254C950.875,801.348 950.929,801.636 954.367,800.619C959.616,799.067 971.427,794.738 972.13,794.769C972.306,794.777 972.792,794.906 972.755,795.585C972.55,799.326 953.774,850.884 938.707,870.467C904.472,914.963 817.499,918.227 812.453,916.672C812.408,916.658 812.105,916.564 811.94,916.367C799.728,901.754 792.994,887.773 792.7,887.191C776.145,854.424 777.987,827.154 778.823,822.239C782.279,801.922 808.005,783.3 813.47,779.259L813.778,779.68C813.784,779.681 813.79,779.681 813.797,779.681C813.806,779.682 813.817,779.689 813.818,779.699C813.819,779.703 813.819,779.706 813.82,779.708ZM813.948,780.279C808.713,784.159 782.894,803.005 779.953,822.965C779.332,827.184 775.687,869.417 811.693,913.837L812.916,915.328C819.27,916.727 908.734,912.764 940.137,865.982C949.281,852.36 959.02,829.052 959.401,828.158C965.757,813.251 970.521,799.823 971.405,796.215C964.616,798.285 952.598,802.889 950.718,802.45C939.001,799.712 924.987,798.064 900.293,799.741C874.402,801.499 850.012,805.828 835.953,800.968C826.045,797.543 815.788,783.363 813.948,780.279ZM813.824,779.72C813.83,779.728 813.839,779.728 813.851,779.734L813.824,779.72Z"/>
            <path d="M813.934,781.181C803.771,788.536 798.343,793.994 792.713,800.182C779.167,815.072 779.986,828.381 780.105,828.249C806.969,798.538 820.074,795.301 820.074,795.301C820.074,795.301 802.734,807.598 795.501,834.666C791.158,850.917 792.583,891.224 792.583,891.224C792.583,891.224 810.709,867.44 818.422,854.606C826.215,841.639 839.342,813.421 839.342,813.421C839.342,813.421 839.279,913.296 840.691,911.233C880.526,853.073 885.908,812.256 885.908,812.256C885.908,812.256 901.92,890.532 905.023,893.635C905.107,893.719 923.173,807.568 924.867,805.875C925.13,805.612 947.318,845.842 949.462,845.842C950.127,845.842 958.267,829.083 959.42,813.596C959.807,808.387 953.758,803.183 953.375,802.8C952.08,801.505 930.076,794.642 885.371,801.236C871.813,803.236 851.266,803.949 837.665,801.682C827.782,800.035 814.117,781.048 813.934,781.181Z" style="fill:rgb(168,169,173);"/>
            <path d="M816.813,797.276C810.771,800.323 798.861,808.406 781.089,827.882C780.477,828.552 780.51,828.594 780.3,828.688C780.27,828.701 779.673,828.911 779.601,828.167C779.422,826.317 779.806,813.672 792.399,799.896C798.616,793.095 803.843,788.017 813.713,780.878C813.947,780.709 813.954,780.916 814.238,780.961L814.154,781.485C808.775,785.405 801.458,790.952 792.561,800.988C782.192,812.685 780.639,823.33 780.543,827.05C784.369,822.785 802.017,803.55 816.34,796.268C818.283,795.281 819.835,794.715 820.123,794.741C820.604,794.783 820.844,795.416 820.403,795.757C818.976,796.862 818.969,796.851 817.633,798.066C812.222,802.986 801.507,814.825 796.198,834.515C792.443,848.443 792.973,879.216 793.233,889.183C814.572,860.782 819.011,852.141 820.278,849.859C826.235,839.122 834.188,822.583 838.476,813.406C838.497,813.361 838.683,812.963 838.776,812.867C839.258,812.375 840.128,812.703 840.134,813.421C840.15,815.136 840.117,895.162 841.144,909.128C847.591,899.655 870.341,865.501 881.574,827.393C881.923,826.211 884.277,818.223 885.146,812.414C885.146,812.409 885.141,811.715 885.706,811.553C886.093,811.443 886.531,811.677 886.624,812.109C886.624,812.112 900.446,880.012 904.798,891.713C907.818,877.91 922.536,808.481 924.389,805.646C924.589,805.34 925.014,805.165 925.373,805.66C926.859,807.702 945.857,842.129 949.377,845.272C951.062,842.82 957.944,827.644 959.017,813.567C959.409,808.427 953.112,803.124 953.107,803.075C953.089,802.894 953.122,802.71 953.104,802.529C953.277,802.578 953.47,802.477 953.643,802.526C953.718,802.547 954.719,803.553 954.81,803.645C959.885,808.744 959.819,812.572 959.82,812.592C959.908,813.805 959.484,818.245 958.301,823.49C955.71,834.98 950.726,845.546 949.764,846.199C949.224,846.566 948.534,846.282 945.017,840.837C938.769,831.165 927.642,811.327 924.973,806.965C921.856,816.412 905.856,893.349 905.605,893.898C905.512,894.1 904.935,894.712 904.332,893.782C903.884,893.092 901.844,890.487 890.078,835.61C888.897,830.103 887.415,823.107 885.96,816.114C883.675,827.295 874.341,863.283 841.828,911.011C841.781,911.08 841.294,911.794 841.219,911.86C840.926,912.118 839.982,912.393 839.72,911.114C839.5,910.04 838.724,904.959 838.564,836.524C838.561,835.019 838.521,817.932 838.547,817.709C838.593,817.327 838.658,816.948 838.732,816.571C823.264,849.244 817.733,857.183 816.632,858.883C808.155,871.984 793.181,891.634 793.07,891.739C792.645,892.14 791.905,891.876 791.875,891.247C791.874,891.232 790.744,858.053 793.791,839.713C793.814,839.575 794.545,834.018 797.729,825.808C803.617,810.628 812.337,801.332 816.813,797.276Z" style="fill:rgb(254,253,244);"/>
        </g>
        <g transform="matrix(0.0622676,0.879871,-1.19611,0.0846479,1461.97,250.903)">
            <ellipse cx="402.932" cy="722.806" rx="39.981" ry="19.367" style="fill:rgb(238,167,62);"/>
            <path d="M402.932,702.495C404.501,702.491 421.754,702.073 434.814,709.535C450.071,718.254 447.749,732.174 428.183,739.571C409.522,746.626 382.06,744.904 368.098,734.69C355.66,725.59 359.429,712.58 378.672,706.03C389.788,702.246 400.77,702.464 402.932,702.478L402.932,702.495ZM402.932,704.376L402.932,704.394C400.386,704.458 385.421,704.56 373.823,711.18C360.588,718.733 362.261,729.98 378.945,736.418C396.979,743.377 424.163,741.263 436.103,731.473C445.543,723.732 441.23,713.54 425.03,707.922C415.025,704.453 405.117,704.422 402.932,704.376Z"/>
        </g>
        <g transform="matrix(2.28732,0,0,1.34236,-1189.88,-521.97)">
            <path d="M790.209,861.538C793.488,861.538 797.592,869.544 797.601,885.732C797.609,899.637 795.592,910.383 791.547,909.977C788.274,909.648 783.024,899.103 783.024,885.198C783.024,871.293 786.93,861.538 790.209,861.538Z" style="fill-opacity:0.43;"/>
        </g>
        <g transform="matrix(1.235,0,0,1.235,-353.782,-424.173)">
            <path d="M878.524,746.389C843.941,741.676 854.81,784.754 851.974,782.286C845.072,776.282 831.857,771.24 819.001,770.52C814.863,770.289 807.818,771.915 809.609,779.077C811.298,785.834 813.525,787.532 819.076,790.704C830.338,797.14 849.597,803.526 861.689,794.889C870.547,788.562 874.874,775.587 876.147,765.403C876.798,760.189 878.524,751.348 878.524,746.389Z" style="fill-opacity:0.5;"/>
        </g>
        <g transform="matrix(1.235,0,0,1.235,-353.782,-424.173)">
            <path d="M974.076,739.088C974.038,738.916 967.954,739.772 961.636,744.562C953.142,751.003 951.021,762.188 952.717,770.668C953.713,775.648 958.354,784.115 961.329,788.075C962.591,789.754 970.653,777.26 973.427,762.552C975.518,751.464 974.076,740.261 974.076,739.088Z" style="fill-opacity:0.52;"/>
        </g>
        <g transform="matrix(1.235,0,0,1.235,-353.782,-424.173)">
            <path d="M953.56,801.566C953.464,801.307 953.681,801.524 954.007,801.554C953.981,801.713 953.988,801.875 953.962,802.033C953.958,802.06 953.855,802.109 953.834,802.121C952.465,802.878 941.266,803.005 936.853,804.417C934.619,805.131 933.026,808.287 932.937,808.355C932.878,808.4 932.784,808.374 932.726,808.418C932.732,808.345 932.657,808.28 932.663,808.207C932.663,808.204 933.021,807.465 933.362,806.884C935.015,804.07 936.379,803.631 938.509,803.065C944.647,801.434 951.915,802.063 953.531,801.514L953.56,801.566Z"/>
        </g>
        <g transform="matrix(1.11787,-0.19128,0.19128,1.11787,-93.5979,70.9709)">
            <g transform="matrix(0.982059,-0.188572,0.175139,0.912099,-93.025,191.144)">
                <path d="M756.001,558.132C753.781,560.296 750.959,568.339 747.036,578.317C746.75,579.046 758.785,585.127 759.54,584.099C763.531,578.663 770.116,565.86 771.288,565.886C795.916,566.427 812.29,518.24 784.845,508.711C761.631,500.651 739.684,534.759 756.001,558.132Z" style="fill:rgb(250,218,26);"/>
                <path d="M754.552,557.928C752.562,554.935 746.929,545.194 750.258,531.481C754.458,514.177 770.936,500.607 787.675,508.341C803.28,515.552 803.541,536.769 794.331,552.187C791.611,556.74 788.09,560.68 784.052,563.394C778.4,567.191 773.501,567.359 771.681,567.353C769.715,569.609 764.023,580.337 760.552,584.994C759.86,585.923 758.63,586.016 753.832,583.823C752.03,582.999 747.048,580.562 746.121,579.357C746.048,579.261 745.549,578.614 745.851,577.83C746.864,575.202 748.991,569.827 749.266,569.132C751.828,562.656 753.223,559.654 754.552,557.928ZM756.707,558.972L756.803,559.086C756.852,559.144 756.172,559.294 754.312,563.414C752.857,566.638 751.582,570.117 748.55,577.949C750.753,579.435 756.684,582.304 758.842,582.755C763.607,575.868 768.449,565.859 770.469,564.659C771.262,564.188 771.888,564.642 774.621,564.173C796.181,560.479 809.324,517.387 783.415,509.725C761.754,503.319 741.703,535.287 756.659,557.187C756.691,557.234 757.224,557.811 756.992,558.512C756.973,558.57 756.953,558.63 756.921,558.681C756.825,558.837 756.804,558.816 756.707,558.972Z"/>
            </g>
            <path d="M739.068,537.966C763.261,537.649 779.457,547.391 779.298,547.733C776.044,554.722 766.14,563.194 755.361,560.557C742.605,557.437 739.068,543.478 739.068,537.966Z" style="fill:rgb(144,186,35);"/>
            <path d="M748.304,557.209C749.329,554.574 762.572,557.926 762.097,561.748C761.993,562.581 757.083,577.263 754.784,579.411C754.129,580.023 747.79,578.702 743.609,576.938C742.948,576.659 746.255,562.473 748.304,557.209Z" style="fill:rgb(78,41,24);"/>
            <path d="M748.103,557.13L748.071,557.118C748.294,556.682 748.779,555.884 751.645,556.039C755.597,556.253 762.75,558.696 762.37,561.786C762.242,562.829 757.097,577.962 754.943,579.647C754.92,579.665 754.59,580.213 750.666,579.38C746.818,578.562 743.535,577.248 743.397,577.104C743.331,577.034 742.9,576.981 744.173,571.19C744.654,568.998 745.297,566.394 745.949,564.001C747.236,559.28 748.005,557.392 748.103,557.13ZM748.505,557.287C746.422,562.83 743.654,574.87 743.8,576.734C744.237,576.916 746.376,577.79 749.529,578.555C752.893,579.371 754.429,579.344 754.594,579.203C756.603,577.481 761.82,562.452 761.834,561.565C761.885,558.262 750.319,555.182 748.645,557.11C748.595,557.167 748.566,557.23 748.532,557.297L748.505,557.287Z"/>
            <path d="M744.172,519.737C771.597,521.783 783.311,529.705 783.939,529.078C784.228,528.788 783.756,513.779 770.625,509.287C756.675,504.514 746.847,515.418 744.172,519.737Z" style="fill:rgb(239,76,3);"/>
            <path d="M759.194,511.509C755.732,512.459 751.111,516.549 747.032,522.08C742.286,528.516 742.355,535.073 742.909,536.392C743.788,538.485 746.824,538.167 747.179,536.684C750.789,521.631 760.231,517.499 761.674,515.801C763.232,513.968 762.173,510.692 759.194,511.509Z" style="fill:white;fill-opacity:0.63;"/>
            <g transform="matrix(0.985674,0.16866,-0.16866,0.985674,7.48322,-146.232)">
                <path d="M869.544,573.129C866.039,571.802 846.541,570.737 847.304,584.782C847.588,590.001 863.976,608.37 869.544,605.061C878.768,599.579 877.009,575.955 869.544,573.129Z" style="fill:rgb(247,195,218);"/>
                <path d="M869.861,572.291L869.863,572.286C870.751,572.654 874.424,574.176 876.128,582.541C877.849,590.983 876.378,602.192 870.066,605.946C864.362,609.337 851.651,595.716 847.75,588.752C846.305,586.171 846.202,584.999 846.316,583.146C847.111,570.27 865.122,570.658 869.861,572.291ZM869.222,573.968C869.174,573.964 868.785,573.744 867.099,573.522C861.256,572.751 847.521,573.634 848.3,584.768C848.56,588.469 859.131,601.2 865.936,603.948C868.286,604.898 869.051,604.219 869.751,603.683C877.328,597.879 875.732,577.225 869.571,574.124C869.471,574.073 869.472,574.077 869.221,573.97L869.222,573.968Z"/>
            </g>
        </g>
        <g transform="matrix(1.08817,0.319551,-0.319551,1.08817,75.479,-296.521)">
            <g transform="matrix(0.982059,-0.188572,0.175139,0.912099,-93.025,191.144)">
                <path d="M756.001,558.132C753.781,560.296 750.959,568.339 747.036,578.317C746.75,579.046 758.785,585.127 759.54,584.099C763.531,578.663 770.116,565.86 771.288,565.886C795.916,566.427 812.29,518.24 784.845,508.711C761.631,500.651 739.684,534.759 756.001,558.132Z" style="fill:rgb(250,218,26);"/>
                <path d="M771.681,567.353C769.715,569.609 764.023,580.337 760.552,584.994C759.86,585.923 758.63,586.016 753.832,583.823C752.03,582.999 747.048,580.562 746.121,579.357C746.048,579.261 745.549,578.614 745.851,577.83C746.864,575.202 748.991,569.827 749.266,569.132C752.002,562.218 753.299,559.556 754.554,557.931C752.565,554.94 746.928,545.198 750.258,531.481C754.458,514.177 770.936,500.607 787.675,508.341C803.28,515.552 803.541,536.769 794.331,552.187C791.611,556.74 788.09,560.68 784.052,563.394C778.4,567.191 773.501,567.359 771.681,567.353ZM756.707,558.972L756.803,559.086C754.877,561.127 752.657,567.33 748.55,577.949C750.753,579.435 756.684,582.304 758.842,582.755C763.607,575.868 768.449,565.859 770.469,564.659C771.262,564.188 771.888,564.642 774.621,564.173C796.181,560.479 809.324,517.387 783.415,509.725C761.754,503.319 741.703,535.287 756.659,557.187C756.691,557.234 757.224,557.811 756.992,558.512C756.973,558.57 756.953,558.63 756.921,558.681C756.824,558.838 756.803,558.817 756.707,558.972Z"/>
            </g>
            <g transform="matrix(1.03109,5.55112e-17,-1.15403e-16,1.03597,-23.3911,-19.6692)">
                <path d="M739.619,538.054C763.812,537.737 778.836,547.022 778.668,547.36C777.39,549.946 775.302,553.386 772.112,555.902C767.817,559.289 761.041,561.897 754.856,560.384C746.695,558.388 743.016,551.773 741.047,546.239C739.938,543.123 739.619,540.039 739.619,538.054Z" style="fill:rgb(144,186,35);"/>
            </g>
            <g transform="matrix(1,0,-5.55112e-17,0.995617,0,2.5359)">
                <path d="M748.304,557.209C749.269,554.552 763.404,557.675 762.04,561.049C761.889,561.423 760.287,565.627 758.582,569.732C756.743,574.157 754.328,578.379 754.049,578.518C753.247,578.919 748.897,578.139 744.717,576.375C744.362,576.225 744.286,571.79 745.252,567.196C746.086,563.232 747.526,559.349 748.304,557.209Z" style="fill:rgb(78,41,24);"/>
                <path d="M748.101,557.134L748.074,557.124C748.249,556.716 748.797,555.694 752.672,556.023C756.821,556.376 763.293,558.51 762.314,561.106C762.282,561.192 759.593,568.187 758.313,571.085C756.744,574.637 754.616,578.522 754.185,578.766C753.322,579.254 748.788,578.391 744.606,576.615C744.567,576.598 744.15,576.677 744.223,573.759C744.385,567.239 746.483,561.573 748.101,557.134ZM748.531,557.292C748.342,557.224 748.466,557.394 748.396,557.587C746.948,561.593 745.625,565.575 745.06,569.77C744.628,572.971 744.685,575.584 744.881,576.157C745.487,576.403 748.216,577.495 751.019,578.052C753.141,578.473 753.667,578.343 753.898,578.275C754.129,577.963 756.107,574.988 758.636,568.852C760.064,565.388 761.512,561.64 761.783,560.948C762.894,558.116 750.588,555.178 748.696,557.048C748.622,557.121 748.58,557.201 748.531,557.292Z"/>
            </g>
            <g transform="matrix(1.03578,5.74973e-17,1.68322e-16,1.04981,-27.1577,-26.3418)">
                <path d="M745.008,519.694C772.432,521.74 782.312,529.444 782.94,528.817C783.229,528.527 782.51,514.027 770.364,510.107C757.426,505.931 747.341,515.409 745.008,519.694Z" style="fill:rgb(239,76,3);"/>
            </g>
            <path d="M759.194,511.509C755.732,512.459 751.111,516.549 747.032,522.08C742.286,528.516 742.355,535.073 742.909,536.392C743.788,538.485 746.824,538.167 747.179,536.684C750.789,521.631 760.231,517.499 761.674,515.801C763.232,513.968 762.173,510.692 759.194,511.509Z" style="fill:white;fill-opacity:0.63;"/>
            <g transform="matrix(-1.17543,-0.665912,-0.381584,0.673549,1835.83,686.973)">
                <path d="M777.239,653.386C798.342,618.976 789.177,590.807 780.078,582.807C765.094,569.634 731.79,542.142 727.979,546.99C721.116,555.719 738.184,649.983 777.239,653.386Z" style="fill:rgb(247,195,218);"/>
                <path d="M777.484,653.781C780.18,649.392 792.813,629.572 790.456,605.706C789.328,594.289 785.04,585.64 780.453,581.51C770.914,572.921 735.857,542.57 728.536,544.787C727.952,544.964 726.651,545.509 725.937,549.529C722.484,568.978 740.48,651.116 776.989,654.046C777.012,654.048 777.248,654.067 777.282,654.06C777.376,654.042 777.369,654.014 777.505,653.882L777.484,653.781ZM777.175,652.697C772.828,652.189 755.804,650.159 740.778,614.165C729.477,587.095 725.64,555.516 728.254,548.973C728.493,548.375 728.679,548.202 729.317,548.184C732.94,548.081 743.162,554.767 757.091,565.578C767.499,573.656 779.404,583.75 780.514,584.858C785.432,589.767 790.332,600.994 789.338,616.297C788.219,633.537 780.177,647.62 777.175,652.697Z"/>
            </g>
            <g transform="matrix(1.04483,-0.306826,0.306826,1.04483,-394.877,-1.34918)">
                <path d="M783.183,815.699C783.183,815.699 775.457,789.233 798.166,775.894C813.609,766.823 829.863,779.695 833.695,782.286C833.972,782.473 820.266,784.635 803.884,794.746C787.927,804.595 783.183,815.699 783.183,815.699Z" style="fill:rgb(45,45,47);"/>
                <path d="M783.051,815.738L782.653,815.853C781.224,810.656 777.006,787.579 797.804,775.276C813.557,765.958 830.188,778.988 833.912,781.568C834.115,781.709 834.142,781.678 834.282,781.878C834.318,781.929 834.784,782.746 833.709,783.054C832.487,783.405 818.973,786.064 803.757,795.369C789.592,804.031 784.408,813.638 783.613,815.141C783.613,815.142 783.612,815.143 783.611,815.144C783.657,815.334 783.692,815.469 783.711,815.545L783.363,815.646C783.258,815.847 783.177,815.918 783.051,815.738ZM783.509,814.702C785.003,811.79 790.43,802.689 803.639,794.349C816.604,786.164 827.993,783.05 832.046,782.007C826.357,778.054 812.09,768.58 798.529,776.511C778.644,788.141 782.446,809.982 783.509,814.702Z"/>
            </g>
        </g>
    </g>
</svg>
